<svg width="39" height="50" viewBox="0 0 39 50" fill="none" xmlns="http://www.w3.org/2000/svg">
<g clip-path="url(#clip0_1796_21055)">
<path d="M38.9649 0H0.0407156C0.0214943 0.0283139 0.0096223 0.0628567 0.0096223 0.100231C-0.00338033 9.62218 1.16567e-05 17.8598 0.00227298 26.5901C0.00340365 30.4782 0.00509964 34.4642 0.00509964 38.7039C-0.0186443 43.0467 3.98108 44.4539 5.11627 44.4652C7.49857 44.4652 10.2947 44.4539 12.0037 44.4477C12.7556 44.4443 13.2972 44.4426 13.5001 44.4426C15.5116 44.4426 18.9432 45.143 19.3214 49.8233C19.3214 49.8352 19.3225 49.8471 19.3248 49.8579C19.3332 49.9094 19.3632 49.9496 19.405 49.9739C19.4322 49.9909 19.4638 50.0006 19.4977 50.0006C19.5865 50.0006 19.6606 49.9349 19.673 49.8488C19.6736 49.8437 19.6741 49.8386 19.6747 49.8335C19.6747 49.8318 19.6747 49.8301 19.6747 49.8279C20.0546 45.1374 23.4862 44.4369 25.4982 44.4369C25.7011 44.4369 26.2422 44.4392 26.994 44.442C28.7036 44.4488 31.5003 44.4595 33.8849 44.4595C35.0189 44.4482 39.0187 43.041 38.9955 38.6994C38.9955 34.501 38.9972 30.5523 38.9977 26.7011C39.0006 17.9272 39.0034 9.65786 38.9904 0.094002C38.9904 0.0594591 38.9802 0.0277476 38.9633 0.000566277L38.9649 0Z" fill="#1A1A18"/>
<path fill-rule="evenodd" clip-rule="evenodd" d="M38.9977 26.7011L38.9978 26.4403C39.0006 17.7631 39.0033 9.56305 38.9904 0.094002C38.9904 0.0893123 38.9902 0.0846748 38.9898 0.0800937C38.9896 0.0773464 38.9893 0.0746195 38.989 0.0719138C38.989 0.0719112 38.989 0.0719164 38.989 0.0719138C38.986 0.0488252 38.9785 0.0272736 38.9676 0.00784438C38.9676 0.00784165 38.9676 0.00784712 38.9676 0.00784438C38.9667 0.00633077 38.9658 0.00482179 38.9649 0.00333412C38.9644 0.00240639 38.9638 0.00148375 38.9633 0.000566277L38.9649 0H0.0407156C0.0214943 0.0283139 0.0096223 0.0628567 0.0096223 0.100231C-0.00246797 8.95404 -0.000383642 16.6975 0.00178632 24.759C0.00195007 25.3674 0.00211431 25.9775 0.00227298 26.5901C0.00253406 27.4879 0.00282527 28.3908 0.00311878 29.301C0.00409644 32.3324 0.00509964 35.4431 0.00509964 38.7039C-0.0186443 43.0467 3.98108 44.4539 5.11627 44.4652C7.26448 44.4652 9.74918 44.456 11.4698 44.4496C11.6573 44.4489 11.8358 44.4483 12.0037 44.4477C12.7556 44.4443 13.2972 44.4426 13.5001 44.4426C15.4144 44.4426 18.6147 45.077 19.2456 49.1721C19.2655 49.3013 19.2829 49.4339 19.2975 49.57C19.3055 49.6437 19.3126 49.7183 19.3189 49.7941C19.319 49.7953 19.3192 49.7965 19.3193 49.7977C19.3193 49.7981 19.3193 49.7986 19.3194 49.7991C19.3197 49.8026 19.32 49.8061 19.3202 49.8097C19.3206 49.8142 19.321 49.8188 19.3214 49.8233C19.3214 49.8248 19.3214 49.8263 19.3214 49.8279C19.3215 49.8297 19.3215 49.8316 19.3216 49.8335C19.3221 49.8419 19.3231 49.8502 19.3248 49.8579C19.3332 49.9094 19.3632 49.9496 19.405 49.9739C19.4322 49.9909 19.4638 50.0006 19.4977 50.0006C19.5865 50.0006 19.6606 49.9349 19.673 49.8488L19.6747 49.8335V49.8279C19.6748 49.8263 19.6749 49.8248 19.6751 49.8233C19.6757 49.8155 19.6763 49.8077 19.677 49.7999C19.6771 49.7981 19.6773 49.7963 19.6774 49.7945C19.6778 49.7909 19.6781 49.7872 19.6784 49.7835C19.6845 49.7118 19.6914 49.6411 19.6989 49.5713C19.7137 49.4347 19.7311 49.3017 19.7511 49.1722C20.3846 45.071 23.5839 44.4369 25.4982 44.4369C25.6601 44.4369 26.0371 44.4383 26.5648 44.4404C26.6985 44.4409 26.842 44.4414 26.994 44.442C28.7036 44.4488 31.5003 44.4595 33.8849 44.4595C35.0189 44.4482 39.0187 43.041 38.9955 38.6994C38.9955 36.1206 38.9961 33.6361 38.9967 31.2104C38.9971 29.687 38.9975 28.1868 38.9977 26.7011ZM33.882 43.9595C34.325 43.9542 35.5019 43.6467 36.565 42.8104C37.6028 41.9939 38.5061 40.6946 38.4955 38.702L38.4955 38.6994C38.4955 36.1205 38.4961 33.6358 38.4967 31.2101C38.4971 29.6867 38.4975 28.1866 38.4977 26.701L38.4978 26.4399C38.5006 17.8868 38.5032 9.79772 38.4909 0.5H0.509085C0.497595 9.18749 0.499649 16.8187 0.501786 24.7589C0.50195 25.3672 0.502114 25.9774 0.502273 26.59C0.502534 27.4877 0.502825 28.3907 0.503119 29.3008C0.504096 32.3323 0.5051 35.4431 0.5051 38.7039V38.7066C0.494195 40.6998 1.39746 41.9993 2.43526 42.8159C3.49832 43.6523 4.6755 43.9599 5.11918 43.9652C7.26513 43.9652 9.74664 43.956 11.4666 43.9496C11.6544 43.9489 11.8332 43.9483 12.0014 43.9477C12.7532 43.9443 13.2959 43.9426 13.5001 43.9426C14.5515 43.9426 16.025 44.1235 17.2978 44.96C18.2537 45.5882 19.0595 46.562 19.4985 48.0182C19.938 46.5599 20.7437 45.5849 21.6995 44.9558C22.9727 44.1178 24.4465 43.9369 25.4982 43.9369C25.6611 43.9369 26.0397 43.9383 26.5676 43.9404C26.7012 43.9409 26.8443 43.9414 26.9959 43.942C28.7049 43.9488 31.4992 43.9595 33.882 43.9595Z" fill="#FFEC00"/>
<path d="M32.4921 13.1478L33.0083 12.5952L33.1163 12.7735L34.4349 10.7208L32.4734 12.2316L32.6589 12.3058L31.8713 13.1495L28.01 13.1563H28.0038C27.4564 13.1869 26.9679 13.4032 26.5506 13.8002C25.9665 13.726 25.314 13.7039 24.6095 13.7351C24.393 13.7447 24.251 13.6569 24.1012 13.5641C24.0622 13.5397 24.0215 13.5142 23.9802 13.4916C23.4306 13.1903 22.8505 13.1524 22.1624 13.3755C22.1341 13.2736 22.112 13.1275 22.1013 13.0561C22.0911 12.9768 22.0838 12.8936 22.0764 12.8132C22.0764 12.8109 22.0764 12.8086 22.0759 12.8064C22.1267 12.8052 22.1799 12.8098 22.241 12.8205L22.3026 12.8319L22.3444 12.7849C22.4078 12.7141 22.4451 12.6727 22.4818 12.6308C22.5191 12.5889 22.5565 12.547 22.6204 12.4762C22.6792 12.4111 22.6701 12.3256 22.6526 12.2594L22.6577 12.2582C22.7922 12.2209 22.8906 12.1591 22.9574 12.0714L22.9658 12.0583C23.0512 11.906 23.1937 11.769 23.3447 11.6234L23.4057 11.564V11.5164C23.4069 11.4445 23.3701 11.3788 23.2972 11.3199L23.27 11.2978L23.235 11.295C23.1179 11.2865 22.9856 11.2803 22.8488 11.3046C22.8454 11.2638 22.8426 11.2242 22.8392 11.1857C22.8007 10.6874 22.7753 10.3578 22.4807 10.1687C22.0086 9.86514 21.5127 9.83513 21.0451 9.85268C20.8992 9.7734 20.7618 9.77793 20.6369 9.8657L20.6278 9.8725C20.5238 9.96197 20.4152 10.0656 20.3344 10.2615L20.3208 10.2898C20.2818 10.3731 20.2659 10.4076 20.1856 10.4897C20.0126 10.6483 19.8481 10.8839 19.7514 11.0521C19.7163 11.1126 19.7237 11.1891 19.7684 11.2423C19.7831 11.2599 19.7995 11.278 19.8153 11.2961C19.8272 11.3091 19.8385 11.3222 19.8498 11.3352L19.8176 11.5651L19.7774 11.5572L19.7333 11.7633C19.709 11.7661 19.6847 11.7707 19.6592 11.7786L19.6361 11.786L19.618 11.8024C19.4941 11.9145 19.5037 12.2276 19.5467 12.3256L19.5518 12.3375L19.5597 12.3477C19.6202 12.4298 20.0573 12.6331 20.2902 12.7328C20.2478 12.8568 20.2337 12.9015 20.2201 12.9446C20.2071 12.9853 20.1941 13.0278 20.1545 13.1427C20.0782 13.1122 20.0041 13.0759 19.9284 13.0318C19.8147 12.9559 19.7101 12.8585 19.5993 12.7554C19.3369 12.5114 19.0401 12.2344 18.5397 12.1891C18.1778 12.1603 17.8222 12.2543 17.6825 12.2973C17.2935 12.2022 16.779 12.1818 16.2265 12.2395C15.9744 12.239 15.8958 12.1059 15.7957 11.9377C15.7731 11.8998 15.7499 11.8607 15.725 11.8245C15.5017 11.4841 15.2195 11.2265 14.7762 10.8697C14.5116 10.6568 14.2973 10.355 14.0904 10.0633C14.0632 10.0254 14.0367 9.98745 14.0089 9.94951L14.0169 9.94328L14.0265 9.92913C14.178 9.70941 14.1763 9.51574 14.1497 9.39456L14.1882 9.37191C14.5648 9.15163 15.1036 8.78978 15.4372 8.19405C15.8952 7.48394 16.1101 7.44261 16.4991 7.36729L16.5443 7.35823C17.0724 7.29934 17.4665 7.42845 17.9647 7.5921C18.097 7.63571 18.2344 7.68044 18.3825 7.72461C19.6315 8.09666 20.5933 7.99756 21.4098 7.41203C21.537 7.32086 21.5427 7.17023 21.4833 7.07509C21.4222 6.97656 21.3052 6.94428 21.2057 6.99808C20.5249 7.36672 19.9255 7.47885 19.2629 7.36163C18.8156 7.28291 18.4475 7.15267 18.0913 7.02639C17.7583 6.90861 17.4439 6.79762 17.0815 6.73023C16.9842 6.71154 15.7878 6.50145 15.2048 7.39164C15.1307 7.50546 15.0606 7.61985 14.9934 7.73027C14.7169 8.18386 14.4551 8.61253 13.927 8.90303C13.8161 8.74674 13.6148 8.77732 13.5018 8.79487C13.3757 8.80846 13.2524 8.85886 13.1687 8.92908C13.167 8.92795 13.1648 8.92682 13.1631 8.92568L13.1433 8.91606C13.1303 8.91153 13.0138 8.87132 12.8832 8.94437L12.8781 8.9472C12.8357 8.97382 12.7922 9.01233 12.7712 9.06442C12.7209 9.05933 12.6548 9.06612 12.5835 9.11369L12.5784 9.11709C12.5066 9.17032 12.4738 9.23714 12.4648 9.29886C12.428 9.30283 12.3862 9.31642 12.3409 9.34813L12.3364 9.35152C12.2703 9.40306 12.2363 9.47101 12.2375 9.54463C12.2081 9.55085 12.1758 9.56331 12.1419 9.5854C12.0407 9.65165 12.0237 9.7768 12.0622 9.8742L12.0599 9.88722L12.0825 9.92346C12.108 9.96424 12.1453 10.0152 12.1877 10.0707C11.7716 10.3221 11.356 10.394 10.9172 10.4699L10.859 10.4801C10.2217 10.5905 9.42845 10.7281 8.91278 11.8715C8.60406 12.5561 8.64477 13.2736 8.68378 13.9678C8.69396 14.1462 8.70414 14.3302 8.70809 14.5086C8.72393 15.2459 8.45083 15.7669 7.76553 16.3077C7.65584 16.3943 7.62926 16.5421 7.70447 16.6452C7.74235 16.6973 7.80568 16.7324 7.88371 16.7324C7.94477 16.7324 8.01545 16.7109 8.09122 16.6588C9.03717 16.0098 9.38547 15.3529 9.33402 14.3172C9.30122 13.4491 9.26334 12.4649 9.753 11.8624C10.172 11.3284 10.5949 11.2027 11.1926 11.0713C11.7077 10.9581 12.1289 10.7655 12.5168 10.4671C12.5213 10.4722 12.5247 10.4762 12.5258 10.4773L12.5598 10.5164H12.5784C12.6095 10.5379 12.6485 10.5588 12.6938 10.5837C12.7882 10.6353 12.9052 10.6993 12.9629 10.77L13.4905 11.4875C14.0304 12.2718 14.506 12.8925 14.9068 13.3347C15.1788 13.6218 15.4361 13.7334 15.889 13.7606C16.174 13.7832 16.4612 13.8127 16.7394 13.841C16.9486 13.8625 17.1635 13.884 17.3783 13.9033C17.2042 14.4525 17.1284 14.8727 17.2799 15.1242C17.2658 15.238 17.2403 15.4107 17.2138 15.593C17.1844 15.7958 17.1533 16.0047 17.1352 16.1536C16.563 16.4566 16.3662 16.6033 15.8873 17.1979C15.8268 17.2766 15.6826 17.3592 15.5435 17.4391C15.4774 17.477 15.4089 17.5161 15.3462 17.5563C15.0686 17.7262 14.8514 17.8859 14.6626 18.0586L14.6564 18.0631C14.6501 18.0677 14.6439 18.0722 14.6377 18.0773L14.6303 18.0841C14.4172 18.284 14.2051 18.5145 13.9993 18.7687C13.9207 18.6991 13.5719 18.387 13.1597 17.9669L12.3749 17.1152C12.2731 17.0002 12.1787 16.8932 12.0922 16.7952C11.7603 16.4181 11.5595 16.1899 11.4493 16.1168C11.2039 15.96 10.9308 15.9498 10.6379 16.0868L10.626 16.0931C10.3846 16.2437 10.1347 16.392 9.88305 16.5347L9.88135 16.5325C9.88135 16.5325 9.82933 16.5631 9.74056 16.6135C9.27126 16.8751 8.78499 17.1242 8.29647 17.3525C8.09065 17.4442 7.9001 17.5223 7.73443 17.5818L7.7056 17.5909C7.56141 17.635 7.36408 17.6945 7.2476 17.9153C7.0842 18.1424 6.53234 18.8248 6.14955 19.1464C5.84479 19.408 5.6107 19.8962 5.5813 20.3333L5.57169 20.4755L5.71191 20.4528C5.72322 20.4511 6.85576 20.2716 7.38557 20.4483L7.45059 20.4698L7.49978 20.4222C7.51053 20.412 7.75875 20.1657 7.75479 19.5473V19.5264L7.74687 19.5066C7.73726 19.4817 7.72369 19.4567 7.71012 19.4307C7.66998 19.3554 7.6434 19.2987 7.66489 19.2546C7.69994 19.1832 7.73104 19.1408 7.85091 19.1425C7.94308 19.1442 8.04033 19.1702 8.12571 19.1929C8.1913 19.2104 8.24727 19.2251 8.2959 19.228L8.35357 19.2308L8.38976 19.1855C8.48984 19.0603 8.72788 18.6775 8.87716 18.3859C8.97384 18.2551 9.3295 17.9357 10.5864 17.6452L11.8066 19.5898C11.1553 19.1532 10.522 18.6555 10.207 18.3281C10.0849 18.1832 9.92149 18.1033 9.74621 18.1033C9.74508 18.1033 9.74339 18.1033 9.74226 18.1033C9.59242 18.1045 9.45332 18.1656 9.37134 18.2676C9.21189 18.4646 9.17457 18.664 9.21698 19.0875C9.25882 19.5071 9.16722 20.8838 9.16609 20.8973V20.9041V20.9172C9.12707 21.5282 9.08297 22.2207 9.07506 22.9541C9.06544 23.2763 9.07619 23.6489 9.31875 23.9966L10.1991 25.3307L10.2053 25.3392C10.2144 25.3505 10.4349 25.6212 10.8957 25.7651C11.3107 25.8942 11.7574 25.9921 11.935 25.9921H12.1679L12.0237 25.8087C11.9022 25.6541 11.4685 24.8437 11.2163 24.0419L11.1988 23.9858L11.1428 23.9683C11.0337 23.9337 10.9313 23.9213 10.8341 23.932C11.045 23.8363 11.2146 23.6755 11.2338 23.5254L11.2457 23.4654L11.196 23.4258C11.1592 23.3912 10.8997 23.0945 10.6283 22.6098C10.44 22.2734 10.3767 21.9002 10.3427 21.6992L10.3337 21.6482C10.3054 21.3209 10.2839 21.0163 10.3043 20.702C10.6322 21.1244 11.0116 21.6193 11.2361 21.9353C11.5448 22.3697 11.9519 22.8765 12.1555 22.8436C12.2844 22.8227 12.4218 22.8046 12.5535 22.8182L12.5767 22.8204L12.5841 22.8686C12.7435 23.9167 12.9855 25.0249 14.0163 26.0454C14.9792 26.9271 16.2096 27.6519 17.5118 28.4186C17.6966 28.5274 17.8821 28.6367 18.0676 28.7471L18.1439 28.7924L18.1377 30.0586C18.1365 30.2404 18.2095 30.4182 18.3378 30.5461C18.9281 31.139 20.0098 32.2053 20.9094 32.98C20.1495 33.0525 19.264 33.0683 18.5815 33.0196C18.2434 32.9749 17.9584 33.0242 17.7108 33.1703L16.2899 34.1244C15.9942 34.2502 15.7601 34.4789 15.5955 34.8023L14.999 35.8907H17.1748L17.1996 35.8114C17.2782 35.5594 17.1934 35.3193 17.1069 35.1137C17.0877 35.0594 17.0724 34.9824 17.1069 34.9195C17.1431 34.8521 17.2262 34.8204 17.2895 34.8051C17.3924 34.7808 17.553 34.8215 17.7391 34.8685C17.8199 34.8889 17.903 34.9104 17.9952 34.9291C18.1298 34.9529 18.2796 34.8583 18.4798 34.6964L18.5227 34.6607H18.5233L18.8642 34.3776C18.8744 34.3696 18.8829 34.3634 18.8925 34.3561L18.9677 34.3119C18.8756 34.3878 18.784 34.4954 18.6777 34.6352C18.4905 34.8816 18.2417 35.1103 17.9386 35.3136C17.7939 35.411 17.6786 35.5509 17.5762 35.7536C17.419 36.0656 17.2816 36.3839 17.168 36.6999L17.1137 36.8505L17.9647 36.8562C18.3508 36.859 18.7421 36.8613 19.1113 36.8641H19.212L19.2244 36.765C19.2301 36.7214 19.2781 36.3335 19.26 36.184C19.2527 36.124 19.2335 36.0639 19.2148 36.0062C19.1956 35.9473 19.1667 35.8578 19.182 35.8306C19.2075 35.7853 19.2561 35.727 19.3918 35.7434C19.437 35.7491 19.5235 35.7768 19.6066 35.804C19.8588 35.8861 20.02 35.9314 20.1285 35.8691C20.1664 35.8471 20.2054 35.8086 20.2642 35.7497C20.284 35.7298 20.3061 35.7083 20.327 35.6879C20.3293 35.6857 20.5515 35.4863 20.7081 35.3838C20.7675 35.3465 20.8155 35.3051 20.8619 35.2649C20.9591 35.1811 21.0598 35.0939 21.2956 35.0203C21.9729 34.8589 22.1245 34.8651 22.6243 34.8844L22.7199 34.8878C23.3933 34.9223 23.6506 34.9263 23.8456 34.8816C24.0656 34.8312 24.1911 34.7383 24.2414 34.5877C24.2793 34.4733 24.2731 34.3804 24.1351 34.1635C24.1182 34.1341 24.1029 34.1097 24.0865 34.0871C23.659 33.4744 23.1943 32.8701 22.6243 32.1855L21.9752 31.3474C22.7448 30.7913 23.4046 30.2058 23.9355 29.6056L24.5993 28.8547L24.5654 28.879C24.6039 28.8264 24.6395 28.7714 24.67 28.7103C24.6779 28.7397 24.6853 28.7675 24.6938 28.7918C24.704 28.823 24.7271 28.8581 24.752 28.8813C25.1026 29.2097 25.314 29.4357 25.3016 29.8055C25.2841 30.2387 25.2349 30.7432 25.188 31.2313C25.0901 32.2438 25.0359 32.8752 25.1518 33.0904L25.1586 33.1035L26.0174 34.018C25.9982 34.1052 25.9841 34.2026 25.9976 34.3023L26.0016 34.3317L26.0197 34.3555C26.1684 34.5531 26.3618 34.7972 26.5489 35.0328C26.6948 35.2162 26.8452 35.4059 26.973 35.5718L27.0544 35.6777L29.0447 33.5423L29.2579 33.3113H28.2005L28.3809 33.1148C28.6823 32.7875 29.0679 32.3662 29.0679 32.3662L29.2828 32.1311L28.9678 32.1776C28.9576 32.1793 27.971 32.3186 27.5593 31.9414C27.4044 31.7982 27.3677 31.1481 27.3439 30.7183C27.3354 30.5688 27.3275 30.4272 27.3162 30.3128C27.2704 29.8474 27.1438 29.7103 27.0606 29.6191C27.0516 29.6095 27.0431 29.6005 27.0358 29.5914L27.0278 29.5823C26.0853 28.6678 25.1077 27.9905 24.8696 27.8303C24.9035 26.9775 24.5643 26.247 23.7761 25.4706C23.0778 24.7826 22.3348 24.4083 21.6167 24.0464C20.9128 23.6919 20.245 23.3556 19.6638 22.7485L19.5066 22.4484C19.0667 21.6069 19.0186 20.8379 19.3533 19.9658L23.6805 19.9613C24.3257 19.9539 24.722 19.8378 25.05 19.5592L25.5391 19.0434L28.0727 16.3309H28.8971L27.0505 18.3083L26.7514 18.3214L25.8472 19.2846L25.1382 20.0406L25.4277 20.0468L25.2343 20.2541L25.5809 20.5463L25.7896 20.3231L25.845 20.591L26.8616 19.5009L27.4644 18.8548L27.4078 18.5903L29.5174 16.3309L32.6747 16.3201L35.6404 13.1439L32.4881 13.1495L32.4921 13.1478ZM23.1411 15.9634H23.1174C23.2174 15.8297 23.309 15.6899 23.4052 15.5438C23.4589 15.4622 23.5137 15.379 23.5703 15.2963L25.275 15.2946C24.5219 16.0081 24.2861 16.0007 23.1411 15.9639V15.9634Z" fill="#E67321"/>
<path fill-rule="evenodd" clip-rule="evenodd" d="M18.1004 3.18469L19.1871 4.73346L18.0681 6.26014L19.6151 5.17176L21.1378 6.29185L20.0516 4.74252L21.1695 3.2164L19.6242 4.30479L18.1004 3.18469Z" fill="#FFEC00"/>
<path fill-rule="evenodd" clip-rule="evenodd" d="M29.9138 8.3412L31.0005 9.89054L29.8821 11.4167L31.4291 10.3283L32.9518 11.4484L31.8656 9.8996L32.9835 8.37292L31.4376 9.4613L29.9138 8.3412Z" fill="#FFEC00"/>
<path fill-rule="evenodd" clip-rule="evenodd" d="M34.047 20.263L35.1338 21.8124L34.0154 23.3385L35.5618 22.2501L37.0845 23.3702L35.9983 21.8214L37.1167 20.2953L35.5708 21.3837L34.047 20.263Z" fill="#FFEC00"/>
<path fill-rule="evenodd" clip-rule="evenodd" d="M29.9573 32.2166L31.044 33.7659L29.9256 35.292L31.4721 34.2036L32.9948 35.3237L31.9086 33.7744L33.027 32.2483L31.4811 33.3367L29.9573 32.2166Z" fill="#FFEC00"/>
<path fill-rule="evenodd" clip-rule="evenodd" d="M18.0596 37.7882L19.1464 39.3375L18.028 40.8636L19.575 39.7752L21.0977 40.8953L20.0115 39.3466L21.1293 37.8205L19.584 38.9083L18.0596 37.7882Z" fill="#FFEC00"/>
<path fill-rule="evenodd" clip-rule="evenodd" d="M6.24002 32.3797L7.32677 33.929L6.20836 35.4551L7.75479 34.3667L9.27805 35.4868L8.1913 33.9381L9.30971 32.4114L7.76384 33.4998L6.24002 32.3797Z" fill="#FFEC00"/>
<path fill-rule="evenodd" clip-rule="evenodd" d="M1.82123 20.2625L2.90798 21.8118L1.789 23.3379L3.336 22.2495L4.85869 23.3696L3.77251 21.8209L4.89035 20.2948L3.34505 21.3826L1.82123 20.2625Z" fill="#FFEC00"/>
<path d="M29.1601 16.2193L27.1059 18.4192L26.8068 18.4323L26.6405 18.6095L26.9408 18.5959L26.8854 18.6554L26.5851 18.6684L26.3827 18.8842L26.6841 18.8706L26.6292 18.93L26.3273 18.943L26.1249 19.1588L26.4274 19.1458L26.3725 19.2047L26.0695 19.2183L25.867 19.434L26.1712 19.4204L26.1158 19.4793L25.8111 19.4929L25.6086 19.7087L25.9145 19.6951L25.8591 19.7545L25.5532 19.7681L25.3989 19.9323L25.6872 19.9386L25.4028 20.2432L25.5758 20.3893L25.8602 20.0852L25.9157 20.3525L26.1192 20.1345L26.0621 19.8689L26.109 19.8185L26.1661 20.0841L26.3742 19.861L26.3171 19.596L26.364 19.5456L26.4211 19.8106L26.6287 19.588L26.5721 19.323L26.619 19.2726L26.6756 19.5376L26.8837 19.3151L26.8266 19.0501L26.8735 18.9997L26.9306 19.2647L27.1381 19.0416L27.0816 18.7771L27.1285 18.7267L27.1856 18.9912L27.345 18.8202L27.2885 18.5551L29.4705 16.2181L29.1601 16.2193Z" fill="#FFEC00"/>
<path d="M14.1345 9.27443C14.5862 9.00998 15.051 8.66002 15.3434 8.13565C15.8488 7.35136 16.0988 7.33097 16.5307 7.24659C17.2307 7.16732 17.7136 7.40685 18.4181 7.61637C19.4054 7.91027 20.4299 7.97822 21.3476 7.32021C21.4816 7.22394 21.3781 7.03594 21.2633 7.09823C20.6595 7.42497 20.0256 7.61128 19.247 7.47367C18.3786 7.32021 17.8109 6.98044 17.0645 6.84227C16.9282 6.80886 15.8302 6.64974 15.3032 7.45442C14.9204 8.03938 14.6682 8.63567 13.9671 9.01338C13.9745 9.05188 13.9971 9.11644 14.0265 9.16004C14.0548 9.20195 14.0904 9.24215 14.1333 9.27387L14.1345 9.27443Z" fill="#FFEC00"/>
<path d="M8.03242 16.5675C8.99816 15.9055 9.27296 15.2639 9.22603 14.3239C9.18984 13.3771 9.1644 12.4156 9.66875 11.7949C10.1211 11.219 10.5881 11.0916 11.1728 10.9631C11.6149 10.8662 12.0531 10.6941 12.4783 10.3606L12.3082 10.1346C11.8355 10.4381 11.3662 10.5101 10.8827 10.5939C10.215 10.7094 9.49969 10.8572 9.02021 11.9206C8.64421 12.7553 8.80648 13.6478 8.82514 14.5085C8.84324 15.3398 8.49606 15.8812 7.83961 16.3993C7.70617 16.5047 7.80512 16.7238 8.03242 16.5681V16.5675Z" fill="#FFEC00"/>
<path d="M22.777 30.2222C22.1901 30.5472 21.6461 30.7811 21.6461 30.7811C21.6461 30.7811 21.5958 30.8847 21.6292 30.9832C21.6586 31.0687 21.8129 31.2409 21.8627 31.2941C22.6136 30.7567 23.2944 30.1661 23.8564 29.5307C23.5861 29.7244 23.1954 29.99 22.777 30.2216V30.2222Z" fill="#FFEC00"/>
<path d="M24 34.1532C23.529 33.4782 23.0399 32.8559 22.5429 32.2591C22.8098 32.6838 23.2536 33.4182 23.4278 33.8656L23.4289 33.8684L23.4402 33.8945L23.4498 33.9205L23.4572 33.9466L23.4617 33.9732V34.0004L23.4589 34.0275L23.4498 34.0541L23.4346 34.0785L23.4142 34.1L23.3893 34.1176L23.3605 34.1312L23.3254 34.1425L23.2237 34.1498L23.1276 34.1566L22.9353 34.1691L22.7431 34.1804L22.6469 34.1855L22.4547 34.1946L22.2625 34.2025L22.0702 34.2093L21.7818 34.2178L21.5896 34.2223L21.2051 34.2291L20.6284 34.2359H20.5323L20.3406 34.2382L20.1947 34.2393V34.2405L19.2131 34.3078C19.0661 34.3441 18.9361 34.4885 18.7715 34.7048C18.5663 34.9755 18.3045 35.2077 18.0054 35.4087C17.8595 35.5066 17.7617 35.6454 17.6808 35.8056C17.5231 36.1182 17.3896 36.428 17.2782 36.7394C17.8719 36.7434 18.5222 36.7479 19.1159 36.7519C19.1159 36.7519 19.1679 36.3385 19.1515 36.1986C19.1345 36.0588 19.0265 35.8855 19.0865 35.7768C19.1464 35.6686 19.2527 35.6131 19.4088 35.6324C19.5648 35.6516 19.9623 35.8374 20.0754 35.7722C20.1104 35.7518 20.1687 35.6879 20.2546 35.6046C20.2546 35.6046 20.4836 35.3985 20.6516 35.2886C20.8212 35.1822 20.8924 35.0287 21.269 34.9115C22.0074 34.7354 22.1482 34.7535 22.7295 34.7756C23.3645 34.8079 23.6393 34.8147 23.8242 34.7722C24.0548 34.719 24.1131 34.6278 24.1368 34.5553C24.1589 34.4896 24.1787 34.4381 24.0407 34.2212C24.0277 34.1985 24.0136 34.1759 23.9977 34.1538L24 34.1532ZM19.3516 35.3175C19.3805 35.292 19.411 35.2682 19.4427 35.245C19.411 35.2682 19.3811 35.292 19.3516 35.3175ZM19.5518 35.1714C19.5654 35.1629 19.5795 35.1556 19.5936 35.1476C19.5795 35.1556 19.5654 35.1635 19.5518 35.1714ZM19.7344 35.0734C19.7424 35.0695 19.7497 35.0655 19.7576 35.0621C19.7497 35.0655 19.7424 35.07 19.7344 35.0734ZM19.9719 34.8062C19.9821 34.805 19.9923 34.8039 20.003 34.8028C19.9928 34.8039 19.9821 34.805 19.9719 34.8062ZM20.2461 34.8554C20.2433 34.8509 20.2394 34.8475 20.236 34.8435C20.2399 34.8475 20.2433 34.8515 20.2461 34.8554ZM20.2173 34.8282C20.2145 34.8265 20.2111 34.8243 20.2083 34.8226C20.2117 34.8243 20.2145 34.8265 20.2173 34.8282ZM20.0969 34.9392C20.1076 34.9358 20.1184 34.9324 20.1297 34.9296C20.1189 34.9324 20.1082 34.9358 20.0969 34.9392Z" fill="#FFEC00"/>
<path d="M10.652 17.5296L12.0531 19.7624C12.0531 19.7624 12.7141 20.1237 13.0528 20.1843C13.1897 19.942 13.387 19.4969 13.9343 18.8615C13.7766 18.7222 13.4407 18.413 13.0805 18.0461L12.294 17.1927C11.823 16.6615 11.5154 16.2963 11.3922 16.2142C11.1666 16.0698 10.9313 16.0783 10.6893 16.1909C10.4406 16.3455 10.1878 16.4962 9.92941 16.6423L9.94242 16.6321C9.94242 16.6321 9.88983 16.6632 9.79937 16.7147C9.33006 16.9764 8.84606 17.2244 8.34679 17.4583C8.15285 17.5449 7.95834 17.6253 7.77232 17.6927C7.63266 17.7363 7.45003 17.7793 7.34882 17.977C7.18032 18.2131 6.61716 18.9074 6.22758 19.2347C5.95787 19.4663 5.72718 19.9193 5.69834 20.3429C5.69834 20.3429 6.86312 20.1549 7.42571 20.3429C7.42571 20.3429 7.64962 20.1271 7.64567 19.5501C7.61344 19.4669 7.50431 19.336 7.56764 19.2069C7.6157 19.1084 7.68072 19.0274 7.8577 19.0308C8.03468 19.0342 8.21505 19.1118 8.30665 19.1163C8.40277 18.9957 8.64081 18.6129 8.78556 18.3286C8.91561 18.1457 9.3425 17.8162 10.5955 17.5302C10.5955 17.5302 10.6356 17.5268 10.652 17.5302V17.5296Z" fill="#FFEC00"/>
<path d="M32.2377 13.2622L32.2365 13.2554L33.027 12.4088L33.1186 12.56L33.9871 11.2083L32.6996 12.1998L32.8545 12.2615L31.9255 13.2565L32.2365 13.2548L32.2303 13.2616L28.01 13.269C27.4875 13.2978 27.0109 13.5023 26.5902 13.919C25.9801 13.8375 25.3033 13.8177 24.6146 13.8483C24.2974 13.8624 24.1142 13.6942 23.9265 13.5912C23.2943 13.2446 22.6797 13.3103 22.0962 13.5176C22.051 13.4371 22.0193 13.2673 21.9899 13.0702C21.9746 12.9501 21.9656 12.8261 21.9543 12.7049C22.0606 12.6851 22.1561 12.6891 22.2624 12.7083C22.3897 12.5668 22.4112 12.5413 22.5384 12.3997C22.5734 12.3612 22.5446 12.2831 22.5288 12.2378C22.5259 12.2264 22.5078 12.2219 22.4965 12.2213C22.4536 12.2202 22.3377 12.2117 22.1296 12.1607C22.1296 12.1607 21.9379 12.116 21.8508 12.0605C21.8333 12.0492 21.8344 11.9858 21.8536 11.9937C21.9922 12.0509 22.1318 12.0928 22.2754 12.1188C22.315 12.1256 22.4123 12.1404 22.5225 12.146C22.5344 12.146 22.5469 12.1472 22.5593 12.1477C22.5825 12.1483 22.6057 12.1483 22.6294 12.1477C22.7301 12.1194 22.8137 12.0747 22.8691 12.0016C22.9681 11.8249 23.1338 11.6704 23.2949 11.5146C23.2949 11.479 23.2729 11.4433 23.2282 11.4076C23.0687 11.3957 22.9087 11.3923 22.7493 11.4478C22.6933 10.8215 22.7103 10.4489 22.4219 10.2637C21.9786 9.97888 21.5053 9.94604 21.0191 9.96699C20.9145 9.90244 20.8121 9.88262 20.7041 9.9585C20.6018 10.0463 20.5108 10.1357 20.4407 10.3073C20.3898 10.4149 20.3734 10.4631 20.2676 10.5712C20.111 10.7145 19.9533 10.9336 19.8526 11.1086C19.8413 11.1279 19.8436 11.1522 19.8577 11.1692C19.895 11.2128 19.938 11.2587 19.9719 11.3011C19.9589 11.394 19.9459 11.4869 19.9329 11.5798L20.0211 11.6511L20.0392 11.6653L20.1336 11.7417C20.0454 11.7247 19.9566 11.7072 19.8684 11.6896C19.8554 11.7502 19.8424 11.8102 19.8294 11.8708C19.7757 11.8736 19.7367 11.8742 19.6971 11.8867C19.623 11.9535 19.623 12.21 19.6536 12.2808C19.6898 12.3295 20.1512 12.5577 20.435 12.6693C20.2942 13.0742 20.3677 12.8833 20.2269 13.2882C20.0907 13.244 19.9759 13.1891 19.8718 13.1285C19.4715 12.8629 19.1967 12.3623 18.534 12.3023C18.1575 12.2717 17.782 12.385 17.6893 12.415C17.3116 12.317 16.7988 12.2933 16.2362 12.3533C15.8477 12.355 15.7719 12.0894 15.6345 11.8872C15.4259 11.5696 15.1658 11.3255 14.7095 10.9585C14.3912 10.702 14.1452 10.3271 13.9094 9.99927C13.8738 9.95 13.8891 9.903 13.9377 9.8645C14.1305 9.58532 14.0316 9.36221 14.0129 9.3254C14.0118 9.3237 14.0112 9.32144 14.0101 9.31974C14.0101 9.31974 13.914 9.18043 13.88 9.05868C13.8376 8.89786 13.7359 8.87521 13.5187 8.90862C13.4028 8.92108 13.275 8.97601 13.2134 9.04962L13.2258 9.07227L13.1597 9.0836C13.1388 9.05246 13.1207 9.0298 13.1094 9.02301C13.1094 9.02301 13.0325 8.9947 12.9437 9.04396C12.8606 9.09606 12.8736 9.13796 12.8838 9.16684C12.8838 9.16798 12.8855 9.17081 12.8871 9.17307C12.8668 9.18327 12.8459 9.19346 12.8266 9.20365C12.8204 9.19742 12.8148 9.19233 12.8103 9.19063C12.8103 9.19063 12.7384 9.15099 12.6514 9.20875C12.5807 9.26141 12.5756 9.32767 12.5841 9.36391C12.562 9.38146 12.5411 9.39902 12.5225 9.416C12.4987 9.40864 12.4608 9.40751 12.4116 9.44205C12.3466 9.49302 12.3523 9.55021 12.3636 9.58532C12.3404 9.6159 12.324 9.64025 12.3138 9.65724C12.2918 9.65214 12.2556 9.65158 12.2086 9.68215C12.1385 9.72802 12.16 9.82089 12.1849 9.8594C12.1849 9.86166 12.1838 9.86336 12.1838 9.86506C12.2878 10.031 12.6163 10.4047 12.6163 10.4047H12.6225C12.6881 10.467 12.9426 10.5599 13.0596 10.7049L13.5888 11.4252C14.1164 12.1919 14.597 12.8205 14.9945 13.2588C15.2252 13.5023 15.4468 13.6217 15.9031 13.6501C16.4516 13.6937 16.9882 13.7593 17.5349 13.8052C17.3755 14.2854 17.2149 14.8523 17.4026 15.098C17.3761 15.3342 17.2771 15.9491 17.246 16.2283C16.654 16.5392 16.4736 16.6598 15.9823 17.2686C15.8765 17.4067 15.6215 17.52 15.4101 17.6548C15.1579 17.8094 14.9391 17.9645 14.7395 18.148C14.7304 18.1548 14.7214 18.161 14.7123 18.1678C14.4777 18.3881 14.264 18.6265 14.0751 18.8615C14.0638 18.8734 14.0525 18.8859 14.0412 18.9C13.8229 19.1701 13.6239 19.4669 13.4667 19.7211C13.3638 19.8859 13.2812 20.0286 13.2219 20.1373C13.1716 20.2274 13.1365 20.2931 13.1201 20.3242C12.8538 20.3214 12 19.8491 12 19.8491C11.2508 19.3683 10.4892 18.7805 10.1284 18.4045C9.91189 18.144 9.58733 18.1876 9.46407 18.3394C9.34137 18.4912 9.29105 18.6429 9.33402 19.0767C9.37756 19.5105 9.2837 20.9058 9.2837 20.9058V20.9188C9.24186 21.5813 9.20058 22.2461 9.19323 22.9585C9.18362 23.2938 9.20228 23.6256 9.41827 23.9353C9.71173 24.3799 10.0052 24.8244 10.2986 25.2695C10.2986 25.2695 10.5016 25.5226 10.9347 25.658C11.3679 25.7927 11.7914 25.8799 11.9406 25.8799C11.8157 25.7208 11.3746 24.9054 11.114 24.0769C10.9523 24.0254 10.7911 24.0237 10.63 24.1239C10.578 24.0367 10.5339 23.9467 10.5163 23.9042C10.8194 23.8799 11.1083 23.6607 11.1275 23.5112C11.1032 23.492 10.8245 23.1811 10.5356 22.6652C10.3184 22.2773 10.2613 21.8531 10.2274 21.6629C10.1929 21.2608 10.1629 20.8531 10.2274 20.4108C10.5672 20.8463 11.0637 21.4885 11.3345 21.8701C11.7721 22.4868 12.0667 22.7518 12.1431 22.7326C12.2855 22.7094 12.428 22.6918 12.5711 22.706C13.1393 22.4987 13.599 22.6958 14.0084 23.0808C13.5532 22.8855 13.1082 22.7547 12.7017 22.8521C12.8651 23.9269 13.1161 24.9903 14.0989 25.9626C15.1913 26.9632 16.6653 27.7792 18.1315 28.6502C18.0653 28.3189 18.0975 28.0607 18.3418 27.9627C18.1987 28.1241 18.2163 28.4146 18.2615 28.7278L18.2632 28.7289V28.7396L18.2672 28.7668L18.2632 28.7634L18.257 30.0602C18.2564 30.2131 18.3164 30.3592 18.4238 30.4674C19.2776 31.3247 20.3717 32.3819 21.1898 33.066C20.3745 33.1623 19.3392 33.1889 18.5759 33.1334C18.2445 33.0892 17.9844 33.1447 17.7735 33.2687C17.2986 33.5875 16.8242 33.9064 16.3492 34.2257C16.0727 34.3401 15.8568 34.5508 15.7001 34.8577C15.5316 35.1646 15.3637 35.4715 15.1952 35.7785H17.0967C17.1612 35.5706 17.0945 35.3651 17.0068 35.1556C16.9316 34.9466 17.0029 34.7586 17.2681 34.6952C17.449 34.6521 17.7142 34.7541 18.0201 34.8181C18.1128 34.8345 18.2525 34.7393 18.4125 34.6097L18.5035 34.5344C18.5075 34.531 18.5114 34.5276 18.5159 34.5242L18.7998 34.2897C18.901 34.2099 19.0022 34.1391 19.0978 34.091C19.0978 34.091 19.1617 34.0462 19.4574 34.0496C19.7531 34.053 20.6159 34.1 22.1318 34.0423C23.0631 33.9953 23.2559 34.0026 23.2288 33.8401C23.2158 33.7591 22.9376 33.117 22.4242 32.3157L22.3806 32.25L22.3292 32.1741L22.2771 32.0982L22.172 31.9476L22.1053 31.853L22.0651 31.797L21.9566 31.6475L21.9017 31.5727L21.8463 31.4985L21.7903 31.4244L21.736 31.353L21.7032 31.3207L21.6688 31.2851L21.636 31.2488L21.6049 31.212L21.576 31.1746L21.5494 31.1367L21.5257 31.0976L21.5053 31.0574L21.4889 31.0161L21.4771 30.9736L21.4703 30.93L21.4692 30.8853L21.4737 30.84L21.485 30.7941L21.5025 30.7482L21.5336 30.691L21.5755 30.6706L21.6586 30.6316L21.6857 30.6186L21.7688 30.5795L21.796 30.5665L21.8791 30.5274L21.9062 30.5144L21.9893 30.4753L22.0165 30.4623L22.0996 30.4232L22.1267 30.4102L22.2099 30.3711L22.237 30.3581L22.3478 30.306L22.375 30.2929L22.4027 30.2799L22.4287 30.2675L22.5519 30.1978L22.6752 30.1265L22.7363 30.0908L22.7973 30.0545L22.8578 30.0183L22.9178 29.9821L22.9777 29.9452L23.0964 29.8716L23.2141 29.7969L23.2723 29.7595L23.3876 29.6836L23.5019 29.6066L23.6149 29.5285L23.6709 29.4894L23.7817 29.4101L23.8366 29.3705L23.9451 29.2901L24.0526 29.2085L24.1057 29.1677L24.1583 29.1264L24.2103 29.0851L24.2957 29.0166C24.5055 28.8461 24.6282 28.6247 24.7006 28.3161C24.7362 28.4373 24.7712 28.6456 24.8097 28.7612C24.8142 28.7748 24.8278 28.7946 24.838 28.8042C25.197 29.1411 25.4379 29.392 25.4232 29.8156C25.3745 31.0019 25.093 32.733 25.2592 33.0416C25.556 33.3576 25.8529 33.6736 26.1497 33.9896C26.1249 34.0904 26.1045 34.1918 26.1181 34.2926C26.381 34.6431 26.7785 35.1284 27.0708 35.5078L28.0145 34.4947L28.1332 34.3667L28.2418 34.2507L28.9695 33.4698L29.0074 33.429H27.9506L28.3057 33.0422C28.6071 32.7149 28.9927 32.2942 28.9927 32.2942C28.9927 32.2942 27.9484 32.4482 27.4915 32.0291C27.2461 31.8026 27.2608 30.8145 27.2122 30.3281C27.1635 29.8416 27.0295 29.7544 26.9572 29.6678C25.8744 28.6173 24.7611 27.8931 24.7611 27.8931C24.8199 26.9411 24.3805 26.2214 23.7043 25.5555C22.2924 24.1647 20.6793 24.0713 19.4692 22.7003C19.4692 22.7003 19.4681 22.6788 19.4082 22.4987C19.4099 22.501 19.4121 22.5027 19.4138 22.5049C18.9394 21.5978 18.9083 20.784 19.2838 19.857C20.7516 19.8553 22.2189 19.8536 23.6868 19.8525C24.3907 19.8446 24.7215 19.7007 24.9844 19.4776L25.4644 18.9708L28.0315 16.2221H29.4767L29.4784 16.221L32.6323 16.2108L35.3859 13.261L32.2405 13.2667L32.2377 13.2622ZM25.4283 15.3047C24.5931 16.1111 24.3613 16.1168 23.1394 16.0777L22.885 16.0743L22.9263 16.0233C23.1366 15.7691 23.3079 15.4746 23.5103 15.1835C23.5103 15.1835 24.3839 15.1824 25.5283 15.1813L25.4283 15.3047Z" fill="#FFEC00"/>
<path d="M21.3826 6.5422L19.6146 5.24146L17.8188 6.50483L19.1175 4.73294L17.8561 2.93445L19.6253 4.23519L21.42 2.97182L20.1217 4.7437L21.3832 6.5422H21.3826ZM19.6157 5.10216L20.893 6.04218L19.9815 4.74257L20.9196 3.46165L19.623 4.37449L18.344 3.43447L19.2561 4.73464L18.3175 6.01556L19.6157 5.10216Z" fill="#E67321"/>
<path d="M33.1961 11.6987L31.428 10.398L29.6322 11.6613L30.931 9.88946L29.6695 8.09097L31.4387 9.39171L33.2334 8.12834L31.9352 9.90022L33.1966 11.6987H33.1961ZM31.4297 10.2587L32.707 11.1987L31.7955 9.89909L32.7335 8.61874L31.437 9.53158L30.158 8.59156L31.0701 9.89173L30.1315 11.1726L31.4297 10.2592V10.2587Z" fill="#E67321"/>
<path d="M37.3293 23.6205L35.5612 22.3198L33.7654 23.5832L35.0642 21.8113L33.8027 20.0128L35.572 21.3135L37.3666 20.0502L36.0684 21.8221L37.3299 23.6205H37.3293ZM35.5629 22.1805L36.8402 23.1205L35.9287 21.8209L36.8668 20.54L35.5703 21.4528L34.2913 20.5128L35.2033 21.813L34.2647 23.0939L35.5629 22.1805Z" fill="#E67321"/>
<path d="M33.2396 35.5741L31.4715 34.2734L29.6757 35.5367L30.9745 33.7648L29.713 31.9663L31.4822 33.2671L33.2769 32.0037L31.9787 33.7756L33.2401 35.5741H33.2396ZM31.4732 34.1341L32.7505 35.0741L31.839 33.7745L32.7771 32.4941L31.4805 33.407L30.2016 32.4669L31.1136 33.7671L30.175 35.048L31.4732 34.1346V34.1341Z" fill="#E67321"/>
<path d="M21.3419 41.1457L19.5738 39.845L17.7781 41.1083L19.0763 39.3364L17.8148 37.5379L19.584 38.8387L21.3787 37.5753L20.0805 39.3472L21.3419 41.1457ZM19.5755 39.7056L20.8528 40.6457L19.9414 39.3461L20.8794 38.0657L19.5829 38.9785L18.3039 38.0385L19.2159 39.3387L18.2773 40.6196L19.5755 39.7062V39.7056Z" fill="#E67321"/>
<path d="M9.5223 35.7372L7.75422 34.4364L5.95843 35.6998L7.25721 33.9279L5.99575 32.1294L7.76496 33.4302L9.55962 32.1668L8.2614 33.9387L9.5223 35.7372ZM7.75592 34.2971L9.03321 35.2372L8.12174 33.9376L9.05978 32.6572L7.76327 33.57L6.48428 32.63L7.39631 33.9302L6.4577 35.2111L7.75592 34.2977V34.2971Z" fill="#E67321"/>
<path d="M5.10351 23.62L3.33543 22.3192L1.53964 23.5826L2.83842 21.8107L1.57696 20.0122L3.34617 21.313L5.14083 20.0496L3.84261 21.8215L5.10408 23.62H5.10351ZM3.33656 22.1799L4.61385 23.12L3.70239 21.8204L4.64043 20.54L3.34391 21.4528L2.06492 20.5128L2.97695 21.813L2.03835 23.0939L3.33656 22.1805V22.1799Z" fill="#E67321"/>
<path d="M12.6214 10.4059C12.6214 10.4059 12.6157 10.4002 12.6135 10.398C12.5632 10.3351 12.592 10.2847 12.592 10.2847C12.7531 10.1256 12.8481 10.048 13.024 10.005C13.0545 9.99762 13.0867 10.0055 13.1099 10.0271C13.6233 10.5067 14.1062 10.9773 14.5721 11.4326C14.0983 10.9218 13.5685 10.411 13.2445 9.90022C13.1732 9.75469 13.4062 9.56952 13.6148 9.40076C13.6352 9.3515 13.6556 9.28864 13.586 9.23938C13.4192 9.27505 13.3762 9.27845 13.3287 9.26599L13.2247 9.07346L13.1585 9.08478C13.223 9.17992 13.3169 9.3532 13.3327 9.38717C13.3559 9.45683 13.3559 9.53157 13.2892 9.55819C13.2224 9.5848 13.1602 9.55479 13.132 9.51459C13.1048 9.47665 12.9137 9.22295 12.8866 9.17369C12.8662 9.18388 12.8453 9.19407 12.8261 9.20427C12.8973 9.27279 13.1014 9.57008 13.1246 9.61199C13.154 9.6822 13.1472 9.75525 13.0811 9.7881C13.0144 9.82094 12.9228 9.79489 12.89 9.75525C12.8572 9.71562 12.601 9.40756 12.588 9.37868C12.5863 9.37472 12.5846 9.36962 12.5835 9.36452C12.5615 9.38208 12.5405 9.39963 12.5219 9.41662C12.54 9.42228 12.5501 9.43078 12.5501 9.43078C12.5993 9.45456 12.8204 9.74506 12.847 9.7898C12.8781 9.85945 12.8651 9.92514 12.7995 9.95911C12.7339 9.99366 12.6661 9.96251 12.6321 9.924C12.5988 9.8855 12.385 9.63464 12.3715 9.60576C12.3692 9.60066 12.3664 9.5933 12.3636 9.58537C12.3404 9.61595 12.324 9.6403 12.3138 9.65729C12.3285 9.66069 12.337 9.66635 12.337 9.66635C12.3867 9.689 12.5648 9.92344 12.5965 9.97497C12.6293 10.0441 12.6253 10.0905 12.5728 10.1245C12.5077 10.1607 12.4325 10.1437 12.3986 10.1058C12.3641 10.0684 12.2075 9.89909 12.1934 9.87134C12.1905 9.86851 12.1877 9.86398 12.1849 9.85945C12.1849 9.86171 12.1838 9.86341 12.1838 9.86511C12.2878 10.031 12.6163 10.4048 12.6163 10.4048H12.6225L12.6214 10.4059Z" fill="#E67321"/>
<path d="M31.5897 14.7C31.6389 14.6241 31.7033 14.5947 31.7457 14.435C31.7621 14.4152 31.7768 14.3959 31.7898 14.3761C31.791 14.3744 31.7921 14.3727 31.7932 14.371C31.8068 14.3512 31.8181 14.3308 31.8277 14.311C31.8452 14.2696 31.8735 14.1801 31.8515 14.0618C31.8249 13.9191 31.7966 13.846 31.7559 13.7702L32.2303 13.2616L28.01 13.269L31.9199 13.2622L31.5642 13.6433C31.5354 13.6422 31.5071 13.641 31.4783 13.6399C31.3641 13.6343 31.251 13.6258 31.1373 13.6212C31.0802 13.619 31.0237 13.6178 30.9666 13.6184C30.9377 13.6184 30.9095 13.6195 30.8806 13.6212C30.6375 13.6331 30.5097 13.76 30.3978 13.9015C30.3486 13.9638 30.2932 14.0018 30.231 14.0244C30.1597 14.0505 30.0806 14.0556 29.9935 14.0476C28.9441 13.9995 28.0145 14.0063 26.9685 13.9593L26.9668 13.9604C27.0816 13.9684 27.1958 13.9757 27.3083 13.9831C27.3128 13.9831 27.3173 13.9836 27.3219 13.9842C27.3377 13.9853 27.353 13.9859 27.3688 13.987C27.5769 14.0001 27.781 14.0114 27.984 14.0222C28.1496 14.0312 28.3142 14.0397 28.4787 14.0482C28.6059 14.055 28.7332 14.0612 28.8604 14.068C29.2432 14.0884 29.6305 14.1105 30.0348 14.1388C30.0432 14.1394 30.0523 14.1399 30.0613 14.1405C30.1032 14.1428 30.1478 14.1422 30.1942 14.1337C30.1976 14.1331 30.201 14.1326 30.2044 14.1314C30.2276 14.1269 30.2513 14.1201 30.2756 14.1105C30.2841 14.1071 30.2932 14.1031 30.3016 14.0992C30.3378 14.0822 30.3746 14.059 30.4119 14.0273C30.4436 14.0001 30.4758 13.9667 30.5086 13.9253C30.5289 13.8993 30.5527 13.8727 30.5793 13.8472C30.6369 13.7917 30.7104 13.7424 30.8009 13.7169C30.8354 13.7073 30.8722 13.6999 30.9129 13.6988C30.9643 13.6971 31.018 13.6965 31.0706 13.6971C31.182 13.6982 31.2917 13.705 31.3816 13.7135C31.4206 13.7175 31.4562 13.7215 31.4862 13.726C31.4907 13.7266 31.4958 13.7271 31.4998 13.7277C31.562 13.739 31.6219 13.7877 31.6677 13.863C31.6841 13.8896 31.6988 13.9191 31.7112 13.9519C31.7559 14.0714 31.7876 14.179 31.731 14.2543C31.6632 14.3449 31.5812 14.2815 31.5224 14.1728C31.5032 14.1377 31.4806 14.1111 31.4551 14.0907C31.3895 14.0391 31.3019 14.0306 31.1967 14.0357C31.1577 14.0374 31.1164 14.0414 31.0723 14.0454C30.9835 14.1348 30.8953 14.2243 30.8117 14.3132C30.7642 14.3642 30.7178 14.4152 30.6754 14.4661C30.6471 14.4995 30.6143 14.5278 30.5776 14.5505C30.5182 14.5867 30.4498 14.6071 30.3785 14.6088C30.3768 14.6088 30.3746 14.6088 30.3729 14.6088C30.3706 14.6088 30.3684 14.6088 30.3667 14.6088C30.2406 14.6105 30.1088 14.6133 29.9743 14.6156C29.5632 14.6235 29.1261 14.6332 28.7422 14.6388C28.9932 14.6519 29.2974 14.6632 29.5756 14.6739C29.626 14.6762 29.6757 14.6779 29.7238 14.6802C29.7662 14.6819 29.808 14.6836 29.8487 14.6853C29.9262 14.6887 29.9986 14.7057 30.063 14.7357C30.0794 14.743 30.0947 14.7515 30.11 14.7606C30.1552 14.7878 30.1959 14.8217 30.231 14.8631C30.2615 14.8993 30.2875 14.9412 30.3079 14.9888C30.3316 15.0449 30.348 15.1071 30.3548 15.1774C30.2864 15.1774 30.2117 15.1774 30.132 15.1774C29.0679 15.1774 27.0561 15.1796 25.5283 15.1808L25.4283 15.3042C25.4333 15.2991 25.439 15.294 25.4441 15.2889L30.0325 15.2838L29.1617 16.2159H28.5811L29.4727 16.2165L29.4744 16.2153H29.4722L30.3429 15.2833H30.8614L30.8801 15.2827C30.8987 15.2776 30.9168 15.2714 30.9349 15.264C30.9688 15.2498 31.0016 15.2306 31.0327 15.2045C31.0373 15.2006 31.0423 15.1972 31.0469 15.1932C31.057 15.1836 31.0667 15.174 31.0768 15.1643C31.1294 15.1264 31.2058 15.1071 31.3081 14.9854C31.4625 14.9186 31.5303 14.8518 31.5897 14.7ZM31.1684 14.1756C31.2012 14.1156 31.2713 14.1235 31.3347 14.153C31.342 14.1575 31.3556 14.1666 31.3737 14.179C31.4579 14.2373 31.6349 14.3676 31.6524 14.4055C31.6524 14.4055 31.6711 14.4814 31.6146 14.5596C31.5558 14.632 31.5179 14.615 31.4919 14.6026C31.4692 14.5913 31.2843 14.4152 31.2142 14.3495C31.2041 14.3398 31.1961 14.3325 31.1916 14.3285C31.1571 14.2974 31.1356 14.2351 31.1679 14.175L31.1684 14.1756ZM30.9315 15.1847C30.8744 15.2532 30.7743 15.2068 30.7517 15.1785C30.7302 15.1643 30.646 15.0579 30.603 15.0052C30.5962 14.9967 30.59 14.9894 30.5855 14.9843C30.5538 14.9474 30.5459 14.8744 30.5872 14.8172C30.6251 14.7713 30.6697 14.773 30.7308 14.8115C30.7376 14.8172 30.7478 14.8263 30.7596 14.837C30.8241 14.8971 30.9468 15.0233 30.9604 15.0652C30.9604 15.0652 30.9881 15.1162 30.9315 15.1847ZM31.1803 15.0199C31.1125 15.089 31.0469 15.0556 31.0214 15.0398C31.0016 15.0273 30.8648 14.8818 30.7919 14.8036C30.7721 14.7827 30.7568 14.7657 30.75 14.7583C30.7178 14.7221 30.6957 14.6547 30.7353 14.5964C30.7749 14.538 30.8382 14.5329 30.9004 14.5703C30.91 14.5777 30.9321 14.5975 30.9598 14.6235C31.0474 14.7056 31.1933 14.8534 31.2063 14.8908C31.2063 14.8908 31.2465 14.9458 31.1797 15.0205L31.1803 15.0199ZM31.4268 14.8183C31.4065 14.8399 31.3856 14.8529 31.3652 14.8608C31.3194 14.8789 31.2776 14.8699 31.26 14.8591C31.2402 14.8472 31.0797 14.6807 30.992 14.5884C30.966 14.5612 30.9457 14.5397 30.9383 14.5318C30.9049 14.4967 30.8902 14.4067 30.9287 14.3472C30.9671 14.2877 31.0367 14.29 31.0995 14.3251C31.1102 14.333 31.1396 14.3574 31.1769 14.3902C31.281 14.4803 31.4483 14.6337 31.4613 14.67C31.4613 14.67 31.4743 14.704 31.463 14.7493C31.4574 14.7708 31.4472 14.794 31.4268 14.8183Z" fill="#E67321"/>
<path d="M34.5977 14.0975H32.5017L32.3485 14.2611H34.4451L33.7225 15.0347H31.6253L31.4726 15.1983H33.5698L35.3825 13.2565L34.5977 14.0975Z" fill="#E67321"/>
<path d="M22.8782 16.0823C22.2155 16.8943 21.3962 17.6678 20.4214 18.2149C19.8339 18.5297 19.0667 18.9425 18.7975 19.8729C18.4458 21.3469 18.8009 22.1511 19.4664 22.6958C19.4664 22.6958 19.4653 22.6743 19.4054 22.4942C18.75 21.8119 18.6471 20.9075 18.9321 19.8944C18.9756 19.8027 19.1074 19.7727 19.2957 19.7959C19.5314 19.2053 19.951 18.7477 20.5277 18.3672C21.8847 17.5903 22.5333 16.819 23.1394 16.0777L22.885 16.0743L22.8782 16.0828V16.0823Z" fill="#E67321"/>
<path d="M10.6192 23.3487L10.3229 23.5447L10.345 23.4105L10.5763 23.2496L10.6051 23.2293C10.5666 23.1562 10.5259 23.0769 10.4858 22.992L10.4728 23.0005L10.2065 23.1777L10.2285 23.0435L10.4355 22.9019C10.4151 22.8487 10.3953 22.7961 10.3761 22.7428C10.3292 22.6267 10.2845 22.5033 10.246 22.373C10.2325 22.3334 10.2189 22.2938 10.2048 22.2541C10.198 22.2184 10.1923 22.1833 10.1867 22.1488C10.1177 21.8453 10.0069 21.1369 10.1217 20.2767C10.0227 20.1504 9.94524 20.0524 9.90283 19.9981C9.86099 20.5661 9.80728 21.6057 9.88983 22.4382C9.97634 23.0339 10.0368 23.488 10.4236 24.2095C10.4468 24.2525 10.4705 24.2967 10.4965 24.342C10.5005 24.3216 10.5044 24.3035 10.5084 24.2871C10.5135 24.2644 10.518 24.2452 10.5225 24.2299C10.5259 24.2061 10.5288 24.1823 10.5322 24.1585C10.5214 24.1387 10.5011 24.0996 10.4784 24.0532C10.4417 23.9779 10.3993 23.8827 10.3829 23.8154C10.3784 23.7972 10.3761 23.7814 10.3761 23.7684C10.4914 23.7729 10.6413 23.7497 10.7781 23.6704C10.7951 23.6602 10.812 23.65 10.8284 23.6381C10.79 23.5622 10.7278 23.4552 10.6554 23.3238L10.6187 23.3482L10.6192 23.3487Z" fill="#E67321"/>
<path d="M10.5327 17.2194C10.5327 17.2194 9.68797 17.1372 8.44686 18.0773C8.04032 18.4318 7.7152 18.5858 7.52748 18.7228C7.39913 18.8168 7.3228 18.9205 7.28435 19.0699C7.27022 19.1736 7.28209 19.3882 7.51561 19.5303C7.39517 19.3253 7.36408 19.1639 7.51561 18.9907C7.66714 18.8174 7.94872 18.8027 8.12174 18.8604C8.17772 18.8134 8.23087 18.7602 8.28345 18.7007L7.98943 18.656L8.09573 18.5716L8.36035 18.6096C8.40502 18.5541 8.45026 18.4935 8.49719 18.4272L8.29646 18.3966L8.40276 18.3123L8.56108 18.3349C8.59161 18.2902 8.62271 18.2443 8.6555 18.195C8.85736 17.8915 9.75978 17.4793 10.5972 17.3779C10.561 17.2839 10.5321 17.2188 10.5321 17.2188L10.5327 17.2194Z" fill="#E67321"/>
<path d="M12.7848 19.7931C12.6406 19.8078 12.4167 19.7953 12.3014 19.7665C12.3014 19.7665 12.6451 19.9545 12.9759 20.0321C13.279 19.4363 13.7703 18.8819 13.7703 18.8819C13.2541 19.2183 12.8679 19.6844 12.7848 19.7925V19.7931Z" fill="#E67321"/>
<path d="M21.5528 11.0452C21.5879 11.1862 21.6263 11.2848 21.6834 11.2933C21.6184 10.9897 21.5822 10.7117 21.5014 10.5322C21.4918 10.5112 21.4816 10.4925 21.4708 10.4744C21.4601 10.4569 21.4494 10.4405 21.4369 10.4257C21.4262 10.4121 21.4149 10.3997 21.4024 10.3889C21.4607 10.5866 21.498 10.808 21.5376 10.9824C21.5427 11.0039 21.5472 11.0254 21.5523 11.0452H21.5528Z" fill="#E67321"/>
<path d="M20.6142 10.9025C20.6188 10.9042 20.6227 10.9054 20.6272 10.9071C20.6295 10.9076 20.6312 10.9088 20.6335 10.9099C20.6538 10.9178 20.673 10.9286 20.6906 10.941C20.7013 10.9484 20.7115 10.9569 20.7211 10.966C20.7663 11.0056 20.8065 11.0549 20.8523 11.0928C20.7918 10.8374 20.6838 10.6941 20.5294 10.6641C20.5322 10.6715 20.5356 10.6789 20.5402 10.6868C20.5571 10.7179 20.5814 10.7491 20.5707 10.7808C20.5696 10.7836 20.5684 10.7853 20.5667 10.787C20.552 10.8029 20.5119 10.7859 20.4864 10.7876C20.4503 10.8533 20.4994 10.8629 20.6137 10.9025H20.6142Z" fill="#E67321"/>
<path d="M21.5489 11.7888C21.5477 11.8023 21.5489 11.8154 21.5511 11.8278C21.5579 11.8658 21.5794 11.8997 21.6162 11.9286C21.6456 11.9518 21.6851 11.9722 21.7338 11.9892C21.7066 11.9439 21.6772 11.906 21.6461 11.8731C21.615 11.8403 21.5822 11.8125 21.5483 11.7882L21.5489 11.7888Z" fill="#E67321"/>
<path d="M19.9679 12.2254C19.9883 12.2265 20.0041 12.2208 20.0166 12.2112C20.0268 12.2033 20.0347 12.1919 20.0415 12.1789C20.0443 12.1738 20.0471 12.1682 20.0499 12.1625C20.0641 12.1314 20.0754 12.094 20.0946 12.0651C20.1076 12.0458 20.1217 12.0317 20.137 12.0221C20.1444 12.017 20.1523 12.0136 20.1608 12.0102C20.2009 11.9954 20.2478 12.0017 20.2982 12.0039C20.3457 12.0068 20.3739 11.9592 20.3965 11.8975C20.3999 11.8879 20.4033 11.8777 20.4067 11.8675C20.4078 11.8629 20.4095 11.859 20.4107 11.8544C20.4248 11.8086 20.4372 11.7587 20.452 11.7174C20.4599 11.6959 20.4599 11.6874 20.4553 11.6874C20.4429 11.6874 20.3943 11.7514 20.3592 11.8001C20.3372 11.8307 20.3202 11.855 20.3202 11.855C20.2863 11.8952 20.2507 11.9133 20.2162 11.9252C20.1856 11.936 20.1557 11.9417 20.128 11.9541C20.0946 11.9688 20.0731 12.0079 20.0556 12.0464C20.0482 12.0628 20.0415 12.0787 20.0352 12.0928C20.0313 12.1025 20.0268 12.1104 20.0228 12.1178C20.0143 12.1314 20.0058 12.1393 19.9962 12.1364C19.9877 12.1342 19.9826 12.1314 19.9793 12.1274C19.9787 12.1263 19.9781 12.1251 19.9776 12.124C19.9759 12.1206 19.9753 12.1172 19.9759 12.1127C19.9759 12.1093 19.977 12.1059 19.9781 12.1019C19.9798 12.0962 19.9821 12.0894 19.9843 12.0821C19.9872 12.0747 19.99 12.0662 19.9928 12.0566C19.9934 12.0543 19.9945 12.0521 19.9951 12.0492C19.9962 12.0458 19.9945 12.043 19.9917 12.0402C19.9917 12.0402 19.9917 12.0402 19.9911 12.0396C19.986 12.0357 19.977 12.0323 19.9691 12.0317C19.9663 12.0317 19.964 12.0317 19.9612 12.0317C19.9566 12.0323 19.9527 12.0345 19.951 12.0379C19.938 12.0679 19.9255 12.1008 19.9193 12.1314C19.9171 12.1415 19.9159 12.1512 19.9154 12.1602C19.9137 12.1965 19.9261 12.2237 19.9674 12.2259L19.9679 12.2254Z" fill="#E67321"/>
<path d="M19.9318 12.4145C19.9459 12.4139 19.9572 12.3992 19.9691 12.3845C19.9832 12.3658 19.9968 12.346 20.0143 12.3499C20.0437 12.3573 20.0624 12.355 20.0816 12.3499C20.1008 12.3448 20.12 12.3363 20.15 12.3301C20.1675 12.3267 20.1834 12.325 20.1981 12.3245C20.2128 12.3239 20.2252 12.3233 20.2365 12.3216C20.2478 12.3199 20.2574 12.3171 20.2654 12.3109C20.2733 12.3046 20.2795 12.2956 20.2835 12.2814C20.3004 12.2242 20.357 12.2129 20.4361 12.2004C20.4435 12.1993 20.4508 12.1982 20.4587 12.197C20.4706 12.1953 20.4819 12.1948 20.4927 12.1953C20.4938 12.1953 20.4955 12.1953 20.4966 12.1953C20.5113 12.1959 20.526 12.1982 20.5407 12.1999C20.5611 12.2027 20.582 12.2055 20.6063 12.2044C20.6933 12.2004 20.7669 12.158 20.8274 12.0957C20.8393 12.0832 20.8511 12.0702 20.8619 12.056C20.8839 12.0283 20.9043 11.9971 20.9218 11.9649C20.9535 12.0158 20.9851 12.0362 21.0168 12.0385C21.0276 12.0391 21.0377 12.0385 21.0485 12.0351C20.9868 11.9581 20.9755 11.8505 20.9784 11.7531C20.9637 11.7242 20.9501 11.6953 20.9388 11.6676C20.9331 11.6534 20.928 11.6398 20.9235 11.6268C20.9145 11.6002 20.9082 11.5747 20.9066 11.5509C20.9037 11.5152 20.9094 11.4835 20.9292 11.4575C20.9405 11.4094 20.936 11.3691 20.9263 11.3318C20.9229 11.3193 20.919 11.3074 20.915 11.295C20.8608 11.3816 20.8161 11.4694 20.8302 11.5673C20.8319 11.5798 20.8342 11.5923 20.8381 11.6047C20.8523 11.6415 20.8636 11.6772 20.8726 11.7112C20.8788 11.7344 20.8834 11.7576 20.8868 11.7791C20.8913 11.8148 20.8919 11.8488 20.8868 11.8794C20.8845 11.8947 20.8805 11.9094 20.8749 11.9235C20.8658 11.9479 20.8511 11.97 20.8325 11.9898C20.8297 11.9926 20.828 11.996 20.8246 11.9988C20.7754 12.0362 20.7256 12.0719 20.6764 12.0923C20.664 12.0974 20.6515 12.1019 20.6397 12.1047C20.621 12.1093 20.6024 12.1104 20.5837 12.1093C20.5656 12.1081 20.5481 12.1053 20.53 12.0974C20.5232 12.0945 20.5175 12.09 20.5119 12.0844C20.5079 12.0804 20.504 12.0759 20.5 12.0719C20.4961 12.0674 20.4921 12.0634 20.4876 12.0594C20.4791 12.0521 20.4706 12.047 20.4599 12.0481C20.457 12.0481 20.4548 12.0492 20.4525 12.0504C20.4463 12.0526 20.4406 12.0555 20.4356 12.06C20.4282 12.0662 20.4214 12.0747 20.4146 12.0827C20.4045 12.0945 20.3943 12.1059 20.3818 12.1104C20.3779 12.1115 20.3734 12.1121 20.3688 12.1115C20.3309 12.107 20.2993 12.1042 20.2733 12.1064C20.2688 12.1064 20.2654 12.1081 20.2608 12.1087C20.2557 12.1098 20.2507 12.1104 20.2467 12.1115C20.2173 12.1212 20.1998 12.1438 20.1936 12.1885C20.1924 12.1982 20.1902 12.2101 20.1862 12.222C20.1822 12.2339 20.1777 12.2463 20.1715 12.2582C20.1585 12.2814 20.1387 12.3012 20.1093 12.3086C20.1008 12.3109 20.0918 12.3114 20.0827 12.312C20.0737 12.312 20.0646 12.312 20.0562 12.3103C20.0296 12.3075 20.0041 12.3007 19.9826 12.3012C19.9612 12.3018 19.9436 12.3103 19.934 12.3369C19.9312 12.3437 19.9284 12.3522 19.9255 12.3613C19.9199 12.3788 19.9154 12.3969 19.9199 12.4071C19.9221 12.4122 19.9267 12.4151 19.934 12.4145H19.9318Z" fill="#E67321"/>
<path d="M22.1245 11.462C22.1477 11.4694 22.172 11.475 22.1963 11.4796C22.2025 11.4807 22.2082 11.4818 22.2144 11.483C22.2687 11.4909 22.3252 11.4937 22.3834 11.492C22.4038 11.4915 22.4242 11.4903 22.4445 11.4886C22.5259 11.4824 22.609 11.4705 22.6905 11.4569C22.6876 11.4161 22.6825 11.3595 22.6758 11.3108C22.6735 11.295 22.6712 11.2797 22.669 11.2661C22.6141 11.274 22.5593 11.2808 22.505 11.2853C22.4728 11.2882 22.4411 11.2904 22.41 11.291C22.2704 11.295 22.1437 11.2768 22.0578 11.21C21.8463 11.0469 21.8763 10.7678 21.684 10.6035C21.7332 10.8114 21.7513 11.0322 21.8491 11.2264C21.9136 11.3556 22.0108 11.4258 22.125 11.4614L22.1245 11.462Z" fill="#E67321"/>
<path d="M20.1093 11.3856C20.1172 11.389 20.1251 11.3912 20.1331 11.3924C20.1404 11.3935 20.1472 11.3941 20.1545 11.3935C20.1789 11.3918 20.2037 11.3805 20.2275 11.3607C20.2394 11.3505 20.2507 11.338 20.2614 11.3233C20.2721 11.3086 20.2823 11.2916 20.2919 11.2717C20.2953 11.265 20.2919 11.2582 20.2857 11.2514C20.2823 11.248 20.2784 11.2451 20.2738 11.2423C20.2512 11.2281 20.2156 11.2213 20.2094 11.2389C20.2009 11.2627 20.1805 11.2774 20.1579 11.2836C20.1432 11.2882 20.1274 11.2887 20.1133 11.2859C20.0997 11.2831 20.0884 11.2768 20.0822 11.2672C20.0788 11.2627 20.0771 11.257 20.0771 11.2502C20.0771 11.244 20.0759 11.2395 20.0748 11.2366C20.0731 11.2338 20.0714 11.2332 20.0692 11.2332C20.0573 11.2349 20.0364 11.2695 20.033 11.2899C20.0324 11.2938 20.033 11.2972 20.033 11.3001C20.0511 11.3448 20.0782 11.3737 20.1082 11.3867L20.1093 11.3856Z" fill="#E67321"/>
<path d="M22.3631 12.312C22.3569 12.3103 22.3506 12.3092 22.3444 12.3075C22.289 12.2944 22.233 12.2854 22.1771 12.2893C22.1714 12.2893 22.168 12.2933 22.1652 12.2984C22.1567 12.3131 22.159 12.3426 22.1691 12.3613C22.1737 12.3698 22.1799 12.3754 22.1867 12.3765C22.2274 12.3839 22.2687 12.3833 22.3099 12.3799C22.3834 12.3737 22.4575 12.3573 22.5305 12.3522C22.501 12.3471 22.4716 12.3397 22.4422 12.3324C22.4157 12.3256 22.3897 12.3182 22.3631 12.312Z" fill="#E67321"/>
<path d="M17.5881 13.6501C17.6096 13.5907 17.6294 13.5363 17.6474 13.4887C17.5898 13.4825 17.5315 13.4768 17.4727 13.4712C17.4139 13.4655 17.3546 13.4598 17.2946 13.4536C17.2647 13.4508 17.2347 13.4479 17.2047 13.4451C17.1448 13.4395 17.0849 13.4338 17.0249 13.4281C16.965 13.4225 16.905 13.4168 16.8457 13.4111C16.697 13.397 16.5511 13.3828 16.4114 13.3675C16.3277 13.3585 16.2463 13.3489 16.1683 13.3392C16.0643 13.3262 15.9653 13.312 15.8748 13.2973C15.8336 13.2905 15.7946 13.2837 15.7567 13.2764C15.7284 13.2707 15.7007 13.2656 15.6747 13.2599C15.5243 13.2271 15.4095 13.1897 15.3467 13.1456C15.1257 13 14.7276 12.6036 14.3963 12.2004C14.3533 12.1478 14.3114 12.0951 14.2713 12.043C14.1712 11.9133 14.0802 11.7859 14.0089 11.6698C14.0395 11.8074 14.1282 11.9853 14.2538 12.1818C14.2747 12.2146 14.2962 12.248 14.3194 12.2814C14.3646 12.3488 14.4138 12.4179 14.4658 12.4875C14.4918 12.5227 14.5184 12.5578 14.5455 12.5929C14.5998 12.6637 14.6569 12.7344 14.7152 12.8052C14.7734 12.876 14.8333 12.9462 14.8944 13.0147C14.9549 13.0838 15.0165 13.1518 15.0782 13.2175C15.1234 13.2605 15.1681 13.2985 15.2127 13.3319C15.2574 13.3653 15.3026 13.3936 15.3479 13.4179C15.3931 13.4423 15.4395 13.4632 15.4864 13.4808C15.5961 13.5221 15.7103 13.5465 15.8341 13.5646C16.4403 13.6184 16.9718 13.6541 17.5666 13.7113C17.5739 13.6903 17.5813 13.6699 17.5881 13.6501Z" fill="#E67321"/>
<path d="M20.69 12.4841C20.7007 12.5113 20.7222 12.5362 20.7533 12.5368C20.7578 12.5368 20.7624 12.5368 20.7675 12.5357C20.7912 12.5311 20.8133 12.5204 20.8319 12.5028C20.8624 12.4734 20.8828 12.4247 20.8805 12.3499C20.8783 12.2582 20.9439 12.1801 21.0298 12.1025C20.9942 12.1087 20.9603 12.1161 20.9297 12.1297C20.9162 12.1359 20.9032 12.1427 20.8918 12.1523C20.8698 12.1704 20.8517 12.1953 20.8393 12.231C20.8319 12.2531 20.8229 12.2741 20.8133 12.295C20.8065 12.3109 20.7991 12.3262 20.7918 12.342C20.7816 12.3635 20.7714 12.3845 20.7618 12.406C20.7499 12.385 20.7431 12.3641 20.7386 12.3431C20.733 12.316 20.7313 12.2888 20.7313 12.2616C20.7239 12.2673 20.7166 12.2729 20.7104 12.2786C20.7024 12.2859 20.6962 12.2933 20.6906 12.3007C20.6826 12.3109 20.6759 12.3216 20.6702 12.3318C20.664 12.3437 20.6595 12.355 20.6555 12.3664C20.6453 12.3941 20.6391 12.419 20.6244 12.436C20.6097 12.453 20.586 12.4615 20.5413 12.4575C20.4847 12.4524 20.4276 12.4536 20.3773 12.4592C20.3377 12.4638 20.3032 12.4717 20.2767 12.4824C20.2659 12.487 20.2569 12.4915 20.2495 12.4966C20.2467 12.4983 20.2433 12.5 20.241 12.5023C20.2348 12.5079 20.2303 12.5136 20.228 12.5198C20.2388 12.5176 20.2507 12.5147 20.262 12.5119C20.2936 12.5045 20.3276 12.4977 20.3558 12.5034C20.3717 12.5062 20.3858 12.5125 20.3971 12.5249C20.4248 12.5549 20.4463 12.5736 20.4746 12.5883C20.4757 12.5883 20.4768 12.5895 20.4774 12.5895C20.491 12.5963 20.5057 12.6025 20.5232 12.6082C20.5424 12.6144 20.565 12.6206 20.5922 12.6274C20.6176 12.6336 20.6408 12.6484 20.6612 12.6631C20.6832 12.6784 20.7019 12.6937 20.7183 12.6999C20.7296 12.7039 20.7398 12.7039 20.7482 12.6954C20.7528 12.6908 20.7573 12.684 20.7612 12.6744C20.7669 12.6597 20.7686 12.6472 20.7675 12.6353C20.7641 12.5832 20.7024 12.5566 20.6272 12.5663C20.6414 12.5476 20.6555 12.5283 20.6696 12.5096C20.6759 12.5011 20.6826 12.4926 20.6889 12.4841H20.69Z" fill="#E67321"/>
<path d="M25.785 14.8319C25.7607 14.8512 25.7381 14.8687 25.7172 14.8869C25.7064 14.8959 25.6963 14.9044 25.6866 14.9135C25.6369 14.9582 25.5939 15.0046 25.5487 15.0647H29.8736C29.8651 15.0341 29.8521 15.008 29.834 14.9854C29.8216 14.9701 29.8075 14.9565 29.7911 14.9446C29.7662 14.9265 29.7362 14.9118 29.7012 14.8993C29.678 14.8914 29.6525 14.884 29.6248 14.8784C29.5819 14.8693 29.5338 14.8631 29.4806 14.858C29.4303 14.8534 29.3749 14.8512 29.3144 14.8495C29.1889 14.8489 29.0668 14.8478 28.9469 14.8472C28.7659 14.8461 28.5907 14.845 28.4176 14.8444C28.1875 14.8433 27.9619 14.8416 27.7352 14.8404C27.3383 14.8382 26.9362 14.8359 26.4963 14.8331C26.5139 14.8149 26.5325 14.7974 26.5517 14.7804C26.6937 14.6524 26.882 14.5397 27.0357 14.452C26.4398 14.4118 25.7375 14.3806 25.0483 14.3653C25.0415 14.3653 25.0353 14.3653 25.0285 14.3653C24.8787 14.3619 24.7294 14.3597 24.5818 14.358C24.5801 14.358 24.5784 14.358 24.5767 14.358C24.4263 14.3563 24.2776 14.3551 24.1323 14.3557H24.1317C23.9129 14.3557 23.7009 14.358 23.5013 14.3625C23.5166 14.2968 23.5431 14.2328 23.5855 14.1694C23.5963 14.1535 23.6081 14.1382 23.6206 14.1224C23.6443 14.0935 23.6726 14.0646 23.7048 14.0363C23.7241 14.0193 23.745 14.0023 23.7676 13.9853C23.637 14.0046 23.5154 14.0369 23.3972 14.0844C22.9924 14.247 22.6345 14.5935 22.1313 15.2578C22.0742 15.3325 22.0159 15.3999 21.9571 15.4605C21.8977 15.5211 21.8378 15.5755 21.7767 15.623C21.6953 15.687 21.6128 15.7402 21.5291 15.7838C21.4663 15.8167 21.403 15.8444 21.3391 15.8671C21.2752 15.8897 21.2113 15.9084 21.1469 15.9226C21.1254 15.9271 21.1039 15.9316 21.0824 15.9356C21.0394 15.9435 20.9965 15.9492 20.9529 15.9537C20.9314 15.956 20.9099 15.9577 20.8885 15.9594C20.8455 15.9622 20.8025 15.9639 20.759 15.9645C20.716 15.9645 20.673 15.9639 20.6301 15.9617C20.5871 15.96 20.5447 15.9566 20.5017 15.9526C20.4616 15.9486 20.422 15.9441 20.3824 15.939C20.3315 15.9322 20.2812 15.9248 20.2309 15.9164C20.1952 15.9107 20.1602 15.9045 20.1246 15.8977C19.9555 15.8495 19.8464 15.862 19.7983 15.935C19.7915 15.9452 19.7859 15.9571 19.7814 15.9701C19.7531 16.0075 19.7401 16.0341 19.7418 16.0534C19.7423 16.0608 19.7452 16.0675 19.7503 16.0726C19.7576 16.0806 19.7706 16.0862 19.7876 16.0902C19.8221 16.0981 19.8752 16.0998 19.9453 16.1004C20.1551 16.097 20.3626 16.0981 20.569 16.1055C20.9133 16.1174 21.256 16.1468 21.6054 16.2018C22.116 16.0409 22.4247 15.6949 22.7561 15.2379C22.7843 15.1983 22.8132 15.1587 22.842 15.1173C22.8872 15.059 22.9319 15.0103 22.9771 14.9701C22.9964 14.9531 23.0156 14.9378 23.0354 14.9237C23.071 14.8976 23.1077 14.8761 23.1462 14.8585C23.1841 14.841 23.2231 14.8268 23.2638 14.8161C23.3051 14.8047 23.3486 14.7963 23.395 14.7906C23.4962 14.7776 23.6098 14.7753 23.7422 14.7753C23.8236 14.7776 23.9061 14.7798 23.9898 14.7821C24.4082 14.7934 24.8538 14.8059 25.2812 14.8172C25.452 14.8217 25.6205 14.8263 25.7828 14.8308L25.785 14.8319Z" fill="#E67321"/>
<path d="M20.2354 16.7233C20.2755 16.7318 20.3191 16.7425 20.3666 16.7544C20.5684 16.7952 20.7533 16.7997 20.9218 16.7584C21.0903 16.7176 21.2424 16.6316 21.3798 16.4917C21.1785 16.58 20.9371 16.6457 20.651 16.5642C20.5882 16.5461 20.5221 16.5245 20.4565 16.5064C20.4124 16.4939 20.3688 16.4832 20.3259 16.4758C20.2829 16.4685 20.241 16.4645 20.2015 16.4656C20.1817 16.4662 20.1625 16.4685 20.1432 16.4719C20.111 16.4973 20.0856 16.52 20.0635 16.5415C20.0528 16.5523 20.0426 16.5625 20.033 16.5721C20.0121 16.5942 19.9945 16.6157 19.977 16.6378C19.9544 16.6661 19.9323 16.6961 19.9029 16.7318C19.9414 16.7182 19.9776 16.7097 20.0137 16.7052C20.0856 16.6967 20.1557 16.7052 20.2365 16.7222L20.2354 16.7233Z" fill="#E67321"/>
<path d="M19.7836 17.2318C19.8498 17.2063 19.9312 17.2046 20.0137 17.2097C20.055 17.2126 20.0963 17.2165 20.1359 17.2205C20.1755 17.2245 20.2133 17.2278 20.2478 17.229C20.2891 17.2307 20.3287 17.2312 20.3666 17.2301C20.3688 17.2301 20.3705 17.2301 20.3728 17.2301C20.4062 17.229 20.4378 17.2267 20.4689 17.2233C20.69 17.1995 20.8687 17.1146 21.0541 16.9181C20.9337 16.9974 20.8127 17.0268 20.6928 17.0314C20.4525 17.0404 20.2156 16.9498 19.9877 16.9543C19.9651 16.9543 19.9425 16.956 19.9199 16.9589C19.8622 17.033 19.8385 17.0942 19.8119 17.1616C19.8028 17.1842 19.7938 17.2069 19.7831 17.2312L19.7836 17.2318Z" fill="#E67321"/>
<path d="M20.5984 10.394C20.6108 10.4252 20.6357 10.4557 20.6787 10.4971C20.7002 10.5175 20.7262 10.5412 20.7573 10.5684C20.7675 10.5775 20.7788 10.5871 20.7901 10.5973C20.8246 10.6273 20.8647 10.6619 20.9105 10.7021C20.9416 10.7293 20.9676 10.7587 20.9897 10.7887C21.0247 10.8363 21.0502 10.8861 21.0683 10.9388C21.0835 10.9824 21.0948 11.0277 21.1022 11.0741C21.1084 11.1115 21.1124 11.1494 21.1152 11.1879C21.1169 11.21 21.1186 11.2321 21.1197 11.2542C21.1265 11.3754 21.1276 11.4988 21.1531 11.6155C21.3007 12.3041 20.9512 12.3567 20.8534 12.7158C20.8568 12.7152 20.8602 12.7141 20.863 12.7135C20.8805 12.7095 20.8986 12.7056 20.9162 12.7033C20.9269 12.7022 20.9371 12.701 20.9478 12.7005C20.9688 12.6993 20.9897 12.7005 21.0112 12.7039C21.0219 12.7056 21.0321 12.7078 21.0428 12.7112C21.0637 12.7175 21.0852 12.7259 21.1061 12.7384C21.0191 12.8686 20.9263 13.008 20.8314 13.1444C20.7986 13.1914 20.7658 13.2379 20.7324 13.2832C20.7222 13.2973 20.712 13.3115 20.7013 13.3256C20.5916 13.4746 20.4814 13.6122 20.3751 13.7209C20.3739 13.722 20.3728 13.7232 20.3717 13.7243C20.3417 13.7543 20.3129 13.7821 20.284 13.807C20.2586 13.8291 20.2331 13.85 20.2083 13.8681C20.2733 13.8409 20.3383 13.816 20.4039 13.7928C20.4367 13.7809 20.4695 13.7702 20.5023 13.7594C20.5594 13.7413 20.6165 13.7243 20.6742 13.7096C20.7166 13.6982 20.759 13.6881 20.802 13.6784C20.8641 13.6648 20.9269 13.6541 20.9902 13.645C20.9998 13.6439 21.0089 13.6422 21.0185 13.641C21.2899 13.6048 21.5721 13.6099 21.8734 13.6694C21.9023 13.6405 21.9351 13.6116 21.9729 13.5856C21.9956 13.5703 22.0199 13.5555 22.0464 13.5437C21.9843 13.5555 21.9249 13.5612 21.8683 13.5623C21.8683 13.5623 21.8678 13.5623 21.8672 13.5623C21.783 13.564 21.7044 13.5561 21.6297 13.542C21.5551 13.5278 21.4839 13.508 21.4149 13.4859C21.4132 13.4853 21.412 13.4842 21.4098 13.4836C21.3872 13.4757 21.3702 13.4661 21.36 13.4542C21.3487 13.4417 21.3431 13.4264 21.3419 13.41C21.3397 13.3766 21.3538 13.3358 21.3691 13.29C21.412 13.158 21.4675 13.0181 21.5523 12.8885C21.5602 12.8766 21.5675 12.8647 21.576 12.8534C21.5834 12.8426 21.5918 12.8335 21.6003 12.8256C21.6444 12.786 21.7066 12.7792 21.7903 12.8058C21.8237 12.8166 21.8604 12.8324 21.9006 12.8539C21.8977 12.7831 21.8955 12.7622 21.8915 12.7056C21.8915 12.7056 21.8915 12.7044 21.8915 12.7039C21.8452 12.6903 21.8016 12.6727 21.7615 12.6512C21.7213 12.6297 21.684 12.6048 21.6495 12.5764C21.615 12.5481 21.5834 12.5164 21.554 12.4819C21.5393 12.4643 21.5251 12.4462 21.5116 12.4275C21.4844 12.3901 21.4595 12.3494 21.4369 12.3063C21.3787 12.1959 21.3346 12.0685 21.299 11.9292C21.286 11.8782 21.2741 11.8256 21.2633 11.7718C21.2503 11.7061 21.2413 11.6376 21.2345 11.5685C21.2141 11.3618 21.2181 11.1426 21.2322 10.9263C21.2385 10.8351 21.2464 10.7451 21.2549 10.6562C21.2696 10.4999 21.2328 10.4082 21.1717 10.3481C21.1633 10.3397 21.1536 10.3317 21.144 10.3238C21.0671 10.2643 20.9637 10.2383 20.8755 10.1958C20.8834 10.2037 20.8913 10.2111 20.8992 10.2185C20.915 10.2332 20.9314 10.2479 20.9467 10.2632C20.954 10.2711 20.9614 10.2791 20.9676 10.2881C21.1022 10.4676 21.0038 10.5237 20.8755 10.5299C20.833 10.5316 20.798 10.5265 20.7686 10.5158C20.7098 10.4942 20.673 10.4529 20.6391 10.4093C20.6221 10.3878 20.6057 10.3657 20.5882 10.3459C20.5882 10.3572 20.5899 10.3685 20.5927 10.3787C20.5939 10.3838 20.5956 10.3895 20.5978 10.3946L20.5984 10.394Z" fill="#E67321"/>
<path d="M19.6898 17.6203C19.6841 17.6429 19.6796 17.665 19.6756 17.6877C19.6722 17.7081 19.67 17.7284 19.6683 17.7494C19.757 17.7313 19.8413 17.7205 19.9221 17.7097C19.9482 17.7064 19.9736 17.703 19.999 17.6996C20.0499 17.6928 20.0991 17.6854 20.1483 17.6763C20.1641 17.6735 20.1794 17.6701 20.1947 17.6667C20.2348 17.6582 20.2744 17.6475 20.3134 17.6344C20.3355 17.6271 20.357 17.6191 20.379 17.6101C20.3858 17.6073 20.3931 17.6044 20.3999 17.6016C20.4746 17.5687 20.5481 17.524 20.6233 17.4617C20.5085 17.4968 20.4067 17.5093 20.3129 17.5116C20.2727 17.5121 20.2343 17.5116 20.1964 17.5093C20.1641 17.5076 20.1331 17.5053 20.102 17.5031C19.9793 17.4934 19.8605 17.4821 19.7288 17.5059C19.7118 17.5455 19.6994 17.5829 19.6898 17.6197V17.6203Z" fill="#E67321"/>
<path d="M18.4628 18.8434C18.4345 18.9793 18.4108 19.1209 18.3915 19.2642C18.3373 19.6736 18.3237 20.1028 18.3746 20.4947C18.387 20.591 18.4034 20.685 18.4238 20.7756C18.4543 20.9115 18.4945 21.0406 18.5448 21.1595C18.5075 20.6759 18.5295 20.2597 18.6177 19.8973C18.6443 19.7886 18.6765 19.6844 18.7155 19.5853C18.754 19.4856 18.7987 19.391 18.8495 19.2999C18.8733 19.2574 18.8987 19.2166 18.9253 19.1758C18.9745 19.1005 19.0282 19.0275 19.087 18.9578C19.1775 18.8508 19.2798 18.75 19.394 18.6549C19.4512 18.6073 19.5111 18.5614 19.5744 18.5161C19.6061 18.4935 19.6383 18.4714 19.6717 18.4499C19.8373 18.3411 20.0217 18.2398 20.2263 18.1452C20.3185 18.1016 20.3903 18.0671 20.4497 18.0359C20.4791 18.0206 20.5057 18.0065 20.53 17.9923C20.5503 17.9804 20.569 17.9691 20.5871 17.9578C20.6176 17.938 20.6453 17.9181 20.6719 17.8966C20.6617 17.9006 20.651 17.904 20.6402 17.9079C20.4729 17.9691 20.2948 18.0229 20.102 18.0552C20.0901 18.0574 20.0782 18.0591 20.0658 18.0608C19.9436 18.079 19.8159 18.0886 19.6818 18.0846C19.4992 18.2415 19.3471 18.3083 19.2148 18.3128C19.1526 18.3151 19.0955 18.3032 19.0418 18.2806C19.0384 18.2794 19.035 18.2783 19.0316 18.2766C18.8852 18.212 18.7653 18.0676 18.6516 17.9051C18.633 17.8785 18.6143 17.8513 18.5957 17.8236C18.5742 17.7913 18.5521 17.7584 18.5306 17.7256C18.5092 17.6928 18.4871 17.6605 18.4651 17.6282C18.4209 17.5642 18.3768 17.5025 18.3299 17.4464C18.1094 17.9589 18.1846 18.4193 18.4617 18.8434H18.4628Z" fill="#E67321"/>
<path d="M19.7067 13.2803C19.7537 13.3307 19.7876 13.3879 19.8142 13.4451C19.8277 13.4734 19.839 13.5017 19.8498 13.5289C19.8605 13.5561 19.8701 13.5827 19.8797 13.6071C19.8894 13.6314 19.8984 13.6541 19.9086 13.6745C19.9137 13.6847 19.9188 13.6937 19.9238 13.7022C19.9453 13.7362 19.9708 13.7577 20.0058 13.76C20.0239 13.752 20.0403 13.7452 20.0573 13.7407C20.0646 13.7384 20.072 13.7368 20.0793 13.7356C20.1031 13.7317 20.1274 13.7328 20.1545 13.743C20.1523 13.7271 20.15 13.7124 20.1489 13.6988C20.1478 13.6852 20.1461 13.6716 20.1455 13.6586C20.1449 13.6456 20.1449 13.6331 20.1455 13.6207C20.1472 13.5584 20.1608 13.4972 20.1879 13.3976C20.1647 13.3942 20.1398 13.3891 20.1144 13.3834C19.973 13.3528 19.7989 13.2962 19.67 13.2441C19.683 13.2554 19.6948 13.2673 19.7062 13.2792C19.7062 13.2792 19.7073 13.2798 19.7073 13.2803H19.7067Z" fill="#E67321"/>
<path d="M19.1198 15.5964C19.1707 15.6304 19.2335 15.6627 19.3081 15.6932C19.3827 15.7238 19.4704 15.7521 19.5721 15.7787C19.5015 15.7351 19.4421 15.6893 19.394 15.6411C19.3697 15.6168 19.3482 15.5924 19.3296 15.567C19.3013 15.529 19.2793 15.4894 19.2623 15.4486C19.1792 15.2453 19.2357 15.0075 19.3963 14.7351C19.3997 14.7294 19.4037 14.7232 19.407 14.717C19.493 14.5743 19.6072 14.4225 19.7452 14.2606C19.6892 14.2985 19.6315 14.3415 19.5727 14.3891C19.5591 14.3999 19.5461 14.4106 19.5326 14.4219C19.4862 14.461 19.4398 14.5035 19.394 14.5482C19.2843 14.6541 19.1775 14.7764 19.0791 14.9152C19.0406 14.9695 19.0028 15.0256 18.9677 15.0851C18.8852 15.2674 18.8942 15.4475 19.1192 15.597L19.1198 15.5964Z" fill="#E67321"/>
<path d="M18.2852 16.9051C18.2983 16.8671 18.3056 16.8315 18.3096 16.7969C18.3096 16.7935 18.3107 16.7895 18.3113 16.7862C18.3248 16.631 18.2581 16.5064 18.1987 16.4056C18.1586 16.3371 18.1224 16.2793 18.1168 16.2306C18.1134 16.2018 18.1134 16.1723 18.1156 16.1434C18.1213 16.0562 18.1439 15.9684 18.1529 15.8812C18.0246 16.0058 17.9443 16.1944 17.9121 16.4475C17.959 16.4815 18.0025 16.5166 18.0415 16.5528C18.1586 16.6616 18.24 16.7788 18.2852 16.9056V16.9051Z" fill="#E67321"/>
<path d="M26.6761 16.217L26.6569 16.2323L26.5879 16.3059H27.9421L27.9393 16.3088H27.941L27.1963 17.1044H25.8427L25.7596 17.1933H27.1155L26.3719 17.9895H25.0161L24.9324 18.079H26.2854L25.5425 18.874H25.5464L25.5442 18.8763H24.1877L24.1046 18.9658H25.4605L28.0281 16.217H26.6761Z" fill="#E67321"/>
<path d="M27.237 34.3351H28.1553L28.2384 34.2462H27.3196L27.237 34.3351Z" fill="#E67321"/>
<path d="M19.9159 35.3623L19.7932 35.4201L20.2563 35.6047C20.2563 35.6047 20.2908 35.5735 20.3428 35.5288H20.3434L20.3394 35.5265L19.9159 35.3617V35.3623Z" fill="#E67321"/>
<path d="M20.2049 35.2196L20.5498 35.3572L20.5537 35.3583C20.5877 35.3329 20.6216 35.3085 20.6532 35.2881L20.3276 35.1618L20.2049 35.2196Z" fill="#E67321"/>
<path d="M26.701 32.2999C26.666 32.2784 26.6337 32.2546 26.6049 32.2285C26.6026 32.2263 26.5998 32.224 26.597 32.2223C26.5834 32.2098 26.571 32.1968 26.5585 32.1838C26.4737 32.0909 26.4211 31.9777 26.39 31.8559C26.381 31.8214 26.3736 31.7857 26.368 31.75C26.3623 31.7144 26.3578 31.6781 26.3544 31.6413C26.351 31.6045 26.3493 31.5683 26.3482 31.532C26.3482 31.5139 26.3471 31.4958 26.3471 31.4776C26.3471 31.4233 26.3482 31.3695 26.3505 31.3174C26.3567 31.1781 26.3691 31.0501 26.3719 30.9499C26.3934 30.7353 26.394 30.5552 26.3776 30.4012C26.3753 30.3796 26.3731 30.3593 26.3702 30.3389C26.3674 30.3202 26.3646 30.3021 26.3618 30.2845C26.3522 30.2313 26.3408 30.1814 26.3267 30.135C26.3222 30.1197 26.3171 30.1044 26.312 30.0891C26.3018 30.0591 26.2911 30.0308 26.2792 30.0036C26.2702 29.9832 26.2606 29.9634 26.2509 29.9442C26.2023 29.849 26.1424 29.7692 26.0745 29.6995C26.0429 29.6667 26.0095 29.6361 25.975 29.6072C25.9405 29.5784 25.9043 29.5506 25.867 29.5234C25.8789 29.5483 25.8896 29.5738 25.8998 29.5993C25.9665 29.7647 25.9971 29.934 26.0067 30.1186C26.0084 30.1492 26.0089 30.1797 26.0095 30.2109C26.0106 30.2732 26.0095 30.3377 26.0067 30.404C26.0039 30.4702 25.9999 30.5388 25.9942 30.6101C25.9914 30.6458 25.9886 30.6815 25.9858 30.7183C25.9767 30.8287 25.9654 30.9454 25.9547 31.0688C25.9405 31.2308 25.9349 31.3746 25.9388 31.502C25.9388 31.5054 25.9388 31.5082 25.9388 31.5116C25.9405 31.5581 25.9433 31.6022 25.9479 31.6447C25.9479 31.6492 25.949 31.6543 25.9496 31.6589C25.9592 31.7472 25.9744 31.8265 25.9959 31.8967C26.0129 31.9511 26.0333 32.0003 26.057 32.0445C26.0728 32.0739 26.0909 32.1011 26.1101 32.1266C26.1294 32.1521 26.1509 32.1753 26.1735 32.1963C26.1848 32.207 26.1967 32.2172 26.2091 32.2268C26.2289 32.2421 26.2498 32.2563 26.2719 32.2693C26.2843 32.2767 26.2967 32.2835 26.3097 32.2903C26.3646 32.318 26.4262 32.3395 26.4946 32.3559C26.5218 32.3622 26.55 32.3678 26.5789 32.3724C26.5851 32.3735 26.5919 32.3746 26.5981 32.3752C26.6219 32.3786 26.6467 32.3814 26.6722 32.3837C26.7231 32.3882 26.7762 32.3911 26.8328 32.3916C26.861 32.3916 26.8899 32.3916 26.9198 32.3916C26.882 32.382 26.8475 32.3701 26.8147 32.3571C26.7734 32.3407 26.7355 32.322 26.701 32.301V32.2999Z" fill="#E67321"/>
<path d="M17.8589 34.3883L18.4125 34.6092L18.5041 34.5338L17.9816 34.3305L17.8589 34.3883Z" fill="#E67321"/>
<path d="M22.1816 32.1272C22.6509 33.2223 22.7414 33.531 22.7086 33.5729C22.6809 33.608 22.7278 33.608 22.2981 33.6369C20.5294 33.7161 19.7898 33.7127 19.2301 33.6584C18.6816 33.604 18.3373 33.6635 18.0811 33.7864C17.825 33.9092 17.4931 34.1731 17.4931 34.1731C17.2443 34.3538 17.0277 34.437 16.8977 34.5021C16.7676 34.5673 16.7207 34.6069 16.6958 34.6505C16.6704 34.6941 16.6489 34.7949 16.6597 34.8929C16.6704 34.9908 16.663 35.1601 16.5839 35.3481C16.529 35.4778 16.4092 35.6709 16.3402 35.7785H16.883C16.8903 35.7587 16.8988 35.736 16.909 35.7094C16.9814 35.518 16.9452 35.3153 16.9056 35.1817C16.866 35.048 16.8513 34.9433 16.8909 34.8272C16.9305 34.7117 16.9989 34.6647 17.151 34.5927C17.5157 34.4093 17.8075 34.2235 18.1507 34.0208C18.4939 33.8181 19.0701 33.8639 19.2216 33.8787C20.5283 33.9772 22.4892 33.8656 22.7889 33.8509C23.1219 33.8351 23.0608 33.7195 23.0246 33.651C22.7001 32.9279 22.1827 32.1272 22.1827 32.1272H22.1816Z" fill="#E67321"/>
<path d="M18.7998 34.2886L18.3932 34.1307L18.2705 34.1884L18.7082 34.3628C18.6432 34.4161 18.8003 34.2886 18.8003 34.2886H18.7998Z" fill="#E67321"/>
<path d="M19.9205 34.9965C19.9465 34.9869 19.973 34.9772 19.9996 34.9688C20.0222 34.9614 20.0448 34.9552 20.068 34.9484C20.0884 34.9421 20.1087 34.9359 20.1291 34.9302C20.1738 34.9183 20.219 34.907 20.2642 34.8968C20.262 34.8855 20.2574 34.8753 20.2529 34.8663C20.2518 34.864 20.2507 34.8623 20.2495 34.86C20.2439 34.8515 20.2377 34.8436 20.2303 34.8374C20.2292 34.8368 20.228 34.8357 20.2275 34.8351C20.2201 34.8294 20.2116 34.8243 20.2032 34.8198C20.2015 34.8187 20.1998 34.8181 20.1975 34.817C20.1873 34.8125 20.1766 34.8091 20.1647 34.8062C20.163 34.8062 20.1608 34.8057 20.1591 34.8051C20.1478 34.8028 20.1353 34.8011 20.1229 34.8C20.1217 34.8 20.1206 34.8 20.1195 34.8C20.1053 34.7989 20.0906 34.7983 20.0759 34.7989C20.0742 34.7989 20.0726 34.7989 20.0709 34.7989C20.003 34.8 19.9267 34.8125 19.856 34.8255C19.061 35.0497 18.7218 35.6024 18.6432 36.3584C18.642 36.368 18.6426 36.3759 18.6432 36.3839C18.6844 36.389 18.8303 36.4094 18.9287 36.4609C18.918 36.1251 18.9208 35.834 19.1667 35.5146C19.2024 35.4671 19.2414 35.4223 19.2838 35.3799C19.2844 35.3793 19.2849 35.3782 19.286 35.3776C19.307 35.3572 19.3296 35.338 19.3516 35.3187C19.3805 35.2932 19.411 35.2694 19.4427 35.2462C19.4444 35.2451 19.4461 35.244 19.4472 35.2428C19.4772 35.2207 19.5088 35.1998 19.5411 35.1794C19.5444 35.1771 19.5484 35.1749 19.5518 35.1726C19.5823 35.1539 19.614 35.1358 19.6462 35.1182C19.6524 35.1148 19.6587 35.1114 19.6649 35.1086C19.6954 35.0928 19.7259 35.0775 19.7576 35.0633C19.7672 35.0588 19.7774 35.0548 19.7876 35.0503C19.8164 35.0378 19.8458 35.0254 19.8758 35.0135C19.8905 35.0078 19.9058 35.0027 19.9205 34.9971V34.9965Z" fill="#E67321"/>
<path d="M27.3835 33.3503L27.3139 33.4251H27.9489C27.9489 33.4251 27.9919 33.3764 28.0286 33.3362H27.3965L27.3829 33.3509L27.3835 33.3503Z" fill="#E67321"/>
<path d="M19.5721 15.7787C19.0067 15.4316 19.1775 14.9259 19.7452 14.2606C19.4862 14.4355 19.1894 14.7102 18.9683 15.0845C18.8478 15.3495 18.9225 15.61 19.5721 15.7787Z" fill="#E67321"/>
<path d="M18.1168 16.2306C18.1043 16.114 18.1411 15.9973 18.1529 15.8812C18.0246 16.0058 17.9443 16.1944 17.9121 16.4475C18.1004 16.584 18.2247 16.7369 18.2852 16.9056C18.3978 16.5783 18.132 16.3699 18.1168 16.2306Z" fill="#E67321"/>
</g>
<defs>
<clipPath id="clip0_1796_21055">
<rect width="39" height="50" fill="white"/>
</clipPath>
</defs>
</svg>
