<svg width="40" height="50" viewBox="0 0 40 50" fill="none" xmlns="http://www.w3.org/2000/svg">
<path d="M0.0279078 0C0.0262704 3.09683 0.0119685 26.4726 0.00449982 38.6503C0.00201245 42.706 3.28908 45.9799 7.34474 45.9799H15.9217C19.7125 46.4824 19.691 49.6084 19.7125 50C19.7125 50 19.7125 46.4824 23.5034 45.9799H32.0848C36.1387 45.9799 39.4251 42.6936 39.4251 38.6397V0H0.0279078Z" fill="#303030"/>
<path d="M20.905 7.82748L19.6127 7.13205L18.3419 7.82748L19.1302 6.60995L18.3203 5.28116L19.6127 6.10925L20.905 5.25977L20.1598 6.60995L20.905 7.82748Z" fill="#EEEE20"/>
<path d="M32.7334 13.2454L31.4174 12.5714L30.1487 13.269L30.937 12.0493L30.125 10.7013L31.4174 11.5486L32.7097 10.6777L31.9881 12.0493L32.7334 13.2454Z" fill="#EEEE20"/>
<path d="M38.1003 24.8451L36.808 24.171L35.5372 24.8665L36.3255 23.6489L35.5156 22.2987L36.808 23.1482L38.1003 22.2773L37.3551 23.6489L38.1003 24.8451Z" fill="#EEEE20"/>
<path d="M32.6667 36.4213L31.3744 35.7473L30.1036 36.4427L30.8919 35.2252L30.082 33.875L31.3744 34.7245L32.6667 33.875L31.9215 35.2252L32.6667 36.4213Z" fill="#EEEE20"/>
<path d="M20.905 41.7533L19.6127 41.0771L18.3419 41.7747L19.1302 40.555L18.3203 39.2069L19.6127 40.0543L20.905 39.1855L20.1598 40.555L20.905 41.7533Z" fill="#EEEE20"/>
<path d="M9.18236 36.4427L7.89001 35.7473L6.6192 36.4427L7.40968 35.2252L6.59766 33.8964L7.89001 34.7245L9.18236 33.875L8.4608 35.2252L9.18236 36.4427Z" fill="#EEEE20"/>
<path d="M3.86015 24.8022L2.5678 24.126L1.27545 24.8236L2.06378 23.6039L1.25391 22.2559L2.5678 23.1032L3.83861 22.2559L3.11489 23.6039L3.86015 24.8022Z" fill="#EEEE20"/>
<path d="M22.7648 17.5132C22.7648 17.5132 23.6846 17.556 24.2317 17.4918C25.2397 17.143 26.532 14.7507 27.7361 14.7935C28.8755 14.7935 35.4902 14.7935 35.4902 14.7935L32.5113 17.7528H27.9795C27.9795 17.7528 24.7378 20.864 24.4083 21.0609C24.1024 21.2577 23.7944 21.3005 23.7944 21.3005L19.0859 21.2577L20.0272 16.8413L22.7648 17.5132Z" fill="#EEEE20"/>
<path d="M5.83203 21.7103C5.83203 21.7103 5.94188 21.0791 6.20466 20.6875C6.46744 20.2531 7.49701 19.2731 7.49701 19.2731C7.49701 19.2731 10.6073 17.7068 10.7602 17.6405C10.9131 17.5742 11.1544 17.5314 11.3073 17.6405C11.4602 17.7496 13.9351 20.3173 13.9351 20.3173C13.9351 20.3173 14.7902 19.2068 15.5333 18.9671C15.9705 18.445 16.761 17.5956 17.3081 17.2489C17.3081 16.4872 17.4826 15.3124 17.4826 15.3124C17.4826 15.3124 15.949 15.2696 15.4902 15.1819C14.5726 14.923 13.0175 12.55 12.492 12.0279C12.2076 11.8096 12.0762 11.5486 12.0547 11.4181C12.1215 11.1356 12.3606 11.0907 12.3606 11.0907C12.3606 11.0907 12.4704 10.8724 12.6901 10.8724C12.8215 10.6114 13.0197 10.6114 13.2157 10.6328C13.4354 10.3931 13.6981 10.5664 13.6981 10.5664L14.0923 10.7847C14.0923 10.7847 14.1806 11.264 13.9609 11.5465C14.1591 12.2205 15.6044 12.9822 16.1084 13.8745C16.7869 13.8745 17.489 13.8745 18.146 13.9173C18.6715 13.851 19.9424 14.7219 19.9424 14.7219L20.0737 14.7433L20.1168 14.1334C20.1168 14.1334 19.5245 14.0457 19.503 13.8296C19.4599 13.6777 19.6128 13.3952 19.6128 13.3952L19.8325 13.2219L19.8756 12.918C19.8756 12.918 19.6559 12.8089 19.6559 12.6998C19.6559 12.5907 20.6424 11.5465 20.6424 11.5465C20.6424 11.5465 21.2993 11.5251 21.7366 11.5465C22.1523 11.5465 22.6132 11.938 22.7231 12.1777C22.7446 12.2868 22.7231 12.9394 22.7231 12.9394H23.3154V13.2433L22.7683 13.7654L22.5486 13.8082L22.5271 14.0906L22.2858 14.3303L22.023 14.3517C22.023 14.3517 22.023 14.6555 22.0446 14.8952C22.6585 14.8738 23.7742 14.8288 24.4311 15.3745C25.1764 15.3745 26.5334 15.4173 26.5334 15.4173C26.5334 15.4173 27.2334 15.4601 27.606 15.4836C28.4826 15.5499 30.2338 15.6355 30.2338 15.6355L30.628 15.2654L31.5046 15.2868L31.8772 15.6997L31.8557 15.9608C31.8557 15.9608 31.7028 15.9822 31.6575 16.0036C31.6144 16.1341 31.5261 16.2432 31.3947 16.286C31.3947 16.3951 31.2849 16.5043 31.1966 16.5257C31.1083 16.699 30.9123 16.7867 30.9123 16.7867L30.1239 16.8081L29.7944 16.5257L25.3724 16.6412L25.1096 16.7931L23.4662 16.7717C23.4662 16.7717 21.4738 19.2517 20.1147 19.9493C18.7555 20.6468 19.0205 22.4079 19.1066 22.8872C19.1949 23.3451 19.3694 24.4749 21.3403 25.2816C23.3326 26.0861 24.8016 27.7188 24.7348 29.1117C26.0487 29.8072 27.298 31.6366 27.298 31.6366L27.3411 33.5731L28.9845 33.5517L29.006 33.7037L27.9786 34.5938H29.0513L26.9491 36.7699L25.9863 35.5952V35.0517L25.0665 34.1594L25.3078 30.9177L24.6077 30.0254C24.6077 30.0254 23.1409 31.8977 21.8249 32.5717C22.4603 33.1602 23.841 35.0303 24.0154 35.3791C24.1899 35.7279 24.0585 36.0317 23.7096 36.0531C23.3585 36.0531 20.4679 36.0103 20.4679 36.0103L21.0365 36.2714L20.0501 37.0117L19.0205 36.9903L19.042 37.9254L17.0712 37.9468L17.9694 36.5538L19.042 35.5096L19.1734 35.3791H18.8676L18.0577 36.0103C18.0577 36.0103 17.7949 36.0103 17.5321 35.9675C16.9183 35.6637 16.8752 36.2286 17.0712 36.4254C17.1143 36.6223 17.1143 37.0139 17.1143 37.0139H15.012L15.8434 35.6637L17.8358 34.337L20.7264 34.2493L18.1201 31.5939C18.1201 31.5939 18.0986 30.984 18.0771 30.0489C16.7632 28.9833 12.535 27.0469 12.5566 24.1518C12.3821 24.1732 12.0095 24.1304 12.0095 24.1304L10.1916 21.9114L10.2583 23.6083L10.9153 25.1104L10.5427 25.2409L10.6094 25.4142L11.0919 25.3265L11.7488 26.85L10.1937 26.6532L9.12107 24.8472L9.16414 19.9514L9.77801 19.5599L11.947 21.1711L10.5879 19.0827L8.92291 19.5834L8.33058 20.557H7.63055L7.43239 20.7966L7.73825 20.8844V21.7552L5.83203 21.7103Z" fill="#EEEE20"/>
<path d="M12.2494 11.5694C12.0749 11.548 12.0297 11.8732 11.6807 11.9395C8.57046 11.9395 8.72339 13.8996 8.67816 14.1371C8.65662 14.3553 8.72124 15.7911 8.72124 16.2704C8.56831 17.4024 7.69166 17.7511 7.69166 17.7511V18.0336C7.69166 18.0336 7.67012 18.2304 8.02121 18.055C8.3723 17.8817 9.09387 17.0108 9.1391 16.3132C9.18218 15.6178 9.1391 14.9202 9.22741 14.1799C9.77451 12.1129 11.6807 12.896 12.4691 11.8946C12.3377 11.6999 12.4238 11.6143 12.2494 11.5694Z" fill="#EEEE20"/>
<path d="M13.7415 10.7436C13.7631 10.5703 14.0926 10.6345 14.2886 10.3306C15.3613 7.45906 17.1792 8.285 17.3989 8.3278C17.6401 8.39413 18.954 8.95903 19.4149 9.11095C20.5328 9.372 21.1682 8.69798 21.1682 8.69798L21.431 8.78571C21.431 8.78571 21.6292 8.8285 21.3427 9.08955C21.0368 9.372 19.9836 9.74218 19.3051 9.52392C18.6266 9.32707 17.9912 9.04462 17.2459 8.8499C15.1222 8.63164 15.1868 10.6773 13.9612 11.0474C13.8277 10.8527 13.7178 10.9169 13.7415 10.7436Z" fill="#EEEE20"/>
<path d="M25.2184 21.4054L24.9793 21.645L24.8242 21.4482L25.0224 21.2748L24.8242 21.1015L26.4677 19.6657L26.7304 19.6422L32.7097 13.9205L32.4922 13.79L34.1787 12.6152L33.1276 14.2671L32.9294 14.0938L26.9501 19.8391L26.9286 20.1429L25.3498 21.645L25.2184 21.4054Z" fill="#EEEE20"/>
<path d="M13.875 13.1387C13.875 13.1387 14.9477 14.4889 15.7597 14.7713C16.5696 14.8804 17.6207 14.9446 17.6207 14.9446L17.5991 15.1843C17.5991 15.1843 15.7597 15.1415 15.4086 15.0324C14.728 14.66 13.875 13.1387 13.875 13.1387Z" fill="#F59D2A"/>
<path d="M19.612 15.7695C17.7273 16.9015 19.4375 17.2716 19.4375 17.2716C19.4375 17.2716 19.0864 16.9229 19.0864 16.7281C19.0649 16.5313 19.1962 16.3794 19.612 15.7695Z" fill="#F59D2A"/>
<path d="M17.9686 17.3145C17.7273 17.8366 17.947 17.9243 17.947 17.9243C17.947 17.9243 18.0569 17.9671 18.0569 18.0334C18.0569 18.1211 18.0784 18.3159 18.1237 18.2945C18.1904 18.2731 18.1904 17.8601 18.1904 17.8601C18.1904 17.8601 18.0806 17.8173 18.059 17.751C18.0353 17.706 17.9686 17.3145 17.9686 17.3145Z" fill="#F59D2A"/>
<path d="M19.6094 18.078C20.1565 17.8382 20.1349 17.8382 20.3762 17.881C20.6389 17.9025 21.186 17.9025 21.186 17.9025C21.186 17.9025 20.8134 18.1209 20.5722 18.1637C20.3331 18.2087 19.6094 18.078 19.6094 18.078Z" fill="#F59D2A"/>
<path d="M19.6094 18.5992C19.6094 18.5992 19.7192 18.3808 19.982 18.3808C20.2448 18.3594 20.5291 18.4022 20.7273 18.3594C20.9254 18.3165 20.9017 18.293 20.9017 18.293C20.9017 18.293 20.5506 18.597 20.3546 18.642C20.178 18.6656 19.6094 18.5992 19.6094 18.5992Z" fill="#F59D2A"/>
<path d="M19.6103 19.2299C19.5436 19.2299 19.3906 19.0329 19.6103 18.9472C19.8731 18.8594 19.8731 19.0136 20.2457 18.9687C20.334 18.9472 20.3987 18.9258 20.4654 18.8809C20.334 19.0993 20.0928 19.1849 20.0928 19.1849C20.026 19.2085 19.6771 19.2299 19.6103 19.2299Z" fill="#F59D2A"/>
<path d="M7.69586 21.6895V20.9492L7.45462 20.8614L7.60755 20.4699L8.30758 20.4913L8.32911 20.3393H7.84664V20.2516L8.39373 20.273L8.41527 20.1211L7.99956 20.0997V20.0333H8.65866V19.8814H8.24296L8.33127 19.7295L8.79221 19.7081C8.79221 19.7081 9.60208 19.0769 10.5455 19.0555C10.5886 18.9036 10.5455 18.5762 10.5455 18.5762L8.24511 19.599C8.24511 19.599 7.43524 20.0333 7.01953 20.9042C7.28231 21.0348 7.52355 21.0562 7.52355 21.0562L7.21769 21.6874H7.69586V21.6895Z" fill="#F59D2A"/>
<path d="M9.75608 21.168L10.1933 21.9083L10.2149 23.7143L10.8503 25.1073L10.4561 25.3041L10.4776 25.6529C10.4776 25.6529 9.95209 25.5866 9.77762 23.7164C9.57946 21.8655 9.75608 21.168 9.75608 21.168Z" fill="#F59D2A"/>
<path d="M11.9475 21.0586C11.9475 21.0586 12.5398 21.6235 12.9555 21.1464C13.3497 20.6671 13.9636 20.2969 13.9636 20.2969C13.9636 20.2969 13.1752 21.5165 13.0654 21.5807C12.9555 21.6235 12.4515 21.7113 11.8829 21.08C11.8807 21.0372 11.9475 21.0586 11.9475 21.0586Z" fill="#F59D2A"/>
<path d="M12.5562 24.1254C12.5562 24.1254 13.0602 23.9069 13.7602 24.4294C13.7387 24.5387 13.6073 24.4509 13.6073 24.4509C13.6073 24.4509 13.2562 24.1682 12.5777 24.2324C12.5346 24.2346 12.5562 24.1254 12.5562 24.1254Z" fill="#F59D2A"/>
<path d="M18.2753 18.8594C18.2753 18.8594 18.5596 19.5548 18.7578 19.6639C18.956 19.7731 19.3501 19.7067 19.3501 19.7067L19.6129 19.4885H20.5326C20.5326 19.4885 18.2322 20.4449 18.4304 22.2295C18.5833 22.8821 18.999 23.6225 18.999 23.6225C18.999 23.6225 18.4519 22.6425 18.3636 22.2958C18.1009 21.3608 18.3421 20.2502 18.3421 20.2502C18.3421 20.2502 17.8575 19.5783 18.2753 18.8594Z" fill="#F59D2A"/>
<path d="M16.2812 36.6394L16.6108 36.2906L16.5893 35.5952L18.013 34.7907L19.2838 34.8121V34.7029L22.4824 34.6601C22.4824 34.6601 22.8335 34.6173 22.6569 34.3114C22.4824 34.0289 21.9331 33.1152 21.9331 33.1152L23.1609 34.6815C23.1609 34.6815 23.5335 35.1608 22.9627 35.1608C22.3919 35.1608 19.8094 35.1394 19.8094 35.1394L19.4152 35.0303L18.4955 35.0089L18.3426 34.9661L18.2995 35.0089L18.6053 35.1822L18.5838 35.27H18.321L18.1013 35.118H17.9699V35.1844L18.2327 35.3577V35.5096H18.0345L17.7287 35.2914L17.005 35.6829C17.005 35.6829 16.8305 35.8798 16.9834 36.1623C17.1148 36.4447 17.0265 36.663 17.0265 36.663L16.2812 36.6394Z" fill="#F59D2A"/>
<path d="M21.6267 32.4828C21.4737 32.2645 20.9266 31.8729 21.6697 31.5905C22.5012 31.2417 23.2033 30.7859 23.8818 30.3066C22.5895 31.46 21.6913 31.6782 21.5384 31.8088C21.2756 32.0056 21.7128 32.3972 21.7128 32.3972L22.7639 33.8993V34.2031C22.7639 34.2031 21.7581 32.701 21.6267 32.4828Z" fill="#F59D2A"/>
<path d="M25.5273 30.459C25.5273 30.459 26.0314 30.6772 26.0314 31.439C26.0529 32.526 25.8332 32.9625 26.7551 33.4183C26.4492 33.3755 25.8784 33.3305 25.6824 32.8962C25.4606 32.4597 25.9861 31.0239 25.5273 30.459Z" fill="#F59D2A"/>
<path d="M19.8308 17.2728C19.8308 17.2728 20.8173 17.2728 21.1447 17.2728C21.4721 17.2728 22.8312 15.4882 23.555 15.4668C23.555 15.7064 23.2922 15.7706 23.2922 15.7706L26.6868 15.8134L26.1181 16.2264L29.4481 16.2927L29.7539 16.5966H25.0455L25.3082 16.3569L23.0962 16.2906C23.0962 16.2906 22.8765 16.312 22.7235 16.4211C22.5922 16.5517 21.7823 17.5959 21.4312 17.6173C21.037 17.66 19.6133 17.5959 19.6133 17.5959L19.8308 17.2728Z" fill="#F59D2A"/>
<path d="M19.6094 14.7051C19.6094 14.7051 20.0035 14.7715 20.0703 15.163C20.0919 15.2722 20.2448 15.163 20.2448 15.163L20.8802 14.3799L20.7057 14.1188L20.9685 13.5753C20.9685 13.5753 20.99 12.5311 20.486 12.0518C20.2448 11.8336 20.6174 12.0304 20.6174 12.0304L20.7919 12.009L20.8134 11.8785C20.8134 11.8785 20.6389 11.6816 20.7036 11.6816C20.7703 11.6816 20.835 11.6816 21.0547 11.8999C21.2076 12.4883 20.8802 13.7936 21.7547 14.1638C22.1273 14.3157 21.5134 14.2301 21.5134 14.2301C21.5134 14.2301 20.9879 14.8399 21.339 15.0132C21.7762 15.2315 21.7999 15.0346 21.7999 15.0346L21.8215 15.1866L20.4192 15.208C20.4192 15.208 19.8937 15.3385 19.8269 15.2294C19.6525 14.9876 19.6094 14.7051 19.6094 14.7051Z" fill="#F59D2A"/>
<path d="M21.2344 11.9199C21.2344 11.9199 21.2344 12.7031 21.4088 12.855C21.5833 12.9855 21.5187 12.5939 21.5187 12.5939L21.2344 11.9199Z" fill="#F59D2A"/>
<path d="M21.4727 12.0488C21.4727 12.0488 21.561 12.9197 21.9982 12.9839C22.4591 13.0267 22.5022 12.9839 22.5022 12.9839L22.4139 12.8106C22.4139 12.8106 22.1727 12.8769 21.9767 12.7678C21.7807 12.6587 21.4727 12.0488 21.4727 12.0488Z" fill="#F59D2A"/>
<path d="M20.2461 12.3314C20.2461 12.3314 20.399 12.3099 20.4206 12.1579C20.4421 12.0273 20.7501 12.6804 20.7501 12.6804L20.2461 12.3314Z" fill="#F59D2A"/>
<path d="M19.8086 13.7042C19.8969 13.4858 20.2911 13.2031 20.2911 13.2031C20.2911 13.2031 20.3126 13.3766 20.2911 13.4215C20.2674 13.4644 19.8086 13.7042 19.8086 13.7042Z" fill="#F59D2A"/>
<path d="M19.7852 13.855C19.7852 13.855 19.895 13.8764 20.0479 13.6817C20.2009 13.5083 20.595 13.5297 20.595 13.5297C20.595 13.5297 20.7264 13.5083 20.748 13.3115C20.748 13.1146 20.5498 12.9627 20.6381 12.8771C20.7049 12.7894 20.791 12.6375 20.791 12.7038C20.791 12.7466 20.944 13.4442 20.8793 13.5533C20.791 13.6838 20.6166 13.9235 20.6166 14.054C20.595 14.1631 20.6381 14.2508 20.6381 14.2508C20.6381 14.2508 20.1578 14.0304 20.0716 14.0304C19.9618 14.009 20.3775 13.8336 20.3775 13.8336C20.3775 13.8336 20.707 13.7031 20.7286 13.6153C20.7717 13.5062 20.5089 13.7245 20.4227 13.7245C20.3129 13.7031 20.1384 13.8336 20.0716 13.8764C20.0049 13.8999 19.7852 13.855 19.7852 13.855Z" fill="#F59D2A"/>
<path d="M21.4295 13.3114C21.4295 13.3114 21.8904 13.6604 22.4375 13.6604C22.9631 13.6604 22.3062 13.7268 22.3062 13.7268C22.3062 13.7268 21.5394 13.639 21.4511 13.4656C21.3649 13.29 21.4295 13.3114 21.4295 13.3114Z" fill="#F59D2A"/>
<path d="M19.9826 12.7013C20.2238 12.8983 20.0709 12.984 20.0709 12.984C20.0493 12.984 19.8512 12.984 19.8727 12.8962C19.8943 12.8298 19.8943 12.6777 19.8943 12.6777L20.0041 12.7206L19.9826 12.7013Z" fill="#F59D2A"/>
<path d="M24.3203 20.1015L25.505 20.0801L25.3736 20.2107H24.3203V20.1015Z" fill="#F59D2A"/>
<path d="M25.1953 19.3809H26.2701L26.1603 19.4901H25.1953V19.3809Z" fill="#F59D2A"/>
<path d="M26.1406 18.4902L27.1917 18.5138L27.125 18.578H26.1406V18.4902Z" fill="#F59D2A"/>
<path d="M28.0228 17.752H26.7305V17.8398H28.0228V17.752Z" fill="#F59D2A"/>
<path d="M33.7046 16.5332H31.5938V16.6617H33.7046V16.5332Z" fill="#F59D2A"/>
<path d="M34.6612 15.5742H32.4922V15.6813H34.6612V15.5742Z" fill="#F59D2A"/>
<path d="M29.707 16.1195L30.364 16.0981L30.868 15.5097L31.0209 15.4883L31.4388 15.7921L31.372 15.9013L31.0209 15.5974L30.8465 15.7279L31.2406 16.0318L31.176 16.0981L30.7581 15.8135L30.6052 15.9676L31.0209 16.2714L30.9778 16.3142L30.5621 16.0104L30.4523 16.1623L30.8465 16.5111L30.364 16.1837L30.2778 16.2928L30.5406 16.6844H30.0581L30.015 16.3806L29.707 16.1195Z" fill="#F59D2A"/>
<path d="M12.3417 11.0923L12.6476 11.4839L12.822 11.4625L12.8436 11.3962L12.5593 10.9832L12.6023 10.9404L12.8651 11.332L13.0633 11.3534V11.2014L12.7574 10.7671L12.8242 10.7457L13.13 11.1372L13.3045 11.0495L13.13 10.6365L13.1968 10.5938L13.395 10.8334C13.395 10.8334 13.5694 10.8548 13.5694 10.8762C13.5694 10.919 13.5479 11.0731 13.5479 11.0731L13.242 11.3127L13.2205 11.5524L13.9658 12.4018L13.0891 11.6187L12.5636 11.7492L12.5851 11.4882L12.3008 11.1394L12.3417 11.0923Z" fill="#F59D2A"/>
<path d="M26.8164 15.3568H27.7146L29.9482 15.5088L30.4091 15.1386L31.3935 15.1172L31.5916 15.4874L31.6132 15.8361L30.715 16.7498H29.9697L29.2482 17.5544L28.8971 17.533L29.7522 16.6621H30.6935L31.5464 15.7912L31.5249 15.4874L31.3073 15.1835L30.4738 15.2049L30.015 15.5965L27.7146 15.466L26.8164 15.421V15.3568Z" fill="#F59D2A"/>
<path d="M19.1489 21.059C19.1489 21.059 19.5646 20.1881 20.5942 19.6874C21.3179 19.3387 22.9592 17.3594 22.9592 17.3594C22.9592 17.3594 21.6453 18.9043 20.6157 19.3836C19.6292 19.6018 18.5781 21.059 18.5781 21.059H19.1489Z" fill="#F59D2A"/>
<path d="M31.418 15.1593L31.8358 14.791L32.1848 14.8124L31.5278 15.3778L31.418 15.1593Z" fill="#F59D2A"/>
</svg>
