<svg width="39" height="50" viewBox="0 0 39 50" fill="none" xmlns="http://www.w3.org/2000/svg">
<g clip-path="url(#clip0_1743_33817)">
<path d="M38.9649 0H0.0407156C0.0214943 0.0283139 0.0096223 0.0628568 0.0096223 0.100231C-0.00338033 9.62218 1.16567e-05 17.8598 0.00227298 26.5901C0.00340365 30.4782 0.00509964 34.4642 0.00509964 38.7039C-0.0186443 43.0467 3.98108 44.4539 5.11627 44.4652C7.49857 44.4652 10.2947 44.4539 12.0037 44.4477C12.7556 44.4443 13.2972 44.4426 13.5001 44.4426C15.5116 44.4426 18.9432 45.143 19.3214 49.8233C19.3214 49.8352 19.3225 49.8471 19.3248 49.8579C19.3332 49.9094 19.3632 49.9496 19.405 49.974C19.4322 49.9909 19.4638 50.0006 19.4977 50.0006C19.5865 50.0006 19.6606 49.9349 19.673 49.8488C19.6736 49.8437 19.6741 49.8386 19.6747 49.8335C19.6747 49.8318 19.6747 49.8301 19.6747 49.8278C20.0546 45.1374 23.4862 44.4369 25.4982 44.4369C25.7011 44.4369 26.2422 44.4392 26.994 44.442C28.7036 44.4488 31.5003 44.4595 33.8849 44.4595C35.0189 44.4482 39.0187 43.041 38.9955 38.6994C38.9955 34.501 38.9972 30.5523 38.9977 26.7011C39.0006 17.9272 39.0034 9.65786 38.9904 0.094002C38.9904 0.0594591 38.9802 0.0277476 38.9633 0.000566277L38.9649 0Z" fill="#1A1A18"/>
<path d="M32.4921 13.1478L33.0083 12.5952L33.1163 12.7735L34.4349 10.7208L32.4734 12.2316L32.6589 12.3058L31.8712 13.1495L28.01 13.1563H28.0037C27.4564 13.1869 26.9679 13.4032 26.5506 13.8002C25.9665 13.726 25.314 13.7039 24.6095 13.7351C24.3929 13.7447 24.251 13.6569 24.1012 13.5641C24.0622 13.5397 24.0215 13.5142 23.9802 13.4916C23.4306 13.1903 22.8505 13.1524 22.1623 13.3755C22.1341 13.2736 22.112 13.1275 22.1013 13.0561C22.0911 12.9768 22.0837 12.8936 22.0764 12.8132C22.0764 12.8109 22.0764 12.8086 22.0758 12.8064C22.1267 12.8052 22.1799 12.8098 22.2409 12.8205L22.3026 12.8319L22.3444 12.7849C22.4077 12.7141 22.445 12.6727 22.4818 12.6308C22.5191 12.5889 22.5564 12.547 22.6203 12.4762C22.6791 12.4111 22.6701 12.3256 22.6526 12.2594L22.6576 12.2582C22.7922 12.2209 22.8906 12.1591 22.9573 12.0714L22.9658 12.0583C23.0512 11.906 23.1937 11.769 23.3446 11.6234L23.4057 11.564V11.5164C23.4068 11.4445 23.3701 11.3788 23.2971 11.3199L23.27 11.2978L23.2349 11.295C23.1179 11.2865 22.9856 11.2803 22.8488 11.3046C22.8454 11.2638 22.8425 11.2242 22.8391 11.1857C22.8007 10.6874 22.7753 10.3578 22.4807 10.1687C22.0085 9.86514 21.5127 9.83513 21.0451 9.85268C20.8992 9.7734 20.7618 9.77793 20.6368 9.8657L20.6278 9.8725C20.5237 9.96197 20.4152 10.0656 20.3343 10.2615L20.3208 10.2898C20.2817 10.3731 20.2659 10.4076 20.1856 10.4897C20.0126 10.6483 19.8481 10.8839 19.7514 11.0521C19.7163 11.1126 19.7237 11.1891 19.7683 11.2423C19.783 11.2599 19.7994 11.278 19.8153 11.2961C19.8271 11.3091 19.8384 11.3222 19.8498 11.3352L19.8175 11.5651L19.7774 11.5572L19.7333 11.7633C19.709 11.7661 19.6846 11.7707 19.6592 11.7786L19.636 11.786L19.6179 11.8024C19.4941 11.9145 19.5037 12.2276 19.5467 12.3256L19.5518 12.3375L19.5597 12.3477C19.6202 12.4298 20.0573 12.6331 20.2902 12.7328C20.2478 12.8568 20.2337 12.9015 20.2201 12.9446C20.2071 12.9853 20.1941 13.0278 20.1545 13.1427C20.0782 13.1122 20.0041 13.0759 19.9283 13.0318C19.8147 12.9559 19.7101 12.8585 19.5993 12.7554C19.3369 12.5114 19.0401 12.2344 18.5397 12.1891C18.1778 12.1603 17.8221 12.2543 17.6825 12.2973C17.2935 12.2022 16.7789 12.1818 16.2265 12.2395C15.9743 12.239 15.8957 12.1059 15.7957 11.9377C15.773 11.8998 15.7499 11.8607 15.725 11.8245C15.5016 11.4841 15.2195 11.2265 14.7762 10.8697C14.5116 10.6568 14.2973 10.355 14.0903 10.0633C14.0632 10.0254 14.0366 9.98745 14.0089 9.94951L14.0168 9.94328L14.0264 9.92913C14.178 9.70941 14.1763 9.51574 14.1497 9.39456L14.1882 9.37191C14.5647 9.15163 15.1036 8.78978 15.4372 8.19405C15.8952 7.48394 16.11 7.44261 16.499 7.36729L16.5443 7.35823C17.0724 7.29934 17.4665 7.42845 17.9646 7.5921C18.0969 7.63571 18.2343 7.68044 18.3825 7.72461C19.6315 8.09666 20.5933 7.99756 21.4098 7.41203C21.537 7.32086 21.5426 7.17023 21.4833 7.07509C21.4222 6.97656 21.3052 6.94428 21.2056 6.99808C20.5249 7.36672 19.9255 7.47885 19.2628 7.36163C18.8156 7.28291 18.4475 7.15267 18.0913 7.02639C17.7582 6.90861 17.4439 6.79762 17.0814 6.73023C16.9842 6.71154 15.7877 6.50145 15.2048 7.39164C15.1307 7.50546 15.0606 7.61985 14.9933 7.73027C14.7168 8.18386 14.455 8.61253 13.9269 8.90303C13.8161 8.74674 13.6148 8.77732 13.5017 8.79487C13.3756 8.80846 13.2524 8.85886 13.1687 8.92908C13.167 8.92795 13.1647 8.92682 13.163 8.92568L13.1433 8.91606C13.1302 8.91153 13.0138 8.87132 12.8832 8.94437L12.8781 8.9472C12.8357 8.97382 12.7921 9.01233 12.7712 9.06442C12.7209 9.05933 12.6547 9.06612 12.5835 9.11369L12.5784 9.11709C12.5066 9.17032 12.4738 9.23714 12.4647 9.29886C12.428 9.30283 12.3861 9.31642 12.3409 9.34813L12.3364 9.35152C12.2702 9.40306 12.2363 9.47101 12.2374 9.54463C12.208 9.55085 12.1758 9.56331 12.1419 9.5854C12.0407 9.65165 12.0237 9.7768 12.0622 9.8742L12.0599 9.88722L12.0825 9.92346C12.108 9.96424 12.1453 10.0152 12.1877 10.0707C11.7715 10.3221 11.3559 10.394 10.9172 10.4699L10.8589 10.4801C10.2217 10.5905 9.42842 10.7281 8.91275 11.8715C8.60403 12.5561 8.64474 13.2736 8.68375 13.9678C8.69393 14.1462 8.70411 14.3302 8.70806 14.5086C8.7239 15.2459 8.4508 15.7669 7.7655 16.3077C7.65581 16.3943 7.62923 16.5421 7.70444 16.6452C7.74232 16.6973 7.80565 16.7324 7.88368 16.7324C7.94474 16.7324 8.01542 16.7109 8.09119 16.6588C9.03714 16.0098 9.38544 15.3529 9.33399 14.3172C9.30119 13.4491 9.26331 12.4649 9.75297 11.8624C10.1719 11.3284 10.5949 11.2027 11.1925 11.0713C11.7076 10.9581 12.1289 10.7655 12.5168 10.4671C12.5213 10.4722 12.5247 10.4762 12.5258 10.4773L12.5597 10.5164H12.5784C12.6095 10.5379 12.6485 10.5588 12.6937 10.5837C12.7882 10.6353 12.9052 10.6993 12.9629 10.77L13.4904 11.4875C14.0304 12.2718 14.5059 12.8925 14.9068 13.3347C15.1788 13.6218 15.436 13.7334 15.889 13.7606C16.1739 13.7832 16.4612 13.8127 16.7394 13.841C16.9486 13.8625 17.1634 13.884 17.3783 13.9033C17.2041 14.4525 17.1284 14.8727 17.2799 15.1242C17.2658 15.238 17.2403 15.4107 17.2137 15.593C17.1843 15.7958 17.1532 16.0047 17.1351 16.1536C16.5629 16.4566 16.3662 16.6033 15.8873 17.1979C15.8268 17.2766 15.6826 17.3592 15.5435 17.4391C15.4773 17.477 15.4089 17.5161 15.3461 17.5563C15.0685 17.7262 14.8514 17.8859 14.6625 18.0586L14.6563 18.0631C14.6501 18.0677 14.6439 18.0722 14.6377 18.0773L14.6303 18.0841C14.4172 18.284 14.2051 18.5145 13.9993 18.7687C13.9207 18.6991 13.5718 18.387 13.1597 17.9669L12.3748 17.1152C12.2731 17.0002 12.1786 16.8932 12.0921 16.7952C11.7602 16.4181 11.5595 16.1899 11.4492 16.1168C11.2038 15.96 10.9307 15.9498 10.6379 16.0868L10.626 16.0931C10.3845 16.2437 10.1346 16.392 9.88302 16.5347L9.88132 16.5325C9.88132 16.5325 9.8293 16.5631 9.74053 16.6135C9.27123 16.8751 8.78496 17.1242 8.29644 17.3525C8.09062 17.4442 7.90007 17.5223 7.7344 17.5818L7.70557 17.5909C7.56138 17.635 7.36405 17.6945 7.24757 17.9153C7.08417 18.1424 6.53231 18.8248 6.14952 19.1464C5.84476 19.408 5.61067 19.8962 5.58127 20.3333L5.57166 20.4755L5.71188 20.4528C5.72319 20.4511 6.85573 20.2716 7.38554 20.4483L7.45056 20.4698L7.49975 20.4222C7.5105 20.412 7.75872 20.1657 7.75476 19.5473V19.5264L7.74684 19.5066C7.73723 19.4817 7.72366 19.4567 7.71009 19.4307C7.66995 19.3554 7.64337 19.2987 7.66486 19.2546C7.69991 19.1832 7.73101 19.1408 7.85088 19.1425C7.94305 19.1442 8.0403 19.1702 8.12568 19.1929C8.19127 19.2104 8.24724 19.2251 8.29587 19.228L8.35354 19.2308L8.38973 19.1855C8.48981 19.0603 8.72785 18.6775 8.87713 18.3859C8.97381 18.2551 9.32947 17.9357 10.5864 17.6452L11.8066 19.5898C11.1552 19.1532 10.5219 18.6555 10.207 18.3281C10.0849 18.1832 9.92146 18.1033 9.74618 18.1033C9.74505 18.1033 9.74336 18.1033 9.74223 18.1033C9.59239 18.1045 9.45329 18.1656 9.37131 18.2676C9.21186 18.4646 9.17454 18.664 9.21695 19.0875C9.25879 19.5071 9.16719 20.8838 9.16606 20.8973V20.9041V20.9172C9.12704 21.5282 9.08294 22.2207 9.07502 22.9541C9.06541 23.2763 9.07616 23.6489 9.31872 23.9966L10.1991 25.3307L10.2053 25.3392C10.2144 25.3506 10.4349 25.6212 10.8957 25.7651C11.3107 25.8942 11.7574 25.9921 11.9349 25.9921H12.1679L12.0237 25.8087C11.9021 25.6541 11.4685 24.8437 11.2163 24.0419L11.1988 23.9858L11.1428 23.9683C11.0337 23.9337 10.9313 23.9213 10.8341 23.932C11.045 23.8363 11.2146 23.6755 11.2338 23.5254L11.2457 23.4654L11.1959 23.4258C11.1592 23.3912 10.8996 23.0945 10.6282 22.6098C10.44 22.2734 10.3766 21.9002 10.3427 21.6992L10.3337 21.6482C10.3054 21.3209 10.2839 21.0163 10.3043 20.702C10.6322 21.1244 11.0116 21.6193 11.2361 21.9353C11.5448 22.3697 11.9519 22.8765 12.1555 22.8436C12.2844 22.8227 12.4218 22.8046 12.5535 22.8182L12.5767 22.8204L12.584 22.8686C12.7435 23.9167 12.9855 25.0249 14.0163 26.0454C14.9792 26.9271 16.2095 27.6519 17.5117 28.4186C17.6966 28.5274 17.8821 28.6367 18.0675 28.7471L18.1439 28.7924L18.1376 30.0586C18.1365 30.2404 18.2095 30.4182 18.3378 30.5461C18.9281 31.139 20.0098 32.2053 20.9094 32.98C20.1494 33.0525 19.264 33.0683 18.5815 33.0196C18.2434 32.9749 17.9584 33.0242 17.7108 33.1703L16.2898 34.1244C15.9941 34.2502 15.76 34.4789 15.5955 34.8023L14.999 35.8907H17.1747L17.1996 35.8114C17.2782 35.5594 17.1934 35.3193 17.1069 35.1137C17.0877 35.0594 17.0724 34.9824 17.1069 34.9195C17.1431 34.8521 17.2262 34.8204 17.2895 34.8051C17.3924 34.7808 17.553 34.8215 17.739 34.8685C17.8199 34.8889 17.903 34.9104 17.9952 34.9291C18.1297 34.9529 18.2796 34.8583 18.4797 34.6964L18.5227 34.6607H18.5233L18.8642 34.3776C18.8744 34.3696 18.8829 34.3634 18.8925 34.3561L18.9677 34.3119C18.8755 34.3878 18.7839 34.4954 18.6776 34.6352C18.4905 34.8816 18.2417 35.1103 17.9386 35.3136C17.7939 35.411 17.6785 35.5509 17.5762 35.7536C17.419 36.0656 17.2816 36.3839 17.1679 36.6999L17.1137 36.8505L17.9646 36.8562C18.3508 36.859 18.7421 36.8613 19.1113 36.8641H19.212L19.2244 36.765C19.23 36.7214 19.2781 36.3335 19.26 36.184C19.2527 36.124 19.2334 36.0639 19.2148 36.0062C19.1956 35.9473 19.1667 35.8578 19.182 35.8306C19.2074 35.7853 19.2561 35.727 19.3918 35.7434C19.437 35.7491 19.5235 35.7768 19.6066 35.804C19.8588 35.8861 20.0199 35.9314 20.1285 35.8691C20.1664 35.8471 20.2054 35.8086 20.2642 35.7497C20.284 35.7298 20.306 35.7083 20.327 35.6879C20.3292 35.6857 20.5514 35.4863 20.7081 35.3838C20.7674 35.3465 20.8155 35.3051 20.8619 35.2649C20.9591 35.1811 21.0598 35.0939 21.2955 35.0203C21.9729 34.8589 22.1245 34.8651 22.6243 34.8844L22.7198 34.8878C23.3933 34.9223 23.6505 34.9263 23.8456 34.8816C24.0656 34.8312 24.1911 34.7383 24.2414 34.5877C24.2793 34.4733 24.2731 34.3804 24.1351 34.1635C24.1181 34.1341 24.1029 34.1097 24.0865 34.0871C23.659 33.4744 23.1942 32.8701 22.6243 32.1855L21.9752 31.3474C22.7447 30.7913 23.4046 30.2058 23.9355 29.6056L24.5993 28.8547L24.5654 28.879C24.6038 28.8264 24.6395 28.7714 24.67 28.7103C24.6779 28.7397 24.6853 28.7675 24.6937 28.7918C24.7039 28.823 24.7271 28.8581 24.752 28.8813C25.1025 29.2097 25.314 29.4357 25.3016 29.8055C25.284 30.2387 25.2349 30.7432 25.1879 31.2313C25.0901 32.2438 25.0358 32.8752 25.1517 33.0904L25.1585 33.1035L26.0174 34.018C25.9982 34.1052 25.984 34.2026 25.9976 34.3023L26.0016 34.3317L26.0197 34.3555C26.1684 34.5531 26.3617 34.7972 26.5489 35.0328C26.6948 35.2162 26.8452 35.4059 26.973 35.5719L27.0544 35.6777L29.0447 33.5423L29.2578 33.3113H28.2005L28.3809 33.1148C28.6822 32.7875 29.0679 32.3662 29.0679 32.3662L29.2827 32.1312L28.9678 32.1776C28.9576 32.1793 27.9709 32.3186 27.5593 31.9414C27.4044 31.7982 27.3676 31.1481 27.3439 30.7183C27.3354 30.5688 27.3275 30.4272 27.3162 30.3128C27.2704 29.8474 27.1437 29.7103 27.0606 29.6191C27.0516 29.6095 27.0431 29.6005 27.0357 29.5914L27.0278 29.5823C26.0853 28.6678 25.1076 27.9905 24.8696 27.8303C24.9035 26.9775 24.5643 26.247 23.7761 25.4706C23.0778 24.7826 22.3348 24.4083 21.6167 24.0464C20.9127 23.6919 20.245 23.3556 19.6637 22.7485L19.5065 22.4484C19.0666 21.6069 19.0186 20.8379 19.3533 19.9658L23.6805 19.9613C24.3257 19.9539 24.722 19.8378 25.05 19.5592L25.5391 19.0434L28.0727 16.3309H28.8971L27.0504 18.3083L26.7513 18.3214L25.8472 19.2846L25.1382 20.0406L25.4277 20.0468L25.2343 20.2541L25.5809 20.5463L25.7895 20.3231L25.8449 20.591L26.8616 19.5009L27.4643 18.8548L27.4078 18.5903L29.5174 16.3309L32.6747 16.3201L35.6404 13.1439L32.4881 13.1495L32.4921 13.1478ZM23.1411 15.9634H23.1173C23.2174 15.8297 23.309 15.6899 23.4051 15.5438C23.4589 15.4622 23.5137 15.379 23.5702 15.2963L25.275 15.2946C24.5219 16.0081 24.2861 16.0007 23.1411 15.9639V15.9634Z" fill="#E67321"/>
<path fillRule="evenodd" clip-rule="evenodd" d="M18.1003 3.18481L19.187 4.73358L18.0681 6.26027L19.6151 5.17188L21.1378 6.29198L20.0516 4.74264L21.1694 3.21653L19.6241 4.30491L18.1003 3.18481Z" fill="#FFEC00"/>
<path fillRule="evenodd" clip-rule="evenodd" d="M29.9137 8.34133L31.0005 9.89066L29.882 11.4168L31.429 10.3284L32.9517 11.4485L31.8656 9.89972L32.9834 8.37304L31.4375 9.46142L29.9137 8.34133Z" fill="#FFEC00"/>
<path fillRule="evenodd" clip-rule="evenodd" d="M34.047 20.2632L35.1337 21.8125L34.0153 23.3386L35.5617 22.2502L37.0844 23.3703L35.9982 21.8216L37.1166 20.2954L35.5708 21.3838L34.047 20.2632Z" fill="#FFEC00"/>
<path fillRule="evenodd" clip-rule="evenodd" d="M29.9572 32.2167L31.044 33.766L29.9256 35.2922L31.472 34.2038L32.9947 35.3239L31.9085 33.7745L33.0269 32.2484L31.4811 33.3368L29.9572 32.2167Z" fill="#FFEC00"/>
<path fillRule="evenodd" clip-rule="evenodd" d="M18.0596 37.7883L19.1463 39.3376L18.0279 40.8638L19.5749 39.7754L21.0976 40.8955L20.0114 39.3467L21.1293 37.8206L19.584 38.9084L18.0596 37.7883Z" fill="#FFEC00"/>
<path fillRule="evenodd" clip-rule="evenodd" d="M6.23996 32.3798L7.32671 33.9291L6.2083 35.4552L7.75473 34.3669L9.27799 35.487L8.19124 33.9382L9.30965 32.4115L7.76378 33.4999L6.23996 32.3798Z" fill="#FFEC00"/>
<path fillRule="evenodd" clip-rule="evenodd" d="M1.82117 20.2626L2.90791 21.8119L1.78894 23.338L3.33594 22.2497L4.85863 23.3698L3.77245 21.821L4.89029 20.2949L3.34499 21.3827L1.82117 20.2626Z" fill="#FFEC00"/>
<path d="M29.16 16.2194L27.1058 18.4194L26.8067 18.4324L26.6405 18.6096L26.9407 18.596L26.8853 18.6555L26.5851 18.6685L26.3826 18.8843L26.684 18.8707L26.6292 18.9301L26.3272 18.9432L26.1248 19.1589L26.4273 19.1459L26.3725 19.2048L26.0694 19.2184L25.867 19.4341L26.1712 19.4205L26.1158 19.4794L25.811 19.493L25.6086 19.7088L25.9145 19.6952L25.859 19.7546L25.5532 19.7682L25.3988 19.9325L25.6872 19.9387L25.4028 20.2433L25.5758 20.3894L25.8602 20.0853L25.9156 20.3526L26.1191 20.1346L26.062 19.869L26.109 19.8186L26.1661 20.0842L26.3742 19.8611L26.317 19.5961L26.364 19.5457L26.4211 19.8107L26.6286 19.5882L26.5721 19.3231L26.619 19.2727L26.6755 19.5378L26.8836 19.3152L26.8265 19.0502L26.8734 18.9998L26.9305 19.2648L27.138 19.0417L27.0815 18.7772L27.1284 18.7269L27.1855 18.9913L27.345 18.8203L27.2884 18.5553L29.4704 16.2182L29.16 16.2194Z" fill="#FFEC00"/>
<path d="M14.1344 9.27455C14.5862 9.0101 15.051 8.66014 15.3433 8.13577C15.8488 7.35148 16.0987 7.33109 16.5307 7.24672C17.2307 7.16744 17.7136 7.40697 18.4181 7.6165C19.4053 7.91039 20.4298 7.97835 21.3475 7.32033C21.4815 7.22407 21.3781 7.03606 21.2633 7.09835C20.6594 7.42509 20.0256 7.6114 19.247 7.47379C18.3785 7.32033 17.8108 6.98057 17.0644 6.84239C16.9282 6.80898 15.8301 6.64986 15.3031 7.45454C14.9204 8.0395 14.6682 8.63579 13.967 9.0135C13.9744 9.05201 13.997 9.11656 14.0264 9.16017C14.0547 9.20207 14.0903 9.24228 14.1333 9.27399L14.1344 9.27455Z" fill="#FFEC00"/>
<path d="M8.03236 16.5676C8.9981 15.9057 9.2729 15.2641 9.22597 14.324C9.18978 13.3772 9.16433 12.4157 9.66869 11.7951C10.121 11.2192 10.5881 11.0917 11.1727 10.9632C11.6149 10.8664 12.0531 10.6942 12.4783 10.3607L12.3081 10.1347C11.8354 10.4383 11.3661 10.5102 10.8827 10.594C10.2149 10.7095 9.49963 10.8573 9.02015 11.9208C8.64414 12.7555 8.80642 13.6479 8.82508 14.5087C8.84317 15.3399 8.496 15.8813 7.83955 16.3995C7.70611 16.5048 7.80506 16.7239 8.03236 16.5682V16.5676Z" fill="#FFEC00"/>
<path d="M22.7769 30.2223C22.19 30.5473 21.6461 30.7812 21.6461 30.7812C21.6461 30.7812 21.5958 30.8848 21.6291 30.9834C21.6585 31.0689 21.8129 31.241 21.8626 31.2942C22.6135 30.7568 23.2943 30.1662 23.8563 29.5309C23.5861 29.7245 23.1953 29.9901 22.7769 30.2217V30.2223Z" fill="#FFEC00"/>
<path d="M23.9999 34.1534C23.5289 33.4784 23.0398 32.856 22.5428 32.2592C22.8097 32.6839 23.2536 33.4183 23.4277 33.8657L23.4289 33.8685L23.4402 33.8946L23.4498 33.9206L23.4571 33.9467L23.4617 33.9733V34.0005L23.4588 34.0277L23.4498 34.0543L23.4345 34.0786L23.4142 34.1001L23.3893 34.1177L23.3604 34.1313L23.3254 34.1426L23.2236 34.15L23.1275 34.1568L22.9352 34.1692L22.743 34.1805L22.6469 34.1856L22.4546 34.1947L22.2624 34.2026L22.0701 34.2094L21.7818 34.2179L21.5895 34.2225L21.205 34.2293L20.6283 34.236H20.5322L20.3405 34.2383L20.1946 34.2394V34.2406L19.2131 34.308C19.066 34.3442 18.936 34.4886 18.7715 34.7049C18.5662 34.9756 18.3044 35.2078 18.0053 35.4088C17.8594 35.5068 17.7616 35.6455 17.6808 35.8058C17.523 36.1183 17.3896 36.4281 17.2782 36.7396C17.8719 36.7435 18.5221 36.7481 19.1158 36.752C19.1158 36.752 19.1678 36.3386 19.1514 36.1988C19.1345 36.0589 19.0265 35.8856 19.0864 35.7769C19.1463 35.6687 19.2526 35.6132 19.4087 35.6325C19.5648 35.6517 19.9622 35.8375 20.0753 35.7724C20.1104 35.752 20.1686 35.688 20.2546 35.6047C20.2546 35.6047 20.4836 35.3986 20.6515 35.2888C20.8211 35.1823 20.8924 35.0288 21.2689 34.9116C22.0074 34.7355 22.1482 34.7536 22.7294 34.7757C23.3644 34.808 23.6392 34.8148 23.8241 34.7723C24.0548 34.7191 24.113 34.6279 24.1368 34.5554C24.1588 34.4897 24.1786 34.4382 24.0406 34.2213C24.0276 34.1987 24.0135 34.176 23.9977 34.1539L23.9999 34.1534ZM19.3516 35.3176C19.3804 35.2922 19.411 35.2684 19.4426 35.2452C19.411 35.2684 19.381 35.2922 19.3516 35.3176ZM19.5517 35.1715C19.5653 35.163 19.5795 35.1557 19.5936 35.1477C19.5795 35.1557 19.5653 35.1636 19.5517 35.1715ZM19.7344 35.0736C19.7423 35.0696 19.7496 35.0656 19.7576 35.0622C19.7496 35.0656 19.7423 35.0702 19.7344 35.0736ZM19.9719 34.8063C19.982 34.8052 19.9922 34.804 20.003 34.8029C19.9928 34.804 19.982 34.8052 19.9719 34.8063ZM20.2461 34.8556C20.2433 34.851 20.2393 34.8476 20.2359 34.8437C20.2399 34.8476 20.2433 34.8516 20.2461 34.8556ZM20.2173 34.8284C20.2144 34.8267 20.211 34.8244 20.2082 34.8227C20.2116 34.8244 20.2144 34.8267 20.2173 34.8284ZM20.0968 34.9394C20.1076 34.936 20.1183 34.9326 20.1296 34.9297C20.1189 34.9326 20.1081 34.936 20.0968 34.9394Z" fill="#FFEC00"/>
<path d="M10.652 17.5297L12.0531 19.7626C12.0531 19.7626 12.7141 20.1239 13.0528 20.1844C13.1896 19.9421 13.3869 19.497 13.9343 18.8616C13.7765 18.7223 13.4406 18.4131 13.0805 18.0462L12.294 17.1928C11.823 16.6616 11.5154 16.2964 11.3921 16.2143C11.1665 16.0699 10.9313 16.0784 10.6893 16.1911C10.4405 16.3457 10.1878 16.4963 9.92935 16.6424L9.94236 16.6322C9.94236 16.6322 9.88977 16.6633 9.7993 16.7149C9.33 16.9765 8.846 17.2245 8.34673 17.4584C8.15279 17.545 7.95828 17.6254 7.77226 17.6928C7.6326 17.7364 7.44997 17.7795 7.34876 17.9771C7.18026 18.2132 6.6171 18.9075 6.22752 19.2348C5.95781 19.4664 5.72712 19.9194 5.69828 20.343C5.69828 20.343 6.86306 20.155 7.42565 20.343C7.42565 20.343 7.64956 20.1273 7.6456 19.5502C7.61337 19.467 7.50425 19.3362 7.56757 19.2071C7.61564 19.1085 7.68066 19.0275 7.85764 19.0309C8.03462 19.0343 8.21499 19.1119 8.30659 19.1164C8.40271 18.9958 8.64075 18.613 8.7855 18.3288C8.91555 18.1459 9.34244 17.8163 10.5954 17.5303C10.5954 17.5303 10.6356 17.5269 10.652 17.5303V17.5297Z" fill="#FFEC00"/>
<path d="M32.2376 13.2623L32.2365 13.2555L33.0269 12.4089L33.1185 12.5601L33.987 11.2084L32.6996 12.1999L32.8545 12.2617L31.9255 13.2566L32.2365 13.2549L32.2302 13.2617L28.0099 13.2691C27.4875 13.298 27.0108 13.5024 26.5901 13.9192C25.98 13.8376 25.3032 13.8178 24.6145 13.8484C24.2973 13.8625 24.1142 13.6943 23.9264 13.5913C23.2943 13.2447 22.6797 13.3104 22.0962 13.5177C22.0509 13.4373 22.0193 13.2674 21.9899 13.0703C21.9746 12.9503 21.9655 12.8262 21.9542 12.7051C22.0605 12.6852 22.1561 12.6892 22.2624 12.7085C22.3896 12.5669 22.4111 12.5414 22.5383 12.3998C22.5734 12.3613 22.5445 12.2832 22.5287 12.2379C22.5259 12.2266 22.5078 12.222 22.4965 12.2215C22.4535 12.2203 22.3376 12.2118 22.1295 12.1609C22.1295 12.1609 21.9378 12.1161 21.8508 12.0606C21.8332 12.0493 21.8344 11.9859 21.8536 11.9938C21.9921 12.051 22.1318 12.0929 22.2754 12.119C22.315 12.1258 22.4122 12.1405 22.5225 12.1461C22.5344 12.1461 22.5468 12.1473 22.5592 12.1478C22.5824 12.1484 22.6056 12.1484 22.6293 12.1478C22.73 12.1195 22.8137 12.0748 22.8691 12.0017C22.968 11.8251 23.1337 11.6705 23.2948 11.5147C23.2948 11.4791 23.2728 11.4434 23.2281 11.4077C23.0687 11.3958 22.9087 11.3924 22.7492 11.4479C22.6932 10.8216 22.7102 10.449 22.4218 10.2638C21.9785 9.97901 21.5053 9.94616 21.019 9.96711C20.9144 9.90256 20.8121 9.88274 20.7041 9.95862C20.6017 10.0464 20.5107 10.1359 20.4406 10.3074C20.3897 10.415 20.3733 10.4632 20.2676 10.5713C20.1109 10.7146 19.9532 10.9337 19.8525 11.1087C19.8412 11.128 19.8435 11.1523 19.8576 11.1693C19.895 11.2129 19.9379 11.2588 19.9719 11.3013C19.9588 11.3941 19.9458 11.487 19.9328 11.5799L20.021 11.6512L20.0391 11.6654L20.1336 11.7418C20.0454 11.7248 19.9566 11.7073 19.8684 11.6897C19.8554 11.7503 19.8424 11.8103 19.8294 11.8709C19.7757 11.8738 19.7366 11.8743 19.6971 11.8868C19.623 11.9536 19.623 12.2101 19.6535 12.2809C19.6897 12.3296 20.1511 12.5578 20.4349 12.6694C20.2941 13.0743 20.3677 12.8834 20.2269 13.2883C20.0906 13.2442 19.9758 13.1892 19.8718 13.1286C19.4715 12.8631 19.1967 12.3625 18.534 12.3024C18.1574 12.2719 17.782 12.3851 17.6892 12.4151C17.3115 12.3172 16.7987 12.2934 16.2361 12.3534C15.8476 12.3551 15.7719 12.0895 15.6345 11.8874C15.4258 11.5697 15.1657 11.3256 14.7094 10.9587C14.3911 10.7021 14.1452 10.3273 13.9094 9.99939C13.8738 9.95013 13.889 9.90312 13.9376 9.86462C14.1305 9.58544 14.0315 9.36233 14.0128 9.32552C14.0117 9.32382 14.0112 9.32156 14.01 9.31986C14.01 9.31986 13.9139 9.18056 13.88 9.05881C13.8376 8.89798 13.7358 8.87533 13.5187 8.90874C13.4028 8.9212 13.275 8.97613 13.2133 9.04975L13.2258 9.0724L13.1596 9.08372C13.1387 9.05258 13.1206 9.02993 13.1093 9.02313C13.1093 9.02313 13.0324 8.99482 12.9436 9.04408C12.8605 9.09618 12.8735 9.13809 12.8837 9.16697C12.8837 9.1681 12.8854 9.17093 12.8871 9.17319C12.8667 9.18339 12.8458 9.19358 12.8266 9.20377C12.8204 9.19754 12.8147 9.19245 12.8102 9.19075C12.8102 9.19075 12.7384 9.15111 12.6513 9.20887C12.5806 9.26153 12.5755 9.32779 12.584 9.36403C12.562 9.38158 12.541 9.39914 12.5224 9.41613C12.4986 9.40877 12.4608 9.40763 12.4116 9.44218C12.3465 9.49314 12.3522 9.55033 12.3635 9.58544C12.3403 9.61602 12.3239 9.64037 12.3137 9.65736C12.2917 9.65226 12.2555 9.6517 12.2086 9.68228C12.1385 9.72815 12.16 9.82102 12.1848 9.85952C12.1848 9.86179 12.1837 9.86349 12.1837 9.86518C12.2877 10.0311 12.6162 10.4048 12.6162 10.4048H12.6225C12.6881 10.4671 12.9425 10.56 13.0595 10.705L13.5888 11.4253C14.1163 12.192 14.5969 12.8206 14.9944 13.2589C15.2251 13.5024 15.4468 13.6219 15.9031 13.6502C16.4515 13.6938 16.9881 13.7595 17.5349 13.8053C17.3754 14.2855 17.2148 14.8524 17.4026 15.0982C17.376 15.3343 17.277 15.9493 17.2459 16.2284C16.6539 16.5393 16.4736 16.6599 15.9822 17.2687C15.8765 17.4069 15.6215 17.5201 15.41 17.6549C15.1578 17.8095 14.939 17.9646 14.7394 18.1481C14.7304 18.1549 14.7213 18.1611 14.7123 18.1679C14.4776 18.3882 14.2639 18.6266 14.075 18.8616C14.0637 18.8735 14.0524 18.886 14.0411 18.9001C13.8229 19.1703 13.6238 19.467 13.4666 19.7212C13.3637 19.886 13.2812 20.0287 13.2218 20.1374C13.1715 20.2275 13.1364 20.2932 13.12 20.3243C12.8537 20.3215 11.9999 19.8492 11.9999 19.8492C11.2508 19.3684 10.4891 18.7807 10.1284 18.4046C9.91183 18.1442 9.58727 18.1878 9.46401 18.3395C9.34131 18.4913 9.29099 18.643 9.33396 19.0768C9.3775 19.5106 9.28364 20.9059 9.28364 20.9059V20.9189C9.2418 21.5815 9.20052 22.2463 9.19317 22.9586C9.18356 23.2939 9.20222 23.6257 9.41821 23.9355C9.71167 24.38 10.0051 24.8245 10.2986 25.2696C10.2986 25.2696 10.5016 25.5227 10.9347 25.6581C11.3678 25.7929 11.7913 25.8801 11.9406 25.8801C11.8156 25.7209 11.3746 24.9055 11.1139 24.077C10.9522 24.0255 10.7911 24.0238 10.6299 24.124C10.5779 24.0368 10.5338 23.9468 10.5163 23.9043C10.8193 23.88 11.1083 23.6608 11.1275 23.5113C11.1032 23.4921 10.8244 23.1812 10.5355 22.6653C10.3184 22.2774 10.2613 21.8533 10.2273 21.663C10.1928 21.2609 10.1629 20.8532 10.2273 20.411C10.5672 20.8464 11.0636 21.4886 11.3344 21.8703C11.7721 22.4869 12.0667 22.752 12.143 22.7327C12.2855 22.7095 12.428 22.6919 12.571 22.7061C13.1393 22.4988 13.599 22.6959 14.0083 23.081C13.5532 22.8856 13.1082 22.7548 12.7016 22.8522C12.865 23.927 13.1161 24.9904 14.0988 25.9627C15.1912 26.9634 16.6653 27.7794 18.1314 28.6503C18.0652 28.319 18.0975 28.0608 18.3417 27.9628C18.1987 28.1242 18.2162 28.4147 18.2614 28.7279L18.2631 28.729V28.7398L18.2671 28.7669L18.2631 28.7635L18.2569 30.0603C18.2564 30.2132 18.3163 30.3593 18.4237 30.4675C19.2775 31.3248 20.3716 32.3821 21.1898 33.0661C20.3744 33.1624 19.3391 33.189 18.5758 33.1335C18.2445 33.0893 17.9844 33.1448 17.7735 33.2688C17.2985 33.5877 16.8241 33.9065 16.3492 34.2259C16.0727 34.3402 15.8567 34.5509 15.7001 34.8578C15.5316 35.1647 15.3636 35.4717 15.1951 35.7786H17.0967C17.1611 35.5708 17.0944 35.3652 17.0068 35.1557C16.9316 34.9467 17.0028 34.7587 17.268 34.6953C17.4489 34.6523 17.7141 34.7542 18.02 34.8182C18.1127 34.8346 18.2524 34.7395 18.4124 34.6098L18.5034 34.5345C18.5074 34.5311 18.5114 34.5277 18.5159 34.5243L18.7997 34.2898C18.9009 34.21 19.0022 34.1392 19.0977 34.0911C19.0977 34.0911 19.1616 34.0463 19.4573 34.0497C19.753 34.0531 20.6159 34.1001 22.1318 34.0424C23.063 33.9954 23.2558 34.0027 23.2287 33.8402C23.2157 33.7592 22.9375 33.1171 22.4241 32.3158L22.3806 32.2501L22.3291 32.1742L22.2771 32.0984L22.1719 31.9477L22.1052 31.8532L22.0651 31.7971L21.9565 31.6476L21.9016 31.5728L21.8462 31.4987L21.7903 31.4245L21.736 31.3531L21.7032 31.3209L21.6687 31.2852L21.6359 31.2489L21.6048 31.2121L21.576 31.1748L21.5494 31.1368L21.5256 31.0977L21.5053 31.0575L21.4889 31.0162L21.477 30.9737L21.4702 30.9301L21.4691 30.8854L21.4736 30.8401L21.4849 30.7942L21.5025 30.7483L21.5336 30.6912L21.5754 30.6708L21.6585 30.6317L21.6857 30.6187L21.7688 30.5796L21.7959 30.5666L21.879 30.5275L21.9062 30.5145L21.9893 30.4754L22.0164 30.4624L22.0995 30.4233L22.1267 30.4103L22.2098 30.3712L22.2369 30.3582L22.3478 30.3061L22.3749 30.2931L22.4026 30.28L22.4286 30.2676L22.5519 30.1979L22.6751 30.1266L22.7362 30.0909L22.7973 30.0547L22.8578 30.0184L22.9177 29.9822L22.9776 29.9454L23.0964 29.8718L23.214 29.797L23.2722 29.7596L23.3876 29.6837L23.5018 29.6067L23.6149 29.5286L23.6709 29.4895L23.7817 29.4102L23.8365 29.3706L23.9451 29.2902L24.0525 29.2086L24.1057 29.1679L24.1583 29.1265L24.2103 29.0852L24.2957 29.0167C24.5054 28.8462 24.6281 28.6248 24.7005 28.3162C24.7361 28.4374 24.7712 28.6458 24.8096 28.7613C24.8141 28.7749 24.8277 28.7947 24.8379 28.8043C25.1969 29.1413 25.4378 29.3921 25.4231 29.8157C25.3745 31.002 25.0929 32.7332 25.2591 33.0418C25.556 33.3578 25.8528 33.6737 26.1497 33.9897C26.1248 34.0905 26.1044 34.1919 26.118 34.2927C26.3809 34.6432 26.7784 35.1285 27.0708 35.5079L28.0144 34.4948L28.1332 34.3669L28.2417 34.2508L28.9694 33.4699L29.0073 33.4291H27.9506L28.3056 33.0423C28.607 32.715 28.9926 32.2943 28.9926 32.2943C28.9926 32.2943 27.9483 32.4483 27.4914 32.0293C27.246 31.8028 27.2607 30.8146 27.2121 30.3282C27.1635 29.8417 27.0295 29.7545 26.9571 29.6679C25.8743 28.6174 24.761 27.8932 24.761 27.8932C24.8198 26.9413 24.3805 26.2215 23.7042 25.5556C22.2924 24.1648 20.6792 24.0714 19.4692 22.7004C19.4692 22.7004 19.4681 22.6789 19.4081 22.4988C19.4098 22.5011 19.4121 22.5028 19.4138 22.5051C18.9394 21.5979 18.9083 20.7841 19.2837 19.8571C20.7516 19.8554 22.2188 19.8537 23.6867 19.8526C24.3906 19.8447 24.7214 19.7009 24.9843 19.4777L25.4644 18.9709L28.0314 16.2222H29.4766L29.4783 16.2211L32.6323 16.2109L35.3859 13.2611L32.2404 13.2668L32.2376 13.2623ZM25.4282 15.3048C24.5931 16.1112 24.3612 16.1169 23.1394 16.0778L22.8849 16.0744L22.9262 16.0234C23.1365 15.7692 23.3079 15.4747 23.5103 15.1837C23.5103 15.1837 24.3839 15.1825 25.5283 15.1814L25.4282 15.3048Z" fill="#FFEC00"/>
<path d="M21.3827 6.54208L19.6146 5.24134L17.8188 6.5047L19.1176 4.73282L17.8561 2.93433L19.6253 4.23506L21.42 2.9717L20.1218 4.74358L21.3832 6.54208H21.3827ZM19.6157 5.10203L20.893 6.04205L19.9816 4.74245L20.9196 3.46153L19.6231 4.37437L18.3441 3.43435L19.2561 4.73452L18.3175 6.01544L19.6157 5.10203Z" fill="#E67321"/>
<path d="M33.1961 11.6986L31.428 10.3979L29.6322 11.6612L30.931 9.88934L29.6695 8.09085L31.4387 9.39158L33.2334 8.12822L31.9352 9.9001L33.1966 11.6986H33.1961ZM31.4297 10.2586L32.707 11.1986L31.7955 9.89897L32.7336 8.61862L31.437 9.53145L30.1581 8.59143L31.0701 9.89161L30.1315 11.1725L31.4297 10.2591V10.2586Z" fill="#E67321"/>
<path d="M37.3293 23.6204L35.5612 22.3197L33.7655 23.5831L35.0642 21.8112L33.8028 20.0127L35.572 21.3134L37.3666 20.0501L36.0684 21.8219L37.3299 23.6204H37.3293ZM35.5629 22.1804L36.8402 23.1204L35.9288 21.8208L36.8668 20.5399L35.5703 21.4527L34.2913 20.5127L35.2033 21.8129L34.2647 23.0938L35.5629 22.1804Z" fill="#E67321"/>
<path d="M33.2396 35.574L31.4715 34.2732L29.6757 35.5366L30.9745 33.7647L29.7131 31.9662L31.4823 33.267L33.2769 32.0036L31.9787 33.7755L33.2402 35.574H33.2396ZM31.4732 34.1339L32.7505 35.074L31.8391 33.7743L32.7771 32.494L31.4806 33.4068L30.2016 32.4668L31.1136 33.767L30.175 35.0479L31.4732 34.1345V34.1339Z" fill="#E67321"/>
<path d="M21.342 41.1456L19.5739 39.8448L17.7781 41.1082L19.0763 39.3363L17.8148 37.5378L19.5841 38.8386L21.3787 37.5752L20.0805 39.3471L21.342 41.1456ZM19.5756 39.7055L20.8529 40.6455L19.9414 39.3459L20.8794 38.0656L19.5829 38.9784L18.3039 38.0384L19.216 39.3386L18.2774 40.6195L19.5756 39.7061V39.7055Z" fill="#E67321"/>
<path d="M9.52233 35.7371L7.75425 34.4363L5.95846 35.6997L7.25724 33.9278L5.99578 32.1293L7.76499 33.43L9.55965 32.1667L8.26144 33.9386L9.52233 35.7371ZM7.75595 34.297L9.03324 35.237L8.12178 33.9374L9.05981 32.6571L7.7633 33.5699L6.48431 32.6299L7.39634 33.9301L6.45773 35.211L7.75595 34.2976V34.297Z" fill="#E67321"/>
<path d="M5.10354 23.6199L3.33546 22.3191L1.53967 23.5825L2.83845 21.8106L1.57699 20.0121L3.3462 21.3128L5.14086 20.0495L3.84265 21.8214L5.10411 23.6199H5.10354ZM3.33659 22.1798L4.61388 23.1198L3.70242 21.8202L4.64046 20.5399L3.34394 21.4527L2.06495 20.5127L2.97698 21.8129L2.03838 23.0938L3.33659 22.1804V22.1798Z" fill="#E67321"/>
<path d="M12.6214 10.4058C12.6214 10.4058 12.6158 10.4001 12.6135 10.3979C12.5632 10.335 12.592 10.2846 12.592 10.2846C12.7532 10.1255 12.8482 10.0479 13.024 10.0049C13.0545 9.9975 13.0868 10.0054 13.1099 10.0269C13.6234 10.5066 14.1062 10.9772 14.5721 11.4324C14.0983 10.9217 13.5685 10.4109 13.2445 9.9001C13.1733 9.75457 13.4062 9.56939 13.6149 9.40064C13.6352 9.35138 13.6556 9.28852 13.586 9.23925C13.4192 9.27493 13.3763 9.27833 13.3288 9.26587L13.2247 9.07333L13.1586 9.08466C13.223 9.17979 13.3169 9.35308 13.3327 9.38705C13.3559 9.4567 13.3559 9.53145 13.2892 9.55807C13.2225 9.58468 13.1603 9.55467 13.132 9.51446C13.1049 9.47652 12.9137 9.22283 12.8866 9.17357C12.8663 9.18376 12.8453 9.19395 12.8261 9.20414C12.8973 9.27266 13.1015 9.56996 13.1246 9.61186C13.1541 9.68208 13.1473 9.75513 13.0811 9.78798C13.0144 9.82082 12.9228 9.79477 12.89 9.75513C12.8572 9.71549 12.6011 9.40744 12.5881 9.37856C12.5864 9.37459 12.5847 9.3695 12.5835 9.3644C12.5615 9.38196 12.5406 9.39951 12.5219 9.4165C12.54 9.42216 12.5502 9.43065 12.5502 9.43065C12.5994 9.45444 12.8205 9.74494 12.847 9.78968C12.8781 9.85933 12.8651 9.92501 12.7995 9.95899C12.7339 9.99353 12.6661 9.96239 12.6322 9.92388C12.5988 9.88538 12.3851 9.63452 12.3715 9.60564C12.3692 9.60054 12.3664 9.59318 12.3636 9.58525C12.3404 9.61583 12.324 9.64018 12.3138 9.65717C12.3285 9.66056 12.337 9.66623 12.337 9.66623C12.3868 9.68888 12.5649 9.92332 12.5965 9.97485C12.6293 10.0439 12.6254 10.0904 12.5728 10.1243C12.5078 10.1606 12.4326 10.1436 12.3986 10.1057C12.3642 10.0683 12.2075 9.89897 12.1934 9.87122C12.1906 9.86839 12.1877 9.86386 12.1849 9.85933C12.1849 9.86159 12.1838 9.86329 12.1838 9.86499C12.2878 10.0309 12.6163 10.4047 12.6163 10.4047H12.6226L12.6214 10.4058Z" fill="#E67321"/>
<path d="M31.5897 14.6999C31.6389 14.624 31.7034 14.5945 31.7458 14.4348C31.7622 14.415 31.7769 14.3958 31.7899 14.376C31.791 14.3743 31.7921 14.3726 31.7933 14.3709C31.8068 14.351 31.8181 14.3307 31.8278 14.3108C31.8453 14.2695 31.8736 14.18 31.8515 14.0617C31.8249 13.919 31.7967 13.8459 31.7559 13.77L32.2303 13.2615L28.01 13.2689L31.9199 13.2621L31.5643 13.6432C31.5354 13.6421 31.5072 13.6409 31.4783 13.6398C31.3641 13.6341 31.251 13.6256 31.1374 13.6211C31.0803 13.6188 31.0237 13.6177 30.9666 13.6183C30.9378 13.6183 30.9095 13.6194 30.8807 13.6211C30.6375 13.633 30.5097 13.7598 30.3978 13.9014C30.3486 13.9637 30.2932 14.0016 30.231 14.0243C30.1597 14.0503 30.0806 14.0554 29.9935 14.0475C28.9441 13.9994 28.0145 14.0062 26.9685 13.9592L26.9668 13.9603C27.0816 13.9682 27.1958 13.9756 27.3083 13.983C27.3128 13.983 27.3174 13.9835 27.3219 13.9841C27.3377 13.9852 27.353 13.9858 27.3688 13.9869C27.5769 13.9999 27.781 14.0113 27.984 14.022C28.1497 14.0311 28.3142 14.0396 28.4787 14.0481C28.606 14.0549 28.7332 14.0611 28.8604 14.0679C29.2432 14.0883 29.6305 14.1104 30.0348 14.1387C30.0433 14.1393 30.0523 14.1398 30.0614 14.1404C30.1032 14.1426 30.1479 14.1421 30.1942 14.1336C30.1976 14.133 30.201 14.1325 30.2044 14.1313C30.2276 14.1268 30.2513 14.12 30.2757 14.1104C30.2841 14.107 30.2932 14.103 30.3017 14.099C30.3379 14.0821 30.3746 14.0588 30.4119 14.0271C30.4436 13.9999 30.4758 13.9665 30.5086 13.9252C30.529 13.8991 30.5527 13.8725 30.5793 13.8471C30.637 13.7916 30.7105 13.7423 30.8009 13.7168C30.8354 13.7072 30.8722 13.6998 30.9129 13.6987C30.9643 13.697 31.0181 13.6964 31.0706 13.697C31.182 13.6981 31.2917 13.7049 31.3816 13.7134C31.4206 13.7174 31.4563 13.7213 31.4862 13.7259C31.4908 13.7264 31.4958 13.727 31.4998 13.7276C31.562 13.7389 31.6219 13.7876 31.6677 13.8629C31.6841 13.8895 31.6988 13.919 31.7113 13.9518C31.7559 14.0713 31.7876 14.1789 31.7311 14.2542C31.6632 14.3448 31.5812 14.2814 31.5224 14.1727C31.5032 14.1376 31.4806 14.1109 31.4551 14.0906C31.3895 14.039 31.3019 14.0305 31.1967 14.0356C31.1577 14.0373 31.1164 14.0413 31.0723 14.0452C30.9836 14.1347 30.8954 14.2242 30.8117 14.3131C30.7642 14.3641 30.7178 14.415 30.6754 14.466C30.6471 14.4994 30.6143 14.5277 30.5776 14.5504C30.5182 14.5866 30.4498 14.607 30.3786 14.6087C30.3769 14.6087 30.3746 14.6087 30.3729 14.6087C30.3707 14.6087 30.3684 14.6087 30.3667 14.6087C30.2406 14.6104 30.1089 14.6132 29.9743 14.6155C29.5632 14.6234 29.1262 14.633 28.7422 14.6387C28.9933 14.6517 29.2975 14.6631 29.5757 14.6738C29.626 14.6761 29.6757 14.6778 29.7238 14.68C29.7662 14.6817 29.8081 14.6834 29.8488 14.6851C29.9262 14.6885 29.9986 14.7055 30.0631 14.7355C30.0795 14.7429 30.0947 14.7514 30.11 14.7605C30.1552 14.7876 30.1959 14.8216 30.231 14.863C30.2615 14.8992 30.2875 14.9411 30.3079 14.9887C30.3316 15.0447 30.348 15.107 30.3548 15.1772C30.2864 15.1772 30.2118 15.1772 30.132 15.1772C29.0679 15.1772 27.0561 15.1795 25.5284 15.1806L25.4283 15.3041C25.4334 15.299 25.439 15.2939 25.4441 15.2888L30.0325 15.2837L29.1618 16.2158H28.5811L29.4728 16.2164L29.4745 16.2152H29.4722L30.3429 15.2831H30.8614L30.8801 15.2826C30.8988 15.2775 30.9169 15.2712 30.9349 15.2639C30.9689 15.2497 31.0017 15.2305 31.0328 15.2044C31.0373 15.2005 31.0424 15.1971 31.0469 15.1931C31.0571 15.1835 31.0667 15.1738 31.0769 15.1642C31.1295 15.1263 31.2058 15.107 31.3081 14.9853C31.4625 14.9184 31.5303 14.8516 31.5897 14.6999ZM31.1685 14.1755C31.2013 14.1155 31.2714 14.1234 31.3347 14.1528C31.3421 14.1574 31.3556 14.1664 31.3737 14.1789C31.458 14.2372 31.6349 14.3675 31.6525 14.4054C31.6525 14.4054 31.6711 14.4813 31.6146 14.5594C31.5558 14.6319 31.5179 14.6149 31.4919 14.6025C31.4693 14.5911 31.2844 14.415 31.2143 14.3493C31.2041 14.3397 31.1962 14.3324 31.1916 14.3284C31.1572 14.2972 31.1357 14.235 31.1679 14.1749L31.1685 14.1755ZM30.9316 15.1846C30.8744 15.2531 30.7744 15.2067 30.7517 15.1784C30.7303 15.1642 30.646 15.0578 30.603 15.0051C30.5963 14.9966 30.59 14.9892 30.5855 14.9841C30.5538 14.9473 30.5459 14.8743 30.5872 14.8171C30.6251 14.7712 30.6698 14.7729 30.7308 14.8114C30.7376 14.8171 30.7478 14.8261 30.7597 14.8369C30.8241 14.8969 30.9468 15.0232 30.9604 15.0651C30.9604 15.0651 30.9881 15.1161 30.9316 15.1846ZM31.1803 15.0198C31.1125 15.0889 31.0469 15.0555 31.0215 15.0396C31.0017 15.0272 30.8648 14.8816 30.7919 14.8035C30.7721 14.7825 30.7568 14.7656 30.7501 14.7582C30.7178 14.722 30.6958 14.6546 30.7354 14.5962C30.7749 14.5379 30.8383 14.5328 30.9005 14.5702C30.9101 14.5775 30.9321 14.5974 30.9598 14.6234C31.0475 14.7055 31.1933 14.8533 31.2063 14.8907C31.2063 14.8907 31.2465 14.9456 31.1798 15.0204L31.1803 15.0198ZM31.4269 14.8182C31.4065 14.8397 31.3856 14.8528 31.3652 14.8607C31.3194 14.8788 31.2776 14.8697 31.2601 14.859C31.2403 14.8471 31.0797 14.6806 30.9921 14.5883C30.966 14.5611 30.9457 14.5396 30.9383 14.5317C30.905 14.4966 30.8903 14.4065 30.9287 14.3471C30.9672 14.2876 31.0367 14.2899 31.0995 14.325C31.1102 14.3329 31.1396 14.3573 31.1769 14.3901C31.281 14.4802 31.4484 14.6336 31.4614 14.6699C31.4614 14.6699 31.4744 14.7038 31.4631 14.7491C31.4574 14.7707 31.4472 14.7939 31.4269 14.8182Z" fill="#E67321"/>
<path d="M34.5978 14.0973H32.5017L32.3485 14.261H34.4451L33.7225 15.0345H31.6253L31.4727 15.1982H33.5698L35.3826 13.2564L34.5978 14.0973Z" fill="#E67321"/>
<path d="M22.8782 16.0821C22.2155 16.8942 21.3962 17.6677 20.4215 18.2147C19.834 18.5296 19.0667 18.9424 18.7976 19.8728C18.4459 21.3468 18.8009 22.1509 19.4664 22.6957C19.4664 22.6957 19.4653 22.6742 19.4054 22.4941C18.7501 21.8117 18.6471 20.9074 18.9321 19.8943C18.9757 19.8026 19.1074 19.7726 19.2957 19.7958C19.5315 19.2052 19.951 18.7476 20.5277 18.3671C21.8848 17.5901 22.5333 16.8189 23.1394 16.0776L22.885 16.0742L22.8782 16.0827V16.0821Z" fill="#E67321"/>
<path d="M10.6193 23.3486L10.323 23.5445L10.345 23.4103L10.5763 23.2495L10.6051 23.2291C10.5667 23.1561 10.526 23.0768 10.4858 22.9919L10.4728 23.0004L10.2065 23.1776L10.2285 23.0434L10.4355 22.9018C10.4151 22.8486 10.3953 22.7959 10.3761 22.7427C10.3292 22.6266 10.2845 22.5032 10.2461 22.3729C10.2325 22.3333 10.2189 22.2936 10.2048 22.254C10.198 22.2183 10.1924 22.1832 10.1867 22.1487C10.1177 21.8452 10.0069 21.1367 10.1217 20.2766C10.0227 20.1503 9.94527 20.0523 9.90286 19.998C9.86102 20.5659 9.80731 21.6056 9.88986 22.438C9.97637 23.0338 10.0369 23.4879 10.4236 24.2094C10.4468 24.2524 10.4705 24.2966 10.4966 24.3419C10.5005 24.3215 10.5045 24.3034 10.5084 24.2869C10.5135 24.2643 10.518 24.245 10.5226 24.2297C10.526 24.206 10.5288 24.1822 10.5322 24.1584C10.5214 24.1386 10.5011 24.0995 10.4785 24.0531C10.4417 23.9777 10.3993 23.8826 10.3829 23.8152C10.3784 23.7971 10.3761 23.7813 10.3761 23.7682C10.4915 23.7728 10.6413 23.7495 10.7781 23.6703C10.7951 23.6601 10.8121 23.6499 10.8285 23.638C10.79 23.5621 10.7278 23.4551 10.6554 23.3237L10.6187 23.348L10.6193 23.3486Z" fill="#E67321"/>
<path d="M10.5327 17.2192C10.5327 17.2192 9.688 17.1371 8.44689 18.0771C8.04035 18.4316 7.71523 18.5857 7.52751 18.7227C7.39916 18.8167 7.32283 18.9203 7.28438 19.0698C7.27025 19.1735 7.28212 19.3881 7.51564 19.5302C7.3952 19.3252 7.36411 19.1638 7.51564 18.9905C7.66717 18.8173 7.94875 18.8025 8.12177 18.8603C8.17775 18.8133 8.2309 18.7601 8.28349 18.7006L7.98947 18.6559L8.09576 18.5715L8.36038 18.6094C8.40505 18.5539 8.45029 18.4934 8.49722 18.4271L8.29649 18.3965L8.40279 18.3121L8.56111 18.3348C8.59164 18.2901 8.62274 18.2442 8.65554 18.1949C8.85739 17.8914 9.75981 17.4792 10.5972 17.3778C10.561 17.2838 10.5322 17.2187 10.5322 17.2187L10.5327 17.2192Z" fill="#E67321"/>
<path d="M12.7848 19.793C12.6406 19.8077 12.4167 19.7952 12.3014 19.7663C12.3014 19.7663 12.6452 19.9544 12.9759 20.0319C13.279 19.4362 13.7704 18.8818 13.7704 18.8818C13.2541 19.2182 12.8679 19.6842 12.7848 19.7924V19.793Z" fill="#E67321"/>
<path d="M21.5529 11.0451C21.5879 11.1861 21.6264 11.2846 21.6835 11.2931C21.6185 10.9896 21.5823 10.7116 21.5014 10.5321C21.4918 10.5111 21.4816 10.4924 21.4709 10.4743C21.4601 10.4568 21.4494 10.4403 21.437 10.4256C21.4262 10.412 21.4149 10.3996 21.4025 10.3888C21.4607 10.5864 21.498 10.8078 21.5376 10.9823C21.5427 11.0038 21.5472 11.0253 21.5523 11.0451H21.5529Z" fill="#E67321"/>
<path d="M20.6143 10.9024C20.6188 10.9041 20.6227 10.9052 20.6273 10.9069C20.6295 10.9075 20.6312 10.9086 20.6335 10.9098C20.6538 10.9177 20.6731 10.9285 20.6906 10.9409C20.7013 10.9483 20.7115 10.9568 20.7211 10.9658C20.7664 11.0055 20.8065 11.0547 20.8523 11.0927C20.7918 10.8373 20.6838 10.694 20.5294 10.664C20.5323 10.6714 20.5357 10.6787 20.5402 10.6867C20.5572 10.7178 20.5815 10.749 20.5707 10.7807C20.5696 10.7835 20.5685 10.7852 20.5668 10.7869C20.5521 10.8027 20.5119 10.7858 20.4865 10.7875C20.4503 10.8531 20.4995 10.8628 20.6137 10.9024H20.6143Z" fill="#E67321"/>
<path d="M21.5489 11.7886C21.5478 11.8022 21.5489 11.8153 21.5512 11.8277C21.558 11.8656 21.5794 11.8996 21.6162 11.9285C21.6456 11.9517 21.6852 11.9721 21.7338 11.9891C21.7067 11.9438 21.6773 11.9059 21.6462 11.873C21.6151 11.8402 21.5823 11.8124 21.5483 11.7881L21.5489 11.7886Z" fill="#E67321"/>
<path d="M19.968 12.2252C19.9883 12.2264 20.0042 12.2207 20.0166 12.2111C20.0268 12.2031 20.0347 12.1918 20.0415 12.1788C20.0443 12.1737 20.0471 12.168 20.05 12.1624C20.0641 12.1312 20.0754 12.0939 20.0946 12.065C20.1076 12.0457 20.1218 12.0316 20.137 12.0219C20.1444 12.0168 20.1523 12.0134 20.1608 12.01C20.2009 11.9953 20.2479 12.0016 20.2982 12.0038C20.3457 12.0067 20.374 11.9591 20.3966 11.8974C20.4 11.8877 20.4034 11.8775 20.4067 11.8673C20.4079 11.8628 20.4096 11.8589 20.4107 11.8543C20.4248 11.8085 20.4373 11.7586 20.452 11.7173C20.4599 11.6958 20.4599 11.6873 20.4554 11.6873C20.4429 11.6873 20.3943 11.7513 20.3593 11.8C20.3372 11.8305 20.3202 11.8549 20.3202 11.8549C20.2863 11.8951 20.2507 11.9132 20.2162 11.9251C20.1857 11.9359 20.1557 11.9415 20.128 11.954C20.0946 11.9687 20.0731 12.0078 20.0556 12.0463C20.0483 12.0627 20.0415 12.0786 20.0353 12.0927C20.0313 12.1024 20.0268 12.1103 20.0228 12.1176C20.0143 12.1312 20.0059 12.1392 19.9962 12.1363C19.9878 12.1341 19.9827 12.1312 19.9793 12.1273C19.9787 12.1261 19.9782 12.125 19.9776 12.1239C19.9759 12.1205 19.9753 12.1171 19.9759 12.1125C19.9759 12.1091 19.977 12.1057 19.9782 12.1018C19.9799 12.0961 19.9821 12.0893 19.9844 12.082C19.9872 12.0746 19.99 12.0661 19.9929 12.0565C19.9934 12.0542 19.9946 12.052 19.9951 12.0491C19.9962 12.0457 19.9946 12.0429 19.9917 12.0401C19.9917 12.0401 19.9917 12.0401 19.9912 12.0395C19.9861 12.0355 19.977 12.0321 19.9691 12.0316C19.9663 12.0316 19.964 12.0316 19.9612 12.0316C19.9567 12.0321 19.9527 12.0344 19.951 12.0378C19.938 12.0678 19.9256 12.1007 19.9194 12.1312C19.9171 12.1414 19.916 12.1511 19.9154 12.1601C19.9137 12.1964 19.9261 12.2235 19.9674 12.2258L19.968 12.2252Z" fill="#E67321"/>
<path d="M19.9318 12.4144C19.9459 12.4138 19.9572 12.3991 19.9691 12.3844C19.9832 12.3657 19.9968 12.3459 20.0143 12.3498C20.0437 12.3572 20.0624 12.3549 20.0816 12.3498C20.1009 12.3447 20.1201 12.3362 20.15 12.33C20.1676 12.3266 20.1834 12.3249 20.1981 12.3243C20.2128 12.3238 20.2252 12.3232 20.2366 12.3215C20.2479 12.3198 20.2575 12.317 20.2654 12.3107C20.2733 12.3045 20.2795 12.2955 20.2835 12.2813C20.3004 12.2241 20.357 12.2128 20.4361 12.2003C20.4435 12.1992 20.4508 12.1981 20.4588 12.1969C20.4706 12.1952 20.4819 12.1947 20.4927 12.1952C20.4938 12.1952 20.4955 12.1952 20.4966 12.1952C20.5114 12.1958 20.5261 12.1981 20.5408 12.1998C20.5611 12.2026 20.582 12.2054 20.6063 12.2043C20.6933 12.2002 20.7669 12.1578 20.8274 12.0956C20.8393 12.0831 20.8512 12.0701 20.8619 12.0559C20.884 12.0282 20.9043 11.997 20.9218 11.9647C20.9535 12.0157 20.9852 12.0361 21.0168 12.0384C21.0276 12.0389 21.0378 12.0384 21.0485 12.035C20.9869 11.958 20.9756 11.8504 20.9784 11.753C20.9637 11.7241 20.9501 11.6952 20.9388 11.6675C20.9332 11.6533 20.9281 11.6397 20.9235 11.6267C20.9145 11.6001 20.9083 11.5746 20.9066 11.5508C20.9038 11.5151 20.9094 11.4834 20.9292 11.4574C20.9405 11.4092 20.936 11.369 20.9264 11.3316C20.923 11.3192 20.919 11.3073 20.9151 11.2948C20.8608 11.3815 20.8161 11.4693 20.8303 11.5672C20.8319 11.5797 20.8342 11.5921 20.8382 11.6046C20.8523 11.6414 20.8636 11.6771 20.8727 11.7111C20.8789 11.7343 20.8834 11.7575 20.8868 11.779C20.8913 11.8147 20.8919 11.8487 20.8868 11.8792C20.8845 11.8945 20.8806 11.9093 20.8749 11.9234C20.8659 11.9478 20.8512 11.9698 20.8325 11.9897C20.8297 11.9925 20.828 11.9959 20.8246 11.9987C20.7754 12.0361 20.7256 12.0718 20.6765 12.0922C20.664 12.0973 20.6516 12.1018 20.6397 12.1046C20.621 12.1091 20.6024 12.1103 20.5837 12.1091C20.5656 12.108 20.5481 12.1052 20.53 12.0973C20.5232 12.0944 20.5176 12.0899 20.5119 12.0842C20.508 12.0803 20.504 12.0757 20.5 12.0718C20.4961 12.0672 20.4921 12.0633 20.4876 12.0593C20.4791 12.052 20.4706 12.0469 20.4599 12.048C20.4571 12.048 20.4548 12.0491 20.4525 12.0503C20.4463 12.0525 20.4407 12.0554 20.4356 12.0599C20.4282 12.0661 20.4214 12.0746 20.4147 12.0825C20.4045 12.0944 20.3943 12.1058 20.3819 12.1103C20.3779 12.1114 20.3734 12.112 20.3689 12.1114C20.331 12.1069 20.2993 12.1041 20.2733 12.1063C20.2688 12.1063 20.2654 12.108 20.2609 12.1086C20.2558 12.1097 20.2507 12.1103 20.2467 12.1114C20.2173 12.121 20.1998 12.1437 20.1936 12.1884C20.1925 12.1981 20.1902 12.2099 20.1862 12.2218C20.1823 12.2337 20.1778 12.2462 20.1715 12.2581C20.1585 12.2813 20.1387 12.3011 20.1093 12.3085C20.1009 12.3107 20.0918 12.3113 20.0828 12.3119C20.0737 12.3119 20.0647 12.3119 20.0562 12.3102C20.0296 12.3073 20.0042 12.3005 19.9827 12.3011C19.9612 12.3017 19.9437 12.3102 19.9341 12.3368C19.9312 12.3436 19.9284 12.3521 19.9256 12.3611C19.9199 12.3787 19.9154 12.3968 19.9199 12.407C19.9222 12.4121 19.9267 12.4149 19.9341 12.4144H19.9318Z" fill="#E67321"/>
<path d="M22.1245 11.4619C22.1477 11.4693 22.172 11.4749 22.1963 11.4794C22.2025 11.4806 22.2082 11.4817 22.2144 11.4828C22.2687 11.4908 22.3252 11.4936 22.3835 11.4919C22.4038 11.4913 22.4242 11.4902 22.4445 11.4885C22.526 11.4823 22.6091 11.4704 22.6905 11.4568C22.6877 11.416 22.6826 11.3594 22.6758 11.3107C22.6735 11.2948 22.6713 11.2796 22.669 11.266C22.6142 11.2739 22.5593 11.2807 22.505 11.2852C22.4728 11.288 22.4411 11.2903 22.41 11.2909C22.2704 11.2948 22.1437 11.2767 22.0578 11.2099C21.8463 11.0468 21.8763 10.7676 21.684 10.6034C21.7332 10.8112 21.7513 11.0321 21.8491 11.2263C21.9136 11.3554 22.0109 11.4257 22.1251 11.4613L22.1245 11.4619Z" fill="#E67321"/>
<path d="M20.1093 11.3854C20.1173 11.3888 20.1252 11.3911 20.1331 11.3922C20.1404 11.3934 20.1472 11.3939 20.1546 11.3934C20.1789 11.3917 20.2038 11.3804 20.2275 11.3605C20.2394 11.3503 20.2507 11.3379 20.2614 11.3232C20.2722 11.3084 20.2824 11.2914 20.292 11.2716C20.2954 11.2648 20.292 11.258 20.2857 11.2512C20.2824 11.2478 20.2784 11.245 20.2739 11.2422C20.2513 11.228 20.2156 11.2212 20.2094 11.2388C20.2009 11.2626 20.1806 11.2773 20.158 11.2835C20.1433 11.288 20.1274 11.2886 20.1133 11.2858C20.0997 11.283 20.0884 11.2767 20.0822 11.2671C20.0788 11.2626 20.0771 11.2569 20.0771 11.2501C20.0771 11.2439 20.076 11.2393 20.0748 11.2365C20.0731 11.2337 20.0715 11.2331 20.0692 11.2331C20.0573 11.2348 20.0364 11.2694 20.033 11.2897C20.0324 11.2937 20.033 11.2971 20.033 11.2999C20.0511 11.3447 20.0782 11.3736 20.1082 11.3866L20.1093 11.3854Z" fill="#E67321"/>
<path d="M22.3631 12.3119C22.3569 12.3102 22.3507 12.309 22.3445 12.3073C22.289 12.2943 22.2331 12.2853 22.1771 12.2892C22.1714 12.2892 22.168 12.2932 22.1652 12.2983C22.1567 12.313 22.159 12.3425 22.1692 12.3611C22.1737 12.3696 22.1799 12.3753 22.1867 12.3764C22.2274 12.3838 22.2687 12.3832 22.31 12.3798C22.3835 12.3736 22.4575 12.3572 22.5305 12.3521C22.5011 12.347 22.4717 12.3396 22.4423 12.3323C22.4157 12.3255 22.3897 12.3181 22.3631 12.3119Z" fill="#E67321"/>
<path d="M17.5881 13.65C17.6096 13.5905 17.6294 13.5362 17.6475 13.4886C17.5898 13.4824 17.5316 13.4767 17.4728 13.471C17.414 13.4654 17.3546 13.4597 17.2947 13.4535C17.2647 13.4507 17.2347 13.4478 17.2048 13.445C17.1448 13.4393 17.0849 13.4337 17.0249 13.428C16.965 13.4223 16.9051 13.4167 16.8457 13.411C16.697 13.3969 16.5511 13.3827 16.4115 13.3674C16.3278 13.3584 16.2464 13.3487 16.1683 13.3391C16.0643 13.3261 15.9653 13.3119 15.8749 13.2972C15.8336 13.2904 15.7946 13.2836 15.7567 13.2762C15.7284 13.2706 15.7007 13.2655 15.6747 13.2598C15.5243 13.227 15.4095 13.1896 15.3468 13.1454C15.1257 12.9999 14.7276 12.6035 14.3963 12.2003C14.3533 12.1477 14.3115 12.095 14.2713 12.0429C14.1712 11.9132 14.0802 11.7858 14.009 11.6697C14.0395 11.8073 14.1283 11.9851 14.2538 12.1816C14.2747 12.2145 14.2962 12.2479 14.3194 12.2813C14.3646 12.3487 14.4138 12.4178 14.4658 12.4874C14.4918 12.5225 14.5184 12.5576 14.5456 12.5927C14.5998 12.6635 14.6569 12.7343 14.7152 12.8051C14.7734 12.8759 14.8334 12.9461 14.8944 13.0146C14.9549 13.0837 15.0166 13.1517 15.0782 13.2174C15.1234 13.2604 15.1681 13.2983 15.2128 13.3317C15.2574 13.3651 15.3027 13.3935 15.3479 13.4178C15.3931 13.4422 15.4395 13.4631 15.4864 13.4807C15.5961 13.522 15.7103 13.5464 15.8342 13.5645C16.4403 13.6183 16.9718 13.654 17.5666 13.7111C17.574 13.6902 17.5813 13.6698 17.5881 13.65Z" fill="#E67321"/>
<path d="M20.69 12.484C20.7008 12.5112 20.7223 12.5361 20.7534 12.5367C20.7579 12.5367 20.7624 12.5367 20.7675 12.5356C20.7912 12.531 20.8133 12.5203 20.8319 12.5027C20.8625 12.4733 20.8828 12.4246 20.8806 12.3498C20.8783 12.2581 20.9439 12.1799 21.0298 12.1024C20.9942 12.1086 20.9603 12.1159 20.9298 12.1295C20.9162 12.1358 20.9032 12.1426 20.8919 12.1522C20.8698 12.1703 20.8517 12.1952 20.8393 12.2309C20.8319 12.253 20.8229 12.2739 20.8133 12.2949C20.8065 12.3107 20.7992 12.326 20.7918 12.3419C20.7816 12.3634 20.7714 12.3844 20.7618 12.4059C20.75 12.3849 20.7432 12.364 20.7387 12.343C20.733 12.3158 20.7313 12.2887 20.7313 12.2615C20.724 12.2671 20.7166 12.2728 20.7104 12.2785C20.7025 12.2858 20.6962 12.2932 20.6906 12.3005C20.6827 12.3107 20.6759 12.3215 20.6702 12.3317C20.664 12.3436 20.6595 12.3549 20.6555 12.3662C20.6454 12.394 20.6391 12.4189 20.6244 12.4359C20.6097 12.4529 20.586 12.4614 20.5413 12.4574C20.4848 12.4523 20.4277 12.4534 20.3773 12.4591C20.3378 12.4636 20.3033 12.4716 20.2767 12.4823C20.266 12.4869 20.2569 12.4914 20.2496 12.4965C20.2467 12.4982 20.2433 12.4999 20.2411 12.5021C20.2349 12.5078 20.2303 12.5135 20.2281 12.5197C20.2388 12.5174 20.2507 12.5146 20.262 12.5118C20.2937 12.5044 20.3276 12.4976 20.3559 12.5033C20.3717 12.5061 20.3858 12.5123 20.3971 12.5248C20.4248 12.5548 20.4463 12.5735 20.4746 12.5882C20.4757 12.5882 20.4769 12.5893 20.4774 12.5893C20.491 12.5961 20.5057 12.6024 20.5232 12.608C20.5424 12.6143 20.5651 12.6205 20.5922 12.6273C20.6177 12.6335 20.6408 12.6482 20.6612 12.663C20.6832 12.6783 20.7019 12.6935 20.7183 12.6998C20.7296 12.7037 20.7398 12.7037 20.7483 12.6952C20.7528 12.6907 20.7573 12.6839 20.7613 12.6743C20.7669 12.6596 20.7686 12.6471 20.7675 12.6352C20.7641 12.5831 20.7025 12.5565 20.6273 12.5661C20.6414 12.5474 20.6555 12.5282 20.6697 12.5095C20.6759 12.501 20.6827 12.4925 20.6889 12.484H20.69Z" fill="#E67321"/>
<path d="M25.7851 14.8318C25.7607 14.8511 25.7381 14.8686 25.7172 14.8867C25.7065 14.8958 25.6963 14.9043 25.6867 14.9134C25.6369 14.9581 25.5939 15.0045 25.5487 15.0645H29.8736C29.8652 15.034 29.8522 15.0079 29.8341 14.9853C29.8216 14.97 29.8075 14.9564 29.7911 14.9445C29.7662 14.9264 29.7362 14.9117 29.7012 14.8992C29.678 14.8913 29.6526 14.8839 29.6249 14.8782C29.5819 14.8692 29.5338 14.863 29.4807 14.8579C29.4304 14.8533 29.3749 14.8511 29.3144 14.8494C29.1889 14.8488 29.0668 14.8477 28.9469 14.8471C28.766 14.846 28.5907 14.8448 28.4177 14.8443C28.1875 14.8431 27.9619 14.8414 27.7352 14.8403C27.3383 14.838 26.9363 14.8358 26.4964 14.8329C26.5139 14.8148 26.5326 14.7973 26.5518 14.7803C26.6937 14.6523 26.882 14.5396 27.0358 14.4518C26.4398 14.4116 25.7376 14.3805 25.0483 14.3652C25.0415 14.3652 25.0353 14.3652 25.0285 14.3652C24.8787 14.3618 24.7294 14.3595 24.5818 14.3578C24.5801 14.3578 24.5784 14.3578 24.5768 14.3578C24.4263 14.3561 24.2776 14.355 24.1323 14.3556H24.1318C23.9129 14.3556 23.7009 14.3578 23.5013 14.3624C23.5166 14.2967 23.5432 14.2327 23.5856 14.1693C23.5963 14.1534 23.6082 14.1381 23.6206 14.1223C23.6444 14.0934 23.6726 14.0645 23.7049 14.0362C23.7241 14.0192 23.745 14.0022 23.7676 13.9852C23.637 14.0045 23.5154 14.0368 23.3973 14.0843C22.9924 14.2468 22.6345 14.5934 22.1313 15.2576C22.0742 15.3324 22.0159 15.3998 21.9571 15.4604C21.8978 15.521 21.8378 15.5753 21.7768 15.6229C21.6953 15.6869 21.6128 15.7401 21.5291 15.7837C21.4664 15.8166 21.403 15.8443 21.3391 15.867C21.2752 15.8896 21.2113 15.9083 21.1469 15.9225C21.1254 15.927 21.1039 15.9315 21.0824 15.9355C21.0395 15.9434 20.9965 15.9491 20.9529 15.9536C20.9315 15.9559 20.91 15.9576 20.8885 15.9593C20.8455 15.9621 20.8025 15.9638 20.759 15.9644C20.716 15.9644 20.6731 15.9638 20.6301 15.9615C20.5871 15.9598 20.5447 15.9564 20.5017 15.9525C20.4616 15.9485 20.422 15.944 20.3824 15.9389C20.3315 15.9321 20.2812 15.9247 20.2309 15.9162C20.1953 15.9106 20.1602 15.9043 20.1246 15.8975C19.9555 15.8494 19.8464 15.8619 19.7983 15.9349C19.7916 15.9451 19.7859 15.957 19.7814 15.97C19.7531 16.0074 19.7401 16.034 19.7418 16.0533C19.7424 16.0606 19.7452 16.0674 19.7503 16.0725C19.7576 16.0804 19.7706 16.0861 19.7876 16.0901C19.8221 16.098 19.8752 16.0997 19.9454 16.1003C20.1551 16.0969 20.3626 16.098 20.569 16.1054C20.9134 16.1173 21.256 16.1467 21.6054 16.2016C22.116 16.0408 22.4247 15.6948 22.7561 15.2378C22.7844 15.1982 22.8132 15.1585 22.842 15.1172C22.8873 15.0589 22.9319 15.0102 22.9772 14.97C22.9964 14.953 23.0156 14.9377 23.0354 14.9235C23.071 14.8975 23.1078 14.876 23.1462 14.8584C23.1841 14.8409 23.2231 14.8267 23.2638 14.816C23.3051 14.8046 23.3486 14.7961 23.395 14.7905C23.4962 14.7774 23.6099 14.7752 23.7422 14.7752C23.8236 14.7774 23.9062 14.7797 23.9898 14.782C24.4083 14.7933 24.8538 14.8058 25.2813 14.8171C25.452 14.8216 25.6205 14.8261 25.7828 14.8307L25.7851 14.8318Z" fill="#E67321"/>
<path d="M20.2354 16.7232C20.2756 16.7317 20.3191 16.7424 20.3666 16.7543C20.5685 16.7951 20.7534 16.7996 20.9218 16.7583C21.0903 16.7175 21.2424 16.6314 21.3798 16.4916C21.1786 16.5799 20.9371 16.6456 20.651 16.564C20.5883 16.5459 20.5221 16.5244 20.4565 16.5063C20.4124 16.4938 20.3689 16.4831 20.3259 16.4757C20.2829 16.4683 20.2411 16.4644 20.2015 16.4655C20.1817 16.4661 20.1625 16.4683 20.1433 16.4717C20.111 16.4972 20.0856 16.5199 20.0635 16.5414C20.0528 16.5522 20.0426 16.5623 20.033 16.572C20.0121 16.5941 19.9946 16.6156 19.977 16.6377C19.9544 16.666 19.9324 16.696 19.903 16.7317C19.9414 16.7181 19.9776 16.7096 20.0138 16.7051C20.0856 16.6966 20.1557 16.705 20.2366 16.722L20.2354 16.7232Z" fill="#E67321"/>
<path d="M19.7837 17.2317C19.8498 17.2062 19.9312 17.2045 20.0138 17.2096C20.0551 17.2124 20.0963 17.2164 20.1359 17.2204C20.1755 17.2243 20.2134 17.2277 20.2479 17.2289C20.2891 17.2306 20.3287 17.2311 20.3666 17.23C20.3689 17.23 20.3706 17.23 20.3728 17.23C20.4062 17.2289 20.4378 17.2266 20.4689 17.2232C20.69 17.1994 20.8687 17.1145 21.0542 16.918C20.9337 16.9973 20.8127 17.0267 20.6929 17.0312C20.4525 17.0403 20.2156 16.9497 19.9878 16.9542C19.9652 16.9542 19.9425 16.9559 19.9199 16.9587C19.8622 17.0329 19.8385 17.0941 19.8119 17.1615C19.8029 17.1841 19.7938 17.2068 19.7831 17.2311L19.7837 17.2317Z" fill="#E67321"/>
<path d="M20.5984 10.3939C20.6109 10.425 20.6357 10.4556 20.6787 10.497C20.7002 10.5173 20.7262 10.5411 20.7573 10.5683C20.7675 10.5774 20.7788 10.587 20.7901 10.5972C20.8246 10.6272 20.8647 10.6617 20.9105 10.7019C20.9416 10.7291 20.9676 10.7586 20.9897 10.7886C21.0248 10.8362 21.0502 10.886 21.0683 10.9387C21.0836 10.9823 21.0949 11.0276 21.1022 11.074C21.1084 11.1114 21.1124 11.1493 21.1152 11.1878C21.1169 11.2099 21.1186 11.232 21.1197 11.2541C21.1265 11.3753 21.1277 11.4987 21.1531 11.6154C21.3007 12.3039 20.9513 12.3566 20.8534 12.7156C20.8568 12.7151 20.8602 12.7139 20.863 12.7134C20.8806 12.7094 20.8987 12.7054 20.9162 12.7032C20.9269 12.702 20.9371 12.7009 20.9479 12.7003C20.9688 12.6992 20.9897 12.7003 21.0112 12.7037C21.0219 12.7054 21.0321 12.7077 21.0429 12.7111C21.0638 12.7173 21.0853 12.7258 21.1062 12.7383C21.0191 12.8685 20.9264 13.0078 20.8314 13.1443C20.7986 13.1913 20.7658 13.2377 20.7324 13.283C20.7223 13.2972 20.7121 13.3114 20.7013 13.3255C20.5916 13.4744 20.4814 13.612 20.3751 13.7208C20.374 13.7219 20.3728 13.723 20.3717 13.7242C20.3417 13.7542 20.3129 13.7819 20.2841 13.8068C20.2586 13.8289 20.2332 13.8499 20.2083 13.868C20.2733 13.8408 20.3383 13.8159 20.4039 13.7927C20.4367 13.7808 20.4695 13.77 20.5023 13.7593C20.5594 13.7412 20.6165 13.7242 20.6742 13.7094C20.7166 13.6981 20.759 13.6879 20.802 13.6783C20.8642 13.6647 20.9269 13.654 20.9903 13.6449C20.9999 13.6438 21.0089 13.6421 21.0185 13.6409C21.2899 13.6047 21.5721 13.6098 21.8735 13.6692C21.9023 13.6404 21.9351 13.6115 21.973 13.5854C21.9956 13.5701 22.0199 13.5554 22.0465 13.5435C21.9843 13.5554 21.9249 13.5611 21.8684 13.5622C21.8684 13.5622 21.8678 13.5622 21.8672 13.5622C21.783 13.5639 21.7044 13.556 21.6298 13.5418C21.5551 13.5277 21.4839 13.5079 21.4149 13.4858C21.4132 13.4852 21.4121 13.4841 21.4098 13.4835C21.3872 13.4756 21.3702 13.4659 21.3601 13.4541C21.3487 13.4416 21.3431 13.4263 21.342 13.4099C21.3397 13.3765 21.3538 13.3357 21.3691 13.2898C21.4121 13.1579 21.4675 13.018 21.5523 12.8883C21.5602 12.8765 21.5676 12.8646 21.576 12.8532C21.5834 12.8425 21.5919 12.8334 21.6004 12.8255C21.6445 12.7858 21.7067 12.7791 21.7903 12.8057C21.8237 12.8164 21.8605 12.8323 21.9006 12.8538C21.8978 12.783 21.8955 12.7621 21.8916 12.7054C21.8916 12.7054 21.8916 12.7043 21.8916 12.7037C21.8452 12.6901 21.8017 12.6726 21.7615 12.6511C21.7214 12.6296 21.684 12.6046 21.6496 12.5763C21.6151 12.548 21.5834 12.5163 21.554 12.4818C21.5393 12.4642 21.5252 12.4461 21.5116 12.4274C21.4844 12.39 21.4596 12.3492 21.437 12.3062C21.3787 12.1958 21.3346 12.0684 21.299 11.9291C21.286 11.8781 21.2741 11.8254 21.2634 11.7716C21.2504 11.706 21.2413 11.6374 21.2345 11.5684C21.2142 11.3617 21.2181 11.1425 21.2323 10.9262C21.2385 10.835 21.2464 10.745 21.2549 10.6561C21.2696 10.4998 21.2328 10.4081 21.1718 10.348C21.1633 10.3395 21.1537 10.3316 21.1441 10.3237C21.0672 10.2642 20.9637 10.2382 20.8755 10.1957C20.8834 10.2036 20.8913 10.211 20.8992 10.2183C20.9151 10.2331 20.9315 10.2478 20.9467 10.2631C20.9541 10.271 20.9614 10.2789 20.9676 10.288C21.1022 10.4675 21.0038 10.5236 20.8755 10.5298C20.8331 10.5315 20.798 10.5264 20.7686 10.5156C20.7098 10.4941 20.6731 10.4528 20.6391 10.4092C20.6222 10.3877 20.6058 10.3656 20.5882 10.3458C20.5882 10.3571 20.5899 10.3684 20.5928 10.3786C20.5939 10.3837 20.5956 10.3894 20.5979 10.3945L20.5984 10.3939Z" fill="#E67321"/>
<path d="M19.6898 17.6202C19.6841 17.6428 19.6796 17.6649 19.6757 17.6875C19.6723 17.7079 19.67 17.7283 19.6683 17.7493C19.7571 17.7311 19.8413 17.7204 19.9222 17.7096C19.9482 17.7062 19.9736 17.7028 19.9991 17.6994C20.05 17.6926 20.0992 17.6853 20.1483 17.6762C20.1642 17.6734 20.1794 17.67 20.1947 17.6666C20.2349 17.6581 20.2744 17.6473 20.3135 17.6343C20.3355 17.627 20.357 17.619 20.379 17.61C20.3858 17.6071 20.3932 17.6043 20.4 17.6015C20.4746 17.5686 20.5481 17.5239 20.6233 17.4616C20.5085 17.4967 20.4067 17.5092 20.3129 17.5114C20.2727 17.512 20.2343 17.5114 20.1964 17.5092C20.1642 17.5075 20.1331 17.5052 20.102 17.5029C19.9793 17.4933 19.8605 17.482 19.7288 17.5058C19.7118 17.5454 19.6994 17.5828 19.6898 17.6196V17.6202Z" fill="#E67321"/>
<path d="M18.4628 18.8433C18.4346 18.9792 18.4108 19.1208 18.3916 19.2641C18.3373 19.6735 18.3237 20.1027 18.3746 20.4946C18.3871 20.5908 18.4035 20.6848 18.4238 20.7755C18.4543 20.9114 18.4945 21.0405 18.5448 21.1594C18.5075 20.6758 18.5295 20.2596 18.6177 19.8972C18.6443 19.7884 18.6766 19.6842 18.7156 19.5851C18.754 19.4855 18.7987 19.3909 18.8496 19.2997C18.8733 19.2573 18.8988 19.2165 18.9253 19.1757C18.9745 19.1004 19.0282 19.0274 19.0871 18.9577C19.1775 18.8507 19.2799 18.7499 19.3941 18.6547C19.4512 18.6072 19.5111 18.5613 19.5744 18.516C19.6061 18.4934 19.6383 18.4713 19.6717 18.4498C19.8374 18.341 20.0217 18.2397 20.2264 18.1451C20.3185 18.1015 20.3904 18.0669 20.4497 18.0358C20.4791 18.0205 20.5057 18.0064 20.53 17.9922C20.5504 17.9803 20.569 17.969 20.5871 17.9577C20.6177 17.9378 20.6454 17.918 20.6719 17.8965C20.6618 17.9005 20.651 17.9039 20.6403 17.9078C20.4729 17.969 20.2948 18.0228 20.102 18.0551C20.0901 18.0573 20.0782 18.059 20.0658 18.0607C19.9437 18.0788 19.8159 18.0885 19.6819 18.0845C19.4992 18.2414 19.3471 18.3082 19.2148 18.3127C19.1526 18.315 19.0955 18.3031 19.0418 18.2804C19.0384 18.2793 19.035 18.2782 19.0316 18.2765C18.8852 18.2119 18.7653 18.0675 18.6517 17.905C18.633 17.8784 18.6144 17.8512 18.5957 17.8234C18.5742 17.7912 18.5522 17.7583 18.5307 17.7255C18.5092 17.6926 18.4871 17.6604 18.4651 17.6281C18.421 17.5641 18.3769 17.5024 18.3299 17.4463C18.1094 17.9588 18.1846 18.4192 18.4617 18.8433H18.4628Z" fill="#E67321"/>
<path d="M19.7068 13.2802C19.7537 13.3306 19.7876 13.3878 19.8142 13.445C19.8278 13.4733 19.8391 13.5016 19.8498 13.5288C19.8605 13.556 19.8702 13.5826 19.8798 13.607C19.8894 13.6313 19.8984 13.654 19.9086 13.6743C19.9137 13.6845 19.9188 13.6936 19.9239 13.7021C19.9454 13.7361 19.9708 13.7576 20.0059 13.7598C20.024 13.7519 20.0404 13.7451 20.0573 13.7406C20.0647 13.7383 20.072 13.7366 20.0794 13.7355C20.1031 13.7315 20.1274 13.7327 20.1546 13.7429C20.1523 13.727 20.15 13.7123 20.1489 13.6987C20.1478 13.6851 20.1461 13.6715 20.1455 13.6585C20.145 13.6455 20.145 13.633 20.1455 13.6205C20.1472 13.5583 20.1608 13.4971 20.1879 13.3974C20.1647 13.394 20.1399 13.3889 20.1144 13.3833C19.9731 13.3527 19.7989 13.2961 19.67 13.244C19.683 13.2553 19.6949 13.2672 19.7062 13.2791C19.7062 13.2791 19.7073 13.2796 19.7073 13.2802H19.7068Z" fill="#E67321"/>
<path d="M19.1198 15.5963C19.1707 15.6303 19.2335 15.6625 19.3081 15.6931C19.3828 15.7237 19.4704 15.752 19.5722 15.7786C19.5015 15.735 19.4421 15.6892 19.3941 15.641C19.3698 15.6167 19.3483 15.5923 19.3296 15.5668C19.3013 15.5289 19.2793 15.4893 19.2623 15.4485C19.1792 15.2452 19.2358 15.0074 19.3963 14.735C19.3997 14.7293 19.4037 14.7231 19.4071 14.7169C19.493 14.5742 19.6072 14.4224 19.7452 14.2604C19.6892 14.2984 19.6315 14.3414 19.5727 14.389C19.5592 14.3997 19.5462 14.4105 19.5326 14.4218C19.4862 14.4609 19.4399 14.5034 19.3941 14.5481C19.2844 14.654 19.1775 14.7763 19.0791 14.9151C19.0407 14.9694 19.0028 15.0255 18.9677 15.0849C18.8852 15.2673 18.8942 15.4473 19.1193 15.5968L19.1198 15.5963Z" fill="#E67321"/>
<path d="M18.2853 16.9049C18.2983 16.867 18.3056 16.8313 18.3096 16.7968C18.3096 16.7934 18.3107 16.7894 18.3113 16.786C18.3249 16.6309 18.2581 16.5063 18.1988 16.4055C18.1586 16.337 18.1224 16.2792 18.1168 16.2305C18.1134 16.2016 18.1134 16.1722 18.1157 16.1433C18.1213 16.0561 18.1439 15.9683 18.153 15.8811C18.0246 16.0057 17.9443 16.1943 17.9121 16.4474C17.959 16.4814 18.0026 16.5165 18.0416 16.5527C18.1586 16.6614 18.24 16.7787 18.2853 16.9055V16.9049Z" fill="#E67321"/>
<path d="M26.6762 16.2169L26.6569 16.2322L26.588 16.3058H27.9422L27.9393 16.3087H27.941L27.1964 17.1043H25.8427L25.7596 17.1932H27.1155L26.372 17.9894H25.0161L24.9324 18.0788H26.2855L25.5425 18.8739H25.5465L25.5442 18.8762H24.1877L24.1046 18.9656H25.4605L28.0281 16.2169H26.6762Z" fill="#E67321"/>
<path d="M27.2371 34.335H28.1553L28.2384 34.2461H27.3196L27.2371 34.335Z" fill="#E67321"/>
<path d="M19.916 35.3622L19.7933 35.4199L20.2563 35.6046C20.2563 35.6046 20.2908 35.5734 20.3429 35.5287H20.3434L20.3395 35.5264L19.916 35.3616V35.3622Z" fill="#E67321"/>
<path d="M20.2049 35.2195L20.5498 35.3571L20.5538 35.3582C20.5877 35.3327 20.6216 35.3084 20.6533 35.288L20.3276 35.1617L20.2049 35.2195Z" fill="#E67321"/>
<path d="M26.701 32.2998C26.666 32.2782 26.6338 32.2545 26.6049 32.2284C26.6027 32.2261 26.5998 32.2239 26.597 32.2222C26.5834 32.2097 26.571 32.1967 26.5586 32.1837C26.4737 32.0908 26.4212 31.9775 26.3901 31.8558C26.381 31.8213 26.3737 31.7856 26.368 31.7499C26.3624 31.7142 26.3578 31.678 26.3544 31.6412C26.3511 31.6044 26.3494 31.5681 26.3482 31.5319C26.3482 31.5138 26.3471 31.4956 26.3471 31.4775C26.3471 31.4232 26.3482 31.3694 26.3505 31.3173C26.3567 31.178 26.3691 31.05 26.372 30.9498C26.3935 30.7351 26.394 30.5551 26.3776 30.401C26.3754 30.3795 26.3731 30.3591 26.3703 30.3387C26.3674 30.3201 26.3646 30.3019 26.3618 30.2844C26.3522 30.2312 26.3409 30.1813 26.3267 30.1349C26.3222 30.1196 26.3171 30.1043 26.312 30.089C26.3019 30.059 26.2911 30.0307 26.2792 30.0035C26.2702 29.9831 26.2606 29.9633 26.251 29.944C26.2023 29.8489 26.1424 29.7691 26.0746 29.6994C26.0429 29.6666 26.0095 29.636 25.975 29.6071C25.9406 29.5782 25.9044 29.5505 25.867 29.5233C25.8789 29.5482 25.8897 29.5737 25.8998 29.5992C25.9666 29.7645 25.9971 29.9339 26.0067 30.1185C26.0084 30.149 26.009 30.1796 26.0095 30.2108C26.0107 30.2731 26.0095 30.3376 26.0067 30.4039C26.0039 30.4701 25.9999 30.5386 25.9943 30.61C25.9914 30.6457 25.9886 30.6813 25.9858 30.7182C25.9767 30.8286 25.9654 30.9452 25.9547 31.0687C25.9406 31.2306 25.9349 31.3745 25.9389 31.5019C25.9389 31.5053 25.9389 31.5081 25.9389 31.5115C25.9406 31.5579 25.9434 31.6021 25.9479 31.6446C25.9479 31.6491 25.949 31.6542 25.9496 31.6587C25.9592 31.7471 25.9745 31.8264 25.996 31.8966C26.0129 31.9509 26.0333 32.0002 26.057 32.0444C26.0729 32.0738 26.091 32.101 26.1102 32.1265C26.1294 32.152 26.1509 32.1752 26.1735 32.1961C26.1848 32.2069 26.1967 32.2171 26.2091 32.2267C26.2289 32.242 26.2498 32.2562 26.2719 32.2692C26.2843 32.2765 26.2968 32.2833 26.3098 32.2901C26.3646 32.3179 26.4263 32.3394 26.4947 32.3558C26.5218 32.3621 26.5501 32.3677 26.5789 32.3722C26.5851 32.3734 26.5919 32.3745 26.5981 32.3751C26.6219 32.3785 26.6468 32.3813 26.6722 32.3836C26.7231 32.3881 26.7763 32.3909 26.8328 32.3915C26.8611 32.3915 26.8899 32.3915 26.9199 32.3915C26.882 32.3819 26.8475 32.37 26.8147 32.357C26.7734 32.3405 26.7355 32.3218 26.701 32.3009V32.2998Z" fill="#E67321"/>
<path d="M17.8589 34.3882L18.4125 34.609L18.5041 34.5337L17.9816 34.3304L17.8589 34.3882Z" fill="#E67321"/>
<path d="M22.1816 32.127C22.6509 33.2222 22.7414 33.5308 22.7086 33.5727C22.6809 33.6079 22.7278 33.6079 22.2981 33.6367C20.5294 33.716 19.7899 33.7126 19.2301 33.6583C18.6816 33.6039 18.3373 33.6634 18.0812 33.7862C17.825 33.9091 17.4931 34.173 17.4931 34.173C17.2443 34.3536 17.0278 34.4369 16.8977 34.502C16.7677 34.5671 16.7207 34.6068 16.6959 34.6504C16.6704 34.694 16.6489 34.7948 16.6597 34.8927C16.6704 34.9907 16.6631 35.16 16.5839 35.348C16.5291 35.4777 16.4092 35.6708 16.3402 35.7784H16.883C16.8904 35.7586 16.8989 35.7359 16.909 35.7093C16.9814 35.5179 16.9452 35.3152 16.9056 35.1815C16.8661 35.0479 16.8514 34.9431 16.8909 34.8271C16.9305 34.7115 16.9989 34.6645 17.151 34.5926C17.5157 34.4091 17.8075 34.2234 18.1507 34.0207C18.4939 33.8179 19.0701 33.8638 19.2216 33.8785C20.5283 33.9771 22.4892 33.8655 22.7889 33.8508C23.1219 33.8349 23.0609 33.7194 23.0247 33.6509C22.7001 32.9278 22.1827 32.127 22.1827 32.127H22.1816Z" fill="#E67321"/>
<path d="M18.7998 34.2885L18.3933 34.1305L18.2706 34.1883L18.7082 34.3627C18.6432 34.4159 18.8004 34.2885 18.8004 34.2885H18.7998Z" fill="#E67321"/>
<path d="M19.9205 34.9964C19.9465 34.9867 19.9731 34.9771 19.9996 34.9686C20.0223 34.9613 20.0449 34.955 20.0681 34.9482C20.0884 34.942 20.1088 34.9358 20.1291 34.9301C20.1738 34.9182 20.219 34.9069 20.2643 34.8967C20.262 34.8854 20.2575 34.8752 20.253 34.8661C20.2518 34.8639 20.2507 34.8622 20.2496 34.8599C20.2439 34.8514 20.2377 34.8435 20.2303 34.8372C20.2292 34.8367 20.2281 34.8355 20.2275 34.835C20.2202 34.8293 20.2117 34.8242 20.2032 34.8197C20.2015 34.8186 20.1998 34.818 20.1975 34.8169C20.1874 34.8123 20.1766 34.8089 20.1647 34.8061C20.1631 34.8061 20.1608 34.8055 20.1591 34.805C20.1478 34.8027 20.1353 34.801 20.1229 34.7999C20.1218 34.7999 20.1206 34.7999 20.1195 34.7999C20.1054 34.7987 20.0907 34.7982 20.076 34.7987C20.0743 34.7987 20.0726 34.7987 20.0709 34.7987C20.003 34.7999 19.9267 34.8123 19.856 34.8254C19.061 35.0496 18.7218 35.6023 18.6432 36.3583C18.6421 36.3679 18.6426 36.3758 18.6432 36.3837C18.6845 36.3888 18.8303 36.4092 18.9287 36.4608C18.918 36.125 18.9208 35.8339 19.1668 35.5145C19.2024 35.4669 19.2414 35.4222 19.2838 35.3797C19.2844 35.3792 19.2849 35.378 19.2861 35.3775C19.307 35.3571 19.3296 35.3378 19.3517 35.3186C19.3805 35.2931 19.411 35.2693 19.4427 35.2461C19.4444 35.245 19.4461 35.2438 19.4472 35.2427C19.4772 35.2206 19.5089 35.1997 19.5411 35.1793C19.5445 35.177 19.5484 35.1747 19.5518 35.1725C19.5824 35.1538 19.614 35.1357 19.6463 35.1181C19.6525 35.1147 19.6587 35.1113 19.6649 35.1085C19.6954 35.0926 19.726 35.0773 19.7576 35.0632C19.7673 35.0587 19.7774 35.0547 19.7876 35.0502C19.8164 35.0377 19.8458 35.0253 19.8758 35.0134C19.8905 35.0077 19.9058 35.0026 19.9205 34.9969V34.9964Z" fill="#E67321"/>
<path d="M27.3835 33.3502L27.314 33.4249H27.9489C27.9489 33.4249 27.9919 33.3762 28.0287 33.336H27.3965L27.383 33.3508L27.3835 33.3502Z" fill="#E67321"/>
<path d="M19.5722 15.7786C19.0068 15.4315 19.1775 14.9258 19.7452 14.2604C19.4862 14.4354 19.1894 14.7101 18.9683 15.0844C18.8479 15.3494 18.9225 15.6099 19.5722 15.7786Z" fill="#E67321"/>
<path d="M18.1168 16.2305C18.1043 16.1139 18.1411 15.9972 18.153 15.8811C18.0246 16.0057 17.9443 16.1943 17.9121 16.4474C18.1004 16.5839 18.2248 16.7368 18.2853 16.9055C18.3978 16.5782 18.132 16.3698 18.1168 16.2305Z" fill="#E67321"/>
</g>
<defs>
<clipPath id="clip0_1743_33817">
<rect width="39" height="50" fill="white"/>
</clipPath>
</defs>
</svg>
