<svg width="203" height="76" viewBox="0 0 203 76" fill="none" xmlns="http://www.w3.org/2000/svg">
<g id="Frame 1028">
<circle id="Ellipse 32" cx="173.619" cy="28.6109" r="28.6118" fill="#C51932"/>
<g id="Vector">
<path d="M29.748 48.5934C29.8166 48.7976 29.868 48.9317 29.9054 49.0689C30.1752 50.031 30.4122 51.0039 30.7178 51.955C32.1336 56.3661 34.3149 60.3468 37.4583 63.7755C38.938 65.3893 40.5347 66.8644 42.4151 68.0244C44.7461 69.4605 47.2736 70.1761 49.9945 70.1793C51.4165 70.1808 52.8214 69.9703 54.2013 69.5836C56.2828 69.0021 58.2147 68.1195 59.9611 66.8441C61.5468 65.684 62.7645 64.1981 63.7141 62.497C64.408 61.2543 65.0426 59.9773 64.8134 58.471C64.7697 58.1795 64.751 57.905 64.4267 57.7787C64.0836 57.6447 63.803 57.7086 63.5254 57.9612C62.2063 59.1618 60.683 60.0412 59.0505 60.7413C57.5224 61.3961 55.9476 61.9107 54.3416 62.3395C52.2398 62.9024 50.113 63.2657 47.927 63.2641C45.5912 63.2641 43.3413 62.8338 41.1942 61.9403C38.4422 60.7943 36.6382 58.7611 35.8024 55.903C35.1694 53.7388 34.9542 51.5044 34.909 49.2638C34.8825 47.9385 35.0213 46.61 35.0977 45.2831C35.1476 44.4162 35.5155 43.7239 36.2063 43.1719C37.1293 42.4344 38.0118 41.6486 38.9209 40.8939C41.6682 38.6081 44.3953 36.2942 47.1785 34.052C49.7403 31.9876 52.3552 29.9887 54.9653 27.9866C58.4081 25.3453 61.9382 22.8209 65.5914 20.4821C69.5581 17.9421 73.6105 15.5394 77.624 13.0727C77.758 12.99 77.8781 12.884 78.0465 12.7577C77.5008 11.4105 76.665 10.4344 75.2259 10.0805C73.7446 9.7172 72.2696 9.90119 70.8273 10.2411C67.701 10.9802 64.8087 12.3102 62.0629 13.9474C60.4585 14.9047 58.8977 15.9354 57.3509 16.9832C55.5547 18.1994 53.7725 19.4359 52.0277 20.7222C49.5486 22.5512 47.0928 24.4113 44.6588 26.3011C42.4026 28.0537 40.187 29.8562 37.9588 31.6446C36.7691 32.5988 35.5935 33.5718 34.4069 34.5307C34.2541 34.6539 34.1044 34.8254 33.8472 34.7443C33.8472 34.4527 33.8316 34.1721 33.8503 33.893C33.8877 33.327 33.9563 32.7625 33.9875 32.1965C34.0857 30.4518 34.1824 28.707 34.2588 26.9607C34.3118 25.7226 34.3321 24.4815 34.3617 23.2419C34.421 20.8672 34.4974 18.4941 34.527 16.1194C34.555 13.8476 34.5083 11.5758 34.5457 9.30401C34.5613 8.37471 34.2354 7.61537 33.6819 6.91996C32.9927 6.05303 32.1336 5.3888 31.1591 4.86646C30.459 4.49068 29.7137 4.3067 28.9169 4.33944C28.0874 4.37218 27.6196 4.82748 27.5713 5.64919C27.5697 5.67881 27.5713 5.70844 27.5682 5.73806C27.5011 6.78119 27.42 7.82431 27.3701 8.86743C27.2984 10.3736 27.1924 11.8814 27.2033 13.3876C27.2189 15.6267 27.328 17.8657 27.3904 20.1048C27.4512 22.3142 27.4949 24.5252 27.5572 26.7346C27.643 29.7517 27.7381 32.7672 27.8286 35.7843C27.8613 36.8742 27.894 37.9641 27.9174 39.0556C27.9283 39.5701 27.7662 39.9989 27.3577 40.3607C26.6186 41.014 25.9216 41.7156 25.1997 42.3892C22.443 44.9588 19.68 47.5222 16.9264 50.0964C14.2508 52.599 11.583 55.1109 8.91359 57.6213C6.67922 59.7215 4.45265 61.8281 2.21204 63.9205C1.58368 64.5084 1.1393 65.1991 0.877348 66.0115C0.139834 68.3004 -0.181366 70.6361 0.102413 73.0342C0.160104 73.5176 0.284842 74.0025 0.451679 74.4593C0.643464 74.9879 1.10655 75.1625 1.64137 75.1641C2.09978 75.1657 2.4163 74.899 2.72191 74.6012C5.08881 72.2951 7.4526 69.9844 9.83042 67.6892C11.8527 65.737 13.8984 63.8083 15.9254 61.8592C18.7507 59.1446 21.5683 56.4222 24.3858 53.6998C25.9232 52.2139 27.4528 50.7201 28.9902 49.2342C29.21 49.0221 29.4579 48.8366 29.7464 48.5918L29.748 48.5934Z" fill="white"/>
<path d="M161.406 57.746C161.139 58.0438 160.957 58.2761 160.745 58.4788C159.923 59.2647 158.906 59.6841 157.843 60.0256C155.713 60.707 153.505 60.8894 151.296 60.9767C149.592 61.0453 147.884 60.9986 146.177 60.9845C145.265 60.9767 144.351 60.9471 143.439 60.9034C141.243 60.799 139.048 60.6789 136.853 60.5698C135.926 60.5246 134.999 60.4996 134.073 60.4513C132.027 60.3452 129.981 60.2252 127.935 60.1207C126.905 60.0677 125.873 60.0349 124.842 59.9975C122.495 59.9133 120.147 59.8307 117.801 59.7527C117.202 59.7325 116.603 59.7403 116.004 59.7184C114.076 59.6483 112.148 59.5391 110.22 59.5017C107.243 59.444 104.265 59.4144 101.287 59.4066C99.5373 59.4019 97.7878 59.469 96.0368 59.4923C93.2552 59.5282 90.472 59.4253 87.6903 59.6498C86.0375 59.7824 84.3738 59.7403 82.7195 59.9398C81.4144 60.0973 80.0969 60.1535 78.7887 60.2969C77.7347 60.4123 76.6884 60.5994 75.6375 60.7382C73.7446 60.9876 71.9063 61.4492 70.1537 62.1992C69.162 62.6233 68.3824 63.3109 67.9895 64.3556C67.9318 64.5099 67.9162 64.6799 67.8632 64.9262C68.0659 64.8436 68.1719 64.8015 68.278 64.7578C69.2151 64.368 70.1366 63.9283 71.0939 63.5962C72.9354 62.9554 74.8626 62.6513 76.7773 62.3333C79.0538 61.9559 81.3614 61.8748 83.6628 61.814C86.312 61.7439 88.958 61.8764 91.604 62.0214C93.6809 62.1352 95.7531 62.274 97.819 62.5094C99.2005 62.6669 100.585 62.7963 101.967 62.9569C103.155 63.0942 104.34 63.2532 105.526 63.4091C107.008 63.604 108.49 63.7989 109.97 64.0016C111.333 64.1887 112.692 64.3883 114.055 64.5785C115.521 64.7828 116.988 64.9808 118.454 65.1851C119.578 65.341 120.702 65.5109 121.828 65.6606C122.614 65.7651 123.403 65.8415 124.189 65.9397C125.776 66.1362 127.359 66.3576 128.949 66.5307C130.628 66.7131 132.312 66.8784 133.998 66.9969C136.072 67.1419 138.147 67.2807 140.224 67.3306C141.972 67.3727 143.724 67.3072 145.474 67.2432C146.503 67.2058 147.533 67.1154 148.556 66.9875C149.429 66.8784 150.293 66.6913 151.159 66.5244C152.992 66.1721 154.745 65.5827 156.36 64.6362C158.913 63.1409 160.675 61.0282 161.384 58.114C161.406 58.022 161.395 57.9206 161.403 57.746H161.406Z" fill="white"/>
<path d="M79.4716 47.0466C79.5792 46.9811 79.6993 46.9297 79.7928 46.8501C81.7497 45.1818 83.7065 43.5118 85.6571 41.8372C87.0183 40.6678 88.3686 39.4844 89.7329 38.3196C90.0619 38.039 90.4143 37.7786 90.7854 37.5587C92.1279 36.7604 93.5062 36.6965 94.8705 37.487C95.3711 37.777 95.8482 38.131 96.2785 38.5176C97.1969 39.3456 97.317 40.2499 96.6278 41.2759C95.8435 42.4407 95.0093 43.5727 94.1923 44.7156C93.9225 45.0913 93.6341 45.4546 93.3597 45.8273C93.2848 45.9286 93.224 46.0394 93.157 46.1454C93.1819 46.1688 93.2068 46.1937 93.2318 46.2171C93.3503 46.1189 93.4735 46.0253 93.5842 45.9193C94.4917 45.0508 95.3882 44.173 96.3019 43.3123C98.1075 41.6096 99.9193 39.9116 101.736 38.2198C102.31 37.685 102.935 37.2095 103.724 37.0504C105.921 36.6076 107.613 37.2718 108.757 39.3628C109.258 40.2749 109.139 41.1637 108.489 41.9511C107.69 42.9193 106.853 43.858 106.024 44.8013C104.681 46.3294 103.325 47.8434 101.992 49.3792C101.684 49.7332 101.45 50.151 101.182 50.5377C101.209 50.5767 101.235 50.6141 101.262 50.6531C101.376 50.625 101.502 50.6219 101.599 50.5658C102.09 50.282 102.589 50.0076 103.058 49.6879C106.077 47.6376 109.077 45.5607 112.108 43.5274C113.402 42.659 114.331 41.5036 115.075 40.1689C117.272 36.2256 119.562 32.34 122.032 28.5589C124.993 24.0247 128.163 19.6432 131.592 15.4474C133.231 13.4438 134.908 11.4745 136.734 9.6408C138.65 7.71828 140.695 5.92985 143.083 4.61542C145.941 3.04372 148.84 3.06867 151.647 4.79629C152.85 5.53692 153.703 6.60967 154.235 7.9241C154.336 8.17357 154.406 8.43552 154.522 8.6772C155.015 9.71876 154.756 10.7026 154.251 11.6366C153.098 13.7634 151.634 15.6688 149.977 17.4291C146.969 20.6193 143.762 23.6021 140.47 26.496C136.851 29.6768 133.132 32.736 129.294 35.6471C126.637 37.6616 123.961 39.6528 121.29 41.6501C120.011 42.6075 119.037 43.7832 118.58 45.3408C118.568 45.3829 118.554 45.425 118.544 45.4687C118.541 45.4811 118.55 45.4967 118.566 45.5482C118.655 45.5061 118.75 45.4796 118.822 45.4235C121.313 43.4339 123.933 41.6221 126.542 39.7947C127.79 38.9199 129.057 38.0686 130.324 37.2204C130.708 36.9631 131.108 36.7199 131.528 36.5265C132.318 36.1617 133.12 36.1414 133.887 36.6123C134.79 37.1674 135.473 37.9345 135.903 38.8965C136.237 39.6403 136.062 40.2156 135.368 40.6242C134.872 40.9157 134.33 41.1512 133.781 41.3305C132.744 41.6688 131.689 41.9495 130.642 42.2535C129.523 42.5794 128.409 42.924 127.284 43.2249C126.626 43.4011 126.178 43.7816 125.874 44.3725C125.553 44.9962 125.357 45.6433 125.42 46.3528C125.473 46.9437 125.692 47.1542 126.289 47.1168C126.568 47.0996 126.849 47.0279 127.12 46.9531C129.923 46.1703 132.582 45.0118 135.231 43.833C135.983 43.4978 136.723 43.1376 137.49 42.8429C138.395 42.4937 139.068 41.898 139.603 41.1091C140.149 40.3061 140.735 39.528 141.257 38.711C141.852 37.7817 142.648 37.6071 143.663 37.8768C145.729 38.4272 147.019 40.5368 146.443 42.6028C146.18 43.5477 145.776 44.4536 145.43 45.3751C145.319 45.6683 145.185 45.952 145.073 46.2452C145.034 46.3481 145.025 46.4619 144.987 46.6396C145.12 46.5757 145.193 46.5586 145.241 46.5134C147.307 44.6064 149.362 42.6886 151.438 40.7926C152.563 39.7635 153.717 38.7656 154.866 37.7645C155.568 37.1549 156.368 37.0629 157.264 37.2765C158.251 37.5119 159.179 37.8597 160.026 38.4163C160.126 38.4818 160.219 38.5566 160.314 38.6299C161.311 39.3893 161.463 40.5805 161.019 41.5706C160.573 42.5638 160.026 43.5118 159.507 44.4692C158.694 45.9661 157.86 47.452 157.051 48.9504C156.82 49.3777 156.625 49.8329 156.731 50.3678C156.819 50.3678 156.886 50.388 156.931 50.3646C157.606 50.0154 158.34 49.7409 158.939 49.2903C161.317 47.5003 163.653 45.6558 166.002 43.8299C166.687 43.2982 167.351 42.7369 168.056 42.2333C168.391 41.9947 168.784 41.8123 169.179 41.6875C169.798 41.4911 170.273 41.8887 170.257 42.5342C170.236 43.3606 169.955 44.0747 169.352 44.6594C166.978 46.9577 164.61 49.2623 162.24 51.5652C161.833 51.9613 161.426 52.3589 161.016 52.7518C159.769 53.9446 158.287 54.548 156.553 54.5356C154.776 54.5231 153.087 54.1333 151.483 53.3739C150.773 53.0372 150.143 52.5834 149.563 52.0611C148.566 51.1614 148.369 50.1308 148.926 48.9036C149.498 47.6391 150.055 46.3668 150.616 45.0976C150.644 45.0336 150.652 44.9619 150.683 44.8356C150.583 44.8824 150.526 44.8933 150.49 44.9261C149.089 46.2296 147.705 47.5502 146.288 48.835C145.248 49.7784 144.156 50.6671 143.104 51.5995C142.368 52.2529 141.502 52.4524 140.562 52.3651C139.142 52.2341 138.081 51.5559 137.5 50.2196C137.288 49.7316 137.216 49.2186 137.278 48.6854C137.363 47.965 137.437 47.2431 137.525 46.4588C137.295 46.6209 137.113 46.7691 136.913 46.8876C134.291 48.4437 131.682 50.0278 129.032 51.5372C127.404 52.4634 125.696 52.4836 124.009 51.6214C122.882 51.0445 121.889 50.2773 120.947 49.4431C120.693 49.2186 120.479 48.9395 120.283 48.6588C120.002 48.2597 119.831 47.8184 119.89 47.3132C119.902 47.2134 119.881 47.109 119.873 46.9531C119.753 47.0154 119.664 47.0497 119.586 47.1027C117.931 48.2363 116.793 49.7815 116.003 51.6011C115.95 51.7243 115.908 51.8553 115.836 51.9675C115.533 52.4431 115.164 52.8173 114.534 52.7409C114.061 52.6832 113.569 52.6816 113.121 52.5398C111.587 52.0517 110.767 50.8807 110.862 49.2451C110.873 49.0627 110.854 48.8803 110.846 48.6526C110.74 48.7103 110.694 48.7212 110.669 48.7524C109.245 50.4816 107.617 51.9816 105.709 53.1697C103.493 54.548 101.174 54.5044 98.8107 53.6655C97.5805 53.2289 96.5062 52.5335 95.6657 51.5122C94.9641 50.6593 94.8331 49.7456 95.3726 48.7696C95.7842 48.0258 96.2208 47.2945 96.6434 46.557C96.6699 46.5102 96.6808 46.4541 96.7385 46.2888C96.5654 46.4104 96.4703 46.4635 96.3923 46.5352C95.0982 47.7108 93.8087 48.8927 92.513 50.0668C91.5104 50.9743 90.3862 51.7103 89.2339 52.4103C88.4559 52.8828 87.6576 52.8095 86.8561 52.5881C86.2449 52.4181 85.7163 52.0642 85.272 51.6042C84.7387 51.0523 84.5188 50.4005 84.8182 49.677C85.1082 48.9754 85.47 48.3018 85.8177 47.6251C86.3166 46.6552 86.8374 45.6979 87.3379 44.7296C87.4299 44.5534 87.4751 44.3523 87.5422 44.1636C87.511 44.1402 87.4783 44.1168 87.4471 44.095C87.3457 44.1854 87.2459 44.2805 87.1415 44.3679C85.8426 45.4484 84.5563 46.5461 83.2387 47.6048C81.5485 48.9629 79.8318 50.2898 78.1291 51.6307C77.44 52.1733 76.6557 52.4649 75.7903 52.5772C74.1703 52.7861 72.5378 52.0003 71.7098 50.6016C71.6506 50.5003 71.5851 50.4021 71.4931 50.2555C71.3044 50.3771 71.1173 50.4675 70.9661 50.5985C70.1865 51.2737 69.4162 51.9613 68.6413 52.6411C67.7665 53.4082 66.817 54.046 65.6585 54.3064C64.5062 54.5652 63.3539 54.5886 62.1845 54.3796C60.9683 54.1614 59.7895 53.8495 58.695 53.2695C57.9652 52.8828 57.2792 52.4275 56.7132 51.8194C55.9367 50.9837 55.7932 50.0263 56.2766 49.0034C56.8972 47.6952 57.5521 46.4042 58.1913 45.1038C58.2225 45.0414 58.2381 44.9713 58.1976 44.8419C58.0822 44.9385 57.9637 45.0321 57.853 45.1319C56.4325 46.4151 55.0168 47.703 53.5916 48.98C52.667 49.808 51.7237 50.6157 50.799 51.4436C50.0678 52.0985 49.2383 52.532 48.2435 52.4493C46.7529 52.3246 45.6209 51.573 44.8834 50.2789C44.5621 49.7144 44.5887 49.0689 44.6697 48.439C44.874 46.833 45.2919 45.2784 45.7939 43.7442C46.3755 41.9651 47.2503 40.3419 48.4353 38.8903C48.6333 38.6486 48.8578 38.4257 49.0855 38.2105C49.6 37.724 50.2175 37.5946 50.8739 37.8207C52.023 38.2152 53.0069 38.8404 53.5651 39.9771C54.0828 41.0311 54.0625 42.1257 53.6899 43.2016C53.3484 44.187 52.9149 45.1412 52.5282 46.1126C52.4721 46.253 52.4472 46.4073 52.4066 46.5539C52.4362 46.5695 52.4659 46.5866 52.4955 46.6022C52.6358 46.4775 52.7761 46.3528 52.9149 46.2265C54.878 44.4271 56.8395 42.6293 58.801 40.83C59.8145 39.8991 60.8249 38.9667 61.8399 38.0358C61.9615 37.9251 62.0988 37.8316 62.2173 37.7193C62.7864 37.1736 63.4818 37.0489 64.2193 37.1814C65.3108 37.3794 66.3851 37.6476 67.3362 38.2588C68.2577 38.8513 68.8564 39.6325 68.6506 40.7879C68.5711 41.2354 68.4011 41.6829 68.1875 42.0867C67.4188 43.5384 66.6143 44.9713 65.8237 46.4136C65.3716 47.2384 64.91 48.0601 64.4797 48.8974C64.3175 49.2124 64.224 49.5632 64.1164 49.9047C64.0836 50.0091 64.1117 50.1323 64.1117 50.2898C64.2442 50.2898 64.3534 50.3194 64.4345 50.2851C65.027 50.0419 65.6257 49.8298 66.1512 49.4307C69.1667 47.1464 72.1932 44.873 75.2337 42.62C75.7077 42.2676 76.2503 41.9854 76.7976 41.7562C77.9311 41.2822 79.0382 41.3445 80.0829 42.0524C80.8625 42.581 81.1883 43.4744 80.9264 44.4053C80.6988 45.2145 80.2403 45.8912 79.7242 46.5367C79.6135 46.674 79.5044 46.8127 79.3952 46.9499C79.4202 46.9827 79.4451 47.0154 79.4685 47.0466H79.4716ZM124.529 35.736C124.549 35.7547 124.569 35.775 124.589 35.7937C124.68 35.7329 124.78 35.683 124.861 35.6113C126.177 34.459 127.513 33.3286 128.801 32.1467C131.171 29.9747 133.542 27.8058 135.858 25.5761C137.925 23.5865 139.952 21.5517 141.933 19.4764C143.707 17.6162 145.379 15.661 147.122 13.7712C148.623 12.1449 149.813 10.3035 150.931 8.41057C151.07 8.17669 151.157 7.88512 151.177 7.61381C151.204 7.27078 150.99 7.09927 150.661 7.19282C150.323 7.29105 149.947 7.4002 149.69 7.62161C148.438 8.70839 147.17 9.78581 146.002 10.9599C144.897 12.0701 143.902 13.2909 142.868 14.4728C140.634 17.0253 138.407 19.5871 136.173 22.1395C133.859 24.7824 131.525 27.4082 129.227 30.0635C127.692 31.8379 126.203 33.6513 124.697 35.4507C124.627 35.5333 124.583 35.6378 124.527 35.7329L124.529 35.736Z" fill="white"/>
<path d="M29.748 48.5934C29.4579 48.8382 29.2116 49.0221 28.9917 49.2358C27.4543 50.7217 25.9247 52.2154 24.3873 53.7014C21.5698 56.4238 18.7507 59.1462 15.927 61.8608C13.9 63.8098 11.8543 65.7386 9.83198 67.6907C7.45416 69.9859 5.09037 72.2967 2.72347 74.6028C2.41786 74.9006 2.10134 75.1672 1.64293 75.1657C1.10811 75.1641 0.645023 74.9895 0.453238 74.4609C0.287961 74.0025 0.161663 73.5176 0.103972 73.0358C-0.179807 70.6377 0.141393 68.3004 0.878907 66.013C1.14086 65.2007 1.58524 64.5084 2.2136 63.9221C4.45421 61.8281 6.68078 59.7215 8.91515 57.6228C11.5845 55.114 14.2524 52.6006 16.928 50.098C19.68 47.5237 22.4445 44.9619 25.2013 42.3908C25.9232 41.7172 26.6186 41.0155 27.3592 40.3622C27.7677 40.0005 27.9299 39.5717 27.919 39.0571C27.8956 37.9672 27.8629 36.8773 27.8301 35.7859C27.7397 32.7688 27.6446 29.7532 27.5588 26.7361C27.4964 24.5267 27.4512 22.3157 27.392 20.1063C27.3312 17.8673 27.222 15.6282 27.2049 13.3892C27.1939 11.883 27.3 10.3752 27.3717 8.86899C27.4216 7.82587 27.5027 6.78274 27.5697 5.73962C27.5713 5.71 27.5697 5.68037 27.5728 5.65075C27.6212 4.82904 28.0874 4.37374 28.9184 4.341C29.7152 4.30981 30.4605 4.4938 31.1606 4.86802C32.1351 5.39036 32.9943 6.05459 33.6834 6.92151C34.237 7.61693 34.5628 8.37627 34.5472 9.30557C34.5083 11.5758 34.5566 13.8492 34.5285 16.1209C34.4989 18.4956 34.4225 20.8703 34.3633 23.2435C34.3321 24.4831 34.3134 25.7227 34.2603 26.9622C34.1855 28.7086 34.0873 30.4533 33.989 32.1981C33.9579 32.7641 33.8893 33.3285 33.8518 33.8945C33.8331 34.1736 33.8487 34.4559 33.8487 34.7459C34.106 34.827 34.2557 34.6554 34.4085 34.5323C35.595 33.5733 36.7707 32.6004 37.9604 31.6461C40.1885 29.8577 42.4042 28.0537 44.6604 26.3027C47.0928 24.4129 49.5501 22.5527 52.0293 20.7238C53.7741 19.4374 55.5562 18.2009 57.3525 16.9848C58.8992 15.937 60.46 14.9047 62.0644 13.9489C64.8102 12.3118 67.7026 10.9802 70.8289 10.2427C72.2711 9.90275 73.7462 9.71876 75.2274 10.0821C76.6666 10.436 77.5023 11.4105 78.0481 12.7593C77.8797 12.8856 77.7596 12.9916 77.6255 13.0742C73.6121 15.5394 69.5596 17.9437 65.593 20.4837C61.9397 22.8225 58.4096 25.3469 54.9669 27.9882C52.3567 29.9902 49.7419 31.9907 47.1801 34.0536C44.3969 36.2958 41.6698 38.6081 38.9224 40.8955C38.0134 41.6517 37.1309 42.4375 36.2078 43.1735C35.5171 43.7255 35.1491 44.4193 35.0992 45.2847C35.0228 46.6116 34.8856 47.94 34.9105 49.2654C34.9542 51.506 35.1709 53.7404 35.804 55.9046C36.6397 58.7626 38.4438 60.7958 41.1958 61.9419C43.3428 62.8353 45.5928 63.2641 47.9285 63.2657C50.1161 63.2657 52.2413 62.9024 54.3432 62.341C55.9476 61.9123 57.524 61.3977 59.052 60.7428C60.6845 60.0427 62.2079 59.1633 63.527 57.9627C63.8045 57.7101 64.0852 57.6462 64.4282 57.7803C64.7526 57.9082 64.7697 58.1826 64.8149 58.4726C65.0441 59.9788 64.4111 61.2543 63.7157 62.4985C62.7661 64.1996 61.5483 65.6856 59.9626 66.8456C58.2163 68.1227 56.286 69.0036 54.2028 69.5852C52.8229 69.9703 51.4196 70.1824 49.996 70.1808C47.2752 70.1777 44.7477 69.462 42.4167 68.026C40.5362 66.8659 38.9396 65.3924 37.4599 63.7771C34.318 60.3484 32.1351 56.3661 30.7194 51.9566C30.4137 51.0055 30.1767 50.0325 29.907 49.0705C29.868 48.9333 29.8181 48.7992 29.7495 48.5949L29.748 48.5934Z" fill="white"/>
<path d="M161.406 57.746C161.398 57.9206 161.409 58.022 161.387 58.114C160.678 61.0282 158.916 63.1409 156.363 64.6362C154.748 65.5827 152.995 66.1721 151.162 66.5244C150.296 66.6897 149.433 66.8784 148.559 66.9875C147.536 67.1154 146.506 67.2058 145.477 67.2432C143.727 67.3056 141.976 67.3727 140.227 67.3306C138.15 67.2807 136.073 67.1419 134.001 66.9969C132.315 66.8784 130.633 66.7131 128.952 66.5307C127.363 66.3592 125.779 66.1362 124.192 65.9397C123.406 65.8431 122.617 65.7651 121.831 65.6606C120.705 65.5109 119.583 65.341 118.457 65.1851C116.991 64.9808 115.524 64.7828 114.058 64.5785C112.696 64.3883 111.336 64.1887 109.973 64.0016C108.492 63.7989 107.011 63.6025 105.529 63.4091C104.343 63.2532 103.158 63.0942 101.97 62.9569C100.588 62.7979 99.2036 62.6669 97.8222 62.5094C95.7562 62.274 93.684 62.1368 91.6071 62.0214C88.9611 61.8764 86.3151 61.7439 83.666 61.814C81.363 61.8748 79.0569 61.9544 76.7804 62.3333C74.8657 62.6513 72.9385 62.9554 71.097 63.5962C70.1397 63.9299 69.2182 64.368 68.2811 64.7578C68.1751 64.8015 68.069 64.8436 67.8663 64.9262C67.9193 64.6799 67.9349 64.5099 67.9926 64.3556C68.3856 63.3093 69.1652 62.6233 70.1568 62.1992C71.911 61.4492 73.7493 60.9876 75.6406 60.7382C76.6931 60.5994 77.7378 60.4123 78.7918 60.2969C80.1 60.1535 81.416 60.0973 82.7226 59.9398C84.3754 59.7418 86.0406 59.7839 87.6934 59.6498C90.4751 59.4253 93.2583 59.5282 96.04 59.4923C97.7894 59.469 99.5389 59.4035 101.29 59.4066C104.268 59.4144 107.245 59.4424 110.223 59.5017C112.151 59.5391 114.079 59.6483 116.007 59.7184C116.606 59.7403 117.205 59.7325 117.804 59.7527C120.15 59.8307 122.498 59.9149 124.845 59.9975C125.877 60.0349 126.908 60.0677 127.939 60.1207C129.984 60.2252 132.03 60.3437 134.076 60.4513C135.002 60.4996 135.93 60.5246 136.856 60.5698C139.051 60.6789 141.247 60.799 143.442 60.9034C144.354 60.9471 145.266 60.9783 146.18 60.9845C147.886 60.997 149.595 61.0438 151.299 60.9767C153.51 60.8894 155.716 60.707 157.846 60.0256C158.909 59.6857 159.928 59.2647 160.748 58.4788C160.96 58.2761 161.142 58.0423 161.409 57.746H161.406Z" fill="white"/>
</g>
<g id="Vector_2">
<path d="M176.306 26.0685C176.247 26.1605 176.176 26.2463 176.131 26.343C175.614 27.45 175.121 28.5695 174.58 29.6657C174.163 30.5092 173.68 31.3184 173.242 32.1511C173.081 32.4567 172.883 32.6422 172.517 32.6438C172.152 32.6453 171.988 32.4271 171.843 32.148C171.062 30.6527 170.27 29.162 169.498 27.6605C169.28 27.2364 169.121 26.7842 168.931 26.3461C168.893 26.2588 168.839 26.1777 168.712 26.1075C168.712 26.4537 168.712 26.7998 168.712 27.146C168.712 28.8486 168.712 30.5513 168.706 32.254C168.706 32.5518 168.677 32.8512 168.63 33.1459C168.56 33.5856 168.418 33.7025 167.97 33.7056C167.102 33.7119 166.235 33.7103 165.366 33.7009C165.176 33.6994 164.986 33.6573 164.733 33.6277C164.699 33.347 164.635 33.0866 164.641 32.8278C164.707 30.0664 164.791 27.305 164.853 24.5436C164.883 23.2307 164.877 21.9163 164.886 20.6019C164.892 19.7849 164.939 19.7272 165.736 19.7272C166.709 19.7272 167.682 19.7521 168.653 19.7412C169.113 19.7365 169.394 19.9096 169.595 20.3353C170.484 22.211 171.401 24.0727 172.308 25.9391C172.359 26.0451 172.419 26.1481 172.517 26.3367C172.628 26.159 172.72 26.0389 172.785 25.9048C173.505 24.4282 174.221 22.9501 174.937 21.4719C175.171 20.9886 175.391 20.4974 175.642 20.0234C175.702 19.9096 175.854 19.8254 175.983 19.7739C176.103 19.7272 176.248 19.7318 176.382 19.7318C177.43 19.7318 178.476 19.7318 179.524 19.7443C179.997 19.7506 180.104 19.8581 180.127 20.3275C180.166 21.118 180.198 21.9101 180.212 22.7006C180.249 24.8056 180.269 26.9121 180.307 29.017C180.33 30.3003 180.374 31.5835 180.405 32.8668C180.408 33.0164 180.399 33.1661 180.399 33.3143C180.399 33.5357 180.279 33.6401 180.073 33.6651C179.939 33.6807 179.805 33.7009 179.671 33.7025C178.773 33.7103 177.876 33.7165 176.978 33.7165C176.834 33.7165 176.693 33.6807 176.512 33.6557C176.261 31.1142 176.456 28.5976 176.304 26.0639L176.306 26.0685Z" fill="white"/>
<path d="M190.749 33.5949C190.789 30.8959 190.646 28.2312 190.872 25.568C189.813 27.9536 188.326 30.0898 187.161 32.4005C187.007 32.7077 186.835 33.0055 186.664 33.3033C186.492 33.5996 186.238 33.7352 185.884 33.729C184.897 33.7119 183.909 33.7165 182.92 33.7041C182.452 33.6978 182.385 33.6308 182.337 33.1599C182.32 32.9962 182.321 32.8309 182.321 32.6672C182.318 28.5726 182.317 24.4766 182.317 20.382C182.317 20.2058 182.332 20.0281 182.343 19.8176C182.476 19.788 182.586 19.7396 182.697 19.7396C183.67 19.7396 184.643 19.7396 185.616 19.7552C186.09 19.763 186.165 19.8347 186.157 20.3165C186.127 22.4231 186.092 24.528 186.042 26.633C186.031 27.0602 185.95 27.4859 185.984 27.9365C186.031 27.8383 186.087 27.7416 186.123 27.6402C186.796 25.7551 187.853 24.068 188.862 22.356C189.28 21.6481 189.703 20.9434 190.105 20.2261C190.301 19.8753 190.568 19.7147 190.975 19.7225C191.978 19.7428 192.98 19.7334 193.983 19.749C194.451 19.7568 194.525 19.8348 194.533 20.3134C194.553 21.7027 194.574 23.092 194.571 24.4828C194.566 27.2769 194.547 30.0726 194.533 32.8668C194.533 32.9868 194.53 33.1069 194.518 33.2254C194.479 33.5715 194.38 33.6978 194.047 33.7025C193.074 33.715 192.101 33.7025 191.128 33.6931C191.028 33.6931 190.93 33.6432 190.749 33.5949Z" fill="white"/>
<path d="M150.619 26.6299C150.619 25.9578 150.614 25.2858 150.619 24.6138C150.641 22.1346 152.479 19.696 155.443 19.5822C156.338 19.5479 157.241 19.5198 158.133 19.5884C159.215 19.6695 160.26 19.9688 161.17 20.5816C162.421 21.4236 163.087 22.6039 163.07 24.1335C163.07 24.2661 163.054 24.4017 163.024 24.5327C162.909 25.0301 162.804 25.1127 162.29 25.1236C161.378 25.1424 160.466 25.1564 159.554 25.1767C159.276 25.1829 159.1 25.0784 159.034 24.7946C158.977 24.5483 158.894 24.3066 158.828 24.0618C158.729 23.6907 158.496 23.4194 158.158 23.2635C157.29 22.8628 156.416 22.8472 155.581 23.3415C154.926 23.7281 154.684 24.3877 154.65 25.0909C154.598 26.1325 154.625 27.1787 154.62 28.2234C154.62 28.2982 154.629 28.3731 154.64 28.4464C154.951 30.4141 156.432 30.7493 157.993 30.2504C158.49 30.0913 158.794 29.6906 158.92 29.1761C158.952 29.0467 158.966 28.911 158.992 28.78C159.083 28.3528 159.157 28.2873 159.588 28.2858C160.455 28.2826 161.323 28.2811 162.19 28.2889C162.366 28.2889 162.558 28.3029 162.716 28.3715C162.829 28.4214 162.965 28.568 162.974 28.6818C163.074 29.8684 162.96 31.0113 162.2 31.9998C161.8 32.5175 161.306 32.9104 160.728 33.216C159.694 33.7649 158.571 33.927 157.43 33.9489C156.611 33.9645 155.779 33.9395 154.971 33.8101C152.493 33.4156 151.213 31.9874 150.777 30.0212C150.683 29.6017 150.643 29.1652 150.629 28.7348C150.605 28.0332 150.622 27.3315 150.622 26.6283L150.619 26.6299Z" fill="white"/>
</g>
</g>
</svg>
