<svg width="24" height="24" viewBox="0 0 24 24" fill="none" xmlns="http://www.w3.org/2000/svg">
<g id="doc">
<path id="icon" fill-rule="evenodd" clip-rule="evenodd" d="M3.73606 4.2092C3.73606 2.98858 4.73713 2 5.96852 2H18.3097C19.5367 2.00515 20.5326 2.99177 20.5326 4.2092V12.4024H18.9817V4.2092C18.9817 3.83678 18.6713 3.53614 18.3001 3.53614H5.95887C5.59011 3.53614 5.28694 3.84392 5.28694 4.2092V12.3833H3.73606V4.2092ZM6.74659 7.72134C6.74659 7.29287 7.09152 6.95327 7.52203 6.95327H17.0071C17.4376 6.95327 17.7826 7.29287 17.7826 7.72134C17.7826 8.14981 17.4376 8.48941 17.0071 8.48941H7.52203C7.09152 8.48941 6.74659 8.14981 6.74659 7.72134ZM6.74659 10.7849C6.74659 10.3565 7.09152 10.0169 7.52203 10.0169H17.0071C17.4376 10.0169 17.7826 10.3565 17.7826 10.7849C17.7826 11.2134 17.4376 11.553 17.0071 11.553H7.52203C7.09152 11.553 6.74659 11.2134 6.74659 10.7849ZM8.2036 17.7901C8.2036 15.6924 9.77308 14.1303 11.8641 14.1303C13.9552 14.1303 15.5247 15.6924 15.5247 17.7901C15.5247 19.8879 13.9552 21.45 11.8641 21.45C9.77308 21.45 8.2036 19.8879 8.2036 17.7901ZM19.8633 21.45H19.8729C20.6378 21.4489 21.2367 21.313 21.7466 21.0281C22.2579 20.7424 22.6712 20.3118 23.0716 19.737L23.1345 19.6467L21.8597 18.9278L21.8077 19.0021C21.3222 19.6946 20.7047 20.057 19.8729 20.057C19.2804 20.057 18.7519 19.8399 18.3716 19.4512C17.9914 19.0628 17.7536 18.4971 17.7536 17.7901C17.7536 16.3837 18.7138 15.5233 19.8729 15.5233C20.3247 15.5233 20.6821 15.6266 20.9765 15.811C21.2718 15.9959 21.5102 16.2664 21.717 16.6105L21.7684 16.696L23.036 15.9372L22.9908 15.8531C22.4815 14.9049 21.4059 14.1303 19.9211 14.1303C17.8426 14.1303 16.2317 15.6036 16.2317 17.7901C16.2317 18.8787 16.6171 19.795 17.2685 20.4393C17.9177 21.0814 18.8254 21.4477 19.8633 21.45ZM1.44922 14.2639H3.73343C4.78898 14.2808 5.71764 14.577 6.39016 15.1465C7.08625 15.7359 7.49659 16.6197 7.49659 17.7901C7.49659 18.9606 7.08625 19.8443 6.39016 20.4338C5.69648 21.0211 4.73029 21.3068 3.63343 21.3068H1.44922V14.2639ZM10.3602 16.1316C9.98058 16.5173 9.74483 17.0826 9.74483 17.7997C9.74483 18.5168 9.98058 19.0821 10.3602 19.4677C10.74 19.8535 11.2706 20.0666 11.8738 20.0666C12.4769 20.0666 13.0076 19.8535 13.3874 19.4677C13.767 19.0821 14.0027 18.5168 14.0027 17.7997C14.0027 17.0826 13.767 16.5173 13.3874 16.1316C13.0076 15.7458 12.4769 15.5328 11.8738 15.5328C11.2706 15.5328 10.74 15.7458 10.3602 16.1316ZM2.95185 15.676H3.72027C4.40835 15.676 4.97022 15.8554 5.359 16.204C5.74605 16.551 5.97466 17.0773 5.97466 17.7997V17.8092C5.97466 18.5263 5.74393 19.0529 5.35537 19.4014C4.96514 19.7513 4.40307 19.9329 3.72027 19.9329H2.95185V15.676Z" fill="white"/>
</g>
</svg>
