<svg width="16" height="16" viewBox="0 0 16 16" fill="none" xmlns="http://www.w3.org/2000/svg">
<g id="Frame">
<path id="Vector" d="M14.2933 5.49982C14.2934 5.36871 14.2676 5.23887 14.2172 5.11781C14.1669 4.99675 14.0931 4.88686 14 4.79449L11.2067 2.00115C11.0183 1.8155 10.7645 1.71143 10.5 1.71143C10.2355 1.71143 9.98168 1.8155 9.79333 2.00115L2.29333 9.49982C2.1962 9.59575 2.11974 9.71055 2.06867 9.83715L2.05 9.88716C2.01667 9.98982 2.00067 10.0978 2 10.2058V12.9992C1.99991 13.1305 2.02571 13.2606 2.07593 13.382C2.12614 13.5034 2.19979 13.6138 2.29266 13.7067C2.38552 13.7996 2.49579 13.8733 2.61716 13.9236C2.73853 13.9739 2.86862 13.9998 3 13.9998H5.79333C5.90267 14.0012 6.01067 13.9818 6.11267 13.9438L6.16267 13.9318C6.28933 13.8805 6.40413 13.8039 6.5 13.7065L11.7313 8.47515L11.944 9.34382L9.644 11.6438C9.55016 11.7387 9.49752 11.8667 9.49752 12.0002C9.49752 12.1336 9.55016 12.2616 9.644 12.3565C9.73957 12.4487 9.86719 12.5002 10 12.5002C10.1328 12.5002 10.2604 12.4487 10.356 12.3565L12.856 9.85649C12.9147 9.79377 12.9573 9.71777 12.9802 9.63498C13.003 9.5522 13.0055 9.4651 12.9873 9.38115L12.556 7.65649L14 6.20649C14.0932 6.11394 14.1671 6.00383 14.2174 5.88253C14.2678 5.76123 14.2936 5.63115 14.2933 5.49982ZM12 6.79449L9.20667 4.00115L10.5 2.70715L13.2933 5.50049L12 6.79449Z" fill="#B9B9B9"/>
</g>
</svg>
