<svg width="40" height="40" viewBox="0 0 40 40" fill="none" xmlns="http://www.w3.org/2000/svg">
<path fillRule="evenodd" clip-rule="evenodd" d="M19.9997 10.6147C14.8159 10.6147 10.6137 14.8169 10.6137 20.0007C10.6137 25.1844 14.8159 29.3866 19.9997 29.3866C25.1834 29.3866 29.3856 25.1844 29.3856 20.0007C29.3856 14.8169 25.1834 10.6147 19.9997 10.6147ZM8.33301 20.0007C8.33301 13.5573 13.5564 8.33398 19.9997 8.33398C26.443 8.33398 31.6663 13.5573 31.6663 20.0007C31.6663 26.444 26.443 31.6673 19.9997 31.6673C13.5564 31.6673 8.33301 26.444 8.33301 20.0007ZM21.14 14.6498V21.141H18.8593V14.6498H21.14ZM18.8593 23.0708H21.1506V25.3515H18.8593V23.0708Z" fill="white"/>
</svg>
