<svg width="18" height="18" viewBox="0 0 18 18" fill="none" xmlns="http://www.w3.org/2000/svg">
<g id="star">
<path id="icon" d="M8.42322 2.40273C8.6366 1.86576 9.3634 1.86576 9.57678 2.40273L11.0566 6.12644C11.1465 6.35282 11.3499 6.50749 11.5834 6.52708L15.4244 6.84937C15.9782 6.89584 16.2028 7.6193 15.7808 7.99764L12.8544 10.6213C12.6765 10.7808 12.5988 11.0311 12.6532 11.2696L13.5473 15.1924C13.6762 15.7581 13.0882 16.2053 12.614 15.9021L9.32562 13.7999C9.12571 13.6721 8.87429 13.6721 8.67438 13.7999L5.38601 15.9021C4.91181 16.2053 4.32382 15.7581 4.45275 15.1924L5.34681 11.2696C5.40116 11.0311 5.32347 10.7808 5.14556 10.6213L2.21918 7.99764C1.79718 7.6193 2.02177 6.89584 2.57565 6.84937L6.41658 6.52708C6.65008 6.50749 6.85349 6.35282 6.94345 6.12644L8.42322 2.40273Z" fill="#EA464F"/>
</g>
</svg>
