<svg width="24" height="24" viewBox="0 0 24 24" fill="none" xmlns="http://www.w3.org/2000/svg">
<g id="Frame">
<path id="Vector (Stroke)" fill-rule="evenodd" clip-rule="evenodd" d="M8.66667 3V4.69811H15.3333V3H16.6667V4.69811H18.6667C19.0203 4.69811 19.3594 4.84124 19.6095 5.09601C19.8595 5.35077 20 5.69631 20 6.0566V19.6415C20 20.0018 19.8595 20.3473 19.6095 20.6021C19.3594 20.8569 19.0203 21 18.6667 21H5.33333C4.59714 21 4 20.3916 4 19.6415V6.0566C4 5.69631 4.14048 5.35077 4.39052 5.09601C4.64057 4.84124 4.97971 4.69811 5.33333 4.69811H7.33333V3H8.66667ZM5.33333 6.0566L5.33333 8.77358H18.6667V6.0566H5.33333ZM18.6667 10.1321H5.33333V19.6415H18.6667V10.1321ZM15.9424 12.8776L11.5656 17.0793C11.3082 17.3264 10.9062 17.3257 10.6496 17.0777L8.05752 14.5725L8.97512 13.5869L11.11 15.6502L15.028 11.8889L15.9424 12.8776Z" fill="#212121"/>
</g>
</svg>
