<svg width="24" height="24" viewBox="0 0 24 24" fill="none" xmlns="http://www.w3.org/2000/svg">
<g id="image-check">
<path id="Icon" d="M5.8002 21.6004L16.0002 12.0004L20.8002 16.8004M5.8002 21.6004H17.8002C19.7884 21.6004 21.4002 19.9886 21.4002 18.0004V9.60039M5.8002 21.6004C3.81197 21.6004 2.2002 19.9886 2.2002 18.0004V6.00039C2.2002 4.01217 3.81197 2.40039 5.8002 2.40039H14.8002M15.8008 5.40039L17.6002 7.20058L21.8004 3.00039M9.4002 7.80039C9.4002 8.7945 8.59431 9.60039 7.6002 9.60039C6.60608 9.60039 5.8002 8.7945 5.8002 7.80039C5.8002 6.80628 6.60608 6.00039 7.6002 6.00039C8.59431 6.00039 9.4002 6.80628 9.4002 7.80039Z" stroke="#303030" stroke-width="2" stroke-linecap="square" stroke-linejoin="round"/>
</g>
</svg>
