<svg width="38" height="38" viewBox="0 0 38 38" fill="none" xmlns="http://www.w3.org/2000/svg">
<g clip-path="url(#clip0_981_521)">
<path d="M26.6 0H11.4C5.10395 0 0 5.10395 0 11.4V26.6C0 32.896 5.10395 38 11.4 38H26.6C32.896 38 38 32.896 38 26.6V11.4C38 5.10395 32.896 0 26.6 0Z" fill="#E6E6E6"/>
<path d="M18.8705 12.1977C20.0509 12.1977 21.0002 13.1533 21.0002 14.3337C21.0002 15.5079 20.0509 16.4635 18.8705 16.4635C17.69 16.4635 16.7407 15.5079 16.7407 14.3337C16.7407 13.1533 17.6963 12.204 18.8705 12.1977ZM18.8705 9C15.9288 9 13.543 11.3858 13.543 14.3337C13.543 17.2754 15.9288 19.6612 18.8705 19.6612C21.8121 19.6612 24.198 17.2754 24.198 14.3337C24.198 11.3858 21.8121 9 18.8705 9Z" fill="#212121"/>
<path d="M18.8714 24.1898C17.0602 24.196 15.2802 23.7026 13.725 22.772C13.0193 22.3473 12.7882 21.4292 13.2129 20.7235C13.6376 20.0177 14.5557 19.7866 15.2614 20.2113C17.5286 21.5354 20.3516 21.5104 22.5938 20.1426C23.0497 19.8553 23.6181 19.8366 24.0865 20.0864C24.5611 20.3362 24.8609 20.8171 24.8797 21.3543C24.8984 21.8851 24.6298 22.391 24.1802 22.6721C22.5875 23.6651 20.7451 24.196 18.8714 24.1898Z" fill="#212121"/>
<path d="M23.1377 29.8915C22.738 29.8978 22.357 29.7354 22.0822 29.4543L18.8719 26.2503L15.6617 29.4543C15.287 29.8353 14.7373 29.9852 14.219 29.8478C13.7068 29.7104 13.3009 29.3044 13.1635 28.7923C13.0261 28.2739 13.1759 27.7243 13.5507 27.3496L18.8719 22.0283L24.1932 27.3496C24.6179 27.7743 24.7428 28.4176 24.5117 28.9734C24.2806 29.5293 23.7373 29.8915 23.1377 29.8915Z" fill="#212121"/>
</g>
<defs>
<clipPath id="clip0_981_521">
<rect width="38" height="38" fill="white"/>
</clipPath>
</defs>
</svg>
