<svg width="24" height="24" viewBox="0 0 24 24" fill="none" xmlns="http://www.w3.org/2000/svg">
<g id="icons/tg">
<g id="icon">
<path d="M11.9353 5.06035C13.0283 5.06035 13.9072 5.97487 13.9072 7.10457C13.9072 8.2283 13.0283 9.14282 11.9353 9.14282C10.8424 9.14282 9.96345 8.2283 9.96345 7.10457C9.96345 5.97487 10.8482 5.06633 11.9353 5.06035ZM11.9353 2C9.21171 2 7.00272 4.28331 7.00272 7.10457C7.00272 9.91986 9.21171 12.2032 11.9353 12.2032C14.659 12.2032 16.868 9.91986 16.868 7.10457C16.868 4.28331 14.659 2 11.9353 2Z" fill="#303030"/>
<path d="M7.17129 15.1798C6.51784 14.7734 6.30388 13.8947 6.69711 13.2193C7.09033 12.5439 7.94038 12.3227 8.59383 12.7291C10.6929 13.9963 13.3067 13.9724 15.3827 12.6634C15.8048 12.3884 16.331 12.3705 16.7647 12.6096C17.2042 12.8487 17.4818 13.3089 17.4991 13.823C17.5165 14.331 17.2678 14.8152 16.8515 15.0842C15.8993 15.6979 14.8506 16.1272 13.76 16.3527L16.864 19.5612C17.2572 19.9676 17.3729 20.5833 17.1589 21.1153C16.945 21.6472 16.4419 21.9939 15.8867 21.9939C15.5166 21.9999 15.1639 21.8445 14.9095 21.5755L11.9372 18.5092L8.96486 21.5755C8.6179 21.9401 8.10903 22.0836 7.62907 21.9521C7.15489 21.8206 6.77901 21.432 6.65179 20.9419C6.52457 20.4458 6.66336 19.9198 7.01032 19.5612L10.1135 16.3536C9.07956 16.1405 8.08364 15.7441 7.17129 15.1798Z" fill="#303030"/>
</g>
</g>
</svg>
