<svg width="24" height="24" viewBox="0 0 24 24" fill="none" xmlns="http://www.w3.org/2000/svg">
<g id="Frame">
<path id="Vector" d="M21.375 15.375H18.375V20.625M21 18.375H18.375M13.875 3.375V9.375H19.875M4.125 11.625V4.125C4.125 3.92609 4.20402 3.73532 4.34467 3.59467C4.48532 3.45402 4.67609 3.375 4.875 3.375H14.625L19.875 8.625V11.625M3.375 19.125H4.875C5.37228 19.125 5.84919 18.9275 6.20083 18.5758C6.55246 18.2242 6.75 17.7473 6.75 17.25C6.75 16.7527 6.55246 16.2758 6.20083 15.9242C5.84919 15.5725 5.37228 15.375 4.875 15.375H3.375V20.625M10.5 20.625V15.375H12C12.6962 15.375 13.3639 15.6516 13.8562 16.1438C14.3484 16.6361 14.625 17.3038 14.625 18C14.625 18.6962 14.3484 19.3639 13.8562 19.8562C13.3639 20.3484 12.6962 20.625 12 20.625H10.5Z" stroke="white" stroke-width="1.5" stroke-linecap="square"/>
</g>
</svg>
