<svg width="18" height="18" viewBox="0 0 18 18" fill="none" xmlns="http://www.w3.org/2000/svg">
<g id="pub">
<path id="icon" fill-rule="evenodd" clip-rule="evenodd" d="M10.2297 2H15.2432C15.6612 2 16 2.33881 16 2.75676V7.77027H14.4865V4.58373L10.1351 8.93508L9.06492 7.86486L13.4163 3.51351H10.2297V2ZM3.51351 5.78378H8.62162V4.27027H3.32432C2.97309 4.27027 2.63624 4.4098 2.38789 4.65816C2.13953 4.90651 2 5.24336 2 5.59459V14.6757C2 15.0269 2.13953 15.3638 2.38789 15.6121C2.63625 15.8605 2.97309 16 3.32432 16H12.4054C12.7566 16 13.0935 15.8605 13.3418 15.6121C13.5902 15.3638 13.7297 15.0269 13.7297 14.6757V9.37838H12.2162V14.4865H3.51351V5.78378Z" fill="#ABABAB"/>
</g>
</svg>
