<svg width="20" height="20" viewBox="0 0 20 20" fill="none" xmlns="http://www.w3.org/2000/svg">
<path fill-rule="evenodd" clip-rule="evenodd" d="M4.12751 4.12745C5.34744 2.90752 7.00203 2.22217 8.72727 2.22217C10.4525 2.22217 12.1071 2.90752 13.327 4.12745C14.547 5.34738 15.2323 7.00197 15.2323 8.72721C15.2323 10.1576 14.7612 11.5395 13.9049 12.6653L17.7778 16.5382L16.5382 17.7777L12.6653 13.9048C11.5395 14.7611 10.1577 15.2323 8.72727 15.2323C7.00203 15.2323 5.34744 14.5469 4.12751 13.327C2.90758 12.107 2.22223 10.4525 2.22223 8.72721C2.22223 7.00197 2.90758 5.34738 4.12751 4.12745ZM8.72727 3.97515C7.46695 3.97515 6.25824 4.47581 5.36706 5.367C4.47587 6.25818 3.97521 7.46689 3.97521 8.72721C3.97521 9.98753 4.47587 11.1962 5.36706 12.0874C6.25824 12.9786 7.46695 13.4793 8.72727 13.4793C9.9876 13.4793 11.1963 12.9786 12.0875 12.0874C12.9787 11.1962 13.4793 9.98753 13.4793 8.72721C13.4793 7.46689 12.9787 6.25818 12.0875 5.367C11.1963 4.47581 9.9876 3.97515 8.72727 3.97515Z" fill="#C6C6C6"/>
</svg>
