<svg width="24" height="24" viewBox="0 0 24 24" fill="none" xmlns="http://www.w3.org/2000/svg">
<g id="icons/tg">
<path id="icon" fillRule="evenodd" clip-rule="evenodd" d="M17.9926 19.332L21 4.56612C21 3.58297 19.6129 4.17901 19.6193 4.17901L2.74121 10.631C2.74121 10.631 1.94051 10.8952 2.00353 11.3868C2.06661 11.8784 2.71603 12.1058 2.71603 12.1058L6.95911 13.5007L6.96633 13.5041C6.96557 13.5017 6.96528 13.5006 6.96528 13.5006L17.1602 7.18993C17.1602 7.18993 17.7465 6.83962 17.7276 7.18993C17.7276 7.18993 17.8348 7.25129 17.5195 7.54014C17.2043 7.82898 9.51242 14.5637 9.51242 14.5637L9.49608 14.6978L16.4163 19.8667C17.5702 20.3583 17.9926 19.332 17.9926 19.332Z" fill="#303030"/>
</g>
</svg>
