<svg width="38" height="38" viewBox="0 0 38 38" fill="none" xmlns="http://www.w3.org/2000/svg">
<g clip-path="url(#clip0_981_518)">
<path d="M26.6 0H11.4C5.10395 0 0 5.10395 0 11.4V26.6C0 32.896 5.10395 38 11.4 38H26.6C32.896 38 38 32.896 38 26.6V11.4C38 5.10395 32.896 0 26.6 0Z" fill="#E6E6E6"/>
<path fill-rule="evenodd" clip-rule="evenodd" d="M25.4926 26.8762L28.5 11.9718C28.5 10.9794 27.1129 11.5811 27.1193 11.5811L10.2412 18.0936C10.2412 18.0936 9.44051 18.3603 9.50353 18.8565C9.56661 19.3527 10.216 19.5822 10.216 19.5822L14.4591 20.9902L14.4663 20.9936C14.4656 20.9912 14.4653 20.9901 14.4653 20.9901L24.6602 14.6202C24.6602 14.6202 25.2466 14.2666 25.2277 14.6202C25.2277 14.6202 25.3348 14.6822 25.0195 14.9737C24.7043 15.2653 17.0124 22.0631 17.0124 22.0631L16.9961 22.1985L23.9164 27.4159C25.0702 27.9121 25.4926 26.8762 25.4926 26.8762Z" fill="#212121"/>
</g>
<defs>
<clipPath id="clip0_981_518">
<rect width="38" height="38" fill="white"/>
</clipPath>
</defs>
</svg>
