<svg width="18" height="18" viewBox="0 0 18 18" fill="none" xmlns="http://www.w3.org/2000/svg">
<g id="archive">
<path id="icon" fill-rule="evenodd" clip-rule="evenodd" d="M1.38107 3.40773C1.6285 3.14967 1.96933 3 2.33002 3H15.67C16.0307 3 16.3715 3.14967 16.6189 3.40773C16.8656 3.66496 17 4.00877 17 4.36232V6.10145C17 6.455 16.8656 6.79881 16.6189 7.05604C16.4221 7.26128 16.1663 7.39796 15.8883 7.44531V13.6377C15.8883 13.9912 15.7539 14.335 15.5073 14.5923C15.2598 14.8503 14.919 15 14.5583 15H3.44169C3.081 15 2.74016 14.8503 2.49273 14.5923C2.2461 14.335 2.11166 13.9912 2.11166 13.6377V7.44578C1.46549 7.33784 1 6.7585 1 6.10145V4.36232C1 4.00876 1.13444 3.66496 1.38107 3.40773ZM2.54839 5.89855H15.4516V4.56522H2.54839V5.89855ZM14.3399 7.46377H3.66005V13.4348H14.3399V7.46377ZM6.55831 8.7971H11.4417V10.3623H6.55831V8.7971Z" fill="#ABABAB"/>
</g>
</svg>
