<svg width="20" height="16" viewBox="0 0 20 16" fill="none" xmlns="http://www.w3.org/2000/svg">
<path d="M1.00002 11.875C1.00002 10.9799 1.3556 10.1215 1.98854 9.48854C2.62147 8.8556 3.47992 8.50002 4.37502 8.50002C5.27013 8.50002 6.12857 8.8556 6.76151 9.48854C7.39444 10.1215 7.75002 10.9799 7.75002 11.875C7.75002 12.7701 7.39444 13.6286 6.76151 14.2615C6.12857 14.8944 5.27013 15.25 4.37502 15.25C3.47992 15.25 2.62147 14.8944 1.98854 14.2615C1.3556 13.6286 1.00002 12.7701 1.00002 11.875ZM1.00002 11.875L1.00002 3.25002C0.998699 2.95418 1.05599 2.661 1.1686 2.38742C1.2812 2.11384 1.44688 1.86528 1.65608 1.65608C1.86528 1.44688 2.11384 1.2812 2.38742 1.1686C2.661 1.05599 2.95418 0.998699 3.25002 1.00002M19 11.875C19 12.7701 18.6444 13.6286 18.0115 14.2615C17.3786 14.8944 16.5201 15.25 15.625 15.25C14.7299 15.25 13.8715 14.8944 13.2385 14.2615C12.6056 13.6286 12.25 12.7701 12.25 11.875C12.25 10.9799 12.6056 10.1215 13.2385 9.48854C13.8715 8.8556 14.7299 8.50002 15.625 8.50002C16.5201 8.50002 17.3786 8.8556 18.0115 9.48854C18.6444 10.1215 19 10.9799 19 11.875ZM19 11.875V3.25002C19.0013 2.95418 18.9441 2.661 18.8314 2.38742C18.7188 2.11384 18.5532 1.86528 18.344 1.65608C18.1348 1.44688 17.8862 1.2812 17.6126 1.1686C17.339 1.05599 17.0459 0.998699 16.75 1.00002M7.75002 11.5H12.25" stroke="#8C7E00" stroke-width="1.5" stroke-linecap="square"/>
</svg>
