<svg width="38" height="38" viewBox="0 0 38 38" fill="none" xmlns="http://www.w3.org/2000/svg">
<g clip-path="url(#clip0_981_513)">
<path d="M0 18.24C0 11.8554 0 8.6631 1.24252 6.2245C2.33548 4.07946 4.07946 2.33548 6.2245 1.24252C8.6631 0 11.8554 0 18.24 0H19.76C26.1446 0 29.3369 0 31.7755 1.24252C33.9205 2.33548 35.6645 4.07946 36.7575 6.2245C38 8.6631 38 11.8554 38 18.24V19.76C38 26.1446 38 29.3369 36.7575 31.7755C35.6645 33.9205 33.9205 35.6645 31.7755 36.7575C29.3369 38 26.1446 38 19.76 38H18.24C11.8554 38 8.6631 38 6.2245 36.7575C4.07946 35.6645 2.33548 33.9205 1.24252 31.7755C0 29.3369 0 26.1446 0 19.76V18.24Z" fill="#E6E6E6"/>
<path d="M9 18.6C9 14.0745 9 11.8118 10.4023 10.4059C11.8045 9 14.0614 9 18.5752 9H19.3732C23.887 9 26.1439 9 27.5461 10.4059C28.9484 11.8118 28.9484 14.0745 28.9484 18.6V19.4C28.9484 23.9255 28.9484 26.1882 27.5461 27.5941C26.1439 29 23.887 29 19.3732 29H18.5752C14.0614 29 11.8045 29 10.4023 27.5941C9 26.1882 9 23.9255 9 19.4V18.6Z" fill="#303030"/>
<path d="M19.6151 23.408C15.0685 23.408 12.4752 20.283 12.3672 15.083H14.6446C14.7194 18.8997 16.3984 20.5163 17.7283 20.8497V15.083H19.8728V18.3747C21.1861 18.233 22.5657 16.733 23.0311 15.083H25.1756C24.8182 17.1163 23.3221 18.6163 22.2582 19.233C23.3221 19.733 25.0261 21.0413 25.6744 23.408H23.3138C22.8068 21.8247 21.5435 20.5997 19.8728 20.433V23.408H19.6151Z" fill="white"/>
</g>
<defs>
<clipPath id="clip0_981_513">
<rect width="38" height="38" fill="white"/>
</clipPath>
</defs>
</svg>
