<svg width="20" height="20" viewBox="0 0 20 20" fill="none" xmlns="http://www.w3.org/2000/svg">
<path fill-rule="evenodd" clip-rule="evenodd" d="M1.40589 1.40589C0 2.81177 0 5.07452 0 9.6V10.4C0 14.9255 0 17.1882 1.40589 18.5941C2.81177 20 5.07452 20 9.6 20H10.4C14.9255 20 17.1882 20 18.5941 18.5941C20 17.1882 20 14.9255 20 10.4V9.6C20 5.07452 20 2.81177 18.5941 1.40589C17.1882 0 14.9255 0 10.4 0H9.6C5.07452 0 2.81177 0 1.40589 1.40589ZM3.37492 6.08337C3.48325 11.2834 6.08323 14.4084 10.6416 14.4084H10.8999V11.4334C12.5749 11.6 13.8415 12.825 14.3499 14.4084H16.7166C16.0666 12.0417 14.3582 10.7334 13.2915 10.2334C14.3582 9.61669 15.8582 8.11671 16.2165 6.08337H14.0664C13.5998 7.73337 12.2166 9.23336 10.8999 9.37503V6.08337H8.74988V11.85C7.41655 11.5167 5.73325 9.90004 5.65825 6.08337H3.37492Z" fill="#303030"/>
</svg>
