<svg width="24" height="24" viewBox="0 0 24 24" fill="none" xmlns="http://www.w3.org/2000/svg">
<g id="icons/vk">
<path id="icon" fill-rule="evenodd" clip-rule="evenodd" d="M3.40589 3.40589C2 4.81177 2 7.07452 2 11.6V12.4C2 16.9255 2 19.1882 3.40589 20.5941C4.81177 22 7.07452 22 11.6 22H12.4C16.9255 22 19.1882 22 20.5941 20.5941C22 19.1882 22 16.9255 22 12.4V11.6C22 7.07452 22 4.81177 20.5941 3.40589C19.1882 2 16.9255 2 12.4 2H11.6C7.07452 2 4.81177 2 3.40589 3.40589ZM5.37492 8.08337C5.48325 13.2834 8.08323 16.4084 12.6416 16.4084H12.8999V13.4334C14.5749 13.6 15.8415 14.825 16.3499 16.4084H18.7166C18.0666 14.0417 16.3582 12.7334 15.2915 12.2334C16.3582 11.6167 17.8582 10.1167 18.2165 8.08337H16.0664C15.5998 9.73337 14.2166 11.2334 12.8999 11.375V8.08337H10.7499V13.85C9.41655 13.5167 7.73325 11.9 7.65825 8.08337H5.37492Z" fill="#303030"/>
</g>
</svg>
