<svg width="24" height="24" viewBox="0 0 30 30" fill="none" xmlns="http://www.w3.org/2000/svg">
<path fill-rule="evenodd" clip-rule="evenodd" d="M4.61141 18.4559C5.03274 18.1549 5.61825 18.2525 5.9192 18.6738L7.50007 20.8871L9.08095 18.6738C9.38189 18.2525 9.96741 18.1549 10.3887 18.4559C10.8101 18.7568 10.9076 19.3423 10.6067 19.7637L8.65217 22.5L10.6067 25.2363C10.9076 25.6577 10.8101 26.2432 10.3887 26.5441C9.96741 26.8451 9.38189 26.7475 9.08095 26.3262L7.50007 24.1129L5.9192 26.3262C5.61825 26.7475 5.03274 26.8451 4.61141 26.5441C4.19009 26.2432 4.0925 25.6577 4.39345 25.2363L6.34798 22.5L4.39345 19.7637C4.0925 19.3423 4.19009 18.7568 4.61141 18.4559ZM14.0626 18.2812C14.5803 18.2812 15.0001 18.701 15.0001 19.2188V24.8438H17.3438C17.8616 24.8438 18.2813 25.2635 18.2813 25.7812C18.2813 26.299 17.8616 26.7188 17.3438 26.7188H13.1251V19.2188C13.1251 18.701 13.5448 18.2812 14.0626 18.2812ZM22.2273 20.3544C22.13 20.448 22.0313 20.618 22.0313 20.93C22.0313 21.017 22.0492 21.0459 22.0539 21.0536C22.0626 21.0678 22.0916 21.1073 22.1816 21.1644C22.3981 21.3015 22.7209 21.401 23.2342 21.5526L23.2639 21.5613C23.6987 21.6896 24.301 21.8672 24.7848 22.1959C25.3539 22.5826 25.7813 23.1904 25.7813 24.07C25.7813 24.9788 25.4392 25.7118 24.7911 26.1786C24.1973 26.6061 23.4708 26.7188 22.8513 26.7188H22.8386C21.9769 26.7071 21.1474 26.3978 20.4887 25.841C20.0932 25.5068 20.0436 24.9153 20.3778 24.5198C20.712 24.1244 21.3035 24.0748 21.699 24.409C22.0237 24.6834 22.4318 24.8366 22.8579 24.8437C23.2896 24.8429 23.5573 24.7565 23.6953 24.657C23.7797 24.5963 23.9063 24.4737 23.9063 24.07C23.9063 23.9009 23.865 23.8379 23.731 23.7468C23.5227 23.6053 23.2042 23.4987 22.7034 23.3509C22.6766 23.3429 22.649 23.3349 22.6207 23.3266C22.202 23.2037 21.6338 23.037 21.1779 22.7481C20.9163 22.5823 20.6521 22.3544 20.4558 22.0343C20.255 21.7069 20.1563 21.3335 20.1563 20.93C20.1563 20.187 20.4095 19.5014 20.9275 19.0031C21.4411 18.509 22.1294 18.2812 22.8513 18.2812H22.863C23.7252 18.292 24.5569 18.6023 25.2154 19.1591C25.6107 19.4934 25.6603 20.0849 25.326 20.4803C24.9917 20.8757 24.4002 20.9252 24.0048 20.5909C23.6801 20.3164 23.2705 20.1629 22.8456 20.1563C22.5173 20.1574 22.3284 20.2572 22.2273 20.3544Z" fill="white"/>
<path fill-rule="evenodd" clip-rule="evenodd" d="M4.768 3.83042C5.11963 3.47879 5.59654 3.28125 6.09382 3.28125H18.6696L25.7813 10.3929V15.4688H23.9063V12.6562H16.4063V5.15625L6.09382 5.15625L6.09382 15.4688H4.21882V5.15625C4.21882 4.65897 4.41637 4.18206 4.768 3.83042ZM18.2813 5.54457V10.7812H23.518L18.2813 5.54457Z" fill="white"/>
</svg>
