<?xml version="1.0" encoding="UTF-8"?>
<svg xmlns="http://www.w3.org/2000/svg" version="1.1" xmlns:cc="http://creativecommons.org/ns#" xmlns:dc="http://purl.org/dc/elements/1.1/" xmlns:inkscape="http://www.inkscape.org/namespaces/inkscape" xmlns:rdf="http://www.w3.org/1999/02/22-rdf-syntax-ns#" xmlns:sodipodi="http://sodipodi.sourceforge.net/DTD/sodipodi-0.dtd" xmlns:svg="http://www.w3.org/2000/svg" xmlns:xlink="http://www.w3.org/1999/xlink" viewBox="0 0 704.4 896.5">
  <defs>
    <style>
      .cls-1 {
        fill: #e67321;
      }

      .cls-2 {
        stroke: red;
        stroke-miterlimit: 10;
      }

      .cls-2, .cls-3 {
        fill: none;
      }

      .cls-4 {
        fillRule: evenodd;
      }

      .cls-4, .cls-5 {
        fill: #ffec00;
      }

      .cls-6 {
        fill: #1a1a18;
      }
    </style>
  </defs>
  <!-- Generator: Adobe Illustrator 28.6.0, SVG Export Plug-In . SVG Version: 1.2.0 Build 709)  -->
  <g>
    <g id="svg2" sodipodi:docname="РќРѕРІС‹Р№ РґРѕРєСѓРјРµРЅС‚ 1">
      <sodipodi:namedview id="base" bordercolor="#666666" borderopacity="1.0" fit-margin-bottom="0" fit-margin-left="0" fit-margin-right="0" fit-margin-top="0" inkscape:current-layer="layer1" inkscape:cx="746.78315" inkscape:cy="391.31528" inkscape:document-units="px" inkscape:guide-bbox="true" inkscape:pageopacity="0.0" inkscape:pageshadow="2" inkscape:showpageshadow="false" inkscape:window-height="706" inkscape:window-maximized="1" inkscape:window-width="1366" inkscape:window-x="-8" inkscape:window-y="-8" inkscape:zoom="0.5" pagecolor="#ffffff" showborder="false" showgrid="false" showguides="true"/>
      <path class="cls-6" d="M696.9,6.8H8.4c-.3.5-.6,1.1-.6,1.8-.2,168.2-.2,313.6-.1,467.8,0,68.7,0,139.1,0,213.9-.4,76.7,70.3,101.5,90.4,101.7,42.1,0,91.6-.2,121.8-.3,13.3,0,22.9,0,26.5,0,35.6,0,96.3,12.4,103,95,0,.2,0,.4,0,.6.1.9.7,1.6,1.4,2,.5.3,1,.5,1.6.5,1.6,0,2.9-1.2,3.1-2.7,0,0,0-.2,0-.3,0,0,0,0,0,0,6.7-82.8,67.4-95.2,103-95.2s13.2,0,26.5,0c30.2.1,79.7.3,121.9.3,20.1-.2,90.8-25,90.4-101.7,0-74.1,0-143.9,0-211.9,0-154.9.1-301-.1-469.9,0-.6-.2-1.2-.5-1.7Z"/>
      <g>
        <polygon class="cls-4" points="327.8 63.1 347 90.4 327.2 117.4 354.6 98.2 381.5 118 362.3 90.6 382.1 63.6 354.7 82.9 327.8 63.1"/>
        <path class="cls-1" d="M385.8,122.4l-31.3-23-31.8,22.3,23-31.3-22.3-31.8,31.3,23,31.7-22.3-23,31.3,22.3,31.8ZM354.6,96.9l22.6,16.6-16.1-23,16.6-22.6-22.9,16.1-22.6-16.6,16.1,23-16.6,22.6,23-16.1Z"/>
      </g>
      <g>
        <polygon class="cls-4" points="536.7 154.1 555.9 181.5 536.1 208.5 563.5 189.2 590.4 209 571.2 181.7 591 154.7 563.7 173.9 536.7 154.1"/>
        <path class="cls-1" d="M594.8,213.4l-31.3-23-31.8,22.3,23-31.3-22.3-31.8,31.3,23,31.7-22.3-23,31.3,22.3,31.8ZM563.5,188l22.6,16.6-16.1-23,16.6-22.6-22.9,16.1-22.6-16.6,16.1,23-16.6,22.6,23-16.1Z"/>
      </g>
      <g>
        <polygon class="cls-4" points="609.8 364.7 629 392 609.2 419 636.6 399.8 663.5 419.6 644.3 392.2 664.1 365.2 636.8 384.5 609.8 364.7"/>
        <path class="cls-1" d="M667.9,424l-31.3-23-31.8,22.3,23-31.3-22.3-31.8,31.3,23,31.7-22.3-23,31.3,22.3,31.8ZM636.6,398.5l22.6,16.6-16.1-23,16.6-22.6-22.9,16.1-22.6-16.6,16.1,23-16.6,22.6,23-16.1Z"/>
      </g>
      <g>
        <polygon class="cls-4" points="537.5 575.8 556.7 603.1 536.9 630.1 564.3 610.9 591.2 630.6 572 603.3 591.8 576.3 564.4 595.5 537.5 575.8"/>
        <path class="cls-1" d="M595.5,635.1l-31.3-23-31.8,22.3,23-31.3-22.3-31.8,31.3,23,31.7-22.3-23,31.3,22.3,31.8ZM564.3,609.6l22.6,16.6-16.1-23,16.6-22.6-22.9,16.1-22.6-16.6,16.1,23-16.6,22.6,23-16.1Z"/>
      </g>
      <g>
        <polygon class="cls-4" points="327.1 674.2 346.3 701.5 326.5 728.5 353.9 709.2 380.8 729 361.6 701.7 381.3 674.7 354 693.9 327.1 674.2"/>
        <path class="cls-1" d="M385.1,733.4l-31.3-23-31.8,22.3,23-31.3-22.3-31.8,31.3,23,31.7-22.3-23,31.3,22.3,31.8ZM353.9,708l22.6,16.6-16.1-23,16.6-22.6-22.9,16.1-22.6-16.6,16.1,23-16.6,22.6,23-16.1Z"/>
      </g>
      <g>
        <polygon class="cls-4" points="118 578.6 137.2 606 117.5 633 144.8 613.7 171.7 633.5 152.5 606.2 172.3 579.2 145 598.4 118 578.6"/>
        <path class="cls-1" d="M176.1,637.9l-31.3-23-31.8,22.3,23-31.3-22.3-31.8,31.3,23,31.7-22.3-23,31.3,22.3,31.8ZM144.8,612.5l22.6,16.6-16.1-23,16.6-22.6-22.9,16.1-22.6-16.6,16.1,23-16.6,22.6,23-16.1Z"/>
      </g>
      <g>
        <polygon class="cls-4" points="39.9 364.7 59.1 392 39.3 419 66.7 399.8 93.6 419.5 74.4 392.2 94.2 365.2 66.8 384.5 39.9 364.7"/>
        <path class="cls-1" d="M97.9,424l-31.3-23-31.8,22.3,23-31.3-22.3-31.8,31.3,23,31.7-22.3-23,31.3,22.3,31.8ZM66.7,398.5l22.6,16.6-16.1-23,16.6-22.6-22.9,16.1-22.6-16.6,16.1,23-16.6,22.6,23-16.1Z"/>
      </g>
      <path class="cls-2" d="M536.4,387.7"/>
      <path class="cls-3" d="M391.2,206.3c-1.5-7.1-2.2-13.5-5-16,2.1,7,2.7,15.6,5,16Z"/>
      <path class="cls-3" d="M372.5,199.5c1.6.6,2.7,2.2,4,3.3-1.1-4.5-3-7-5.7-7.6.2.7,1,1.4.7,2.1-.2.5-1,0-1.5.1-.7,1.2.3,1.3,2.5,2.1Z"/>
      <path class="cls-3" d="M388.8,215c-.1,1.5,1,2.7,3.3,3.5-1-1.6-2.1-2.7-3.3-3.5Z"/>
      <path class="cls-3" d="M360.8,222.7c1.5,0,1.5-1.7,2.2-2.8.9-1.4,2.2-1.1,3.6-1.1,1.6,0,2-3,2.7-5.1.7-2-2.3,2.4-2.3,2.4-1.1,1.3-2.4,1.3-3.4,1.8-1.3.6-1.6,3.4-2.3,3.2-.6-.2-.4-.4,0-1.6,0-.3-.7-.4-.8-.2-.6,1.4-1.2,3.2.3,3.3Z"/>
      <path class="cls-3" d="M366.4,223.7c.3-1.1,1.5-1.2,3.1-1.5.9-.1,1.6.2,2.6.1,2.5-.1,4.3-1.9,5.6-4.2.7,1.2,1.5,1.4,2.2,1.2-1.1-1.4-1.3-3.3-1.2-5-1-2.1-1.8-4-.9-5.2.3-1.1,0-2-.2-2.9-1.1,1.7-2,3.5-1.4,5.5,1.1,2.9,1.4,5.4-.2,7-1.7,1.3-3.5,2.5-5.2,1.7-.5-.2-.7-.9-1.2-.9-.7,0-1,1.2-1.6,1.1-1.8-.2-2.9-.2-3.1,1.4,0,.7-.4,1.9-1.5,2.1-1.2.3-2.6-.7-3.1.5-.2.5-.5,1.4,0,1.4.6,0,.9-1.3,1.5-1.1,1,.3,1.3-.1,2.4-.4,1.2-.3,2.1.1,2.4-.9Z"/>
      <path class="cls-3" d="M409,209.2c0-1-.2-2.4-.4-3.4-4.1.6-8.4.9-10.8-1-3.7-2.9-3.2-7.8-6.6-10.7.9,3.7,1.2,7.6,2.9,11,2.8,5.6,9.2,5,14.9,4Z"/>
      <path class="cls-3" d="M366.5,205.9c.2-.5-1.3-1.1-1.5-.6-.4,1.1-2.3,1.1-2.3.2,0-.9-.9.5-.8.9.9,2.3,3.2,2.3,4.6-.5Z"/>
      <path class="cls-3" d="M553.8,247.4c-4.3.2-6.6,2.4-8.5,4.9-1.9,2.4-4.3,2.8-7.1,2.6-18.8-.9-35.5-.7-54.3-1.6,19.1,1.3,36,1.9,55,3.2,2.4.2,5.3.1,8.4-3.8,1.5-1.8,3.7-3.9,7.2-4,3.6-.1,7.8.1,10.1.5l1.4-1.5c-4.1-.1-8-.6-12.1-.4Z"/>
      <path class="cls-3" d="M400,225.4c2,.4,4.1-.3,6.1-.4-2.1-.4-4.1-1.3-6.3-1.1-.5,0-.3,1.5.2,1.5Z"/>
      <path class="cls-3" d="M568.5,253.2c.8,2.1,1.3,4,.3,5.3-1.2,1.6-2.7.5-3.7-1.4-.3-.6-.7-1.1-1.2-1.4l-19.7,21.1h9.5c1-.3,2-.8,3-1.6,4-3.7,7.4-8,11.1-12,1.3-1.2,2.2-2.4,2.7-3.6.3-.7.8-2.3.4-4.4-.5-2.5-1-3.8-1.7-5.2l-1.5,1.6c.3.5.5,1,.8,1.6Z"/>
      <path class="cls-3" d="M181.2,399c2.2,10.5,4.3,20.9,6.5,31.4,2,1.8,4,3.6,6,5.5.1-.8.2-1.7.3-2.5-1.1-2-2.2-4-3.3-6,2.8.2,5.5-.2,8.3-1.3-4.8-8.7-7.7-17.5-10.8-26.2-2.5-13.8-2.1-24.3-.7-33.7-1.7-3-3.4-6-5.1-9-.4,13.9-.8,27.9-1.2,41.8Z"/>
      <path class="cls-3" d="M502,596.3c-4.3-1.4-7.8-1.4-10.9-.8,3.3,1.4,6.6,1.9,9.9,2.1.3-.5.6-.9,1-1.4Z"/>
      <path class="cls-3" d="M255.4,212.9c1.4,6.5,10.2,18,18.9,27.3,4.3,4.1,8.4,5.4,13.4,6.1,10.7.9,20.1,1.6,30.6,2.6.5-1.5,1-2.8,1.4-3.9-16.3-1.7-36.2-2.8-40.7-6.1-5.7-3.7-18-16.9-23.7-26.1Z"/>
      <path class="cls-3" d="M466.7,555.5c-1.6,18.4,3.3,23.6,17.1,23.4-12.9-3.3-9.9-18.4-9.7-25.4,1.5-15.3-2.9-20.9-8.9-25.2,3.6,7.6,2.6,15.6,1.6,27.3Z"/>
      <path class="cls-3" d="M374.9,230.7c.6-1.4-.7-2.1-2.4-1.9.4-.5.7-1,1.1-1.5.2.5.7,1,1.4.9,1.1-.2,2.1-1.2,2-3.3,0-1.6,1.1-3,2.6-4.4-1.5.3-2.8.6-3.4,2.3-.4,1.1-.9,2.1-1.4,3.1-.5-.9-.5-1.7-.5-2.5-2.2,1.6-.8,3.7-3.4,3.5-2.5-.2-5.2.2-5.5,1.1,1-.2,2.3-.7,3,0,1,1.1,1.5,1.3,3.5,1.8,1.4.4,2.4,2.2,3,.8Z"/>
      <path class="cls-3" d="M526.1,269.1c-17.8-.1-32.1-.2-49.8-.3,2.6-2.6,6.4-5,9.5-6.7-18.8-1.3-43.7-2-62.5-1.6.5-2.3,1.9-4.6,4.7-6.7-10.2,1.5-17.4,7.3-28.9,22.5-10.7,14.1-23.9,13.5-35.5,11.3-3.4-1-5.4-.5-6.1,1.3-1.6,2.1-.4,2.3,2.9,2.3,9.9-.2,19.5.2,29.4,1.8,9.8-3.1,15.4-10,21.9-19.1,4.3-5.6,8.4-6,15.9-6,11.5.3,24.6.7,36.1,1-1.7,1.3-2.9,2.4-4.2,4.1h76.5c-.8-2.9-4.1-3.7-9.9-3.8Z"/>
      <path class="cls-3" d="M372.9,299.4c-3-.8-6.3-2.1-9-1.6-2.3,1.8-2.8,2.8-4.3,4.6,2.7-1,4.9-.5,8.2.4,7.1,1.4,13.1.3,17.9-4.6-3.6,1.6-7.8,2.7-12.9,1.3Z"/>
      <path class="cls-3" d="M360,306.3c-1.4,1.7-1.7,3.1-2.4,4.8,2.3-.9,5.8-.1,8.2,0,5.9.2,10-.9,14.3-5.5-6.8,4.5-13.7,0-20.1.7Z"/>
      <path class="cls-3" d="M550.2,262.3c-1.3,1.6-3.3,2.5-5.3,2.5-9.1.1-19.8.4-28.9.5,6,.3,13.6.6,19.6.8,3.6.2,6.7,2,8.1,5.3l15.7-16.8c-.7,0-1.4,0-2.2.2-2.5,2.5-4.9,5-7,7.4Z"/>
      <path class="cls-3" d="M394.5,248.2c.8-.8,1.8-1.7,3.1-2.2-4.4.8-7.9,0-11.2-1-1.8-.6-1.3-1.8-.8-3.5.8-2.5,1.9-5.3,3.7-7.7,1.1-1.5,2.9-1.5,5.7,0,0-1.3,0-1.6-.2-2.6-6.6-1.9-9.5-8.3-11.1-16.5-1.2-6.1-.8-13.2-.2-19.7.6-6.3-3.6-6.6-6.7-8.1.5.5,1.2,1,1.6,1.6,2.4,3.2.6,4.2-1.6,4.3-3,.1-3.8-1.8-5.1-3.2,0,1.6,1.4,2.5,5.7,6.3,4.9,4.3,3.1,10.6,4.3,16.1,2.6,12.2-3.6,13.1-5.3,19.4,1.5-.4,3-.5,4.5.4-4.9,7.4-10.9,16.4-15.9,19.9,9.2-3.8,18.6-5.7,29.5-3.5Z"/>
      <path class="cls-3" d="M356.6,316c-.6,1.5-.9,2.8-1.1,4.3,6.5-1.3,11.5-.6,16.9-5.1-6.5,2-10.6-.2-15.8.8Z"/>
      <path class="cls-1" d="M582.3,239l9.1-9.8,1.9,3.1,23.3-36.3-34.7,26.7,3.3,1.3-13.9,14.9h-68.3c0,.1-.1.1-.1.1-9.7.5-18.3,4.4-25.7,11.4-10.3-1.3-21.9-1.7-34.3-1.1-3.8.2-6.3-1.4-9-3-.7-.4-1.4-.9-2.1-1.3-9.7-5.3-20-6-32.2-2.1-.5-1.8-.9-4.4-1.1-5.6-.2-1.4-.3-2.9-.4-4.3,0,0,0,0,0-.1.9,0,1.8,0,2.9.3l1.1.2.7-.8c1.1-1.2,1.8-2,2.4-2.7.7-.7,1.3-1.5,2.4-2.7,1-1.1.9-2.7.6-3.8h0c2.4-.7,4.1-1.8,5.3-3.3v-.2c1.7-2.7,4.2-5.1,6.8-7.7l1.1-1v-.8c0-1.3-.6-2.4-1.9-3.5l-.5-.4h-.6c-2.1-.2-4.4-.3-6.8.1,0-.7-.1-1.4-.2-2.1-.7-8.8-1.1-14.6-6.3-18-8.4-5.4-17.1-5.9-25.4-5.6-2.6-1.4-5-1.3-7.2.2h-.2c-1.8,1.7-3.8,3.5-5.2,7l-.2.5c-.7,1.5-1,2.1-2.4,3.5-3.1,2.8-6,7-7.7,9.9-.6,1.1-.5,2.4.3,3.4.3.3.5.6.8.9.2.2.4.5.6.7l-.6,4.1h-.7c0-.1-.8,3.5-.8,3.5-.4,0-.9.1-1.3.3h-.4c0,.1-.3.4-.3.4-2.2,2-2,7.5-1.3,9.2v.2c0,0,.2.2.2.2,1.1,1.4,8.8,5,12.9,6.8-.8,2.2-1,3-1.2,3.7-.2.7-.5,1.5-1.2,3.5-1.4-.5-2.7-1.2-4-2-2-1.3-3.9-3.1-5.8-4.9-4.6-4.3-9.9-9.2-18.7-10-6.4-.5-12.7,1.1-15.2,1.9-6.9-1.7-16-2-25.7-1-4.5,0-5.9-2.4-7.6-5.3-.4-.7-.8-1.4-1.2-2-3.9-6-8.9-10.6-16.8-16.9-4.7-3.8-8.5-9.1-12.1-14.2-.5-.7-1-1.3-1.4-2h.1c0-.1.2-.4.2-.4,2.7-3.9,2.6-7.3,2.2-9.4l.7-.4c6.7-3.9,16.2-10.3,22.1-20.8,8.1-12.5,11.9-13.3,18.8-14.6l.8-.2c9.3-1,16.3,1.2,25.1,4.1,2.3.8,4.8,1.6,7.4,2.3,22.1,6.6,39.1,4.8,53.5-5.5,2.3-1.6,2.3-4.3,1.3-5.9-1.1-1.7-3.1-2.3-4.9-1.4-12,6.5-22.6,8.5-34.4,6.4-7.9-1.4-14.4-3.7-20.7-5.9-5.9-2.1-11.4-4-17.9-5.2h0c-1.7-.3-22.9-4-33.2,11.7-1.3,2-2.5,4-3.7,6-4.9,8-9.5,15.6-18.9,20.7-2-2.8-5.5-2.2-7.5-1.9-2.2.2-4.4,1.1-5.9,2.4,0,0,0,0,0,0l-.3-.2c-.2,0-2.3-.8-4.6.5h0c-.7.5-1.5,1.2-1.9,2.1-.9,0-2.1,0-3.3.9h0c-1.3,1-1.8,2.2-2,3.3-.6,0-1.4.3-2.2.9h0c-1.2,1-1.8,2.2-1.7,3.5-.5.1-1.1.3-1.7.7-1.8,1.2-2.1,3.4-1.4,5.1v.2s.4.6.4.6c.4.7,1.1,1.6,1.9,2.6-7.4,4.4-14.7,5.7-22.5,7l-1,.2c-11.3,1.9-25.3,4.4-34.4,24.6-5.5,12.1-4.7,24.8-4.1,37,.2,3.1.4,6.4.4,9.6.3,13-4.5,22.2-16.7,31.8-1.9,1.5-2.4,4.1-1.1,6,.7.9,1.8,1.5,3.2,1.5s2.3-.4,3.7-1.3c16.7-11.5,22.9-23.1,22-41.3-.6-15.3-1.2-32.7,7.4-43.3,7.4-9.4,14.9-11.7,25.5-14,9.1-2,16.6-5.4,23.4-10.7,0,0,.1.2.2.2l.6.7h.3c.6.4,1.2.8,2,1.2,1.7.9,3.7,2,4.8,3.3l9.3,12.7c9.5,13.8,18,24.8,25.1,32.6,4.8,5.1,9.4,7,17.4,7.5,5,.4,10.1.9,15,1.4,3.7.4,7.5.8,11.3,1.1-3.1,9.7-4.4,17.1-1.7,21.6-.2,2-.7,5.1-1.2,8.3-.5,3.6-1.1,7.3-1.4,9.9-10.1,5.3-13.6,7.9-22.1,18.4-1.1,1.4-3.6,2.9-6.1,4.3-1.2.7-2.4,1.4-3.5,2.1-4.9,3-8.8,5.8-12.1,8.9h-.1c-.1.2-.2.2-.3.3h-.1c-3.8,3.6-7.5,7.7-11.2,12.2-1.4-1.2-7.6-6.7-14.9-14.2l-13.9-15c-1.8-2-3.5-3.9-5-5.7-5.9-6.7-9.4-10.7-11.4-12-4.3-2.8-9.2-3-14.4-.5h-.2c-4.3,2.8-8.7,5.4-13.1,7.9h0s-.9.5-2.5,1.4c-8.3,4.6-16.9,9-25.5,13.1-3.6,1.6-7,3-9.9,4.1l-.5.2c-2.6.8-6,1.8-8.1,5.7-2.9,4-12.7,16.1-19.4,21.7-5.4,4.6-9.5,13.2-10.1,21l-.2,2.5,2.5-.4c.2,0,20.2-3.2,29.6,0l1.1.4.9-.8c.2-.2,4.6-4.5,4.5-15.5v-.4s-.1-.3-.1-.3c-.2-.4-.4-.9-.7-1.3-.7-1.3-1.2-2.3-.8-3.1.6-1.3,1.2-2,3.3-2,1.6,0,3.3.5,4.9.9,1.2.3,2.2.6,3,.6h1c0,0,.6-.7.6-.7,1.8-2.2,6-9,8.6-14.1,1.7-2.3,8-8,30.2-13.1l21.6,34.3c-11.5-7.7-22.7-16.5-28.3-22.3-2.2-2.6-5-4-8.2-4s0,0,0,0c-2.7,0-5.1,1.1-6.6,2.9-2.8,3.5-3.5,7-2.7,14.5.7,7.4-.9,31.7-.9,32h0c0,.1,0,.4,0,.4-.7,10.8-1.5,23-1.6,36-.2,5.7,0,12.3,4.3,18.4l15.6,23.6h.1c.2.4,4.1,5.1,12.2,7.7,7.3,2.3,15.2,4,18.4,4h4.1l-2.6-3.2c-2.1-2.7-9.8-17-14.3-31.2l-.3-1-1-.3c-1.9-.6-3.7-.8-5.5-.6,3.7-1.7,6.7-4.5,7.1-7.2l.2-1.1-.9-.7c-.6-.6-5.2-5.8-10-14.4-3.3-5.9-4.5-12.5-5.1-16.1l-.2-.9c-.5-5.8-.9-11.2-.5-16.7,5.8,7.5,12.5,16.2,16.5,21.8,5.5,7.7,12.7,16.6,16.3,16,2.3-.4,4.7-.7,7-.5h.4s.1.9.1.9c2.8,18.5,7.1,38.1,25.3,56.1,17,15.6,38.8,28.4,61.8,41.9,3.3,1.9,6.6,3.9,9.8,5.8l1.3.8v22.4c-.1,3.2,1.2,6.3,3.4,8.6,10.4,10.5,29.6,29.3,45.5,43-13.4,1.3-29.1,1.6-41.2.7-6-.8-11,0-15.4,2.7l-25.1,16.9c-5.2,2.2-9.4,6.3-12.3,12l-10.6,19.2h38.5l.4-1.4c1.4-4.5-.1-8.7-1.6-12.3-.3-1-.6-2.3,0-3.4.6-1.2,2.1-1.8,3.2-2,1.8-.4,4.7.3,8,1.1,1.4.4,2.9.7,4.5,1.1,2.4.4,5-1.3,8.6-4.1l.8-.6h0s6-5,6-5c.2-.1.3-.3.5-.4l1.3-.8c-1.6,1.3-3.3,3.2-5.1,5.7-3.3,4.4-7.7,8.4-13.1,12-2.6,1.7-4.6,4.2-6.4,7.8-2.8,5.5-5.2,11.1-7.2,16.7l-1,2.7h15c6.8.1,13.7.2,20.3.2h1.8s.2-1.7.2-1.7c0-.8.9-7.6.6-10.3-.1-1.1-.5-2.1-.8-3.1-.3-1-.8-2.6-.6-3.1.4-.8,1.3-1.8,3.7-1.5.8,0,2.3.6,3.8,1.1,4.5,1.4,7.3,2.2,9.2,1.1.7-.4,1.4-1.1,2.4-2.1.3-.3.7-.7,1.1-1.1,0,0,4-3.6,6.7-5.4,1-.7,1.9-1.4,2.7-2.1,1.7-1.5,3.5-3,7.7-4.3,12-2.8,14.7-2.7,23.5-2.4h1.7c11.9.7,16.5.7,19.9,0,3.9-.9,6.1-2.5,7-5.2.7-2,.6-3.7-1.9-7.5-.3-.5-.6-.9-.9-1.3-7.6-10.8-15.8-21.5-25.9-33.6l-11.5-14.8c13.6-9.8,25.3-20.2,34.7-30.8l11.7-13.3-.6.4c.7-.9,1.3-1.9,1.8-3,.1.5.3,1,.4,1.4.2.5.6,1.2,1,1.6,6.2,5.8,9.9,9.8,9.7,16.3-.3,7.6-1.2,16.6-2,25.2-1.7,17.9-2.7,29-.6,32.8v.2c.1,0,15.3,16.1,15.3,16.1-.3,1.5-.6,3.3-.4,5v.5c0,0,.4.4.4.4,2.6,3.5,6,7.8,9.4,12,2.6,3.2,5.2,6.6,7.5,9.5l1.4,1.9,35.2-37.7,3.8-4.1h-18.7s3.2-3.5,3.2-3.5c5.3-5.8,12.2-13.2,12.2-13.2l3.8-4.1-5.6.8c-.2,0-17.6,2.5-24.9-4.2-2.7-2.5-3.4-14-3.8-21.6-.1-2.6-.3-5.1-.5-7.2-.8-8.2-3-10.6-4.5-12.2-.2-.2-.3-.3-.4-.5v-.2c-16.8-16.2-34.1-28.1-38.3-30.9.6-15.1-5.4-28-19.3-41.7-12.4-12.2-25.5-18.8-38.2-25.2-12.5-6.3-24.3-12.2-34.5-22.9l-2.8-5.3c-7.8-14.9-8.6-28.4-2.7-43.8h76.5c11.4-.2,18.4-2.3,24.2-7.2l8.7-9.1,44.8-47.9h14.6l-32.7,34.9-5.3.2-16,17h0l-12.5,13.3h5.1c0,.1-3.4,3.8-3.4,3.8l6.1,5.2,3.7-3.9,1,4.7,18-19.2h0s10.7-11.4,10.7-11.4l-1-4.7,37.3-39.9,55.8-.2,52.5-56.1h-55.8ZM416.9,288.7h-.4c1.8-2.4,3.4-4.8,5.1-7.4.9-1.4,1.9-2.9,2.9-4.4h30.2c-13.3,12.6-17.5,12.4-37.7,11.8Z"/>
      <path class="cls-3" d="M331.9,314.9c-3.9,9.1-2.6,17.2,2.3,24.7-2.8,13.5-3.3,29.7,1.4,40.9-2.1-27.3,6.6-42.5,29.7-53.2,4.3-2,6.2-3,7.9-4.4-5.1,1.9-10.9,3.5-17.5,3.3-12.9,11.1-17.3-3.4-23.9-11.3Z"/>
      <path class="cls-3" d="M361.5,249.8c.9-.4,1.7-.7,2.6-.3-.3-2.2-.2-3.3.6-6.1-2.6-.4-6.5-1.6-9.2-2.7,3.8,3.3,3.5,9,6,9.1Z"/>
      <g>
        <polygon class="cls-5" points="523.4 293.3 487 332.1 481.8 332.3 478.8 335.5 484.1 335.2 483.2 336.3 477.8 336.5 474.3 340.3 479.6 340.1 478.6 341.1 473.3 341.4 469.7 345.2 475.1 344.9 474.1 346 468.7 346.2 465.1 350 470.5 349.8 469.5 350.8 464.2 351.1 460.6 354.9 466 354.7 465 355.7 459.6 355.9 456.9 358.8 462 358.9 456.9 364.3 460 366.9 465 361.5 466 366.3 469.6 362.4 468.6 357.7 469.4 356.8 470.4 361.5 474.1 357.6 473.1 352.9 473.9 352 474.9 356.7 478.6 352.8 477.6 348.1 478.4 347.2 479.4 351.9 483.1 347.9 482.1 343.3 482.9 342.4 483.9 347 487.6 343.1 486.6 338.4 487.4 337.5 488.5 342.2 491.3 339.2 490.3 334.5 528.9 293.2 523.4 293.3"/>
        <path class="cls-5" d="M257.6,170.6c8-4.7,16.2-10.9,21.4-20.1,8.9-13.9,13.4-14.2,21-15.7,12.4-1.4,20.9,2.8,33.4,6.5,17.5,5.2,35.6,6.4,51.8-5.2,2.4-1.7.5-5-1.5-3.9-10.7,5.8-21.9,9.1-35.7,6.6-15.4-2.7-25.4-8.7-38.6-11.1-2.4-.6-21.8-3.4-31.1,10.8-6.8,10.3-11.2,20.9-23.6,27.5.1.7.5,1.8,1.1,2.6.5.7,1.1,1.4,1.9,2Z"/>
        <path class="cls-5" d="M149.7,299.4c17.1-11.7,21.9-23,21.1-39.6-.6-16.7-1.1-33.7,7.8-44.7,8-10.2,16.3-12.4,26.6-14.7,7.8-1.7,15.6-4.7,23.1-10.6l-3-4c-8.4,5.4-16.7,6.6-25.2,8.1-11.8,2-24.5,4.7-32.9,23.4-6.7,14.7-3.8,30.5-3.4,45.7.3,14.7-5.8,24.2-17.4,33.4-2.4,1.9-.6,5.7,3.4,3Z"/>
        <path class="cls-5" d="M410.5,540.5c-10.4,5.7-20,9.9-20,9.9,0,0-.9,1.8-.3,3.6.5,1.5,3.2,4.6,4.1,5.5,13.3-9.5,25.3-19.9,35.3-31.1-4.8,3.4-11.7,8.1-19.1,12.2Z"/>
        <path class="cls-5" d="M432.1,610c-8.3-11.9-17-22.9-25.8-33.5,4.7,7.5,12.6,20.5,15.6,28.4h0s.2.5.2.5l.2.5v.5c.1,0,.2.5.2.5v.5s0,.5,0,.5l-.2.5-.3.4-.4.4-.4.3-.5.2-.6.2h-1.8c0,.1-1.7.3-1.7.3h-1.7c0,.1-1.7.2-1.7.2h-1.7c0,.1-1.7.2-1.7.2h-1.7c0,0-1.7.2-1.7.2h-1.7c0,0-1.7.2-1.7.2h-1.7c0,0-1.7.1-1.7.1h-1.7c0,0-1.7.1-1.7.1h-1.7s-1.7,0-1.7,0h-1.7s-1.7,0-1.7,0h-1.7s-1.7,0-1.7,0h-1.7s-1.7,0-1.7,0h-1.7s-1.7,0-1.7,0h-1.7s-1.7,0-1.7,0h-1.7s-1.7,0-1.7,0h-1.7s-3.4,0-3.4,0h-2.6s0,0,0,0l-17.4,1.2c-2.6.6-4.9,3.2-7.8,7-3.6,4.8-8.3,8.9-13.5,12.4-2.6,1.7-4.3,4.2-5.7,7-2.8,5.5-5.1,11-7.1,16.5,10.5,0,22,.1,32.5.2,0,0,.9-7.3.6-9.8-.3-2.5-2.2-5.5-1.1-7.4,1.1-1.9,2.9-2.9,5.7-2.6s9.8,3.6,11.8,2.5c.6-.4,1.7-1.5,3.2-3,0,0,4-3.6,7-5.6,3-1.9,4.3-4.6,10.9-6.7,13.1-3.1,15.6-2.8,25.8-2.4,11.2.6,16.1.7,19.4,0,4.1-.9,5.1-2.6,5.5-3.8.4-1.2.7-2.1-1.7-5.9-.2-.4-.5-.8-.8-1.2ZM349.9,630.5c.5-.4,1.1-.9,1.6-1.3,0,0,0,0,0,0-.6.4-1.1.8-1.6,1.3ZM353.4,628s0,0,0,0c.2-.1.5-.3.7-.4-.2.1-.5.3-.7.4ZM356.7,626.2c.1,0,.3-.1.4-.2t0,0c-.1,0-.3.1-.4.2ZM360.9,621.5s0,0,0,0c.2,0,.4,0,.5,0-.2,0-.4,0-.6,0ZM365.7,622.4c0,0-.1-.1-.2-.2,0,0,.1.1.2.2ZM365.2,621.9c0,0-.1,0-.2-.1,0,0,.1,0,.2.1ZM363.1,623.8c.2,0,.4-.1.6-.2,0,0,0,0,0,0-.2,0-.4.1-.6.2Z"/>
        <path class="cls-5" d="M196,316.4l24.8,39.4s11.7,6.4,17.7,7.4c2.4-4.3,5.9-12.1,15.6-23.4-2.8-2.5-8.7-7.9-15.1-14.4l-13.9-15.1c-8.3-9.4-13.8-15.8-15.9-17.3-4-2.6-8.2-2.4-12.4-.4-4.4,2.7-8.9,5.4-13.4,8l.2-.2s-.9.5-2.5,1.5c-8.3,4.6-16.9,9-25.7,13.1-3.4,1.5-6.9,3-10.2,4.1-2.5.8-5.7,1.5-7.5,5-3,4.2-12.9,16.4-19.8,22.2-4.8,4.1-8.9,12.1-9.4,19.6,0,0,20.6-3.3,30.6,0,0,0,4-3.8,3.9-14-.6-1.5-2.5-3.8-1.4-6.1.9-1.7,2-3.2,5.1-3.1,3.1,0,6.3,1.4,7.9,1.5,1.7-2.1,5.9-8.9,8.5-13.9,2.3-3.2,9.8-9,32-14.1,0,0,.7,0,1,0Z"/>
        <path class="cls-5" d="M577.8,241h0c0-.1,0-.1,0-.1l14-14.9,1.6,2.7,15.4-23.9-22.8,17.5,2.7,1.1-16.4,17.6h5.5s-.1,0-.1,0h-74.6c-9.2.6-17.7,4.3-25.1,11.6-10.8-1.4-22.8-1.8-34.9-1.3-5.6.2-8.9-2.7-12.2-4.5-11.2-6.1-22.1-5-32.4-1.3-.8-1.4-1.4-4.4-1.9-7.9-.3-2.1-.4-4.3-.6-6.4,1.9-.4,3.6-.3,5.4,0,2.3-2.5,2.6-2.9,4.9-5.4.6-.7.1-2.1-.2-2.9,0-.2-.4-.3-.6-.3-.8,0-2.8-.2-6.5-1.1,0,0-3.4-.8-4.9-1.8-.3-.2-.3-1.3,0-1.2,2.5,1,4.9,1.8,7.5,2.2.7.1,2.4.4,4.4.5.2,0,.4,0,.6,0,.4,0,.8,0,1.2,0,1.8-.5,3.3-1.3,4.2-2.6,1.8-3.1,4.7-5.9,7.5-8.6,0-.6-.4-1.3-1.2-1.9-2.8-.2-5.7-.3-8.5.7-1-11.1-.7-17.6-5.8-20.9-7.8-5-16.2-5.6-24.8-5.2-1.9-1.1-3.7-1.5-5.6-.2-1.8,1.6-3.4,3.1-4.7,6.2-.9,1.9-1.2,2.8-3.1,4.7-2.8,2.5-5.6,6.4-7.3,9.5-.2.3-.2.8,0,1.1.7.8,1.4,1.6,2,2.3-.2,1.6-.5,3.3-.7,4.9l1.6,1.3h0s.3.3.3.3h0s1.7,1.3,1.7,1.3c-1.6-.3-3.1-.6-4.7-.9-.2,1.1-.5,2.1-.7,3.2-.9,0-1.6,0-2.3.3-1.3,1.2-1.3,5.7-.8,7,.6.9,8.8,4.9,13.8,6.9-2.5,7.2-1.2,3.8-3.7,10.9-2.4-.8-4.4-1.7-6.3-2.8-7.1-4.7-11.9-13.5-23.7-14.6-6.7-.5-13.3,1.5-14.9,2-6.7-1.7-15.7-2.1-25.7-1.1-6.9,0-8.2-4.7-10.6-8.2-3.7-5.6-8.3-9.9-16.4-16.4-5.6-4.5-10-11.1-14.1-16.9-.6-.9-.4-1.7.5-2.4,3.4-4.9,1.7-8.9,1.3-9.5,0,0,0,0,0-.1,0,0-1.7-2.5-2.3-4.6-.8-2.8-2.6-3.2-6.4-2.7-2,.2-4.3,1.2-5.4,2.5l.2.4-1.2.2c-.4-.5-.7-.9-.9-1.1,0,0-1.4-.5-2.9.4-1.5.9-1.2,1.7-1.1,2.2,0,0,0,0,0,.1-.4.2-.7.4-1.1.5-.1-.1-.2-.2-.3-.2,0,0-1.3-.7-2.8.3-1.2.9-1.3,2.1-1.2,2.7-.4.3-.8.6-1.1.9-.4-.1-1.1-.1-2,.5-1.2.9-1.1,1.9-.8,2.5-.4.5-.7,1-.9,1.3-.4,0-1-.1-1.9.4-1.2.8-.9,2.4-.4,3.1,0,0,0,0,0,.1,1.8,2.9,7.6,9.5,7.6,9.5h.1c1.2,1.1,5.7,2.7,7.7,5.3l9.4,12.7c9.3,13.5,17.8,24.6,24.9,32.4,4.1,4.3,8,6.4,16.1,6.9,9.7.8,19.2,1.9,28.9,2.7-2.8,8.5-5.7,18.5-2.3,22.8-.5,4.2-2.2,15-2.8,20-10.5,5.5-13.7,7.6-22.3,18.4-1.9,2.4-6.4,4.4-10.1,6.8-4.5,2.7-8.3,5.5-11.9,8.7-.2.1-.3.2-.5.4-4.2,3.9-7.9,8.1-11.3,12.3-.2.2-.4.4-.6.7-3.9,4.8-7.4,10-10.2,14.5-1.8,2.9-3.3,5.4-4.3,7.3-.9,1.6-1.5,2.8-1.8,3.3-4.7,0-19.8-8.4-19.8-8.4-13.3-8.5-26.7-18.9-33.1-25.5-3.8-4.6-9.6-3.8-11.7-1.1-2.2,2.7-3.1,5.4-2.3,13,.8,7.7-.9,32.3-.9,32.3v.2c-.7,11.7-1.5,23.4-1.6,36-.2,5.9.2,11.8,4,17.3,5.2,7.9,10.4,15.7,15.6,23.6,0,0,3.6,4.5,11.2,6.9,7.7,2.4,15.1,3.9,17.8,3.9-2.2-2.8-10-17.2-14.6-31.8-2.9-.9-5.7-.9-8.6.8-.9-1.5-1.7-3.1-2-3.9,5.4-.4,10.5-4.3,10.8-6.9-.4-.3-5.4-5.8-10.5-14.9-3.8-6.8-4.9-14.3-5.4-17.7-.6-7.1-1.1-14.3,0-22.1,6,7.7,14.8,19,19.6,25.8,7.7,10.9,12.9,15.6,14.3,15.2,2.5-.4,5-.7,7.6-.5,10-3.7,18.2-.2,25.4,6.6-8.1-3.4-15.9-5.8-23.1-4,2.9,19,7.3,37.8,24.7,54.9,19.3,17.7,45.4,32.1,71.3,47.5-1.2-5.9-.6-10.4,3.7-12.1-2.5,2.9-2.2,8-1.4,13.5h0s0,.2,0,.2v.5c0,0,0,0,0,0v22.9c-.1,2.7.9,5.3,2.8,7.2,15.1,15.1,34.4,33.8,48.9,45.9-14.4,1.7-32.7,2.2-46.2,1.2-5.9-.8-10.5.2-14.2,2.4-8.4,5.6-16.8,11.3-25.2,16.9-4.9,2-8.7,5.7-11.5,11.2-3,5.4-6,10.8-8.9,16.3h33.6c1.1-3.7,0-7.3-1.6-11-1.3-3.7,0-7,4.6-8.1,3.2-.8,7.9,1,13.3,2.2,1.6.3,4.1-1.4,6.9-3.7l1.6-1.3h0c0,0,.1-.1.2-.2l5-4.1c1.8-1.4,3.6-2.7,5.3-3.5,0,0,1.1-.8,6.4-.7,5.2,0,20.5.9,47.3-.1,16.5-.8,19.9-.7,19.4-3.6-.2-1.4-5.1-12.8-14.2-26.9l-.8-1.2-.9-1.3-.9-1.3-.9-1.3-.9-1.3-.9-1.3-.2-.3-.7-1-1-1.3-1-1.3-1-1.3-1-1.3-1-1.3-1-1.3-.6-.6-.6-.6-.6-.6-.6-.6-.5-.7-.5-.7-.4-.7-.4-.7-.3-.7-.2-.7v-.8c-.1,0-.1-.8-.1-.8v-.8c0,0,.3-.8.3-.8l.3-.8.5-1,.7-.4.5-.2.5-.2.5-.2.5-.2.5-.2.5-.2.5-.2.5-.2.5-.2.5-.2.5-.2.5-.2.5-.2.5-.2.5-.2.5-.2.5-.2.5-.2.5-.2.5-.2.5-.2.5-.2.5-.2.5-.2.5-.2.5-.2.5-.2.5-.2.5-.2.5-.2.5-.2,1.1-.6,1.1-.6,1.1-.6,1.1-.6,1.1-.6,1.1-.6,1.1-.6,1.1-.6,1.1-.6,1.1-.6,1-.7,1-.7,1-.7,1-.7,1-.7,1-.7,1-.7,1-.7,1-.7,1-.7,1-.7,1-.7,1-.7,1-.7,1-.7,1-.7,1-.7.9-.7.9-.7.9-.7.9-.7,1.5-1.2c3.7-3,5.9-6.9,7.2-12.4.6,2.1,1.2,5.8,1.9,7.9,0,.2.3.6.5.8,6.4,5.9,10.6,10.4,10.4,17.9-.9,21-5.8,51.5-2.9,57,5.2,5.6,10.5,11.2,15.7,16.7-.4,1.8-.8,3.6-.6,5.3,4.7,6.2,11.7,14.8,16.8,21.5l16.7-17.9,2.1-2.3.4-.5h0l1.5-1.6h0l12.9-13.8.7-.7h-18.7s6.3-6.8,6.3-6.8c5.3-5.8,12.1-13.2,12.1-13.2,0,0-18.5,2.7-26.6-4.7-4.3-4-4.1-21.4-4.9-30s-3.2-10.1-4.5-11.7c-19.1-18.6-38.8-31.3-38.8-31.3,1-16.8-6.7-29.5-18.7-41.3-25-24.6-53.5-26.2-74.9-50.4,0,0,0-.4-1.1-3.6,0,0,0,0,0,.1-8.4-16-8.9-30.4-2.3-46.8,26,0,51.9,0,77.9,0,12.4-.1,18.3-2.7,22.9-6.6l8.5-9,45.4-48.5h25.6s55.8-.2,55.8-.2l16.6-17.8,32.1-34.3h-55.6ZM457.4,277.1c-14.8,14.2-18.9,14.3-40.5,13.6h-4.5c0,0,.7-1,.7-1,3.7-4.5,6.7-9.7,10.3-14.8,0,0,15.4,0,35.7,0l-1.8,2.2Z"/>
      </g>
      <g>
        <path class="cls-1" d="M230.9,190.6s-.1,0-.1-.1c-.9-1.1-.4-2-.4-2,2.9-2.8,4.5-4.2,7.6-4.9.5-.1,1.1,0,1.5.4,9.1,8.5,17.6,16.8,25.9,24.8-8.4-9-17.7-18-23.5-27.1-1.3-2.6,2.9-5.8,6.5-8.8.4-.9.7-2-.5-2.9-3,.6-3.7.7-4.5.5l-1.8-3.4-1.2.2c1.1,1.7,2.8,4.7,3.1,5.3.4,1.2.4,2.6-.8,3-1.2.5-2.3,0-2.8-.8-.5-.7-3.9-5.2-4.3-6-.4.2-.7.4-1.1.5,1.3,1.2,4.9,6.5,5.3,7.2.5,1.2.4,2.5-.8,3.1-1.2.6-2.8.1-3.4-.6s-5.1-6.1-5.3-6.6c0,0,0-.2,0-.3-.4.3-.8.6-1.1.9.3,0,.5.2.5.2.9.4,4.8,5.5,5.2,6.3.5,1.2.3,2.4-.8,3-1.2.6-2.4,0-3-.6-.6-.7-4.4-5.1-4.6-5.6,0,0,0-.2-.1-.4-.4.5-.7,1-.9,1.3.3,0,.4.2.4.2.9.4,4,4.5,4.6,5.4.6,1.2.5,2-.4,2.6-1.1.6-2.5.3-3.1-.3-.6-.7-3.4-3.6-3.6-4.1,0,0-.1-.1-.2-.2,0,0,0,0,0,.1,1.8,2.9,7.6,9.5,7.6,9.5h.1Z"/>
        <path class="cls-1" d="M566.3,266.4c.9-1.3,2-1.9,2.8-4.7.3-.3.5-.7.8-1,0,0,0,0,0,0,.2-.4.4-.7.6-1.1.3-.7.8-2.3.4-4.4-.5-2.5-1-3.8-1.7-5.2l8.4-9h-74.6c0,.1,69.1,0,69.1,0l-6.3,6.7c-.5,0-1,0-1.5,0-2,0-4-.3-6-.3-1,0-2,0-3,0-.5,0-1,0-1.5,0-4.3.2-6.6,2.4-8.5,4.9-.9,1.1-1.9,1.8-2.9,2.2-1.3.5-2.7.5-4.2.4-18.6-.9-35-.7-53.5-1.6h0c2,.2,4.1.3,6,.4,0,0,.2,0,.2,0,.3,0,.6,0,.8,0,3.7.2,7.3.4,10.9.6,2.9.2,5.8.3,8.8.5,2.2.1,4.5.2,6.8.4,6.8.4,13.6.7,20.8,1.2.2,0,.3,0,.5,0,.7,0,1.5,0,2.4-.1,0,0,.1,0,.2,0,.4,0,.8-.2,1.3-.4.2,0,.3-.1.5-.2.6-.3,1.3-.7,1.9-1.3.6-.5,1.1-1.1,1.7-1.8.4-.5.8-.9,1.2-1.4,1-1,2.3-1.9,3.9-2.3.6-.2,1.3-.3,2-.3.9,0,1.9,0,2.8,0,2,0,3.9.1,5.5.3.7,0,1.3.1,1.8.2,0,0,.2,0,.2,0,1.1.2,2.2,1.1,3,2.4.3.5.5,1,.8,1.6.8,2.1,1.3,4,.3,5.3s-2.7.5-3.7-1.4c-.3-.6-.7-1.1-1.2-1.4-1.2-.9-2.7-1.1-4.6-1-.7,0-1.4,0-2.2.2-1.6,1.6-3.1,3.2-4.6,4.7-.8.9-1.7,1.8-2.4,2.7-.5.6-1.1,1.1-1.7,1.5-1.1.6-2.3,1-3.5,1,0,0,0,0,0,0,0,0,0,0-.1,0-2.2,0-4.6,0-6.9.1-7.3.1-15,.3-21.8.4,4.4.2,9.8.4,14.7.6.9,0,1.8,0,2.6.1.8,0,1.5,0,2.2,0,1.4,0,2.6.4,3.8.9.3.1.6.3.8.4.8.5,1.5,1.1,2.1,1.8.5.6,1,1.4,1.4,2.2.4,1,.7,2.1.8,3.3-1.2,0-2.5,0-3.9,0-18.8,0-54.4,0-81.4,0l-1.8,2.2c0,0,.2-.2.3-.3h81.2c0,0-15.4,16.4-15.4,16.4h-10.3s15.8,0,15.8,0h0s0,0,0,0l15.4-16.5h9.2s.3,0,.3,0c.3,0,.6-.2,1-.3.6-.2,1.2-.6,1.7-1,0,0,0,0,0,0,0,0,.2-.1.3-.2.2-.2.4-.3.5-.5h0c.9-.7,2.3-1,4.1-3.2,2.7-1.2,3.9-2.4,5-5ZM558.9,257.2c.6-1.1,1.8-.9,2.9-.4.1,0,.4.2.7.5,1.5,1,4.6,3.3,4.9,4,0,0,.3,1.3-.7,2.7-1,1.3-1.7,1-2.2.8-.4-.2-3.7-3.3-4.9-4.5-.2-.2-.3-.3-.4-.4-.6-.6-1-1.7-.4-2.7ZM554.7,275c-1,1.2-2.8.4-3.2-.1-.4-.3-1.9-2.1-2.6-3.1-.1-.1-.2-.3-.3-.4-.6-.6-.7-1.9,0-3,.7-.8,1.5-.8,2.5-.1.1,0,.3.3.5.4,1.1,1.1,3.3,3.3,3.6,4,0,0,.5.9-.5,2.1ZM559.1,272.1c-1.2,1.2-2.4.6-2.8.3-.4-.2-2.8-2.8-4.1-4.2-.3-.4-.6-.7-.7-.8-.6-.6-1-1.8-.3-2.9.7-1,1.8-1.1,2.9-.5.2.1.6.5,1.1.9,1.5,1.5,4.1,4.1,4.4,4.7,0,0,.7,1-.5,2.3ZM563.5,268.5c-.4.4-.7.6-1.1.8-.8.3-1.5.2-1.9,0-.4-.2-3.2-3.2-4.7-4.8-.5-.5-.8-.9-1-1-.6-.6-.8-2.2-.2-3.3.7-1,1.9-1,3-.4.2.1.7.6,1.4,1.1,1.8,1.6,4.8,4.3,5,4.9,0,0,.2.6,0,1.4,0,.4-.3.8-.6,1.2Z"/>
        <polygon class="cls-1" points="619.5 255.8 582.5 255.8 579.8 258.7 616.8 258.7 604.1 272.3 567 272.3 564.3 275.2 601.4 275.2 633.4 240.9 619.5 255.8"/>
        <path class="cls-1" d="M412.3,290.8c-11.7,14.3-26.2,28-43.4,37.7-10.4,5.6-24,12.9-28.7,29.3-6.2,26,0,40.2,11.8,49.9,0,0,0-.4-1.1-3.6-11.6-12.1-13.4-28-8.4-45.9.8-1.6,3.1-2.2,6.4-1.7,4.2-10.4,11.6-18.5,21.8-25.2,24-13.7,35.5-27.3,46.2-40.4h-4.5c0,0-.1,0-.1,0Z"/>
        <path class="cls-1" d="M195.5,419.2l-5.2,3.5.4-2.4,4.1-2.8.5-.4c-.7-1.3-1.4-2.7-2.1-4.2l-.2.2-4.7,3.1.4-2.4,3.7-2.5c-.4-.9-.7-1.9-1-2.8-.8-2-1.6-4.2-2.3-6.5-.2-.7-.5-1.4-.7-2.1-.1-.6-.2-1.2-.3-1.9-1.2-5.4-3.2-17.9-1.1-33.1-1.8-2.2-3.1-4-3.9-4.9-.7,10-1.7,28.4-.2,43.1,1.5,10.5,2.6,18.5,9.4,31.3.4.8.8,1.5,1.3,2.3,0-.4.1-.7.2-1,0-.4.2-.7.2-1,0-.4.1-.8.2-1.3-.2-.4-.5-1-.9-1.9-.6-1.3-1.4-3-1.7-4.2,0-.3-.1-.6-.1-.8,2,0,4.7-.3,7.1-1.7.3-.2.6-.4.9-.6-.7-1.3-1.8-3.2-3.1-5.6l-.6.4Z"/>
        <path class="cls-1" d="M193.9,310.9s-14.9-1.4-36.9,15.1c-7.2,6.3-12.9,9-16.3,11.4-2.3,1.7-3.6,3.5-4.3,6.1-.3,1.8,0,5.6,4.1,8.1-2.1-3.6-2.7-6.5,0-9.5,2.7-3.1,7.7-3.3,10.7-2.3,1-.8,1.9-1.8,2.9-2.8l-5.2-.8,1.9-1.5,4.7.7c.8-1,1.6-2.1,2.4-3.2l-3.5-.5,1.9-1.5,2.8.4c.5-.8,1.1-1.6,1.7-2.5,3.6-5.4,19.5-12.6,34.3-14.4-.6-1.7-1.1-2.8-1.1-2.8Z"/>
        <path class="cls-1" d="M233.8,356.4c-2.6.3-6.5,0-8.5-.5,0,0,6.1,3.3,11.9,4.7,5.4-10.5,14-20.3,14-20.3-9.1,5.9-16,14.2-17.4,16.1Z"/>
        <path class="cls-1" d="M388.8,201.9c.6,2.5,1.3,4.2,2.3,4.4-1.2-5.4-1.8-10.3-3.2-13.4-.2-.4-.3-.7-.5-1-.2-.3-.4-.6-.6-.9-.2-.2-.4-.5-.6-.6,1,3.5,1.7,7.4,2.4,10.5,0,.4.2.8.3,1.1Z"/>
        <path class="cls-1" d="M372.2,199.4c0,0,.1,0,.2,0,0,0,0,0,.1,0,.4.1.7.3,1,.6.2.1.4.3.5.4.8.7,1.5,1.6,2.3,2.2-1.1-4.5-3-7-5.7-7.6,0,.1.1.3.2.4.3.6.7,1.1.5,1.7,0,0,0,0,0,.1-.3.3-1,0-1.4,0-.6,1.2.2,1.3,2.3,2Z"/>
        <path class="cls-1" d="M388.8,215c0,.2,0,.5,0,.7.1.7.5,1.3,1.2,1.8.5.4,1.2.8,2.1,1.1-.5-.8-1-1.5-1.5-2-.5-.6-1.1-1.1-1.7-1.5Z"/>
        <path class="cls-1" d="M360.8,222.7c.4,0,.6,0,.9-.3.2-.1.3-.3.4-.6,0,0,.1-.2.1-.3.3-.6.4-1.2.8-1.7.2-.3.5-.6.7-.8.1,0,.3-.2.4-.2.7-.3,1.5-.2,2.4-.1.8,0,1.3-.8,1.7-1.9,0-.2.1-.4.2-.5,0,0,0-.2,0-.2.2-.8.5-1.7.7-2.4.1-.4.1-.5,0-.5-.2,0-1.1,1.1-1.7,2-.4.5-.7,1-.7,1-.6.7-1.2,1-1.8,1.2-.5.2-1.1.3-1.6.5-.6.3-1,1-1.3,1.6-.1.3-.2.6-.4.8,0,.2-.1.3-.2.4-.1.2-.3.4-.5.3-.1,0-.2,0-.3-.2,0,0,0,0,0,0,0,0,0-.1,0-.2,0,0,0-.1,0-.2,0,0,0-.2.1-.4,0-.1,0-.3.2-.5,0,0,0,0,0-.1,0,0,0-.1,0-.2,0,0,0,0,0,0,0,0-.2-.1-.4-.1s0,0-.1,0c0,0-.2,0-.2.1-.2.5-.4,1.1-.6,1.6,0,.2,0,.3,0,.5,0,.6.2,1.1.9,1.2Z"/>
        <path class="cls-1" d="M360.2,226.1c.2,0,.5-.3.7-.5.3-.3.5-.7.8-.6.5.1.9,0,1.2,0,.3,0,.7-.2,1.2-.4.3,0,.6,0,.9-.1.3,0,.5,0,.7,0s.4,0,.5-.2.2-.3.3-.5c.3-1,1.3-1.2,2.7-1.4.1,0,.3,0,.4,0,.2,0,.4,0,.6,0,0,0,0,0,0,0,.3,0,.5,0,.8,0,.4,0,.7,0,1.2,0,1.5,0,2.8-.8,3.9-1.9.2-.2.4-.5.6-.7.4-.5.7-1,1.1-1.6.6.9,1.1,1.3,1.7,1.3.2,0,.4,0,.6,0-1.1-1.4-1.3-3.3-1.2-5-.3-.5-.5-1-.7-1.5-.1-.2-.2-.5-.3-.7-.2-.5-.3-.9-.3-1.3,0-.6,0-1.2.4-1.6.2-.8.1-1.6,0-2.2,0-.2-.1-.4-.2-.6-1,1.5-1.7,3.1-1.5,4.8,0,.2,0,.4.1.7.3.7.5,1.3.6,1.9.1.4.2.8.2,1.2,0,.6,0,1.2,0,1.8,0,.3-.1.5-.2.8-.2.4-.4.8-.8,1.2,0,0,0,.1-.1.2-.9.7-1.7,1.3-2.6,1.7-.2,0-.4.2-.7.2-.3,0-.7.1-1,0-.3,0-.6,0-.9-.2-.1,0-.2-.1-.3-.2,0,0-.1-.1-.2-.2,0,0-.1-.2-.2-.2-.1-.1-.3-.2-.5-.2,0,0,0,0-.1,0-.1,0-.2,0-.3.2-.1.1-.3.3-.4.4-.2.2-.4.4-.6.5,0,0-.1,0-.2,0-.7,0-1.2-.1-1.7,0,0,0-.1,0-.2,0,0,0-.2,0-.3,0-.5.2-.8.6-.9,1.4,0,.2,0,.4-.1.6s-.1.4-.3.6c-.2.4-.6.8-1.1.9-.2,0-.3,0-.5,0-.2,0-.3,0-.5,0-.5,0-.9-.2-1.3-.2-.4,0-.7.2-.9.6,0,.1-.1.3-.2.4-.1.3-.2.6,0,.8,0,0,.1.1.3.1Z"/>
        <path class="cls-1" d="M398.9,209.3c.4.1.8.2,1.3.3.1,0,.2,0,.3,0,1,.1,2,.2,3,.2.4,0,.7,0,1.1,0,1.4-.1,2.9-.3,4.3-.6,0-.7-.1-1.7-.3-2.6,0-.3,0-.6-.1-.8-1,.1-1.9.3-2.9.3-.6,0-1.1,0-1.7.1-2.5,0-4.7-.3-6.2-1.4-3.7-2.9-3.2-7.8-6.6-10.7.9,3.7,1.2,7.6,2.9,11,1.1,2.3,2.9,3.5,4.9,4.1Z"/>
        <path class="cls-1" d="M363.3,207.9c.1,0,.3.1.4.1.1,0,.3,0,.4,0,.4,0,.9-.2,1.3-.6.2-.2.4-.4.6-.7.2-.3.4-.6.5-.9,0-.1,0-.2-.1-.4,0,0-.1-.1-.2-.2-.4-.2-1-.4-1.1,0-.1.4-.5.7-.9.8-.3,0-.5,0-.8,0-.2,0-.4-.2-.6-.3,0,0,0-.2,0-.3,0-.1,0-.2,0-.2,0,0,0,0-.1,0-.2,0-.6.6-.6,1s0,.1,0,.2c.3.8.8,1.3,1.3,1.5Z"/>
        <path class="cls-1" d="M403.2,224.3c-.1,0-.2,0-.3,0-1-.2-2-.4-3-.3,0,0-.2,0-.2.2-.2.3-.1.8,0,1.1,0,.1.2.3.3.3.7.1,1.4.1,2.2,0,1.3-.1,2.6-.4,3.9-.5-.5,0-1-.2-1.6-.4-.5-.1-.9-.2-1.4-.4Z"/>
        <path class="cls-1" d="M318.7,247.9c.4-1.1.7-2,1.1-2.8-1-.1-2-.2-3.1-.3-1-.1-2.1-.2-3.1-.3-.5,0-1.1-.1-1.6-.2-1.1,0-2.1-.2-3.2-.3-1.1,0-2.1-.2-3.2-.3-2.6-.2-5.2-.5-7.7-.8-1.5-.2-2.9-.3-4.3-.5-1.8-.2-3.6-.5-5.2-.7-.7-.1-1.4-.2-2.1-.4-.5,0-1-.2-1.5-.3-2.7-.6-4.7-1.2-5.8-2-3.9-2.6-10.9-9.6-16.8-16.7-.8-.9-1.5-1.9-2.2-2.8-1.8-2.3-3.4-4.5-4.6-6.6.5,2.4,2.1,5.6,4.3,9,.4.6.8,1.2,1.2,1.8.8,1.2,1.7,2.4,2.6,3.6s.9,1.2,1.4,1.9c1,1.2,2,2.5,3,3.7,1,1.2,2.1,2.5,3.2,3.7,1.1,1.2,2.2,2.4,3.2,3.6.8.8,1.6,1.4,2.4,2,.8.6,1.6,1.1,2.4,1.5.8.4,1.6.8,2.4,1.1,1.9.7,4,1.2,6.2,1.5,10.7.9,20.1,1.6,30.6,2.6.1-.4.3-.7.4-1.1Z"/>
        <path class="cls-1" d="M373.6,227.3c.2.5.6.9,1.1.9,0,0,.2,0,.2,0,.4,0,.8-.3,1.1-.6.5-.5.9-1.4.9-2.7,0-1.6,1.1-3,2.6-4.4-.6.1-1.2.2-1.8.5-.2.1-.5.2-.7.4-.4.3-.7.8-.9,1.4-.1.4-.3.8-.5,1.1-.1.3-.3.6-.4.8-.2.4-.4.8-.5,1.1-.2-.4-.3-.7-.4-1.1-.1-.5-.1-1-.1-1.4-.1,0-.3.2-.4.3-.1.1-.3.3-.4.4-.1.2-.3.4-.4.5-.1.2-.2.4-.3.6-.2.5-.3.9-.5,1.2-.3.3-.7.5-1.5.4-1,0-2,0-2.9,0-.7,0-1.3.2-1.8.4-.2,0-.4.2-.5.2,0,0-.1,0-.2,0-.1,0-.2.2-.2.3.2,0,.4,0,.6-.1.6-.1,1.2-.2,1.7-.1.3,0,.5.2.7.4.5.5.9.9,1.4,1.1,0,0,0,0,0,0,.2.1.5.2.8.3.3.1.7.2,1.2.3.4.1.9.4,1.2.6.4.3.7.5,1,.6.2,0,.4,0,.5,0,0,0,.2-.2.2-.4.1-.3.1-.5.1-.7,0-.9-1.1-1.4-2.5-1.2.2-.3.5-.7.8-1,.1-.2.2-.3.3-.5Z"/>
        <path class="cls-1" d="M463.7,268.8c-.4.3-.8.7-1.2,1s-.4.3-.5.5c-.9.8-1.6,1.6-2.4,2.7h76.5c-.1-.5-.4-1-.7-1.4-.2-.3-.5-.5-.8-.7-.4-.3-1-.6-1.6-.8-.4-.1-.9-.3-1.4-.4-.8-.2-1.6-.3-2.6-.4-.9,0-1.9-.1-2.9-.1-2.2,0-4.4,0-6.5,0-3.2,0-6.3,0-9.4,0-4.1,0-8.1,0-12.1,0-7,0-14.1,0-21.9-.1.3-.3.6-.6,1-.9,2.5-2.3,5.8-4.3,8.6-5.8-10.5-.7-23-1.3-35.2-1.5-.1,0-.2,0-.4,0-2.7,0-5.3-.1-7.9-.1,0,0,0,0,0,0-2.7,0-5.3,0-7.9,0h0c-3.9,0-7.6,0-11.1.1.3-1.2.7-2.3,1.5-3.4.2-.3.4-.6.6-.8.4-.5.9-1,1.5-1.5.3-.3.7-.6,1.1-.9-2.3.3-4.5.9-6.5,1.7-7.2,2.9-13.5,9-22.4,20.7-1,1.3-2,2.5-3.1,3.6-1,1.1-2.1,2-3.2,2.9-1.4,1.1-2.9,2.1-4.4,2.8-1.1.6-2.2,1.1-3.4,1.5-1.1.4-2.3.7-3.4,1-.4,0-.8.2-1.1.2-.8.1-1.5.2-2.3.3-.4,0-.8,0-1.1,0-.8,0-1.5,0-2.3,0-.8,0-1.5,0-2.3,0-.8,0-1.5,0-2.3-.2-.7,0-1.4-.1-2.1-.2-.9-.1-1.8-.3-2.7-.4-.6-.1-1.3-.2-1.9-.3-3-.9-4.9-.6-5.8.7-.1.2-.2.4-.3.6-.5.7-.7,1.1-.7,1.5,0,.1,0,.2.2.3.1.1.4.2.7.3.6.1,1.6.2,2.8.2,3.7,0,7.4,0,11,0,6.1.2,12.1.7,18.3,1.7,9-2.8,14.5-9,20.3-17,.5-.7,1-1.4,1.5-2.1.8-1,1.6-1.9,2.4-2.6.3-.3.7-.6,1-.8.6-.5,1.3-.8,2-1.1.7-.3,1.4-.6,2.1-.8.7-.2,1.5-.3,2.3-.5,1.8-.2,3.8-.3,6.1-.3,1.4,0,2.9,0,4.4.1,7.4.2,15.3.4,22.8.6,3,0,6,.2,8.9.2Z"/>
        <path class="cls-1" d="M365.5,302.2c.7.2,1.5.3,2.3.6,3.6.7,6.8.8,9.8,0,3-.7,5.7-2.2,8.1-4.7-3.6,1.6-7.8,2.7-12.9,1.3-1.1-.3-2.3-.7-3.4-1-.8-.2-1.6-.4-2.3-.5-.8-.1-1.5-.2-2.2-.2-.4,0-.7,0-1,.1-.6.5-1,.9-1.4,1.2-.2.2-.4.4-.5.5-.4.4-.7.8-1,1.2-.4.5-.8,1-1.3,1.7.7-.2,1.3-.4,2-.5,1.3-.2,2.5,0,3.9.3Z"/>
        <path class="cls-1" d="M357.6,311.1c1.2-.5,2.6-.5,4.1-.4.7,0,1.5.1,2.2.2.7,0,1.4.1,2,.2.7,0,1.4,0,2.1,0,0,0,0,0,.1,0,.6,0,1.2,0,1.7-.1,3.9-.4,7.1-1.9,10.4-5.4-2.1,1.4-4.3,1.9-6.4,2-4.2.2-8.4-1.4-12.5-1.4-.4,0-.8,0-1.2,0-1,1.3-1.4,2.4-1.9,3.6-.2.4-.3.8-.5,1.2Z"/>
        <path class="cls-1" d="M372,190.4c.2.6.7,1.1,1.4,1.8.4.4.8.8,1.4,1.3.2.2.4.3.6.5.6.5,1.3,1.1,2.1,1.9.6.5,1,1,1.4,1.5.6.8,1.1,1.7,1.4,2.7.3.8.5,1.6.6,2.4.1.7.2,1.3.2,2,0,.4,0,.8,0,1.2.1,2.1.1,4.3.6,6.4,2.6,12.2-3.6,13.1-5.3,19.4,0,0,.1,0,.2,0,.3,0,.6-.1.9-.2.2,0,.4,0,.6,0,.4,0,.7,0,1.1,0,.2,0,.4,0,.6.1.4.1.7.3,1.1.5-1.5,2.3-3.2,4.8-4.9,7.2-.6.8-1.2,1.6-1.7,2.5-.2.3-.4.5-.5.7-1.9,2.6-3.9,5.1-5.8,7,0,0,0,0,0,0-.5.5-1,1-1.6,1.5-.5.4-.9.8-1.3,1.1,1.1-.5,2.3-.9,3.5-1.3.6-.2,1.2-.4,1.7-.6,1-.3,2-.6,3-.9.7-.2,1.5-.4,2.3-.5,1.1-.2,2.2-.4,3.3-.6.2,0,.3,0,.5,0,4.8-.6,9.8-.6,15.1.5.5-.5,1.1-1,1.8-1.5.4-.3.8-.5,1.3-.7-1.1.2-2.2.3-3.2.3,0,0,0,0,0,0-1.5,0-2.9-.1-4.2-.4-1.3-.2-2.6-.6-3.8-1,0,0,0,0,0,0-.4-.1-.7-.3-.9-.5-.2-.2-.3-.5-.3-.8,0-.6.2-1.3.5-2.1.8-2.3,1.7-4.8,3.2-7.1.1-.2.3-.4.4-.6.1-.2.3-.4.4-.5.8-.7,1.9-.8,3.4-.3.6.2,1.2.5,2,.8,0-1.2,0-1.6-.2-2.6,0,0,0,0,0,0-.8-.2-1.6-.6-2.3-.9-.7-.4-1.4-.8-2-1.3s-1.2-1.1-1.7-1.7c-.3-.3-.5-.6-.7-1-.5-.7-.9-1.4-1.3-2.1-1-1.9-1.8-4.2-2.4-6.7-.2-.9-.4-1.8-.6-2.8-.2-1.2-.4-2.4-.5-3.6-.4-3.7-.3-7.5,0-11.3.1-1.6.2-3.2.4-4.8.3-2.8-.4-4.4-1.5-5.4-.2-.2-.3-.3-.5-.4-1.4-1.1-3.2-1.5-4.7-2.3.1.1.3.3.4.4.3.3.6.5.8.8.1.1.3.3.4.4,2.4,3.2.6,4.2-1.6,4.3-.8,0-1.4,0-1.9-.3-1-.4-1.7-1.1-2.3-1.9-.3-.4-.6-.8-.9-1.1,0,.2,0,.4,0,.6,0,0,0,.2,0,.3Z"/>
        <path class="cls-1" d="M355.9,318c0,.4-.2.8-.2,1.2,0,.4,0,.7-.1,1.1,1.6-.3,3.1-.5,4.5-.7.5,0,.9-.1,1.4-.2.9-.1,1.8-.2,2.6-.4.3,0,.6-.1.8-.2.7-.2,1.4-.3,2.1-.6.4-.1.8-.3,1.2-.4.1,0,.2,0,.4-.2,1.3-.6,2.6-1.4,4-2.5-2,.6-3.8.8-5.5.9-.7,0-1.4,0-2.1,0-.6,0-1.1,0-1.7-.1-2.2-.2-4.3-.4-6.6,0-.3.7-.5,1.4-.7,2Z"/>
        <path class="cls-1" d="M334.2,339.6c-.5,2.4-.9,4.9-1.3,7.4-1,7.2-1.2,14.8-.3,21.7.2,1.7.5,3.4.9,5,.5,2.4,1.2,4.7,2.1,6.8-.7-8.5-.3-15.9,1.3-22.3.5-1.9,1-3.8,1.7-5.5.7-1.8,1.5-3.4,2.4-5,.4-.7.9-1.5,1.3-2.2.9-1.3,1.8-2.6,2.9-3.9,1.6-1.9,3.4-3.7,5.4-5.4,1-.8,2.1-1.7,3.2-2.4.6-.4,1.1-.8,1.7-1.2,2.9-1.9,6.2-3.7,9.8-5.4,1.6-.8,2.9-1.4,3.9-1.9.5-.3,1-.5,1.4-.8.4-.2.7-.4,1-.6.5-.4,1-.7,1.5-1.1-.2,0-.4.1-.6.2-3,1.1-6.1,2-9.5,2.6-.2,0-.4,0-.6.1-2.2.3-4.4.5-6.8.4-3.2,2.8-5.9,3.9-8.3,4-1.1,0-2.1-.2-3.1-.6,0,0-.1,0-.2,0-2.6-1.1-4.7-3.7-6.7-6.6-.3-.5-.7-1-1-1.4-.4-.6-.8-1.2-1.2-1.7s-.8-1.2-1.2-1.7c-.8-1.1-1.6-2.2-2.4-3.2-3.9,9.1-2.6,17.2,2.3,24.7Z"/>
        <path class="cls-1" d="M356.2,241.4c.8.9,1.4,1.9,1.9,2.9.2.5.4,1,.6,1.5.2.5.4.9.5,1.4.2.4.3.8.5,1.2,0,.2.2.3.3.5.4.6.8,1,1.5,1,.3-.1.6-.3.9-.3.1,0,.3,0,.4,0,.4,0,.8,0,1.3.1,0-.3,0-.5-.1-.8s0-.5,0-.7c0-.2,0-.4,0-.7,0-1.1.3-2.2.7-3.9-.4,0-.8-.2-1.3-.2-2.5-.5-5.6-1.5-7.9-2.5.2.2.4.4.6.6,0,0,0,0,0,0Z"/>
        <path class="cls-1" d="M345.8,282.3c.9.6,2,1.2,3.3,1.7s2.9,1,4.7,1.5c-1.3-.8-2.3-1.6-3.2-2.4s-.8-.9-1.1-1.3c-.5-.7-.9-1.4-1.2-2.1-1.5-3.6-.5-7.8,2.4-12.6,0-.1.1-.2.2-.3,1.5-2.5,3.5-5.2,6-8.1-1,.7-2,1.4-3,2.3-.2.2-.5.4-.7.6-.8.7-1.6,1.4-2.5,2.2-1.9,1.9-3.8,4-5.6,6.5-.7,1-1.3,2-2,3-1.5,3.2-1.3,6.4,2.7,9Z"/>
        <path class="cls-1" d="M331,305.4c.2-.7.4-1.3.4-1.9,0,0,0-.1,0-.2.2-2.7-.9-4.9-2-6.7-.7-1.2-1.4-2.2-1.4-3.1,0-.5,0-1,0-1.5,0-1.5.5-3.1.7-4.6-2.3,2.2-3.7,5.5-4.3,10,.8.6,1.6,1.2,2.3,1.9,2.1,1.9,3.5,4,4.3,6.2Z"/>
        <polygon class="cls-1" points="479.4 293.2 479.1 293.5 477.9 294.8 501.8 294.8 501.8 294.9 501.8 294.9 488.6 308.9 464.7 308.9 463.2 310.5 487.2 310.5 474.1 324.5 450.1 324.5 448.6 326.1 472.5 326.1 459.4 340.1 459.5 340.1 459.4 340.2 435.4 340.2 434 341.8 458 341.8 503.4 293.2 479.4 293.2"/>
        <polygon class="cls-1" points="489.4 613.2 505.6 613.2 507.1 611.6 490.8 611.6 489.4 613.2"/>
        <path class="cls-1" d="M359.9,631.3l-2.2,1,8.2,3.3s.6-.5,1.5-1.3h0s0,0,0,0l-7.5-2.9Z"/>
        <path class="cls-1" d="M365,628.8l6.1,2.4h0c.6-.4,1.2-.9,1.8-1.2l-5.8-2.2-2.2,1Z"/>
        <path class="cls-1" d="M479.9,577.2c-.6-.4-1.2-.8-1.7-1.3,0,0,0,0-.1-.1-.2-.2-.5-.4-.7-.7-1.5-1.6-2.4-3.6-3-5.8-.2-.6-.3-1.2-.4-1.9-.1-.6-.2-1.3-.2-1.9s0-1.3-.1-1.9c0-.3,0-.6,0-1,0-1,0-1.9,0-2.8.1-2.5.3-4.7.4-6.5.4-3.8.4-7,.1-9.7,0-.4,0-.7-.1-1.1,0-.3,0-.6-.2-1-.2-.9-.4-1.8-.6-2.6,0-.3-.2-.5-.3-.8-.2-.5-.4-1-.6-1.5-.2-.4-.3-.7-.5-1.1-.9-1.7-1.9-3.1-3.1-4.3h0c-.6-.6-1.1-1.1-1.8-1.6-.6-.5-1.3-1-1.9-1.5.2.4.4.9.6,1.3,1.2,2.9,1.7,5.9,1.9,9.2,0,.5,0,1.1,0,1.6h0c0,1.1,0,2.2,0,3.4,0,1.2-.1,2.4-.2,3.6,0,.6,0,1.3-.2,1.9-.2,1.9-.4,4-.6,6.2-.3,2.9-.3,5.4-.3,7.6,0,0,0,.1,0,.2,0,.8,0,1.6.2,2.3,0,0,0,.2,0,.3.2,1.6.4,3,.8,4.2.3,1,.7,1.8,1.1,2.6.3.5.6,1,.9,1.4.3.4.7.9,1.1,1.2.2.2.4.4.6.5.3.3.7.5,1.1.8.2.1.4.3.7.4,1,.5,2.1.9,3.3,1.2.5.1,1,.2,1.5.3.1,0,.2,0,.3,0,.4,0,.9.1,1.3.2.9,0,1.8.1,2.8.1.5,0,1,0,1.5,0-.7-.2-1.3-.4-1.9-.6-.7-.3-1.4-.6-2-1Z"/>
        <polygon class="cls-1" points="323.5 614.1 333.3 618 334.9 616.7 325.7 613.1 323.5 614.1"/>
        <path class="cls-1" d="M400,574.2c8.3,19.3,9.9,24.8,9.3,25.5-.5.6.3.6-7.3,1.1-31.3,1.4-44.4,1.3-54.3.4-9.7-1-15.8,0-20.3,2.3-4.5,2.2-10.4,6.8-10.4,6.8-4.4,3.2-8.2,4.7-10.5,5.8s-3.1,1.9-3.6,2.6c-.4.8-.8,2.6-.6,4.3s0,4.7-1.3,8c-1,2.3-3.1,5.7-4.3,7.6h9.6c.1-.3.3-.7.5-1.2,1.3-3.4.6-7,0-9.3-.7-2.4-1-4.2-.3-6.3.7-2,1.9-2.9,4.6-4.1,6.5-3.2,11.6-6.5,17.7-10.1s16.3-2.8,18.9-2.5c23.1,1.7,57.8-.2,63.1-.5,5.9-.3,4.8-2.3,4.2-3.5-5.7-12.8-14.9-26.9-14.9-26.9Z"/>
        <path class="cls-1" d="M340.1,612.4l-7.2-2.8-2.2,1,7.7,3.1c-1.1.9,1.6-1.3,1.6-1.3Z"/>
        <path class="cls-1" d="M360,624.9c.5-.2.9-.3,1.4-.5.4-.1.8-.2,1.2-.4.4-.1.7-.2,1.1-.3.8-.2,1.6-.4,2.4-.6,0-.2-.1-.4-.2-.5,0,0,0,0,0-.1,0-.2-.2-.3-.3-.4,0,0,0,0,0,0-.1-.1-.3-.2-.4-.3,0,0,0,0,0,0-.2,0-.4-.1-.6-.2,0,0,0,0,0,0-.2,0-.4,0-.6,0,0,0,0,0,0,0-.2,0-.5,0-.8,0,0,0,0,0,0,0-1.2,0-2.5.2-3.8.5-14.1,4-20.1,13.7-21.5,27.1,0,.2,0,.3,0,.4.7,0,3.3.5,5,1.4-.2-5.9-.1-11.1,4.2-16.7.6-.8,1.3-1.6,2.1-2.4,0,0,0,0,0,0,0,0,0,0,0,0,.4-.4.8-.7,1.2-1,.5-.4,1.1-.9,1.6-1.3,0,0,0,0,0,0,.5-.4,1.1-.8,1.7-1.1,0,0,.1,0,.2-.1.5-.3,1.1-.7,1.7-1,.1,0,.2-.1.3-.2.5-.3,1.1-.5,1.6-.8.2,0,.4-.2.5-.2.5-.2,1-.4,1.6-.6.3-.1.5-.2.8-.3Z"/>
        <path class="cls-1" d="M492,595.8l-1.2,1.3h11.2s0,0,0,0h0s.8-.9,1.4-1.6h-4.2s-7,0-7,0l-.2.3Z"/>
      </g>
      <path class="cls-3" d="M353.8,285.5c-10-6.1-7-15.1,3.1-26.8-4.6,3.1-9.8,7.9-13.7,14.6-2.1,4.7-.8,9.3,10.7,12.3Z"/>
      <path class="cls-3" d="M328.1,293.5c-.2-2.1.4-4.1.6-6.2-2.3,2.2-3.7,5.5-4.3,10,3.3,2.4,5.5,5.1,6.6,8.1,2-5.8-2.7-9.5-3-11.9Z"/>
      <image width="1763" height="1185" transform="translate(-7894 -7770.1) scale(.7)" xlink:href="Khimki_gerb-1.png"/>
    </g>
  </g>
</svg>