<svg width="75" height="50" viewBox="0 0 75 50" fill="none" xmlns="http://www.w3.org/2000/svg">
<g clip-path="url(#clip0_1798_21157)">
<path d="M75 0H0V50H75V0Z" fill="#1A1A18"/>
<path d="M12.4602 50H75V0H62.4779L12.4602 50Z" fill="#FFEC00"/>
<path d="M27.8834 10.8892L28.317 10.424L28.4078 10.5742L29.5155 8.8463L27.8677 10.118L28.0235 10.1805L27.3618 10.8907L24.1179 10.8964H24.1127C23.6529 10.9221 23.2425 11.1042 22.8919 11.4384C22.4012 11.3759 21.8531 11.3573 21.2612 11.3835C21.0793 11.3916 20.9601 11.3178 20.8342 11.2396C20.8014 11.2191 20.7672 11.1976 20.7325 11.1786C20.2708 10.925 19.7835 10.8931 19.2054 11.0809C19.1816 10.9951 19.1631 10.8721 19.1541 10.812C19.1455 10.7453 19.1393 10.6752 19.1332 10.6075C19.1332 10.6056 19.1332 10.6037 19.1327 10.6018C19.1754 10.6009 19.2201 10.6047 19.2714 10.6137L19.3232 10.6233L19.3583 10.5837C19.4115 10.5241 19.4429 10.4893 19.4737 10.4541C19.5051 10.4188 19.5365 10.3835 19.5901 10.3239C19.6395 10.2691 19.6319 10.1971 19.6172 10.1414L19.6215 10.1404C19.7345 10.109 19.8172 10.057 19.8732 9.98313L19.8804 9.97216C19.9521 9.84394 20.0718 9.72859 20.1986 9.60609L20.2499 9.55604V9.516C20.2509 9.45547 20.22 9.40018 20.1587 9.35061L20.1359 9.33202L20.1065 9.32963C20.0081 9.32248 19.897 9.31724 19.782 9.33774C19.7792 9.30342 19.7768 9.27005 19.774 9.23764C19.7417 8.81818 19.7203 8.54077 19.4728 8.38157C19.0762 8.12608 18.6596 8.10082 18.2667 8.11559C18.1442 8.04886 18.0288 8.05267 17.9238 8.12655L17.9162 8.13227C17.8288 8.20759 17.7376 8.29481 17.6697 8.45974L17.6583 8.48357C17.6255 8.55364 17.6122 8.58271 17.5447 8.65183C17.3994 8.78529 17.2611 8.98358 17.1799 9.12515C17.1505 9.17615 17.1566 9.2405 17.1942 9.2853C17.2065 9.30008 17.2203 9.31533 17.2336 9.33059C17.2436 9.34155 17.2531 9.35251 17.2626 9.36348L17.2355 9.557L17.2018 9.55032L17.1647 9.72383C17.1443 9.72621 17.1239 9.73002 17.1025 9.7367L17.083 9.74289L17.0678 9.75672C16.9638 9.85109 16.9719 10.1147 17.008 10.1971L17.0122 10.2072L17.0189 10.2157C17.0697 10.2848 17.4369 10.456 17.6326 10.5399C17.597 10.6442 17.5851 10.6819 17.5737 10.7181C17.5628 10.7524 17.5519 10.7882 17.5186 10.885C17.4545 10.8592 17.3922 10.8287 17.3286 10.7915C17.2331 10.7277 17.1452 10.6457 17.0521 10.5589C16.8317 10.3535 16.5824 10.1204 16.162 10.0823C15.858 10.058 15.5592 10.1371 15.4419 10.1733C15.115 10.0932 14.6828 10.0761 14.2187 10.1247C14.0068 10.1242 13.9408 10.0122 13.8567 9.87064C13.8377 9.8387 13.8183 9.80581 13.7974 9.77531C13.6097 9.48884 13.3727 9.27196 13.0003 8.97166C12.778 8.79244 12.598 8.53838 12.4241 8.29291C12.4013 8.26097 12.379 8.22904 12.3557 8.1971L12.3624 8.19186L12.3704 8.17994C12.4977 7.995 12.4963 7.83198 12.474 7.72998L12.5063 7.71091C12.8226 7.52549 13.2753 7.22091 13.5556 6.71947C13.9403 6.12174 14.1208 6.08695 14.4477 6.02355L14.4857 6.01593C14.9293 5.96635 15.2604 6.07503 15.6789 6.21278C15.79 6.24949 15.9055 6.28714 16.0299 6.32432C17.0792 6.63748 17.8872 6.55407 18.5731 6.06121C18.68 5.98447 18.6848 5.85768 18.6349 5.7776C18.5836 5.69466 18.4853 5.66749 18.4016 5.71277C17.8297 6.02307 17.3262 6.11745 16.7695 6.01878C16.3938 5.95253 16.0845 5.8429 15.7853 5.73661C15.5055 5.63746 15.2414 5.54404 14.9369 5.48731C14.8552 5.47158 13.8501 5.29475 13.3604 6.04405C13.2981 6.13986 13.2392 6.23614 13.1827 6.32909C12.9504 6.71089 12.7305 7.07172 12.2868 7.31624C12.1937 7.18468 12.0246 7.21042 11.9296 7.2252C11.8237 7.23664 11.7201 7.27906 11.6498 7.33817C11.6484 7.33721 11.6465 7.33626 11.6451 7.33531L11.6285 7.3272C11.6175 7.32339 11.5197 7.28955 11.41 7.35104L11.4057 7.35342C11.3701 7.37582 11.3335 7.40824 11.3159 7.45209C11.2736 7.4478 11.218 7.45352 11.1582 7.49356L11.1539 7.49642C11.0936 7.54122 11.066 7.59747 11.0584 7.64942C11.0276 7.65276 10.9924 7.6642 10.9544 7.69089L10.9506 7.69375C10.895 7.73713 10.8665 7.79433 10.8675 7.85629C10.8428 7.86153 10.8157 7.87202 10.7872 7.89061C10.7022 7.94638 10.6879 8.05172 10.7202 8.1337L10.7183 8.14467L10.7373 8.17517C10.7587 8.20949 10.7901 8.25239 10.8257 8.2991C10.4761 8.51074 10.1269 8.57127 9.75834 8.63515L9.70941 8.64373C9.17407 8.73667 8.50763 8.8525 8.07442 9.81487C7.81507 10.3911 7.84927 10.9951 7.88204 11.5794C7.89059 11.7296 7.89914 11.8845 7.90247 12.0347C7.91577 12.6553 7.68634 13.0938 7.11062 13.549C7.01847 13.6219 6.99615 13.7463 7.05932 13.8331C7.09115 13.8769 7.14435 13.9065 7.2099 13.9065C7.2612 13.9065 7.32058 13.8884 7.38423 13.8445C8.17892 13.2983 8.47153 12.7453 8.42831 11.8735C8.40075 11.1428 8.36893 10.3144 8.78029 9.80724C9.13227 9.35776 9.48758 9.25194 9.98967 9.14135C10.4224 9.04602 10.7763 8.88396 11.1021 8.63276C11.1059 8.63705 11.1088 8.64039 11.1097 8.64134L11.1382 8.67423H11.1539C11.18 8.69234 11.2128 8.70998 11.2508 8.73095C11.3302 8.77433 11.4285 8.82819 11.4769 8.88777L11.9201 9.4917C12.3738 10.1519 12.7732 10.6743 13.11 11.0465C13.3385 11.2882 13.5546 11.3821 13.9351 11.405C14.1745 11.4241 14.4158 11.4488 14.6495 11.4727C14.8253 11.4908 15.0058 11.5089 15.1863 11.5251C15.04 11.9875 14.9763 12.3411 15.1036 12.5528C15.0918 12.6486 15.0704 12.794 15.0481 12.9474C15.0234 13.1181 14.9972 13.294 14.982 13.4193C14.5013 13.6743 14.336 13.7978 13.9337 14.2983C13.8829 14.3645 13.7617 14.4341 13.6449 14.5013C13.5893 14.5333 13.5318 14.5662 13.4791 14.6C13.2459 14.743 13.0635 14.8774 12.9048 15.0228L12.8996 15.0266C12.8944 15.0304 12.8891 15.0342 12.8839 15.0385L12.8777 15.0443C12.6987 15.2125 12.5205 15.4065 12.3476 15.6205C12.2816 15.5619 11.9885 15.2993 11.6422 14.9456L10.9829 14.2287C10.8974 14.1319 10.8181 14.0418 10.7454 13.9594C10.4666 13.6419 10.298 13.4498 10.2053 13.3884C9.99917 13.2563 9.76974 13.2477 9.52368 13.3631L9.51371 13.3683C9.31088 13.4951 9.10092 13.62 8.88954 13.7401L8.88812 13.7382C8.88812 13.7382 8.84442 13.764 8.76984 13.8064C8.37558 14.0266 7.96707 14.2363 7.55666 14.4284C7.38375 14.5056 7.22368 14.5714 7.0845 14.6215L7.06027 14.6291C6.93914 14.6663 6.77336 14.7163 6.67551 14.9022C6.53823 15.0933 6.07462 15.6677 5.75304 15.9385C5.49701 16.1587 5.30035 16.5695 5.27565 16.9375L5.26758 17.0572L5.38538 17.0381C5.39488 17.0367 6.34633 16.8856 6.79142 17.0343L6.84604 17.0524L6.88737 17.0124C6.89639 17.0038 7.10492 16.7964 7.1016 16.2759V16.2583L7.09495 16.2416C7.08687 16.2206 7.07547 16.1997 7.06407 16.1777C7.03035 16.1143 7.00802 16.0667 7.02607 16.0295C7.05552 15.9694 7.08165 15.9337 7.18235 15.9351C7.25978 15.9366 7.34148 15.9585 7.41321 15.9775C7.46831 15.9923 7.51533 16.0047 7.55618 16.0071L7.60464 16.0095L7.63504 15.9713C7.71911 15.866 7.91909 15.5438 8.0445 15.2983C8.12572 15.1882 8.42451 14.9194 9.48046 14.6748L10.5055 16.3117C9.95832 15.9442 9.4263 15.5252 9.16172 15.2497C9.05912 15.1277 8.92184 15.0605 8.77459 15.0605C8.77364 15.0605 8.77221 15.0605 8.77126 15.0605C8.64539 15.0614 8.52853 15.1129 8.45966 15.1987C8.3257 15.3646 8.29435 15.5323 8.32998 15.8889C8.36513 16.2421 8.28818 17.4008 8.28723 17.4123V17.418V17.429C8.25445 17.9433 8.2174 18.5262 8.21075 19.1435C8.20267 19.4147 8.2117 19.7283 8.41548 20.021L9.15507 21.144L9.1603 21.1512C9.1679 21.1607 9.35315 21.3885 9.74029 21.5096C10.0889 21.6183 10.4642 21.7007 10.6134 21.7007H10.8091L10.6879 21.5463C10.5858 21.4162 10.2215 20.7341 10.0096 20.0591L9.99489 20.012L9.94787 19.9972C9.85619 19.9681 9.77021 19.9576 9.68851 19.9667C9.86569 19.8861 10.0082 19.7507 10.0243 19.6244L10.0343 19.5739L9.99252 19.5405C9.96164 19.5115 9.74361 19.2617 9.51561 18.8537C9.35743 18.5705 9.30423 18.2564 9.27573 18.0872L9.26813 18.0443C9.24438 17.7688 9.22633 17.5124 9.24343 17.2478C9.51893 17.6034 9.83766 18.02 10.0262 18.286C10.2856 18.6516 10.6276 19.0782 10.7986 19.0505C10.9069 19.0329 11.0223 19.0177 11.133 19.0291L11.1525 19.031L11.1587 19.0715C11.2926 19.9538 11.4959 20.8866 12.3619 21.7455C13.1708 22.4877 14.2044 23.0978 15.2984 23.7432C15.4537 23.8347 15.6095 23.9267 15.7653 24.0197L15.8295 24.0578L15.8242 25.1236C15.8233 25.2766 15.8846 25.4263 15.9924 25.534C16.4883 26.0331 17.397 26.9306 18.1527 27.5827C17.5143 27.6437 16.7705 27.657 16.1971 27.616C15.9131 27.5784 15.6737 27.6198 15.4656 27.7428L14.2719 28.546C14.0235 28.6518 13.8268 28.8444 13.6886 29.1165L13.1874 30.0327H15.0153L15.0362 29.9659C15.1022 29.7538 15.031 29.5517 14.9583 29.3787C14.9421 29.3329 14.9293 29.2681 14.9583 29.2152C14.9887 29.1585 15.0585 29.1318 15.1117 29.1189C15.1982 29.0984 15.3331 29.1328 15.4894 29.1723C15.5573 29.1895 15.6271 29.2076 15.7045 29.2233C15.8176 29.2433 15.9435 29.1637 16.1116 29.0274L16.1477 28.9974H16.1482L16.4346 28.7591C16.4432 28.7524 16.4503 28.7471 16.4584 28.7409L16.5216 28.7038C16.4441 28.7676 16.3672 28.8582 16.2779 28.9759C16.1206 29.1833 15.9116 29.3758 15.657 29.547C15.5354 29.629 15.4385 29.7467 15.3525 29.9173C15.2205 30.18 15.1051 30.4478 15.0096 30.7138L14.964 30.8406L15.6789 30.8454C16.0033 30.8478 16.332 30.8497 16.6422 30.852H16.7268L16.7372 30.7686C16.742 30.7319 16.7823 30.4054 16.7671 30.2796C16.761 30.2291 16.7448 30.1785 16.7291 30.1299C16.713 30.0803 16.6888 30.005 16.7016 29.9822C16.723 29.944 16.7638 29.8949 16.8778 29.9087C16.9158 29.9135 16.9885 29.9369 17.0583 29.9598C17.2702 30.0289 17.4055 30.067 17.4968 30.0146C17.5286 29.996 17.5614 29.9636 17.6108 29.914C17.6274 29.8973 17.6459 29.8792 17.6635 29.862C17.6654 29.8601 17.8521 29.6923 17.9836 29.6061C18.0335 29.5746 18.0739 29.5398 18.1128 29.506C18.1945 29.4354 18.2791 29.362 18.4772 29.3001C19.0462 29.1642 19.1735 29.1695 19.5935 29.1857L19.6737 29.1885C20.2395 29.2176 20.4556 29.2209 20.6195 29.1833C20.8043 29.1409 20.9097 29.0627 20.952 28.9359C20.9838 28.8396 20.9786 28.7614 20.8627 28.5789C20.8484 28.5541 20.8356 28.5336 20.8218 28.5145C20.4627 27.9988 20.0723 27.4902 19.5935 26.9139L19.0481 26.2085C19.6946 25.7404 20.249 25.2475 20.695 24.7423L21.2527 24.1102L21.2242 24.1307C21.2565 24.0864 21.2864 24.0402 21.312 23.9887C21.3187 24.0135 21.3249 24.0368 21.332 24.0573C21.3405 24.0835 21.36 24.1131 21.3809 24.1326C21.6754 24.4091 21.8531 24.5993 21.8426 24.9105C21.8279 25.2752 21.7866 25.6999 21.7472 26.1108C21.665 26.963 21.6194 27.4945 21.7168 27.6756L21.7225 27.6866L22.444 28.4564C22.4278 28.5298 22.416 28.6118 22.4274 28.6957L22.4307 28.7204L22.4459 28.7405C22.5708 28.9068 22.7333 29.1123 22.8905 29.3105C23.0131 29.465 23.1394 29.6247 23.2468 29.7643L23.3152 29.8535L24.9872 28.056L25.1663 27.8615H24.278L24.4295 27.6961C24.6827 27.4206 25.0067 27.066 25.0067 27.066L25.1872 26.8682L24.9226 26.9072C24.9141 26.9087 24.0852 27.0259 23.7394 26.7085C23.6092 26.5879 23.5783 26.0407 23.5584 25.6789C23.5513 25.5531 23.5446 25.4339 23.5351 25.3376C23.4966 24.9458 23.3902 24.8305 23.3204 24.7537C23.3128 24.7456 23.3057 24.738 23.2995 24.7304L23.2928 24.7227C22.501 23.9529 21.6797 23.3829 21.4797 23.248C21.5082 22.5301 21.2232 21.9152 20.5611 21.2617C19.9744 20.6826 19.3502 20.3675 18.747 20.063C18.1556 19.7646 17.5946 19.4814 17.1063 18.9705L16.9742 18.7178C16.6047 18.0095 16.5643 17.3622 16.8455 16.6282L20.4808 16.6244C21.0228 16.6182 21.3557 16.5205 21.6313 16.2859L22.0421 15.8517L24.1707 13.5685H24.8632L23.3118 15.233L23.0606 15.244L22.301 16.0548L21.7054 16.6911L21.9486 16.6963L21.7861 16.8708L22.0773 17.1167L22.2526 16.9289L22.2991 17.1544L23.1532 16.2368L23.6596 15.693L23.6121 15.4704L25.3843 13.5685L28.0368 13.5595L30.5282 10.8859L27.88 10.8907L27.8834 10.8892ZM20.0276 13.2592H20.0077C20.0917 13.1467 20.1687 13.029 20.2494 12.906C20.2946 12.8373 20.3406 12.7673 20.3881 12.6977L21.8203 12.6962C21.1876 13.2968 20.9895 13.2906 20.0276 13.2597V13.2592Z" fill="#E67321"/>
<path fillRule="evenodd" clip-rule="evenodd" d="M15.7929 2.50293L16.7059 3.80658L15.7658 5.09165L17.0655 4.17551L18.3447 5.11834L17.4322 3.81421L18.3713 2.52962L17.0731 3.44575L15.7929 2.50293Z" fill="#FFEC00"/>
<path fillRule="evenodd" clip-rule="evenodd" d="M25.7173 6.84335L26.6303 8.14748L25.6907 9.43206L26.9904 8.51593L28.2696 9.45876L27.3571 8.1551L28.2962 6.87004L26.9975 7.78617L25.7173 6.84335Z" fill="#FFEC00"/>
<path fillRule="evenodd" clip-rule="evenodd" d="M29.1897 16.8784L30.1026 18.1825L29.1631 19.4671L30.4622 18.551L31.7414 19.4938L30.8289 18.1901L31.7685 16.9055L30.4698 17.8217L29.1897 16.8784Z" fill="#FFEC00"/>
<path fillRule="evenodd" clip-rule="evenodd" d="M25.7539 26.9401L26.6669 28.2442L25.7273 29.5288L27.0265 28.6127L28.3057 29.5555L27.3932 28.2514L28.3327 26.9668L27.0341 27.8829L25.7539 26.9401Z" fill="#FFEC00"/>
<path fillRule="evenodd" clip-rule="evenodd" d="M15.7587 31.6299L16.6717 32.934L15.7321 34.2186L17.0317 33.3025L18.311 34.2453L17.3985 32.9417L18.3376 31.6571L17.0393 32.5727L15.7587 31.6299Z" fill="#FFEC00"/>
<path fillRule="evenodd" clip-rule="evenodd" d="M5.82907 27.0774L6.74205 28.3815L5.80247 29.6661L7.10163 28.75L8.38131 29.6928L7.46834 28.3891L8.40791 27.1041L7.10923 28.0202L5.82907 27.0774Z" fill="#FFEC00"/>
<path fillRule="evenodd" clip-rule="evenodd" d="M2.11686 16.8779L3.02983 18.182L2.08978 19.4666L3.38941 18.5505L4.66862 19.4933L3.75612 18.1897L4.69522 16.9051L3.39701 17.8207L2.11686 16.8779Z" fill="#FFEC00"/>
<path d="M25.0841 13.4746L23.3584 15.3264L23.1071 15.3373L22.9675 15.4865L23.2197 15.4751L23.1732 15.5252L22.9209 15.5361L22.7509 15.7177L23.0041 15.7063L22.958 15.7563L22.7043 15.7673L22.5343 15.9489L22.7884 15.9379L22.7423 15.9875L22.4877 15.9989L22.3177 16.1806L22.5732 16.1691L22.5267 16.2187L22.2706 16.2301L22.1006 16.4117L22.3576 16.4003L22.311 16.4503L22.054 16.4618L21.9244 16.6L22.1666 16.6053L21.9277 16.8617L22.073 16.9847L22.312 16.7287L22.3585 16.9537L22.5295 16.7702L22.4816 16.5466L22.521 16.5042L22.569 16.7278L22.7438 16.54L22.6958 16.3169L22.7352 16.2745L22.7832 16.4975L22.9575 16.3102L22.91 16.0871L22.9494 16.0447L22.9969 16.2678L23.1717 16.0805L23.1238 15.8574L23.1632 15.815L23.2112 16.038L23.3855 15.8502L23.338 15.6276L23.3774 15.5852L23.4254 15.8078L23.5594 15.6639L23.5119 15.4408L25.3449 13.4736L25.0841 13.4746Z" fill="#FFEC00"/>
<path d="M12.4612 7.62888C12.8407 7.40628 13.2312 7.11171 13.4768 6.67032C13.9014 6.01016 14.1114 5.993 14.4743 5.92198C15.0623 5.85524 15.468 6.05687 16.0599 6.23323C16.8892 6.48062 17.75 6.53781 18.5209 5.98394C18.6335 5.90291 18.5466 5.74466 18.4501 5.79709C17.9428 6.07212 17.4103 6.22894 16.7562 6.11311C16.0266 5.98394 15.5497 5.69795 14.9227 5.58164C14.8082 5.55352 13.8857 5.41958 13.443 6.09691C13.1215 6.58929 12.9096 7.09121 12.3206 7.40914C12.3268 7.44155 12.3458 7.49589 12.3705 7.53259C12.3942 7.56787 12.4241 7.60171 12.4602 7.6284L12.4612 7.62888Z" fill="#FFEC00"/>
<path d="M7.33486 13.7677C8.14618 13.2105 8.37704 12.6705 8.33761 11.8792C8.30721 11.0822 8.28583 10.2729 8.70954 9.75047C9.08955 9.26572 9.48191 9.15847 9.97308 9.05027C10.3445 8.96876 10.7127 8.82386 11.0699 8.54311L10.9269 8.35292C10.5298 8.60841 10.1355 8.66894 9.72939 8.73949C9.16841 8.83673 8.56752 8.96113 8.16471 9.85629C7.84882 10.5589 7.98515 11.3101 8.00083 12.0346C8.01603 12.7343 7.72437 13.19 7.17288 13.6262C7.06078 13.7148 7.14391 13.8993 7.33486 13.7682V13.7677Z" fill="#FFEC00"/>
<path d="M19.7217 25.2613C19.2287 25.5349 18.7717 25.7318 18.7717 25.7318C18.7717 25.7318 18.7294 25.819 18.7575 25.9019C18.7822 25.9739 18.9118 26.1188 18.9536 26.1636C19.5845 25.7113 20.1564 25.2141 20.6285 24.6793C20.4015 24.8423 20.0732 25.0659 19.7217 25.2608V25.2613Z" fill="#FFEC00"/>
<path d="M20.7492 28.5703C20.3535 28.0021 19.9426 27.4782 19.5251 26.9758C19.7493 27.3333 20.1222 27.9516 20.2685 28.3281L20.2694 28.3305L20.2789 28.3524L20.287 28.3743L20.2932 28.3963L20.297 28.4187V28.4416L20.2946 28.4644L20.287 28.4868L20.2742 28.5073L20.2571 28.5254L20.2362 28.5402L20.212 28.5517L20.1825 28.5612L20.097 28.5674L20.0162 28.5731L19.8547 28.5836L19.6932 28.5931L19.6125 28.5974L19.451 28.605L19.2895 28.6117L19.128 28.6174L18.8857 28.6246L18.7242 28.6284L18.4012 28.6341L17.9167 28.6398H17.8359L17.6749 28.6418L17.5524 28.6427V28.6437L16.7277 28.7004C16.6042 28.7309 16.495 28.8524 16.3568 29.0345C16.1843 29.2624 15.9644 29.4578 15.7131 29.627C15.5906 29.7095 15.5084 29.8262 15.4405 29.9611C15.3079 30.2242 15.1958 30.485 15.1023 30.7471C15.601 30.7505 16.1473 30.7543 16.646 30.7576C16.646 30.7576 16.6897 30.4097 16.676 30.2919C16.6617 30.1742 16.571 30.0283 16.6213 29.9368C16.6717 29.8458 16.761 29.7991 16.8921 29.8153C17.0232 29.8315 17.3571 29.9878 17.4521 29.933C17.4816 29.9159 17.5305 29.862 17.6027 29.7919C17.6027 29.7919 17.7951 29.6184 17.9362 29.5259C18.0787 29.4363 18.1385 29.3072 18.4549 29.2085C19.0752 29.0603 19.1935 29.0755 19.6818 29.0941C20.2153 29.1213 20.4461 29.127 20.6015 29.0912C20.7953 29.0464 20.8442 28.9697 20.8641 28.9087C20.8827 28.8534 20.8993 28.81 20.7834 28.6275C20.7725 28.6084 20.7606 28.5893 20.7473 28.5707L20.7492 28.5703ZM16.8441 29.5503C16.8683 29.5288 16.894 29.5088 16.9206 29.4892C16.894 29.5088 16.8688 29.5288 16.8441 29.5503ZM17.0123 29.4273C17.0237 29.4201 17.0355 29.4139 17.0474 29.4073C17.0355 29.4139 17.0237 29.4206 17.0123 29.4273ZM17.1657 29.3448C17.1724 29.3415 17.1785 29.3381 17.1852 29.3353C17.1785 29.3381 17.1724 29.342 17.1657 29.3448ZM17.3652 29.1198C17.3738 29.1189 17.3823 29.1179 17.3913 29.117C17.3828 29.1179 17.3738 29.1189 17.3652 29.1198ZM17.5956 29.1613C17.5932 29.1575 17.5899 29.1546 17.587 29.1513C17.5904 29.1546 17.5932 29.158 17.5956 29.1613ZM17.5714 29.1384C17.569 29.137 17.5661 29.1351 17.5638 29.1337C17.5666 29.1351 17.569 29.137 17.5714 29.1384ZM17.4702 29.2319C17.4792 29.229 17.4882 29.2261 17.4977 29.2237C17.4887 29.2261 17.4797 29.229 17.4702 29.2319Z" fill="#FFEC00"/>
<path d="M9.53559 14.5776L10.7127 16.457C10.7127 16.457 11.268 16.7611 11.5525 16.8121C11.6674 16.6081 11.8332 16.2335 12.293 15.6987C12.1605 15.5814 11.8783 15.3211 11.5758 15.0123L10.915 14.2939C10.5193 13.8468 10.2609 13.5394 10.1574 13.4703C9.96785 13.3487 9.77024 13.3559 9.56694 13.4507C9.35793 13.5809 9.1456 13.7077 8.92852 13.8306L8.93945 13.8221C8.93945 13.8221 8.89527 13.8483 8.81927 13.8917C8.42501 14.1119 8.0184 14.3206 7.59897 14.5175C7.43604 14.5904 7.27263 14.6581 7.11635 14.7148C6.99903 14.7515 6.8456 14.7878 6.76057 14.9541C6.61902 15.1529 6.14591 15.7373 5.81862 16.0128C5.59204 16.2077 5.39824 16.589 5.37401 16.9456C5.37401 16.9456 6.35254 16.7873 6.82517 16.9456C6.82517 16.9456 7.01328 16.764 7.00995 16.2783C6.98288 16.2082 6.8912 16.0981 6.9444 15.9894C6.98478 15.9065 7.0394 15.8383 7.18808 15.8412C7.33676 15.844 7.48829 15.9093 7.56524 15.9131C7.64599 15.8116 7.84597 15.4894 7.96758 15.2501C8.07683 15.0962 8.43546 14.8187 9.48809 14.578C9.48809 14.578 9.52181 14.5752 9.53559 14.578V14.5776Z" fill="#FFEC00"/>
<path d="M27.6696 10.9855L27.6687 10.9798L28.3327 10.2672L28.4097 10.3944L29.1393 9.25666L28.0577 10.0913L28.1879 10.1432L27.4074 10.9807L27.6687 10.9793L27.6635 10.985L24.118 10.9912C23.6791 11.0155 23.2786 11.1876 22.9252 11.5384C22.4127 11.4698 21.8441 11.4531 21.2655 11.4788C20.999 11.4907 20.8451 11.3492 20.6874 11.2624C20.1564 10.9707 19.64 11.026 19.1498 11.2005C19.1118 11.1328 19.0852 10.9898 19.0605 10.8239C19.0477 10.7229 19.0401 10.6185 19.0306 10.5165C19.1199 10.4998 19.2002 10.5031 19.2895 10.5193C19.3964 10.4002 19.4144 10.3787 19.5213 10.2595C19.5507 10.2271 19.5265 10.1614 19.5132 10.1232C19.5108 10.1137 19.4956 10.1099 19.4861 10.1094C19.45 10.1084 19.3527 10.1013 19.1778 10.0584C19.1778 10.0584 19.0168 10.0207 18.9437 9.97403C18.9289 9.96449 18.9299 9.91111 18.946 9.91778C19.0624 9.96592 19.1797 10.0012 19.3004 10.0231C19.3337 10.0288 19.4154 10.0412 19.508 10.046C19.518 10.046 19.5284 10.047 19.5389 10.0474C19.5583 10.0479 19.5778 10.0479 19.5978 10.0474C19.6823 10.0236 19.7526 9.98594 19.7992 9.92445C19.8823 9.77574 20.0215 9.64561 20.1568 9.51453C20.1568 9.4845 20.1383 9.45447 20.1008 9.42444C19.9668 9.41443 19.8324 9.41157 19.6985 9.45829C19.6514 8.9311 19.6657 8.61746 19.4234 8.4616C19.051 8.22184 18.6534 8.19419 18.2449 8.21183C18.157 8.15749 18.0711 8.14081 17.9803 8.20468C17.8944 8.27856 17.8179 8.35387 17.759 8.4983C17.7162 8.58887 17.7025 8.62938 17.6136 8.72042C17.4821 8.84102 17.3495 9.02548 17.265 9.17277C17.2555 9.18897 17.2574 9.20947 17.2693 9.22377C17.3006 9.26047 17.3367 9.29908 17.3652 9.33483C17.3543 9.413 17.3434 9.49117 17.3324 9.56935L17.4065 9.6294L17.4217 9.64132L17.5011 9.70567C17.427 9.69137 17.3524 9.67659 17.2783 9.66182C17.2674 9.71282 17.2564 9.76334 17.2455 9.81435C17.2004 9.81673 17.1676 9.81721 17.1343 9.82769C17.0721 9.88394 17.0721 10.0999 17.0978 10.1594C17.1282 10.2004 17.5158 10.3925 17.7542 10.4864C17.636 10.8272 17.6977 10.6666 17.5794 11.0074C17.465 10.9702 17.3685 10.924 17.2811 10.873C16.9448 10.6494 16.714 10.2281 16.1572 10.1776C15.8409 10.1518 15.5255 10.2471 15.4476 10.2724C15.1303 10.19 14.6994 10.1699 14.2268 10.2205C13.9005 10.2219 13.8368 9.99834 13.7214 9.82817C13.5461 9.56077 13.3276 9.35533 12.9443 9.04645C12.6768 8.83053 12.4702 8.51498 12.2721 8.239C12.2422 8.19753 12.255 8.15797 12.2959 8.12556C12.4579 7.89056 12.3747 7.70276 12.3591 7.67178C12.3581 7.67035 12.3576 7.66844 12.3567 7.66701C12.3567 7.66701 12.2759 7.54976 12.2474 7.44728C12.2118 7.31191 12.1263 7.29284 11.9439 7.32096C11.8465 7.33145 11.7392 7.37768 11.6874 7.43965L11.6978 7.45872L11.6423 7.46825C11.6247 7.44203 11.6095 7.42297 11.6 7.41725C11.6 7.41725 11.5354 7.39341 11.4608 7.43488C11.391 7.47874 11.4019 7.51401 11.4105 7.53832C11.4105 7.53927 11.4119 7.54165 11.4133 7.54356C11.3962 7.55214 11.3786 7.56072 11.3625 7.5693C11.3573 7.56406 11.3525 7.55977 11.3487 7.55834C11.3487 7.55834 11.2884 7.52497 11.2152 7.57359C11.1559 7.61792 11.1516 7.67369 11.1587 7.70419C11.1402 7.71897 11.1226 7.73375 11.1069 7.74805C11.087 7.74185 11.0552 7.7409 11.0138 7.76997C10.9592 7.81287 10.9639 7.86101 10.9734 7.89057C10.954 7.9163 10.9402 7.9368 10.9316 7.9511C10.9131 7.94681 10.8827 7.94633 10.8433 7.97207C10.7844 8.01068 10.8024 8.08885 10.8233 8.12127C10.8233 8.12317 10.8224 8.1246 10.8224 8.12603C10.9098 8.26569 11.1858 8.58029 11.1858 8.58029H11.191C11.2461 8.63272 11.4599 8.71089 11.5582 8.83291L12.0028 9.43922C12.446 10.0846 12.8497 10.6137 13.1837 10.9826C13.3775 11.1876 13.5637 11.2882 13.947 11.312C14.4078 11.3487 14.8586 11.404 15.3179 11.4426C15.184 11.8468 15.049 12.3239 15.2068 12.5308C15.1844 12.7296 15.1013 13.2472 15.0752 13.4822C14.5778 13.7439 14.4263 13.8454 14.0135 14.3578C13.9247 14.4741 13.7105 14.5695 13.5328 14.6829C13.321 14.813 13.1371 14.9436 12.9694 15.0981C12.9618 15.1038 12.9542 15.109 12.9466 15.1148C12.7495 15.3002 12.57 15.5008 12.4113 15.6987C12.4018 15.7087 12.3923 15.7192 12.3828 15.7311C12.1995 15.9584 12.0322 16.2082 11.9002 16.4222C11.8137 16.5609 11.7444 16.681 11.6945 16.7726C11.6522 16.8483 11.6228 16.9036 11.609 16.9299C11.3853 16.9275 10.668 16.5299 10.668 16.5299C10.0386 16.1253 9.39879 15.6305 9.09573 15.314C8.9138 15.0947 8.64114 15.1314 8.53759 15.2592C8.43451 15.3869 8.39224 15.5147 8.42834 15.8798C8.46491 16.2449 8.38606 17.4194 8.38606 17.4194V17.4303C8.35091 17.988 8.31623 18.5476 8.31006 19.1473C8.30198 19.4294 8.31766 19.7088 8.49911 19.9695C8.74565 20.3437 8.99218 20.7178 9.23871 21.0925C9.23871 21.0925 9.40924 21.3056 9.7731 21.4195C10.137 21.5329 10.4927 21.6063 10.6181 21.6063C10.5132 21.4724 10.1427 20.786 9.92367 20.0887C9.78782 20.0453 9.65244 20.0438 9.51706 20.1282C9.47336 20.0548 9.43631 19.979 9.42159 19.9433C9.67619 19.9228 9.91892 19.7383 9.93507 19.6125C9.91465 19.5963 9.68047 19.3346 9.43774 18.9004C9.25533 18.5738 9.20736 18.2168 9.17886 18.0567C9.14988 17.7182 9.1247 17.3751 9.17886 17.0028C9.46434 17.3693 9.8814 17.9099 10.1089 18.2311C10.4766 18.7502 10.7241 18.9733 10.7882 18.9571C10.9079 18.9375 11.0276 18.9228 11.1478 18.9347C11.6252 18.7602 12.0113 18.9261 12.3553 19.2502C11.9729 19.0858 11.599 18.9757 11.2575 19.0576C11.3948 19.9623 11.6057 20.8575 12.4313 21.6759C13.349 22.5182 14.5873 23.205 15.819 23.9381C15.7635 23.6593 15.7905 23.4419 15.9957 23.3595C15.8756 23.4953 15.8903 23.7398 15.9283 24.0034L15.9297 24.0044V24.0134L15.933 24.0363L15.9297 24.0335L15.9245 25.125C15.924 25.2537 15.9744 25.3767 16.0646 25.4677C16.7819 26.1894 17.701 27.0793 18.3884 27.6551C17.7034 27.7361 16.8337 27.7585 16.1924 27.7118C15.914 27.6746 15.6955 27.7213 15.5184 27.8257C15.1193 28.0941 14.7208 28.3624 14.3218 28.6313C14.0895 28.7276 13.9081 28.9049 13.7765 29.1632C13.6349 29.4216 13.4939 29.6799 13.3523 29.9383H14.9498C15.0039 29.7633 14.9479 29.5903 14.8742 29.4139C14.8111 29.2381 14.8709 29.0798 15.0937 29.0264C15.2457 28.9902 15.4685 29.076 15.7255 29.1299C15.8034 29.1437 15.9207 29.0636 16.0551 28.9544L16.1316 28.891C16.1349 28.8882 16.1382 28.8853 16.142 28.8825L16.3805 28.6851C16.4655 28.6179 16.5506 28.5583 16.6308 28.5178C16.6308 28.5178 16.6845 28.4802 16.9329 28.483C17.1814 28.4859 17.9062 28.5255 19.1797 28.4768C19.9621 28.4373 20.1241 28.4435 20.1013 28.3067C20.0903 28.2385 19.8566 27.698 19.4253 27.0235L19.3888 26.9682L19.3455 26.9043L19.3018 26.8405L19.2135 26.7137L19.1574 26.6341L19.1237 26.5869L19.0325 26.4611L18.9864 26.3981L18.9399 26.3357L18.8928 26.2733L18.8472 26.2132L18.8197 26.186L18.7907 26.156L18.7632 26.1255L18.737 26.0945L18.7128 26.0631L18.6905 26.0311L18.6705 25.9982L18.6534 25.9644L18.6397 25.9296L18.6297 25.8938L18.624 25.8571L18.623 25.8195L18.6268 25.7813L18.6363 25.7427L18.6511 25.7041L18.6772 25.656L18.7123 25.6388L18.7822 25.6059L18.805 25.595L18.8748 25.5621L18.8976 25.5511L18.9674 25.5182L18.9902 25.5073L19.06 25.4744L19.0828 25.4634L19.1527 25.4305L19.1755 25.4196L19.2453 25.3867L19.2681 25.3757L19.3612 25.3319L19.384 25.3209L19.4073 25.3099L19.4291 25.2994L19.5327 25.2408L19.6362 25.1808L19.6875 25.1507L19.7388 25.1202L19.7897 25.0897L19.84 25.0592L19.8904 25.0282L19.9901 24.9663L20.0889 24.9033L20.1378 24.8719L20.2347 24.808L20.3307 24.7432L20.4257 24.6774L20.4727 24.6445L20.5658 24.5778L20.6119 24.5444L20.7031 24.4767L20.7934 24.4081L20.838 24.3738L20.8822 24.339L20.9259 24.3042L20.9976 24.2465C21.1738 24.103 21.2769 23.9167 21.3377 23.6569C21.3677 23.7589 21.3971 23.9343 21.4294 24.0315C21.4332 24.043 21.4446 24.0597 21.4532 24.0678C21.7548 24.3514 21.9571 24.5625 21.9448 24.9191C21.9039 25.9177 21.6674 27.3748 21.807 27.6346C22.0564 27.9006 22.3058 28.1665 22.5552 28.4325C22.5343 28.5173 22.5172 28.6027 22.5286 28.6875C22.7495 28.9826 23.0834 29.3911 23.329 29.7104L24.1218 28.8577L24.2215 28.75L24.3127 28.6522L24.9241 27.9949L24.9559 27.9606H24.0681L24.3664 27.6351C24.6196 27.3596 24.9435 27.0054 24.9435 27.0054C24.9435 27.0054 24.0662 27.135 23.6824 26.7823C23.4762 26.5917 23.4886 25.7599 23.4477 25.3505C23.4069 24.941 23.2943 24.8676 23.2335 24.7947C22.3238 23.9105 21.3886 23.3008 21.3886 23.3008C21.438 22.4996 21.0689 21.8937 20.5008 21.3332C19.3147 20.1625 17.9594 20.0839 16.9429 18.9299C16.9429 18.9299 16.942 18.9118 16.8916 18.7602C16.893 18.7621 16.8949 18.7636 16.8964 18.7655C16.4978 18.0019 16.4717 17.3169 16.7871 16.5366C18.0202 16.5352 19.2529 16.5338 20.486 16.5328C21.0774 16.5261 21.3553 16.4051 21.5762 16.2173L21.9795 15.7907L24.136 13.477H25.3501L25.3516 13.476L28.0012 13.4674L30.3145 10.9845L27.672 10.9893L27.6696 10.9855ZM21.9491 12.7048C21.2475 13.3835 21.0527 13.3883 20.0262 13.3554L19.8125 13.3526L19.8471 13.3097C20.0238 13.0956 20.1678 12.8478 20.3378 12.6028C20.3378 12.6028 21.0717 12.6018 22.0331 12.6009L21.9491 12.7048Z" fill="#FFEC00"/>
<path d="M18.5503 5.32901L17.065 4.23413L15.5563 5.29755L16.6474 3.80609L15.5877 2.29224L17.074 3.38711L18.5817 2.3237L17.4911 3.81515L18.5508 5.32901H18.5503ZM17.0659 4.11687L18.139 4.90812L17.3733 3.8142L18.1613 2.736L17.0721 3.50437L15.9976 2.71312L16.7638 3.80752L15.9753 4.88572L17.0659 4.11687Z" fill="#E67321"/>
<path d="M28.4747 9.66943L26.9894 8.57455L25.4808 9.63797L26.5719 8.14652L25.5121 6.63266L26.9984 7.72754L28.5061 6.66412L27.4155 8.15557L28.4752 9.66943H28.4747ZM26.9908 8.4573L28.0639 9.24854L27.2981 8.15462L28.0862 7.0769L26.997 7.84527L25.9225 7.05402L26.6887 8.14842L25.9002 9.22662L26.9908 8.45777V8.4573Z" fill="#E67321"/>
<path d="M31.9471 19.7045L30.4617 18.6096L28.9531 19.673L30.0442 18.1815L28.9844 16.6677L30.4707 17.7626L31.9784 16.6991L30.8878 18.1906L31.9476 19.7045H31.9471ZM30.4631 18.4923L31.5362 19.2836L30.7705 18.1896L31.5585 17.1114L30.4693 17.8798L29.3948 17.0886L30.161 18.183L29.3725 19.2612L30.4631 18.4923Z" fill="#E67321"/>
<path d="M28.5113 29.7662L27.026 28.6713L25.5173 29.7347L26.6084 28.2433L25.5487 26.7294L27.035 27.8243L28.5427 26.7609L27.452 28.2523L28.5118 29.7662H28.5113ZM27.0274 28.554L28.1004 29.3453L27.3347 28.2514L28.1228 27.1736L27.0336 27.942L25.9591 27.1508L26.7253 28.2452L25.9368 29.3234L27.0274 28.5545V28.554Z" fill="#E67321"/>
<path d="M18.5161 34.456L17.0308 33.3611L15.5221 34.4245L16.6128 32.9331L15.553 31.4192L17.0393 32.5141L18.547 31.4507L17.4564 32.9421L18.5161 34.456ZM17.0322 33.2438L18.1052 34.0351L17.3395 32.9412L18.1276 31.8635L17.0384 32.6318L15.9639 31.8406L16.7301 32.935L15.9416 34.0132L17.0322 33.2443V33.2438Z" fill="#E67321"/>
<path d="M8.58649 29.9035L7.10113 28.8086L5.59249 29.872L6.6836 28.3805L5.62384 26.8667L7.11016 27.9616L8.61784 26.8981L7.52722 28.3896L8.58649 29.9035ZM7.10256 28.6913L8.17561 29.4826L7.40989 28.3886L8.19793 27.3109L7.10873 28.0793L6.03425 27.288L6.80045 28.3824L6.01193 29.4606L7.10256 28.6918V28.6913Z" fill="#E67321"/>
<path d="M4.87428 19.704L3.38892 18.6091L1.88028 19.6725L2.97138 18.1811L1.91163 16.6672L3.39794 17.7621L4.90563 16.6987L3.815 18.1901L4.87475 19.704H4.87428ZM3.38987 18.4918L4.46292 19.2831L3.6972 18.1892L4.48524 17.1114L3.39604 17.8798L2.32157 17.0886L3.08776 18.183L2.29924 19.2612L3.38987 18.4923V18.4918Z" fill="#E67321"/>
<path d="M11.19 8.58122C11.19 8.58122 11.1853 8.57646 11.1834 8.57455C11.1411 8.52164 11.1653 8.47922 11.1653 8.47922C11.3007 8.34528 11.3805 8.27998 11.5282 8.24375C11.5539 8.23756 11.581 8.24423 11.6004 8.26234C12.0318 8.66607 12.4374 9.06217 12.8288 9.4454C12.4308 9.01546 11.9857 8.58552 11.7135 8.15557C11.6536 8.03307 11.8493 7.8772 12.0246 7.73516C12.0417 7.69369 12.0588 7.64078 12.0004 7.59932C11.8603 7.62934 11.8242 7.6322 11.7843 7.62172L11.6969 7.45965L11.6413 7.46919C11.6954 7.54927 11.7743 7.69512 11.7876 7.72372C11.8071 7.78235 11.8071 7.84527 11.751 7.86767C11.695 7.89007 11.6427 7.86481 11.619 7.83097C11.5962 7.79903 11.4356 7.58549 11.4128 7.54402C11.3957 7.5526 11.3781 7.56118 11.362 7.56976C11.4218 7.62744 11.5933 7.87768 11.6128 7.91295C11.6375 7.97206 11.6318 8.03355 11.5762 8.06119C11.5202 8.08884 11.4432 8.06691 11.4157 8.03355C11.3881 8.00018 11.1729 7.74088 11.162 7.71657C11.1606 7.71324 11.1592 7.70895 11.1582 7.70466C11.1397 7.71943 11.1221 7.73421 11.1064 7.74851C11.1216 7.75327 11.1302 7.76042 11.1302 7.76042C11.1715 7.78044 11.3572 8.02497 11.3796 8.06262C11.4057 8.12125 11.3948 8.17654 11.3397 8.20514C11.2846 8.23422 11.2276 8.208 11.1991 8.17559C11.171 8.14318 10.9915 7.93202 10.9801 7.90771C10.9782 7.90342 10.9758 7.89722 10.9734 7.89055C10.9539 7.91629 10.9402 7.93679 10.9316 7.95109C10.944 7.95395 10.9511 7.95871 10.9511 7.95871C10.9929 7.97778 11.1425 8.17511 11.1691 8.21849C11.1967 8.27664 11.1934 8.31573 11.1492 8.34433C11.0946 8.37483 11.0314 8.36053 11.0029 8.3286C10.9739 8.29714 10.8423 8.15462 10.8304 8.13126C10.8281 8.12888 10.8257 8.12507 10.8233 8.12125C10.8233 8.12316 10.8224 8.12459 10.8224 8.12602C10.9098 8.26568 11.1858 8.58027 11.1858 8.58027H11.191L11.19 8.58122Z" fill="#E67321"/>
<path d="M27.1252 12.1957C27.1666 12.1318 27.2207 12.107 27.2563 11.9726C27.2701 11.9559 27.2825 11.9397 27.2934 11.9231C27.2943 11.9216 27.2953 11.9202 27.2962 11.9188C27.3076 11.9021 27.3171 11.8849 27.3252 11.8682C27.3399 11.8334 27.3637 11.7581 27.3452 11.6585C27.3228 11.5384 27.2991 11.4769 27.2649 11.413L27.6634 10.985L24.1179 10.9912L27.4026 10.9855L27.1039 11.3063C27.0796 11.3053 27.0559 11.3044 27.0317 11.3034C26.9357 11.2986 26.8407 11.2915 26.7452 11.2877C26.6973 11.2858 26.6498 11.2848 26.6018 11.2853C26.5776 11.2853 26.5538 11.2862 26.5296 11.2877C26.3253 11.2977 26.218 11.4045 26.1239 11.5236C26.0826 11.5761 26.036 11.608 25.9838 11.6271C25.9239 11.649 25.8574 11.6533 25.7843 11.6466C24.9027 11.6061 24.1217 11.6118 23.243 11.5722L23.2415 11.5732C23.338 11.5799 23.4339 11.5861 23.5285 11.5923C23.5323 11.5923 23.5361 11.5927 23.5399 11.5932C23.5532 11.5942 23.566 11.5946 23.5793 11.5956C23.7541 11.6066 23.9256 11.6161 24.0961 11.6251C24.2353 11.6328 24.3735 11.6399 24.5117 11.6471C24.6186 11.6528 24.7255 11.658 24.8324 11.6638C25.1539 11.6809 25.4793 11.6995 25.819 11.7233C25.8261 11.7238 25.8337 11.7243 25.8413 11.7248C25.8764 11.7267 25.914 11.7262 25.9529 11.719C25.9558 11.7186 25.9586 11.7181 25.9615 11.7171C25.9809 11.7133 26.0009 11.7076 26.0213 11.6995C26.0284 11.6966 26.036 11.6933 26.0432 11.69C26.0736 11.6757 26.1044 11.6561 26.1358 11.6294C26.1624 11.6066 26.1895 11.5784 26.217 11.5436C26.2341 11.5217 26.2541 11.4993 26.2764 11.4779C26.3248 11.4311 26.3866 11.3897 26.4626 11.3682C26.4916 11.3601 26.5224 11.3539 26.5566 11.353C26.5999 11.3515 26.645 11.3511 26.6892 11.3515C26.7828 11.3525 26.8749 11.3582 26.9504 11.3654C26.9832 11.3687 27.0131 11.372 27.0383 11.3759C27.0421 11.3763 27.0464 11.3768 27.0497 11.3773C27.102 11.3868 27.1523 11.4278 27.1908 11.4912C27.2046 11.5136 27.2169 11.5384 27.2274 11.566C27.2649 11.6666 27.2915 11.7572 27.244 11.8206C27.187 11.8968 27.1181 11.8435 27.0687 11.7519C27.0526 11.7224 27.0336 11.7 27.0122 11.6828C26.9571 11.6394 26.8835 11.6323 26.7951 11.6366C26.7623 11.638 26.7277 11.6414 26.6906 11.6447C26.616 11.72 26.5419 11.7953 26.4716 11.8701C26.4317 11.913 26.3928 11.9559 26.3571 11.9988C26.3334 12.027 26.3058 12.0508 26.275 12.0699C26.2251 12.1004 26.1676 12.1175 26.1078 12.119C26.1063 12.119 26.1044 12.119 26.103 12.119C26.1011 12.119 26.0992 12.119 26.0978 12.119C25.9919 12.1204 25.8812 12.1228 25.7681 12.1247C25.4228 12.1314 25.0556 12.1395 24.7331 12.1442C24.944 12.1552 25.1995 12.1647 25.4332 12.1738C25.4755 12.1757 25.5173 12.1771 25.5577 12.179C25.5933 12.1805 25.6285 12.1819 25.6627 12.1833C25.7278 12.1862 25.7886 12.2005 25.8427 12.2257C25.8565 12.2319 25.8693 12.2391 25.8821 12.2467C25.9201 12.2696 25.9543 12.2982 25.9838 12.333C26.0094 12.3635 26.0313 12.3988 26.0484 12.4388C26.0683 12.486 26.0821 12.5384 26.0878 12.5975C26.0303 12.5975 25.9676 12.5975 25.9007 12.5975C25.0067 12.5975 23.3166 12.5994 22.0331 12.6004L21.949 12.7043C21.9533 12.7 21.9581 12.6957 21.9623 12.6914L25.8171 12.6871L25.0855 13.4717H24.5977L25.3468 13.4722L25.3482 13.4712H25.3463L26.0778 12.6867H26.5134L26.5291 12.6862C26.5448 12.6819 26.56 12.6766 26.5752 12.6705C26.6037 12.6585 26.6312 12.6423 26.6574 12.6204C26.6612 12.6171 26.6654 12.6142 26.6692 12.6109C26.6778 12.6028 26.6859 12.5947 26.6944 12.5866C26.7386 12.5546 26.8027 12.5384 26.8887 12.4359C27.0184 12.3797 27.0754 12.3234 27.1252 12.1957ZM26.7714 11.7543C26.7989 11.7038 26.8578 11.7105 26.911 11.7353C26.9172 11.7391 26.9286 11.7467 26.9438 11.7572C27.0146 11.8063 27.1632 11.9159 27.178 11.9478C27.178 11.9478 27.1936 12.0117 27.1461 12.0775C27.0967 12.1385 27.0649 12.1242 27.0431 12.1137C27.0241 12.1042 26.8687 11.9559 26.8098 11.9007C26.8013 11.8926 26.7946 11.8864 26.7908 11.883C26.7619 11.8568 26.7438 11.8044 26.7709 11.7538L26.7714 11.7543ZM26.5723 12.6037C26.5243 12.6614 26.4403 12.6223 26.4213 12.5985C26.4032 12.5866 26.3324 12.497 26.2963 12.4526C26.2906 12.4455 26.2854 12.4393 26.2816 12.435C26.255 12.404 26.2484 12.3425 26.283 12.2944C26.3149 12.2558 26.3524 12.2572 26.4037 12.2896C26.4094 12.2944 26.4179 12.302 26.4279 12.3111C26.4821 12.3616 26.5852 12.4679 26.5966 12.5031C26.5966 12.5031 26.6198 12.546 26.5723 12.6037ZM26.7813 12.465C26.7243 12.5232 26.6692 12.495 26.6479 12.4817C26.6312 12.4712 26.5163 12.3487 26.455 12.2829C26.4384 12.2653 26.4255 12.251 26.4198 12.2448C26.3928 12.2143 26.3742 12.1576 26.4075 12.1085C26.4407 12.0594 26.4939 12.0551 26.5462 12.0865C26.5543 12.0927 26.5728 12.1094 26.5961 12.1314C26.6697 12.2005 26.7923 12.3249 26.8032 12.3563C26.8032 12.3563 26.8369 12.4026 26.7809 12.4655L26.7813 12.465ZM26.9884 12.2953C26.9713 12.3134 26.9538 12.3244 26.9367 12.3311C26.8982 12.3463 26.863 12.3387 26.8483 12.3296C26.8317 12.3196 26.6968 12.1795 26.6232 12.1018C26.6013 12.0789 26.5842 12.0608 26.578 12.0541C26.55 12.0246 26.5376 11.9488 26.5699 11.8987C26.6023 11.8487 26.6607 11.8506 26.7134 11.8802C26.7224 11.8868 26.7471 11.9073 26.7785 11.935C26.8659 12.0108 27.0065 12.1399 27.0174 12.1704C27.0174 12.1704 27.0283 12.199 27.0188 12.2372C27.0141 12.2553 27.0055 12.2748 26.9884 12.2953Z" fill="#E67321"/>
<path d="M29.6523 11.6885H27.8914L27.7627 11.8263H29.524L28.917 12.4774H27.1552L27.0269 12.6152H28.7887L30.3116 10.9807L29.6523 11.6885Z" fill="#E67321"/>
<path d="M19.8067 13.3592C19.25 14.0427 18.5617 14.6939 17.7428 15.1543C17.2493 15.4193 16.6047 15.7668 16.3786 16.5499C16.0831 17.7907 16.3814 18.4675 16.9405 18.9261C16.9405 18.9261 16.9396 18.908 16.8892 18.7564C16.3387 18.182 16.2522 17.4208 16.4916 16.5681C16.5282 16.4908 16.6389 16.4656 16.7971 16.4851C16.9951 15.988 17.3476 15.6028 17.8321 15.2825C18.9721 14.6286 19.517 13.9793 20.0262 13.3554L19.8124 13.3525L19.8067 13.3597V13.3592Z" fill="#E67321"/>
<path d="M9.50802 19.4757L9.25911 19.6406L9.27763 19.5276L9.47191 19.3922L9.49614 19.3751C9.46384 19.3136 9.42964 19.2469 9.39591 19.1754L9.38499 19.1825L9.16126 19.3317L9.17978 19.2187L9.35364 19.0996C9.33654 19.0548 9.31991 19.0104 9.30376 18.9656C9.26433 18.8679 9.22681 18.764 9.19451 18.6544C9.18311 18.621 9.17171 18.5877 9.15983 18.5543C9.15413 18.5243 9.14938 18.4947 9.14463 18.4656C9.08668 18.2101 8.99358 17.6138 9.09 16.8898C9.00688 16.7835 8.9418 16.7011 8.90618 16.6553C8.87102 17.1334 8.8259 18.0085 8.89525 18.7092C8.96793 19.2106 9.01875 19.5929 9.34366 20.2002C9.36314 20.2364 9.38309 20.2736 9.40494 20.3117C9.40826 20.2946 9.41159 20.2793 9.41491 20.2655C9.41919 20.2464 9.42299 20.2302 9.42679 20.2173C9.42964 20.1973 9.43201 20.1773 9.43486 20.1573C9.42584 20.1406 9.40874 20.1077 9.38974 20.0686C9.35886 20.0052 9.32324 19.9251 9.30946 19.8684C9.30566 19.8532 9.30376 19.8398 9.30376 19.8289C9.40066 19.8327 9.52654 19.8131 9.64149 19.7464C9.65574 19.7378 9.66999 19.7292 9.68377 19.7192C9.65147 19.6554 9.59922 19.5653 9.53842 19.4547L9.50754 19.4752L9.50802 19.4757Z" fill="#E67321"/>
<path d="M9.43534 14.3163C9.43534 14.3163 8.72567 14.2472 7.68302 15.0385C7.34149 15.3369 7.06835 15.4665 6.91065 15.5819C6.80282 15.661 6.7387 15.7482 6.70639 15.8741C6.69452 15.9613 6.70449 16.1419 6.90067 16.2616C6.7995 16.089 6.77337 15.9532 6.90067 15.8073C7.02798 15.6615 7.26453 15.6491 7.40989 15.6977C7.45691 15.6581 7.50156 15.6133 7.54574 15.5633L7.29873 15.5256L7.38804 15.4546L7.61034 15.4865C7.64787 15.4398 7.68587 15.3888 7.72529 15.333L7.55667 15.3073L7.64597 15.2363L7.77897 15.2554C7.80462 15.2177 7.83075 15.1791 7.8583 15.1376C8.02788 14.8821 8.78599 14.5351 9.48949 14.4498C9.45909 14.3707 9.43486 14.3159 9.43486 14.3159L9.43534 14.3163Z" fill="#E67321"/>
<path d="M11.3273 16.4827C11.2062 16.4951 11.0181 16.4846 10.9212 16.4603C10.9212 16.4603 11.21 16.6186 11.4879 16.6839C11.7425 16.1824 12.1553 15.7158 12.1553 15.7158C11.7216 15.9989 11.3971 16.3912 11.3273 16.4823V16.4827Z" fill="#E67321"/>
<path d="M18.6933 9.11937C18.7228 9.23806 18.7551 9.321 18.803 9.32815C18.7484 9.07266 18.718 8.83862 18.6501 8.68752C18.642 8.66989 18.6335 8.65416 18.6244 8.6389C18.6154 8.62413 18.6064 8.6103 18.5959 8.59791C18.5869 8.58647 18.5774 8.57598 18.567 8.56693C18.6159 8.73328 18.6472 8.91965 18.6805 9.06646C18.6848 9.08457 18.6886 9.10269 18.6928 9.11937H18.6933Z" fill="#E67321"/>
<path d="M17.9048 8.99925C17.9086 9.00068 17.9119 9.00164 17.9157 9.00307C17.9176 9.00354 17.919 9.0045 17.9209 9.00545C17.938 9.01212 17.9542 9.02118 17.9689 9.03167C17.9779 9.03786 17.9865 9.04501 17.9946 9.05264C18.0326 9.086 18.0663 9.12747 18.1048 9.15941C18.0539 8.94444 17.9632 8.82384 17.8335 8.79858C17.8359 8.80478 17.8388 8.81097 17.8426 8.81765C17.8568 8.84386 17.8772 8.87008 17.8682 8.89677C17.8673 8.89916 17.8663 8.90059 17.8649 8.90202C17.8525 8.91536 17.8188 8.90106 17.7974 8.90249C17.767 8.95778 17.8084 8.96589 17.9043 8.99925H17.9048Z" fill="#E67321"/>
<path d="M18.69 9.74522C18.689 9.75666 18.69 9.76762 18.6919 9.77811C18.6976 9.81004 18.7156 9.83864 18.7465 9.86295C18.7712 9.8825 18.8045 9.89966 18.8453 9.91396C18.8225 9.87582 18.7978 9.84389 18.7717 9.81624C18.7456 9.78859 18.718 9.76524 18.6895 9.74474L18.69 9.74522Z" fill="#E67321"/>
<path d="M17.3619 10.1127C17.379 10.1137 17.3923 10.1089 17.4027 10.1008C17.4113 10.0941 17.4179 10.0846 17.4236 10.0736C17.426 10.0693 17.4284 10.0646 17.4307 10.0598C17.4426 10.0336 17.4521 10.0021 17.4683 9.97783C17.4792 9.96162 17.4911 9.9497 17.5039 9.9416C17.5101 9.93731 17.5167 9.93445 17.5238 9.93159C17.5576 9.9192 17.597 9.92444 17.6393 9.92635C17.6792 9.92873 17.7029 9.88869 17.7219 9.83674C17.7248 9.82863 17.7276 9.82005 17.7305 9.81147C17.7314 9.80766 17.7328 9.80432 17.7338 9.80051C17.7457 9.7619 17.7561 9.71995 17.7685 9.68516C17.7751 9.66705 17.7751 9.6599 17.7713 9.6599C17.7609 9.6599 17.72 9.71376 17.6906 9.75475C17.672 9.78049 17.6578 9.80099 17.6578 9.80099C17.6293 9.83483 17.5994 9.85008 17.5704 9.86009C17.5447 9.86915 17.5196 9.87391 17.4963 9.8844C17.4683 9.89679 17.4502 9.92968 17.4355 9.9621C17.4293 9.97592 17.4236 9.98927 17.4184 10.0012C17.4151 10.0093 17.4113 10.016 17.4079 10.0222C17.4008 10.0336 17.3937 10.0403 17.3856 10.0379C17.3785 10.036 17.3742 10.0336 17.3714 10.0303C17.3709 10.0293 17.3704 10.0284 17.3699 10.0274C17.3685 10.0245 17.368 10.0217 17.3685 10.0179C17.3685 10.015 17.3695 10.0121 17.3704 10.0088C17.3718 10.004 17.3737 9.99832 17.3756 9.99213C17.378 9.98593 17.3804 9.97878 17.3828 9.97068C17.3832 9.96877 17.3842 9.96686 17.3847 9.96448C17.3856 9.96162 17.3842 9.95924 17.3818 9.95685C17.3818 9.95685 17.3818 9.95685 17.3813 9.95638C17.3771 9.95304 17.3695 9.95018 17.3628 9.9497C17.3604 9.9497 17.3585 9.9497 17.3562 9.9497C17.3524 9.95018 17.349 9.95209 17.3476 9.95495C17.3367 9.98021 17.3262 10.0079 17.321 10.0336C17.3191 10.0422 17.3182 10.0503 17.3177 10.0579C17.3163 10.0884 17.3267 10.1113 17.3614 10.1132L17.3619 10.1127Z" fill="#E67321"/>
<path d="M17.3315 10.2719C17.3433 10.2714 17.3528 10.2591 17.3628 10.2467C17.3747 10.2309 17.3861 10.2142 17.4008 10.2176C17.4255 10.2238 17.4412 10.2219 17.4573 10.2176C17.4735 10.2133 17.4896 10.2061 17.5148 10.2009C17.5295 10.198 17.5428 10.1966 17.5552 10.1961C17.5675 10.1957 17.578 10.1952 17.5875 10.1938C17.597 10.1923 17.6051 10.1899 17.6117 10.1847C17.6184 10.1795 17.6236 10.1718 17.6269 10.1599C17.6412 10.1118 17.6887 10.1022 17.7552 10.0917C17.7613 10.0908 17.7675 10.0898 17.7742 10.0889C17.7841 10.0875 17.7936 10.087 17.8027 10.0875C17.8036 10.0875 17.805 10.0875 17.806 10.0875C17.8183 10.0879 17.8307 10.0898 17.843 10.0913C17.8601 10.0937 17.8777 10.096 17.8981 10.0951C17.9712 10.0917 18.033 10.056 18.0839 10.0036C18.0938 9.99308 18.1038 9.98212 18.1128 9.9702C18.1314 9.94684 18.1485 9.92063 18.1632 9.89346C18.1898 9.93636 18.2164 9.95352 18.243 9.95542C18.252 9.9559 18.2606 9.95542 18.2696 9.95256C18.2178 9.88774 18.2083 9.79717 18.2107 9.71519C18.1983 9.69088 18.1869 9.66657 18.1774 9.64321C18.1727 9.6313 18.1684 9.61986 18.1646 9.6089C18.157 9.58649 18.1518 9.56504 18.1504 9.54502C18.148 9.51499 18.1527 9.4883 18.1694 9.46638C18.1789 9.42586 18.1751 9.39202 18.167 9.36056C18.1641 9.35007 18.1608 9.34006 18.1575 9.32958C18.1119 9.4025 18.0744 9.47639 18.0862 9.55885C18.0877 9.56933 18.0896 9.57982 18.0929 9.59031C18.1048 9.62129 18.1143 9.65132 18.1219 9.67992C18.1271 9.69946 18.1309 9.719 18.1337 9.73712C18.1375 9.76714 18.138 9.79574 18.1337 9.82148C18.1318 9.83435 18.1285 9.84675 18.1238 9.85866C18.1162 9.87916 18.1038 9.89775 18.0881 9.91443C18.0858 9.91681 18.0843 9.91967 18.0815 9.92206C18.0402 9.95352 17.9984 9.98355 17.957 10.0007C17.9466 10.005 17.9361 10.0088 17.9262 10.0112C17.9105 10.015 17.8948 10.016 17.8791 10.015C17.8639 10.0141 17.8492 10.0117 17.834 10.005C17.8283 10.0026 17.8236 9.9988 17.8188 9.99403C17.8155 9.9907 17.8122 9.98688 17.8088 9.98355C17.8055 9.97973 17.8022 9.9764 17.7984 9.97306C17.7913 9.96686 17.7841 9.96257 17.7751 9.96353C17.7727 9.96353 17.7708 9.96448 17.7689 9.96543C17.7637 9.96734 17.759 9.96972 17.7547 9.97354C17.7485 9.97878 17.7428 9.98593 17.7371 9.9926C17.7286 10.0026 17.72 10.0121 17.7096 10.016C17.7062 10.0169 17.7024 10.0174 17.6986 10.0169C17.6668 10.0131 17.6402 10.0107 17.6184 10.0126C17.6146 10.0126 17.6117 10.0141 17.6079 10.0145C17.6036 10.0155 17.5994 10.016 17.596 10.0169C17.5713 10.025 17.5566 10.0441 17.5514 10.0817C17.5504 10.0898 17.5485 10.0999 17.5452 10.1099C17.5419 10.1199 17.5381 10.1304 17.5329 10.1404C17.5219 10.1599 17.5053 10.1766 17.4806 10.1828C17.4735 10.1847 17.4659 10.1852 17.4583 10.1856C17.4507 10.1856 17.4431 10.1856 17.436 10.1842C17.4136 10.1818 17.3923 10.1761 17.3742 10.1766C17.3562 10.1771 17.3414 10.1842 17.3334 10.2066C17.331 10.2123 17.3286 10.2195 17.3262 10.2271C17.3215 10.2419 17.3177 10.2571 17.3215 10.2657C17.3234 10.27 17.3272 10.2724 17.3334 10.2719H17.3315Z" fill="#E67321"/>
<path d="M19.1735 9.47019C19.193 9.47639 19.2134 9.48115 19.2339 9.48497C19.2391 9.48592 19.2438 9.48687 19.2491 9.48783C19.2947 9.4945 19.3422 9.49688 19.3911 9.49545C19.4082 9.49498 19.4253 9.49402 19.4424 9.49259C19.5108 9.48735 19.5806 9.47734 19.649 9.4659C19.6467 9.43158 19.6424 9.38391 19.6367 9.34292C19.6348 9.32958 19.6329 9.31671 19.631 9.30527C19.5849 9.31194 19.5388 9.31766 19.4932 9.32147C19.4662 9.32386 19.4396 9.32576 19.4134 9.32624C19.2961 9.32958 19.1897 9.31432 19.1175 9.25808C18.9398 9.1208 18.965 8.88581 18.8035 8.74758C18.8448 8.92251 18.86 9.10841 18.9422 9.2719C18.9964 9.38058 19.0781 9.43968 19.174 9.46971L19.1735 9.47019Z" fill="#E67321"/>
<path d="M17.4806 9.40584C17.4873 9.4087 17.4939 9.41061 17.5006 9.41156C17.5067 9.41251 17.5124 9.41299 17.5186 9.41251C17.539 9.41108 17.5599 9.40155 17.5799 9.38487C17.5899 9.37629 17.5994 9.3658 17.6084 9.35341C17.6174 9.34102 17.626 9.32672 17.634 9.31003C17.6369 9.30431 17.634 9.29859 17.6288 9.29287C17.626 9.29001 17.6226 9.28763 17.6188 9.28525C17.5998 9.27333 17.5699 9.26761 17.5647 9.28239C17.5576 9.30241 17.5405 9.3148 17.5215 9.32004C17.5091 9.32386 17.4958 9.32433 17.4839 9.32195C17.4725 9.31957 17.463 9.31432 17.4578 9.30622C17.455 9.30241 17.4535 9.29764 17.4535 9.29192C17.4535 9.28668 17.4526 9.28286 17.4516 9.28048C17.4502 9.2781 17.4488 9.27762 17.4469 9.27762C17.4369 9.27905 17.4193 9.30813 17.4165 9.32529C17.416 9.32862 17.4165 9.33148 17.4165 9.33387C17.4317 9.37152 17.4545 9.39583 17.4797 9.40679L17.4806 9.40584Z" fill="#E67321"/>
<path d="M19.374 10.1856C19.3688 10.1842 19.3636 10.1833 19.3583 10.1818C19.3118 10.1709 19.2648 10.1632 19.2177 10.1666C19.213 10.1666 19.2101 10.1699 19.2077 10.1742C19.2006 10.1866 19.2025 10.2114 19.2111 10.2271C19.2149 10.2343 19.2201 10.239 19.2258 10.24C19.26 10.2462 19.2947 10.2457 19.3294 10.2428C19.3911 10.2376 19.4533 10.2238 19.5146 10.2195C19.4899 10.2152 19.4652 10.209 19.4405 10.2028C19.4182 10.1971 19.3963 10.1909 19.374 10.1856Z" fill="#E67321"/>
<path d="M15.3625 11.312C15.3806 11.2619 15.3972 11.2162 15.4124 11.1761C15.364 11.1709 15.315 11.1661 15.2656 11.1614C15.2162 11.1566 15.1664 11.1518 15.116 11.1466C15.0908 11.1442 15.0656 11.1418 15.0405 11.1394C14.9901 11.1347 14.9398 11.1299 14.8894 11.1251C14.8391 11.1204 14.7887 11.1156 14.7388 11.1108C14.6139 11.0989 14.4914 11.087 14.374 11.0741C14.3037 11.0665 14.2353 11.0584 14.1698 11.0503C14.0824 11.0393 13.9992 11.0274 13.9232 11.015C13.8886 11.0093 13.8558 11.0036 13.824 10.9974C13.8002 10.9926 13.7769 10.9883 13.7551 10.9836C13.6287 10.9559 13.5323 10.9245 13.4796 10.8873C13.2939 10.7648 12.9594 10.4311 12.6811 10.0917C12.645 10.0474 12.6098 10.0031 12.5761 9.95924C12.492 9.85008 12.4156 9.74284 12.3557 9.64512C12.3814 9.76095 12.4559 9.91062 12.5614 10.076C12.579 10.1037 12.597 10.1318 12.6165 10.1599C12.6545 10.2166 12.6958 10.2748 12.7395 10.3334C12.7614 10.363 12.7837 10.3925 12.8065 10.4221C12.8521 10.4817 12.9001 10.5412 12.949 10.6008C12.9979 10.6604 13.0483 10.7195 13.0996 10.7772C13.1504 10.8353 13.2022 10.8925 13.254 10.9478C13.292 10.984 13.3295 11.016 13.367 11.0441C13.4045 11.0722 13.4425 11.0961 13.4805 11.1166C13.5185 11.1371 13.5575 11.1547 13.5969 11.1695C13.6891 11.2043 13.785 11.2248 13.889 11.24C14.3983 11.2853 14.8448 11.3153 15.3445 11.3635C15.3507 11.3458 15.3568 11.3287 15.3625 11.312Z" fill="#E67321"/>
<path d="M17.9684 10.3306C17.9775 10.3534 17.9955 10.3744 18.0216 10.3749C18.0254 10.3749 18.0292 10.3749 18.0335 10.3739C18.0535 10.3701 18.072 10.3611 18.0877 10.3463C18.1133 10.3215 18.1304 10.2805 18.1285 10.2176C18.1266 10.1404 18.1817 10.0746 18.2539 10.0093C18.224 10.0145 18.1955 10.0207 18.1698 10.0322C18.1584 10.0374 18.1475 10.0431 18.138 10.0512C18.1195 10.0665 18.1043 10.0875 18.0938 10.1175C18.0877 10.1361 18.0801 10.1537 18.072 10.1713C18.0663 10.1847 18.0601 10.1976 18.0539 10.2109C18.0454 10.229 18.0368 10.2467 18.0288 10.2648C18.0188 10.2471 18.0131 10.2295 18.0093 10.2119C18.0045 10.189 18.0031 10.1661 18.0031 10.1432C17.9969 10.148 17.9908 10.1528 17.9855 10.1575C17.9789 10.1637 17.9737 10.1699 17.9689 10.1761C17.9623 10.1847 17.9566 10.1938 17.9518 10.2023C17.9466 10.2123 17.9428 10.2219 17.9395 10.2314C17.9309 10.2548 17.9257 10.2757 17.9133 10.29C17.901 10.3043 17.881 10.3115 17.8435 10.3081C17.796 10.3039 17.748 10.3048 17.7058 10.3096C17.6725 10.3134 17.6435 10.3201 17.6212 10.3291C17.6122 10.3329 17.6046 10.3367 17.5984 10.341C17.596 10.3425 17.5932 10.3439 17.5913 10.3458C17.5861 10.3506 17.5823 10.3553 17.5804 10.3606C17.5894 10.3587 17.5994 10.3563 17.6089 10.3539C17.6355 10.3477 17.664 10.342 17.6877 10.3468C17.701 10.3491 17.7129 10.3544 17.7224 10.3649C17.7457 10.3901 17.7637 10.4059 17.7875 10.4183C17.7884 10.4183 17.7894 10.4192 17.7898 10.4192C17.8012 10.4249 17.8136 10.4302 17.8283 10.4349C17.8445 10.4402 17.8635 10.4454 17.8863 10.4511C17.9076 10.4564 17.9271 10.4688 17.9442 10.4812C17.9627 10.494 17.9784 10.5069 17.9922 10.5122C18.0017 10.5155 18.0102 10.5155 18.0174 10.5083C18.0212 10.5045 18.025 10.4988 18.0283 10.4907C18.033 10.4783 18.0345 10.4678 18.0335 10.4578C18.0307 10.414 17.9789 10.3916 17.9157 10.3997C17.9276 10.3839 17.9395 10.3677 17.9513 10.352C17.9566 10.3449 17.9623 10.3377 17.9675 10.3306H17.9684Z" fill="#E67321"/>
<path d="M22.2488 12.3068C22.2283 12.323 22.2093 12.3377 22.1918 12.353C22.1827 12.3606 22.1742 12.3678 22.1661 12.3754C22.1243 12.4131 22.0882 12.4521 22.0502 12.5027H25.6836C25.6765 12.4769 25.6655 12.455 25.6503 12.4359C25.6399 12.4231 25.628 12.4116 25.6142 12.4016C25.5933 12.3864 25.5681 12.374 25.5387 12.3635C25.5192 12.3568 25.4978 12.3506 25.4746 12.3458C25.4385 12.3382 25.3981 12.333 25.3534 12.3287C25.3112 12.3249 25.2646 12.323 25.2138 12.3215C25.1083 12.3211 25.0057 12.3201 24.905 12.3196C24.753 12.3187 24.6058 12.3177 24.4604 12.3173C24.2671 12.3163 24.0776 12.3149 23.8871 12.3139C23.5536 12.312 23.2159 12.3101 22.8463 12.3077C22.8611 12.2925 22.8767 12.2777 22.8929 12.2634C23.0121 12.1557 23.1703 12.0608 23.2995 11.9869C22.7988 11.9531 22.2089 11.9269 21.6298 11.914C21.6241 11.914 21.6189 11.914 21.6132 11.914C21.4873 11.9111 21.3619 11.9092 21.2379 11.9078C21.2365 11.9078 21.2351 11.9078 21.2337 11.9078C21.1073 11.9064 20.9824 11.9054 20.8603 11.9059H20.8598C20.676 11.9059 20.4979 11.9078 20.3302 11.9116C20.343 11.8563 20.3653 11.8025 20.401 11.7491C20.41 11.7357 20.42 11.7229 20.4304 11.7095C20.4504 11.6852 20.4741 11.6609 20.5012 11.6371C20.5174 11.6228 20.5349 11.6085 20.5539 11.5942C20.4442 11.6104 20.3421 11.6375 20.2428 11.6776C19.9027 11.8144 19.602 12.1061 19.1792 12.6652C19.1313 12.7281 19.0823 12.7848 19.0329 12.8359C18.9831 12.8869 18.9327 12.9326 18.8814 12.9727C18.813 13.0265 18.7437 13.0713 18.6734 13.108C18.6206 13.1357 18.5674 13.159 18.5138 13.1781C18.4601 13.1972 18.4064 13.2129 18.3523 13.2248C18.3342 13.2286 18.3161 13.2324 18.2981 13.2358C18.262 13.2424 18.2259 13.2472 18.1893 13.251C18.1713 13.2529 18.1532 13.2544 18.1352 13.2558C18.0991 13.2582 18.063 13.2596 18.0264 13.2601C17.9903 13.2601 17.9542 13.2596 17.9181 13.2577C17.882 13.2563 17.8464 13.2534 17.8103 13.2501C17.7765 13.2467 17.7433 13.2429 17.71 13.2386C17.6673 13.2329 17.625 13.2267 17.5827 13.2196C17.5528 13.2148 17.5234 13.2095 17.4934 13.2038C17.3514 13.1633 17.2597 13.1738 17.2193 13.2353C17.2136 13.2439 17.2089 13.2539 17.2051 13.2648C17.1813 13.2963 17.1704 13.3187 17.1718 13.3349C17.1723 13.3411 17.1747 13.3468 17.179 13.3511C17.1851 13.3578 17.1961 13.3626 17.2103 13.3659C17.2393 13.3726 17.284 13.374 17.3429 13.3745C17.5191 13.3716 17.6934 13.3726 17.8668 13.3788C18.1561 13.3888 18.4439 13.4136 18.7375 13.4598C19.1664 13.3244 19.4258 13.0332 19.7041 12.6485C19.7279 12.6152 19.7521 12.5818 19.7763 12.547C19.8143 12.4979 19.8519 12.4569 19.8899 12.4231C19.906 12.4088 19.9222 12.3959 19.9388 12.384C19.9687 12.3621 19.9996 12.3439 20.0319 12.3292C20.0637 12.3144 20.0965 12.3025 20.1307 12.2934C20.1654 12.2839 20.2019 12.2767 20.2409 12.272C20.3259 12.261 20.4214 12.2591 20.5326 12.2591C20.601 12.261 20.6703 12.2629 20.7406 12.2648C21.0921 12.2744 21.4664 12.2848 21.8255 12.2944C21.969 12.2982 22.1105 12.302 22.2469 12.3058L22.2488 12.3068Z" fill="#E67321"/>
<path d="M17.5865 13.8988C17.6203 13.9059 17.6568 13.915 17.6967 13.925C17.8663 13.9593 18.0216 13.9631 18.1632 13.9283C18.3048 13.894 18.4325 13.8216 18.548 13.7038C18.3789 13.7782 18.176 13.8335 17.9357 13.7649C17.8829 13.7496 17.8274 13.7315 17.7723 13.7162C17.7352 13.7057 17.6986 13.6967 17.6625 13.6905C17.6264 13.6843 17.5913 13.681 17.558 13.6819C17.5414 13.6824 17.5253 13.6843 17.5091 13.6872C17.482 13.7086 17.4607 13.7277 17.4421 13.7458C17.4331 13.7548 17.4246 13.7634 17.4165 13.7715C17.3989 13.7901 17.3842 13.8082 17.3695 13.8268C17.3505 13.8506 17.3319 13.8759 17.3072 13.9059C17.3395 13.8945 17.3699 13.8874 17.4003 13.8835C17.4607 13.8764 17.5196 13.8835 17.5875 13.8978L17.5865 13.8988Z" fill="#E67321"/>
<path d="M17.207 14.3268C17.2626 14.3054 17.331 14.304 17.4003 14.3082C17.435 14.3106 17.4697 14.314 17.5029 14.3173C17.5362 14.3206 17.568 14.3235 17.597 14.3244C17.6317 14.3259 17.6649 14.3264 17.6967 14.3254C17.6986 14.3254 17.7001 14.3254 17.702 14.3254C17.73 14.3244 17.7566 14.3225 17.7827 14.3197C17.9684 14.2997 18.1185 14.2282 18.2744 14.0628C18.1732 14.1295 18.0715 14.1543 17.9708 14.1581C17.7689 14.1657 17.5699 14.0895 17.3785 14.0933C17.3595 14.0933 17.3405 14.0947 17.3215 14.0971C17.273 14.1595 17.2531 14.211 17.2308 14.2677C17.2232 14.2868 17.2156 14.3059 17.2065 14.3264L17.207 14.3268Z" fill="#E67321"/>
<path d="M17.8915 8.57122C17.9019 8.59743 17.9228 8.62317 17.9589 8.65797C17.977 8.67513 17.9988 8.69515 18.025 8.71803C18.0335 8.72565 18.043 8.73376 18.0525 8.74234C18.0815 8.7676 18.1152 8.79667 18.1537 8.83052C18.1798 8.8534 18.2017 8.87818 18.2202 8.90345C18.2497 8.94348 18.271 8.98543 18.2862 9.02976C18.2991 9.06646 18.3086 9.10459 18.3147 9.14368C18.32 9.17514 18.3233 9.20708 18.3257 9.23949C18.3271 9.25808 18.3285 9.27667 18.3295 9.29526C18.3352 9.39726 18.3361 9.50117 18.3575 9.59936C18.4815 10.179 18.1879 10.2233 18.1057 10.5255C18.1086 10.525 18.1114 10.5241 18.1138 10.5236C18.1285 10.5203 18.1437 10.5169 18.1584 10.515C18.1675 10.5141 18.176 10.5131 18.1851 10.5126C18.2026 10.5117 18.2202 10.5126 18.2383 10.5155C18.2473 10.5169 18.2558 10.5188 18.2649 10.5217C18.2824 10.5269 18.3005 10.5341 18.3181 10.5446C18.2449 10.6542 18.167 10.7715 18.0872 10.8863C18.0596 10.9259 18.0321 10.965 18.0041 11.0031C17.9955 11.015 17.987 11.0269 17.9779 11.0389C17.8858 11.1642 17.7932 11.28 17.7039 11.3716C17.7029 11.3725 17.702 11.3735 17.701 11.3744C17.6758 11.3997 17.6516 11.423 17.6274 11.444C17.606 11.4626 17.5846 11.4802 17.5637 11.4955C17.6184 11.4726 17.673 11.4516 17.7281 11.4321C17.7556 11.4221 17.7832 11.413 17.8107 11.404C17.8587 11.3887 17.9067 11.3744 17.9551 11.362C17.9908 11.3525 18.0264 11.3439 18.0625 11.3358C18.1147 11.3244 18.1675 11.3153 18.2207 11.3077C18.2288 11.3067 18.2364 11.3053 18.2444 11.3044C18.4724 11.2739 18.7095 11.2781 18.9626 11.3282C18.9869 11.3039 19.0144 11.2796 19.0462 11.2576C19.0652 11.2448 19.0857 11.2324 19.108 11.2224C19.0557 11.2324 19.0059 11.2372 18.9584 11.2381C18.9584 11.2381 18.9579 11.2381 18.9574 11.2381C18.8866 11.2395 18.8206 11.2329 18.7579 11.2209C18.6952 11.209 18.6354 11.1923 18.5774 11.1738C18.576 11.1733 18.575 11.1723 18.5731 11.1718C18.5541 11.1652 18.5399 11.1571 18.5313 11.1471C18.5218 11.1366 18.5171 11.1237 18.5161 11.1099C18.5142 11.0818 18.5261 11.0474 18.5389 11.0088C18.575 10.8978 18.6216 10.78 18.6928 10.6709C18.6995 10.6609 18.7057 10.6509 18.7128 10.6413C18.719 10.6323 18.7261 10.6246 18.7332 10.618C18.7703 10.5846 18.8225 10.5789 18.8928 10.6013C18.9208 10.6103 18.9517 10.6237 18.9854 10.6418C18.9831 10.5822 18.9812 10.5646 18.9778 10.5169C18.9778 10.5169 18.9778 10.516 18.9778 10.5155C18.9389 10.5041 18.9023 10.4893 18.8686 10.4712C18.8349 10.4531 18.8035 10.4321 18.7745 10.4082C18.7456 10.3844 18.719 10.3577 18.6943 10.3286C18.6819 10.3139 18.67 10.2986 18.6586 10.2829C18.6358 10.2514 18.6149 10.2171 18.5959 10.1809C18.547 10.0879 18.51 9.98069 18.48 9.86343C18.4691 9.82053 18.4591 9.7762 18.4501 9.73092C18.4392 9.67563 18.4316 9.61795 18.4259 9.5598C18.4088 9.38582 18.4121 9.20135 18.424 9.01927C18.4292 8.94253 18.4359 8.86674 18.443 8.79191C18.4553 8.66035 18.4245 8.58313 18.3732 8.53261C18.366 8.52546 18.358 8.51878 18.3499 8.51211C18.2853 8.46206 18.1983 8.44014 18.1242 8.40439C18.1309 8.41106 18.1375 8.41726 18.1442 8.42345C18.1575 8.43585 18.1713 8.44824 18.1841 8.46111C18.1903 8.46778 18.1964 8.47445 18.2017 8.48208C18.3147 8.63318 18.2321 8.68037 18.1242 8.68561C18.0886 8.68704 18.0592 8.68275 18.0345 8.6737C17.9851 8.65558 17.9542 8.62079 17.9257 8.58409C17.9114 8.56597 17.8977 8.54738 17.8829 8.5307C17.8829 8.54023 17.8844 8.54977 17.8867 8.55835C17.8877 8.56264 17.8891 8.5674 17.891 8.57169L17.8915 8.57122Z" fill="#E67321"/>
<path d="M17.1281 14.6538C17.1234 14.6729 17.1196 14.6915 17.1163 14.7105C17.1134 14.7277 17.1115 14.7449 17.1101 14.7625C17.1847 14.7472 17.2554 14.7382 17.3234 14.7291C17.3452 14.7263 17.3666 14.7234 17.388 14.7205C17.4307 14.7148 17.4721 14.7086 17.5134 14.701C17.5267 14.6986 17.5395 14.6958 17.5523 14.6929C17.5861 14.6858 17.6193 14.6767 17.6521 14.6657C17.6706 14.6595 17.6887 14.6529 17.7072 14.6452C17.7129 14.6429 17.7191 14.6405 17.7248 14.6381C17.7875 14.6104 17.8492 14.5728 17.9124 14.5203C17.816 14.5499 17.7305 14.5604 17.6516 14.5623C17.6179 14.5628 17.5856 14.5623 17.5538 14.5604C17.5267 14.559 17.5006 14.5571 17.4744 14.5551C17.3714 14.547 17.2716 14.5375 17.1609 14.5575C17.1467 14.5909 17.1362 14.6224 17.1281 14.6533V14.6538Z" fill="#E67321"/>
<path d="M16.0974 15.6834C16.0736 15.7978 16.0537 15.917 16.0375 16.0375C15.9919 16.3822 15.9805 16.7435 16.0233 17.0733C16.0337 17.1543 16.0475 17.2335 16.0646 17.3097C16.0902 17.4241 16.124 17.5328 16.1663 17.6329C16.1349 17.2258 16.1534 16.8755 16.2275 16.5704C16.2499 16.4789 16.2769 16.3912 16.3097 16.3078C16.342 16.2239 16.3795 16.1443 16.4223 16.0676C16.4422 16.0318 16.4636 15.9975 16.4859 15.9632C16.5273 15.8998 16.5724 15.8383 16.6218 15.7797C16.6978 15.6896 16.7838 15.6047 16.8797 15.5247C16.9277 15.4846 16.978 15.446 17.0312 15.4079C17.0578 15.3888 17.0849 15.3702 17.1129 15.3521C17.2521 15.2606 17.407 15.1753 17.5789 15.0957C17.6564 15.059 17.7167 15.0299 17.7666 15.0037C17.7913 14.9908 17.8136 14.9789 17.834 14.967C17.8511 14.957 17.8668 14.9474 17.882 14.9379C17.9076 14.9212 17.9309 14.9045 17.9532 14.8864C17.9447 14.8898 17.9357 14.8926 17.9266 14.896C17.786 14.9474 17.6364 14.9927 17.4744 15.0199C17.4645 15.0218 17.4545 15.0232 17.444 15.0247C17.3414 15.0399 17.2341 15.048 17.1215 15.0447C16.9681 15.1767 16.8403 15.233 16.7291 15.2368C16.6769 15.2387 16.6289 15.2287 16.5838 15.2096C16.5809 15.2086 16.5781 15.2077 16.5752 15.2063C16.4522 15.1519 16.3515 15.0304 16.256 14.8936C16.2404 14.8712 16.2247 14.8483 16.209 14.8249C16.191 14.7978 16.1724 14.7701 16.1544 14.7425C16.1363 14.7148 16.1178 14.6877 16.0993 14.6605C16.0622 14.6066 16.0252 14.5547 15.9857 14.5075C15.8005 14.9389 15.8637 15.3264 16.0964 15.6834H16.0974Z" fill="#E67321"/>
<path d="M17.1424 11.0007C17.1818 11.0432 17.2103 11.0913 17.2326 11.1394C17.244 11.1633 17.2536 11.1871 17.2626 11.21C17.2716 11.2329 17.2797 11.2553 17.2878 11.2758C17.2958 11.2963 17.3034 11.3153 17.312 11.3325C17.3163 11.3411 17.3205 11.3487 17.3248 11.3558C17.3429 11.3844 17.3642 11.4026 17.3937 11.4045C17.4089 11.3978 17.4227 11.3921 17.4369 11.3883C17.4431 11.3863 17.4493 11.3849 17.4554 11.384C17.4754 11.3806 17.4958 11.3816 17.5186 11.3902C17.5167 11.3768 17.5148 11.3644 17.5139 11.353C17.5129 11.3415 17.5115 11.3301 17.511 11.3191C17.5105 11.3082 17.5105 11.2977 17.511 11.2872C17.5124 11.2348 17.5238 11.1833 17.5466 11.0994C17.5272 11.0965 17.5063 11.0922 17.4849 11.0875C17.3661 11.0617 17.2198 11.0141 17.1115 10.9702C17.1224 10.9798 17.1324 10.9898 17.1419 10.9998C17.1419 10.9998 17.1429 11.0003 17.1429 11.0007H17.1424Z" fill="#E67321"/>
<path d="M16.6493 12.9502C16.6921 12.9788 16.7448 13.006 16.8075 13.0318C16.8702 13.0575 16.9438 13.0813 17.0293 13.1037C16.97 13.067 16.9201 13.0284 16.8797 12.9879C16.8593 12.9674 16.8412 12.9469 16.8256 12.9255C16.8018 12.8935 16.7833 12.8602 16.769 12.8258C16.6992 12.6547 16.7467 12.4545 16.8816 12.2253C16.8845 12.2205 16.8878 12.2152 16.8906 12.21C16.9628 12.0899 17.0588 11.9621 17.1747 11.8258C17.1277 11.8578 17.0792 11.894 17.0298 11.934C17.0184 11.9431 17.0075 11.9521 16.9961 11.9617C16.9571 11.9946 16.9182 12.0303 16.8797 12.068C16.7876 12.1571 16.6978 12.2601 16.6151 12.3768C16.5828 12.4226 16.551 12.4698 16.5216 12.5198C16.4522 12.6733 16.4598 12.8249 16.6489 12.9507L16.6493 12.9502Z" fill="#E67321"/>
<path d="M15.9482 14.0518C15.9591 14.0199 15.9653 13.9898 15.9686 13.9608C15.9686 13.9579 15.9696 13.9546 15.9701 13.9517C15.9815 13.8211 15.9254 13.7162 15.8755 13.6314C15.8418 13.5737 15.8114 13.5251 15.8067 13.4841C15.8038 13.4598 15.8038 13.435 15.8057 13.4107C15.8105 13.3373 15.8295 13.2634 15.8371 13.19C15.7292 13.2949 15.6618 13.4536 15.6347 13.6667C15.6741 13.6953 15.7107 13.7248 15.7435 13.7553C15.8418 13.8468 15.9102 13.9455 15.9482 14.0523V14.0518Z" fill="#E67321"/>
<path d="M22.9974 13.4727L22.9812 13.4855L22.9233 13.5475H24.0609L24.0586 13.5499H24.06L23.4344 14.2196H22.2972L22.2274 14.2944H23.3665L22.7418 14.9646H21.6028L21.5325 15.0399H22.6692L22.045 15.7091H22.0483L22.0464 15.711H20.9069L20.837 15.7863H21.9761L24.1331 13.4727H22.9974Z" fill="#E67321"/>
<path d="M23.4686 28.7232H24.24L24.3099 28.6484H23.538L23.4686 28.7232Z" fill="#E67321"/>
<path d="M17.3182 29.5879L17.2151 29.6365L17.6041 29.7919C17.6041 29.7919 17.6331 29.7657 17.6768 29.728H17.6773L17.6739 29.7261L17.3182 29.5874V29.5879Z" fill="#E67321"/>
<path d="M17.5609 29.4678L17.8506 29.5836L17.854 29.5846C17.8825 29.5631 17.911 29.5426 17.9376 29.5255L17.664 29.4192L17.5609 29.4678Z" fill="#E67321"/>
<path d="M23.0183 27.0102C22.9888 26.992 22.9618 26.972 22.9375 26.9501C22.9356 26.9482 22.9333 26.9463 22.9309 26.9449C22.9195 26.9344 22.909 26.9234 22.8986 26.9124C22.8273 26.8343 22.7832 26.7389 22.757 26.6365C22.7494 26.6074 22.7433 26.5774 22.7385 26.5473C22.7338 26.5173 22.73 26.4868 22.7271 26.4558C22.7243 26.4248 22.7228 26.3943 22.7219 26.3638C22.7219 26.3486 22.7209 26.3333 22.7209 26.3181C22.7209 26.2723 22.7219 26.227 22.7238 26.1832C22.729 26.0659 22.7395 25.9582 22.7418 25.8738C22.7599 25.6932 22.7604 25.5416 22.7466 25.4119C22.7447 25.3938 22.7428 25.3767 22.7404 25.3595C22.738 25.3438 22.7357 25.3285 22.7333 25.3137C22.7252 25.2689 22.7157 25.227 22.7038 25.1879C22.7 25.175 22.6958 25.1622 22.6915 25.1493C22.6829 25.124 22.6739 25.1002 22.6639 25.0773C22.6563 25.0602 22.6483 25.0435 22.6402 25.0273C22.5993 24.9472 22.549 24.88 22.492 24.8214C22.4654 24.7937 22.4373 24.768 22.4084 24.7437C22.3794 24.7194 22.349 24.696 22.3176 24.6731C22.3276 24.6941 22.3366 24.7155 22.3452 24.737C22.4012 24.8762 22.4269 25.0187 22.435 25.1741C22.4364 25.1998 22.4369 25.2256 22.4373 25.2518C22.4383 25.3042 22.4374 25.3585 22.435 25.4143C22.4326 25.4701 22.4293 25.5278 22.4245 25.5878C22.4221 25.6178 22.4198 25.6479 22.4174 25.6789C22.4098 25.7718 22.4003 25.87 22.3913 25.9739C22.3794 26.1102 22.3746 26.2313 22.378 26.3385C22.378 26.3414 22.378 26.3438 22.378 26.3466C22.3794 26.3857 22.3818 26.4229 22.3856 26.4587C22.3856 26.4625 22.3865 26.4668 22.387 26.4706C22.3951 26.5449 22.4079 26.6117 22.426 26.6708C22.4402 26.7165 22.4573 26.758 22.4773 26.7952C22.4906 26.82 22.5058 26.8429 22.5219 26.8643C22.5381 26.8857 22.5561 26.9053 22.5751 26.9229C22.5846 26.932 22.5946 26.9406 22.605 26.9487C22.6217 26.9615 22.6392 26.9735 22.6578 26.9844C22.6682 26.9906 22.6787 26.9963 22.6896 27.0021C22.7357 27.0254 22.7874 27.0435 22.8449 27.0573C22.8677 27.0626 22.8915 27.0674 22.9157 27.0712C22.9209 27.0721 22.9266 27.0731 22.9318 27.0735C22.9518 27.0764 22.9727 27.0788 22.9941 27.0807C23.0368 27.0845 23.0815 27.0869 23.129 27.0874C23.1527 27.0874 23.1769 27.0874 23.2021 27.0874C23.1703 27.0793 23.1413 27.0693 23.1138 27.0583C23.0791 27.0445 23.0473 27.0287 23.0183 27.0111V27.0102Z" fill="#E67321"/>
<path d="M15.5901 28.7681L16.0551 28.9539L16.132 28.8906L15.6931 28.7194L15.5901 28.7681Z" fill="#E67321"/>
<path d="M19.2215 26.8648C19.6158 27.7866 19.6918 28.0464 19.6642 28.0817C19.641 28.1112 19.6804 28.1112 19.3194 28.1355C17.8335 28.2023 17.2122 28.1994 16.742 28.1536C16.2812 28.1079 15.9919 28.1579 15.7767 28.2614C15.5616 28.3648 15.2827 28.5869 15.2827 28.5869C15.0737 28.739 14.8918 28.809 14.7825 28.8639C14.6733 28.9187 14.6339 28.952 14.613 28.9887C14.5916 29.0255 14.5735 29.1103 14.5826 29.1928C14.5916 29.2752 14.5854 29.4177 14.5189 29.576C14.4728 29.6851 14.3721 29.8477 14.3142 29.9382H14.7702C14.7764 29.9216 14.7835 29.9025 14.792 29.8801C14.8528 29.719 14.8224 29.5483 14.7892 29.4359C14.7559 29.3234 14.7436 29.2352 14.7768 29.1375C14.8101 29.0402 14.8676 29.0007 14.9953 28.9401C15.3017 28.7857 15.5468 28.6294 15.8352 28.4587C16.1235 28.2881 16.6075 28.3267 16.7348 28.3391C17.8326 28.422 19.4799 28.3281 19.7317 28.3157C20.0115 28.3024 19.9602 28.2051 19.9298 28.1475C19.6571 27.5388 19.2225 26.8648 19.2225 26.8648H19.2215Z" fill="#E67321"/>
<path d="M16.3805 28.6842L16.0389 28.5512L15.9359 28.5998L16.3035 28.7466C16.2489 28.7914 16.381 28.6842 16.381 28.6842H16.3805Z" fill="#E67321"/>
<path d="M17.322 29.28C17.3438 29.2719 17.3661 29.2638 17.3885 29.2566C17.4075 29.2504 17.4265 29.2452 17.4459 29.2395C17.463 29.2342 17.4801 29.229 17.4972 29.2242C17.5348 29.2142 17.5728 29.2047 17.6108 29.1961C17.6089 29.1866 17.6051 29.178 17.6013 29.1704C17.6003 29.1684 17.5994 29.167 17.5984 29.1651C17.5937 29.158 17.5884 29.1513 17.5823 29.146C17.5813 29.1456 17.5804 29.1446 17.5799 29.1441C17.5737 29.1394 17.5666 29.1351 17.5595 29.1313C17.558 29.1303 17.5566 29.1298 17.5547 29.1289C17.5462 29.1251 17.5371 29.1222 17.5272 29.1198C17.5257 29.1198 17.5238 29.1194 17.5224 29.1189C17.5129 29.117 17.5025 29.1155 17.492 29.1146C17.4911 29.1146 17.4901 29.1146 17.4892 29.1146C17.4773 29.1136 17.4649 29.1132 17.4526 29.1136C17.4512 29.1136 17.4497 29.1136 17.4483 29.1136C17.3913 29.1146 17.3272 29.1251 17.2678 29.136C16.5999 29.3248 16.3149 29.79 16.2489 30.4263C16.248 30.4344 16.2484 30.4411 16.2489 30.4478C16.2836 30.4521 16.4061 30.4692 16.4888 30.5126C16.4798 30.23 16.4821 29.985 16.6888 29.7161C16.7187 29.6761 16.7515 29.6384 16.7871 29.6027C16.7876 29.6022 16.788 29.6013 16.789 29.6008C16.8066 29.5836 16.8256 29.5674 16.8441 29.5512C16.8683 29.5298 16.894 29.5097 16.9206 29.4902C16.922 29.4892 16.9234 29.4883 16.9244 29.4873C16.9495 29.4687 16.9761 29.4511 17.0032 29.4339C17.0061 29.432 17.0094 29.4301 17.0122 29.4282C17.0379 29.4125 17.0645 29.3972 17.0916 29.3825C17.0968 29.3796 17.102 29.3767 17.1072 29.3744C17.1329 29.361 17.1585 29.3481 17.1852 29.3362C17.1932 29.3324 17.2018 29.3291 17.2103 29.3253C17.2346 29.3148 17.2593 29.3043 17.2844 29.2943C17.2968 29.2895 17.3096 29.2852 17.322 29.2805V29.28Z" fill="#E67321"/>
<path d="M23.5916 27.8943L23.5332 27.9573H24.0666C24.0666 27.9573 24.1027 27.9163 24.1336 27.8824H23.6026L23.5912 27.8948L23.5916 27.8943Z" fill="#E67321"/>
<path d="M17.0293 13.1037C16.5543 12.8115 16.6978 12.3859 17.1747 11.8258C16.9571 11.9731 16.7078 12.2043 16.522 12.5194C16.4209 12.7424 16.4836 12.9617 17.0293 13.1037Z" fill="#E67321"/>
<path d="M15.8067 13.4841C15.7962 13.3859 15.8271 13.2877 15.8371 13.19C15.7292 13.2949 15.6618 13.4536 15.6347 13.6667C15.7929 13.7815 15.8974 13.9102 15.9482 14.0523C16.0427 13.7768 15.8195 13.6014 15.8067 13.4841Z" fill="#E67321"/>
</g>
<defs>
<clipPath id="clip0_1798_21157">
<rect width="75" height="50" fill="white"/>
</clipPath>
</defs>
</svg>
