<svg width="82" height="80" viewBox="0 0 82 80" fill="none" xmlns="http://www.w3.org/2000/svg">
<g id="logoCont" clip-path="url(#clip0_2737_61292)">
<path id="Vector" d="M0 29.1744C0 29.1744 31.4542 -0.861875 31.5637 0.0200234C31.6732 0.901922 57.8308 14.5412 57.8308 14.5412L77.3662 14.7624L82.0029 30.9353L63.0208 80.0028L15.011 79.6724L0 29.1744Z" fill="#0B86C8"/>
<path id="Vector_2" d="M0 29.1747L77.3662 14.7627L14.6421 79.0465L0 29.1747Z" fill="#1D63B2"/>
<g id="Group">
<path id="Vector_3" d="M43.9457 23.0237C43.7209 22.9577 43.476 23.0323 43.329 23.2133L31.1882 38.3234C31.096 38.4354 31.0528 38.579 31.0643 38.7255L32.5369 58.8225C32.5542 59.0581 32.7156 59.2591 32.9403 59.3281C32.998 59.3453 33.0556 59.3539 33.1104 59.3539C33.2833 59.3539 33.4475 59.2764 33.5599 59.1385L45.9946 43.6636C46.0869 43.5487 46.133 43.4022 46.1186 43.2528L44.352 23.5236C44.3319 23.2909 44.1705 23.0927 43.9457 23.0237ZM38.4445 37.6426C40.5798 37.6426 42.3204 39.3748 42.3204 41.5063C42.3204 43.6378 40.5827 45.37 38.4445 45.37C36.3062 45.37 34.5685 43.6378 34.5685 41.5063C34.5685 39.3748 36.3062 37.6426 38.4445 37.6426ZM44.9514 43.1235L33.5801 57.277L32.2314 38.8663L32.2372 38.8606L33.8366 39.5126C33.5686 40.1245 33.4187 40.7967 33.4187 41.5063C33.4187 44.2697 35.6751 46.519 38.4474 46.519C40.9689 46.519 43.0581 44.6547 43.4155 42.2359L44.9169 42.7357L44.9514 43.1235Z" fill="white"/>
<path id="Vector_4" d="M38.1213 15.6152C23.9517 15.6152 12.4219 27.1086 12.4219 41.2334C12.4219 55.3581 23.9517 66.8516 38.1213 66.8516C52.2908 66.8516 63.8207 55.3581 63.8207 41.2334C63.8207 27.1086 52.2908 15.6152 38.1213 15.6152ZM40.5419 63.5423C40.5419 63.4819 40.5506 63.4188 40.5506 63.3556C40.5506 61.6262 39.4642 60.2273 38.1213 60.2273C36.7784 60.2273 35.692 61.6291 35.692 63.3556C35.692 63.4188 35.6977 63.4791 35.7006 63.5423C25.2197 62.4191 16.8713 54.0999 15.7416 43.655C15.7503 43.655 15.7618 43.655 15.7705 43.655C17.5053 43.655 18.9087 42.572 18.9087 41.2334C18.9087 39.8947 17.5024 38.8118 15.7705 38.8118C15.7618 38.8118 15.7503 38.8118 15.7416 38.8118C16.8713 28.3669 25.2197 20.0477 35.6977 18.9245C35.7467 20.5964 36.813 21.9322 38.1213 21.9322C39.4296 21.9322 40.4958 20.5964 40.5448 18.9245C51.0257 20.0477 59.3741 28.3669 60.5009 38.8118C60.4865 38.8118 60.4749 38.8118 60.4605 38.8118C58.7257 38.8118 57.3223 39.8947 57.3223 41.2334C57.3223 42.572 58.7286 43.655 60.4605 43.655C60.4749 43.655 60.4865 43.655 60.5009 43.655C59.3712 54.1028 51.0228 62.4219 40.5419 63.5451V63.5423Z" fill="white"/>
</g>
</g>
<defs>
<clipPath id="clip0_2737_61292">
<rect width="82" height="80" fill="white"/>
</clipPath>
</defs>
</svg>
