<svg width="179" height="80" viewBox="0 0 179 80" fill="none" xmlns="http://www.w3.org/2000/svg">
<g id="logoCont">
<g id="Group">
<g id="Group_2">
<path id="Vector" fill-rule="evenodd" clip-rule="evenodd" d="M107.685 38.6944C109.016 37.6836 110.261 36.6942 111.558 35.7734C113.98 34.0473 116.402 32.3256 118.88 30.6809C120.54 29.5802 121.529 29.7729 122.787 31.1606C124.297 32.8353 124.083 33.7433 121.931 34.4328C119.791 35.1138 117.613 35.692 115.465 36.3345C114.485 36.63 113.646 38.8486 114.228 39.6752C114.361 39.8594 114.844 39.9707 115.101 39.8936C116.513 39.4825 117.93 39.0756 119.282 38.5274C121.52 37.6194 123.724 36.6257 125.906 35.6149C126.304 35.4308 126.625 35.0153 126.895 34.647C127.545 33.7604 128.119 32.8267 128.782 31.953C129.313 31.2505 130.057 31.1563 130.883 31.4733C132.702 32.1671 133.716 33.9788 133.181 35.8077C132.886 36.8227 132.433 37.795 132.047 38.7843C131.953 39.0327 131.846 39.2812 131.889 39.6238C132.505 39.0542 133.147 38.4888 133.763 37.9192C135.937 35.9062 138.103 33.8803 140.289 31.8801C140.949 31.2762 141.599 30.5524 142.686 30.7794C144.175 31.0964 145.664 31.4947 146.537 32.801C146.811 33.2207 146.811 34.0388 146.584 34.5185C145.801 36.1888 144.856 37.7907 143.97 39.4182C143.559 40.1892 143.11 40.9344 142.733 41.7268C142.588 42.0223 142.583 42.3863 142.506 42.7247C142.588 42.7847 142.665 42.8489 142.742 42.9089C143.392 42.5876 144.115 42.3521 144.676 41.9281C147.333 39.9065 149.94 37.8207 152.584 35.7648C152.982 35.4564 153.402 35.1395 153.868 34.9468C154.48 34.6941 154.951 34.981 154.912 35.6192C154.887 36.146 154.754 36.8013 154.403 37.1525C151.741 39.8337 149.028 42.4763 146.298 45.0932C144.479 46.8321 142.262 46.8449 139.977 46.2539C138.509 45.8813 137.148 45.2645 136.07 44.1809C135.343 43.4614 135.069 42.6347 135.522 41.6668C136.181 40.2448 136.84 38.8314 137.401 37.2981C137.187 37.5251 136.994 37.765 136.763 37.9706C134.547 39.975 132.398 42.0565 130.079 43.9453C128.41 45.3073 125.701 44.3779 125.068 42.3392C124.875 41.7053 125.033 40.9644 125.068 40.2791C125.089 39.9236 125.196 39.5724 125.307 39.0199C124.935 39.2726 124.704 39.4439 124.456 39.5981C122.102 41.0115 119.761 42.4549 117.378 43.8297C115.798 44.742 114.151 44.6178 112.602 43.7398C111.814 43.2943 111.065 42.7418 110.385 42.1465C109.615 41.4741 108.883 40.7331 109.225 39.4182C107.441 40.6089 106.251 42.0308 105.532 43.8169C105.087 44.9304 104.518 45.1831 103.315 44.8662C101.518 44.3865 100.645 43.0331 100.987 41.2813C100.919 41.2214 100.85 41.1528 100.786 41.0757C100.624 41.3156 100.491 41.5854 100.294 41.7824C98.6723 43.3329 97.1231 44.9818 94.9663 45.8855C92.373 46.9691 88.3846 45.7742 86.8739 43.4742C86.4973 42.896 86.339 42.2921 86.6814 41.6539C87.2034 40.6731 87.7298 39.6966 88.3161 38.643C86.7242 40.0906 85.2349 41.5212 83.6601 42.8617C82.8427 43.5556 81.9184 44.1338 80.9897 44.7034C79.646 45.5343 77.5919 44.2794 77.2068 43.2558C77.0784 42.9046 77.104 42.4035 77.2624 42.0651C77.9 40.7202 78.6147 39.4182 79.3079 38.0948C79.5262 37.6836 79.7316 37.2553 79.8386 36.7542C78.405 37.9492 76.9885 39.157 75.5335 40.3348C73.9801 41.594 72.4181 42.8403 70.809 44.0396C68.9817 45.4016 66.581 44.9476 65.31 43.0502C65.1987 42.8917 65.1174 42.7204 64.9933 42.502C64.1546 43.2386 63.3201 43.9154 62.5498 44.6606C60.7054 46.438 58.5186 46.9777 56.0151 46.3567C54.4275 45.9669 52.9468 45.3587 51.7657 44.2152C51.0039 43.4742 50.7215 42.6347 51.2008 41.6325C51.7357 40.5147 52.2492 39.4011 52.7799 38.2789C52.9168 37.9834 53.0666 37.6965 53.2335 37.3495C52.4932 38.0348 51.8213 38.6687 51.128 39.2812C49.4034 40.8145 47.6703 42.3392 45.9371 43.864C44.7902 44.8662 43.5535 44.8876 42.2697 44.1252C41.0286 43.3843 40.3739 42.3649 40.6349 40.8959C41.2169 37.7007 42.0643 34.617 44.3195 32.0815C45.1711 31.1263 45.8558 31.0664 46.9898 31.7045C48.7144 32.6725 49.3735 34.1073 48.8214 35.949C48.5347 36.9127 48.0939 37.8249 47.7216 38.7672C47.6189 39.0199 47.5077 39.2597 47.5547 39.6195C48.1539 39.0713 48.7572 38.5359 49.3521 37.9834C51.5431 35.949 53.7256 33.9017 55.9424 31.8887C56.6014 31.2848 57.2476 30.5567 58.3303 30.7837C59.8195 31.0878 61.3045 31.499 62.186 32.7967C62.4685 33.2164 62.4727 34.0345 62.2459 34.5142C61.4628 36.1846 60.5171 37.7821 59.6227 39.4139C59.2118 40.1763 58.7711 40.9387 58.3859 41.7139C58.2361 42.018 58.2276 42.3735 58.1506 42.7033C58.2276 42.7632 58.296 42.8275 58.3688 42.8874C58.9251 42.6347 59.5499 42.4677 60.0249 42.1122C62.2545 40.4718 64.4455 38.7672 66.6708 37.1097C68.1515 36.0047 70.0687 34.0602 72.2983 34.9382C75.0713 36.3687 72.7048 39.0113 71.9902 39.718C72.0372 39.778 72.0929 39.8422 72.1399 39.9022C72.5251 39.6409 72.9445 39.4139 73.2868 39.1141C76.1155 36.6685 78.9228 34.2015 81.7558 31.7645C83.6002 30.1712 85.3804 30.1969 87.3147 31.7645C88.3461 32.5954 88.5643 33.2893 87.8625 34.39C86.9082 35.889 85.8041 37.2896 84.7685 38.7372C84.623 38.9385 84.4646 39.1355 84.4047 39.4225C84.5887 39.2512 84.7899 39.0841 84.9696 38.9128C87.5415 36.4886 90.0963 34.0473 92.6939 31.6532C94.6624 29.8329 97.4697 30.2997 98.8563 32.6297C99.4126 33.5719 99.1986 34.3943 98.5482 35.1738C97.6152 36.2788 96.6609 37.3667 95.6981 38.4503C94.6667 39.6238 93.6097 40.7802 92.6041 41.9623C92.3345 42.2707 92.1504 42.6562 91.9365 42.9988C91.9964 43.0759 92.052 43.1444 92.1076 43.2172C92.4842 43.0159 92.8908 42.8532 93.2331 42.6133C96.1346 40.626 98.9932 38.5745 101.942 36.6514C103.136 35.8762 103.953 34.9339 104.625 33.7176C109.396 25.0702 114.776 16.7954 121.22 9.20599C123.673 6.32781 126.266 3.5867 129.514 1.49231C131.56 0.164586 133.729 -0.452165 136.16 0.374453C138.501 1.16252 139.947 2.77293 140.692 4.9958C141.013 5.97232 140.576 6.86319 140.11 7.71122C138.599 10.4309 136.459 12.6795 134.26 14.8638C126.869 22.2006 118.678 28.6593 110.235 34.814C108.896 35.7948 108.164 36.8698 107.659 38.6944V38.7072L107.685 38.6944ZM113.107 29.593C113.149 29.6273 113.184 29.6616 113.222 29.7044C113.346 29.6144 113.475 29.5331 113.595 29.4346C121.195 22.8516 128.448 15.9645 134.902 8.31084C135.946 7.07305 136.733 5.61684 137.585 4.22915C137.743 3.97645 137.598 3.54815 137.585 3.19695C137.247 3.27832 136.87 3.29117 136.575 3.44536C136.19 3.63809 135.856 3.92077 135.539 4.20773C134.572 5.08574 133.541 5.92521 132.685 6.89317C127.584 12.6795 122.5 18.483 117.446 24.3035C115.948 26.0296 114.549 27.8327 113.107 29.593Z" fill="white"/>
<path id="Vector_2" fill-rule="evenodd" clip-rule="evenodd" d="M70.8876 8.49369C67.708 10.4296 64.5455 12.2927 61.4643 14.2586C53.9625 19.047 46.9486 24.4393 40.1229 30.0671C37.5681 32.1744 35.0347 34.2987 32.5398 36.4616C32.176 36.77 31.8936 37.3225 31.8465 37.7808C31.4956 41.0787 31.5598 44.3638 32.3815 47.606C33.2759 51.118 35.6894 53.1482 39.1772 54.0562C43.7904 55.2511 48.2324 54.4117 52.576 52.7841C54.4974 52.0646 56.3247 51.1694 57.8397 49.7689C58.3275 49.3149 58.7512 49.4263 58.871 50.073C58.9651 50.6041 58.9737 51.208 58.794 51.7091C57.4631 55.5424 54.7628 58.2364 50.9327 59.7269C45.5578 61.8212 40.5894 60.9432 36.2843 57.1656C31.6026 53.0582 28.8082 47.8715 27.2932 41.991C27.2162 41.704 27.1477 41.4128 27.0536 41.0444C26.7926 41.2714 26.5743 41.4342 26.3732 41.6355C18.5333 49.2078 10.6934 56.7759 2.84071 64.3482C2.33146 64.845 1.865 65.6331 0.996282 65.3461C0.157518 65.072 0.136117 64.1855 0.0762054 63.4916C-0.142044 61.2088 0.101883 58.9645 0.893574 56.8059C1.09471 56.2491 1.49697 55.7051 1.94203 55.294C9.57649 48.0814 17.2366 40.886 24.9182 33.7077C25.3718 33.2879 25.3846 32.8768 25.3761 32.3757C25.1407 24.7691 24.8754 17.1796 24.7299 9.57301C24.6742 7.11885 24.9224 4.66041 25.0508 2.20197C25.1107 1.16549 25.6286 0.79287 26.7112 0.861398C28.3845 0.972756 31.3715 3.15708 31.3373 5.2429C31.2945 9.06761 31.303 12.8966 31.1918 16.717C31.0805 20.6745 30.8708 24.6363 30.6954 28.5938C30.7724 28.628 30.8451 28.6623 30.9222 28.7051C31.1747 28.5124 31.4443 28.3197 31.6925 28.1227C38.7021 22.3106 45.8188 16.6442 53.419 11.5603C56.7955 9.29889 60.326 7.26019 64.3743 6.26225C65.3415 6.02669 66.3771 5.9239 67.3742 5.95816C69.0902 6.01384 70.2927 6.88757 70.8961 8.49369L70.8833 8.50226L70.8876 8.49369Z" fill="white"/>
<path id="Vector_3" fill-rule="evenodd" clip-rule="evenodd" d="M63.8867 58.0108C65.0036 56.3062 62.2135 46.9864 130.821 53.3724C145.88 54.533 157.037 50.4728 157.037 46.4082C161.5 49.3078 160.49 53.4494 158.355 54.5031C138.271 64.431 82.1213 47.8002 63.8953 58.0151H63.8867V58.0108Z" fill="white"/>
</g>
</g>
</g>
</svg>
