<svg width="64" height="80" viewBox="0 0 64 80" fill="none" xmlns="http://www.w3.org/2000/svg">
<path d="M0.0446525 0C0.0420326 4.95493 0.0191496 42.3561 0.00719972 61.8405C0.00321993 68.3295 5.26254 73.5678 11.7516 73.5678H25.4747C31.54 74.3719 31.5056 79.3735 31.54 80C31.54 80 31.54 74.3719 37.6054 73.5678H51.3357C57.822 73.5678 63.0801 68.3097 63.0801 61.8235V0H0.0446525Z" fill="#2B2B2B"/>
<path d="M0.844213 0.8H62.2801V61.8235C62.2801 67.8679 57.3801 72.7678 51.3357 72.7678H37.6054H37.5526L37.5003 72.7748C34.1866 73.214 32.4584 74.998 31.5926 76.7079C31.5558 76.6312 31.5172 76.5542 31.4765 76.4772C30.6014 74.8181 28.8688 73.2108 25.5798 72.7748L25.5274 72.7678H25.4747H11.7516C5.7024 72.7678 0.803492 67.8859 0.8072 61.841C0.818644 43.1812 0.840115 8.08888 0.844213 0.8Z" stroke="white" stroke-opacity="0.08" stroke-width="1.6"/>
<path d="M33.448 12.5244L31.3803 11.4117L29.347 12.5244L30.6083 10.5763L29.3125 8.45025L31.3803 9.77519L33.448 8.41602L32.2556 10.5763L33.448 12.5244Z" fill="#EEEE20"/>
<path d="M52.3727 21.1933L50.267 20.1149L48.2371 21.231L49.4985 19.2795L48.1992 17.1226L50.267 18.4784L52.3347 17.085L51.1802 19.2795L52.3727 21.1933Z" fill="#EEEE20"/>
<path d="M60.9597 39.7509L58.892 38.6725L56.8587 39.7852L58.12 37.8371L56.8242 35.6768L58.892 37.036L60.9597 35.6426L59.7673 37.8371L60.9597 39.7509Z" fill="#EEEE20"/>
<path d="M52.2683 58.2733L50.2006 57.1949L48.1673 58.3076L49.4286 56.3595L48.1328 54.1992L50.2006 55.5584L52.2683 54.1992L51.0759 56.3595L52.2683 58.2733Z" fill="#EEEE20"/>
<path d="M33.448 66.8056L31.3803 65.7237L29.347 66.8398L30.6083 64.8884L29.3125 62.7315L31.3803 64.0873L33.448 62.6973L32.2556 64.8884L33.448 66.8056Z" fill="#EEEE20"/>
<path d="M14.6902 58.3076L12.6225 57.1949L10.5892 58.3076L11.8539 56.3595L10.5547 54.2335L12.6225 55.5584L14.6902 54.1992L13.5357 56.3595L14.6902 58.3076Z" fill="#EEEE20"/>
<path d="M6.1778 39.6825L4.11004 38.6006L2.04228 39.7167L3.30361 37.7653L2.00781 35.6084L4.11004 36.9641L6.14334 35.6084L4.98539 37.7653L6.1778 39.6825Z" fill="#EEEE20"/>
<path d="M36.4253 28.0193C36.4253 28.0193 37.8969 28.0878 38.7722 27.9851C40.3851 27.427 42.4528 23.5994 44.3793 23.6679C46.2024 23.6679 56.7859 23.6679 56.7859 23.6679L52.0197 28.4028H44.7687C44.7687 28.4028 39.5821 33.3807 39.0548 33.6957C38.5654 34.0106 38.0726 34.0791 38.0726 34.0791L30.5391 34.0106L32.0451 26.9443L36.4253 28.0193Z" fill="#EEEE20"/>
<path d="M9.33203 34.7377C9.33203 34.7377 9.50779 33.7277 9.92824 33.1012C10.3487 32.4062 11.996 30.8382 11.996 30.8382C11.996 30.8382 16.9724 28.3321 17.2171 28.226C17.4618 28.1198 17.8478 28.0513 18.0925 28.226C18.3371 28.4006 22.2969 32.5089 22.2969 32.5089C22.2969 32.5089 23.6651 30.732 24.854 30.3486C25.5536 29.5132 26.8184 28.1541 27.6938 27.5994C27.6938 26.3806 27.9729 24.5011 27.9729 24.5011C27.9729 24.5011 25.5192 24.4326 24.7851 24.2922C23.317 23.878 20.8288 20.0812 19.9879 19.2458C19.533 18.8966 19.3228 18.4789 19.2883 18.2701C19.3951 17.8182 19.7777 17.7463 19.7777 17.7463C19.7777 17.7463 19.9534 17.3971 20.305 17.3971C20.5152 16.9794 20.8322 16.9794 21.1458 17.0136C21.4974 16.6302 21.9178 16.9075 21.9178 16.9075L22.5485 17.2567C22.5485 17.2567 22.6898 18.0236 22.3383 18.4755C22.6553 19.5539 24.9678 20.7727 25.7742 22.2004C26.8598 22.2004 27.9833 22.2004 29.0344 22.2689C29.8753 22.1627 31.9086 23.5561 31.9086 23.5561L32.1188 23.5904L32.1877 22.6146C32.1877 22.6146 31.24 22.4743 31.2055 22.1285C31.1366 21.8854 31.3813 21.4335 31.3813 21.4335L31.7328 21.1562L31.8017 20.67C31.8017 20.67 31.4502 20.4954 31.4502 20.3208C31.4502 20.1462 33.0286 18.4755 33.0286 18.4755C33.0286 18.4755 34.0797 18.4413 34.7793 18.4755C35.4444 18.4755 36.1819 19.102 36.3577 19.4855C36.3922 19.6601 36.3577 20.7043 36.3577 20.7043H37.3054V21.1904L36.4301 22.0258L36.0785 22.0943L36.0441 22.5462L35.6581 22.9296L35.2377 22.9639C35.2377 22.9639 35.2377 23.45 35.2721 23.8335C36.2543 23.7992 38.0395 23.7273 39.0906 24.6003C40.283 24.6003 42.4541 24.6688 42.4541 24.6688C42.4541 24.6688 43.5742 24.7373 44.1704 24.775C45.573 24.8811 48.3748 25.018 48.3748 25.018L49.0055 24.4257L50.4081 24.46L51.0043 25.1207L50.9699 25.5384C50.9699 25.5384 50.7252 25.5727 50.6528 25.6069C50.5839 25.8157 50.4426 25.9903 50.2324 26.0588C50.2324 26.2334 50.0566 26.408 49.9153 26.4422C49.774 26.7196 49.4604 26.8599 49.4604 26.8599L48.1991 26.8942L47.6718 26.4422L40.5966 26.6271L40.1762 26.8702L37.5467 26.836C37.5467 26.836 34.3589 30.8039 32.1843 31.92C30.0097 33.0361 30.4335 35.8538 30.5714 36.6207C30.7127 37.3533 30.9918 39.161 34.1452 40.4517C37.333 41.739 39.6833 44.3512 39.5765 46.5799C41.6787 47.6926 43.6776 50.6198 43.6776 50.6198L43.7465 53.7182L46.376 53.6839L46.4105 53.927L44.7666 55.3512H46.4828L43.1193 58.8331L41.5788 56.9535V56.0839L40.1072 54.6562L40.4932 49.4695L39.3732 48.0418C39.3732 48.0418 37.0263 51.0375 34.9206 52.1159C35.9372 53.0574 38.1463 56.0497 38.4255 56.6077C38.7046 57.1658 38.4944 57.6519 37.9361 57.6861C37.3743 57.6861 32.7494 57.6177 32.7494 57.6177L33.6593 58.0354L32.0809 59.2199L30.4335 59.1857L30.468 60.6818L27.3147 60.716L28.7518 58.4873L30.468 56.8166L30.6782 56.6077H30.1889L28.8931 57.6177C28.8931 57.6177 28.4726 57.6177 28.0522 57.5492C27.07 57.063 27.0011 57.9669 27.3147 58.2819C27.3836 58.5968 27.3836 59.2234 27.3836 59.2234H24.02L25.3503 57.063L28.5381 54.9404L33.163 54.8L28.993 50.5513C28.993 50.5513 28.9585 49.5756 28.9241 48.0795C26.8219 46.3745 20.0568 43.2762 20.0913 38.644C19.8121 38.6782 19.2159 38.6098 19.2159 38.6098L16.3073 35.0595L16.4141 37.7744L17.4652 40.1778L16.869 40.3866L16.9759 40.6639L17.7478 40.5236L18.7989 42.9612L16.3107 42.6462L14.5945 39.7567L14.6634 31.9235L15.6456 31.2969L19.116 33.8749L16.9414 30.5335L14.2774 31.3346L13.3297 32.8923H12.2097L11.8926 33.2758L12.382 33.4162V34.8096L9.33203 34.7377Z" fill="#EEEE20"/>
<path d="M19.5974 18.5124C19.3183 18.4781 19.2459 18.9985 18.6876 19.1046C13.7112 19.1046 13.9559 22.2407 13.8835 22.6207C13.849 22.9699 13.9524 25.2671 13.9524 26.034C13.7077 27.8451 12.3051 28.4032 12.3051 28.4032V28.8551C12.3051 28.8551 12.2706 29.1701 12.8324 28.8893C13.3941 28.612 14.5486 27.2186 14.621 26.1025C14.6899 24.9898 14.621 23.8737 14.7623 22.6892C15.6376 19.382 18.6876 20.635 19.9489 19.0327C19.7387 18.7212 19.8766 18.5843 19.5974 18.5124Z" fill="#EEEE20"/>
<path d="M21.9856 17.1905C22.0201 16.9132 22.5474 17.0159 22.861 16.5298C24.5772 11.9353 27.4859 13.2568 27.8374 13.3253C28.2234 13.4314 30.3256 14.3352 31.0631 14.5783C32.8517 14.996 33.8684 13.9175 33.8684 13.9175L34.2888 14.0579C34.2888 14.0579 34.6059 14.1264 34.1475 14.5441C33.6582 14.996 31.9729 15.5883 30.8874 15.2391C29.8018 14.9241 28.7851 14.4722 27.5927 14.1606C24.1947 13.8114 24.2981 17.0844 22.3372 17.6767C22.1235 17.3651 21.9477 17.4678 21.9856 17.1905Z" fill="#EEEE20"/>
<path d="M40.3494 34.2498L39.9669 34.6332L39.7188 34.3182L40.0358 34.0409L39.7188 33.7636L42.3483 31.4664L42.7687 31.4287L52.3355 22.274L51.9875 22.0651L54.6859 20.1855L53.0041 22.8286L52.6871 22.5513L43.1202 31.7437L43.0858 32.2298L40.5596 34.6332L40.3494 34.2498Z" fill="#EEEE20"/>
<path d="M22.1992 21.0215C22.1992 21.0215 23.9155 23.1818 25.2147 23.6337C26.5105 23.8083 28.1923 23.911 28.1923 23.911L28.1578 24.2945C28.1578 24.2945 25.2147 24.226 24.653 24.0514C23.5639 23.4557 22.1992 21.0215 22.1992 21.0215Z" fill="#F59D2A"/>
<path d="M31.3776 25.2324C28.3621 27.0435 31.0984 27.6358 31.0984 27.6358C31.0984 27.6358 30.5367 27.0778 30.5367 26.7662C30.5022 26.4512 30.7124 26.2082 31.3776 25.2324Z" fill="#F59D2A"/>
<path d="M28.7513 27.7031C28.3653 28.5385 28.7168 28.6789 28.7168 28.6789C28.7168 28.6789 28.8926 28.7473 28.8926 28.8535C28.8926 28.9938 28.927 29.3054 28.9994 29.2711C29.1062 29.2369 29.1062 28.5761 29.1062 28.5761C29.1062 28.5761 28.9305 28.5077 28.896 28.4015C28.8581 28.3296 28.7513 27.7031 28.7513 27.7031Z" fill="#F59D2A"/>
<path d="M31.375 28.9241C32.2504 28.5404 32.2159 28.5404 32.6019 28.6089C33.0223 28.6431 33.8977 28.6431 33.8977 28.6431C33.8977 28.6431 33.3015 28.9926 32.9155 29.0611C32.5329 29.1331 31.375 28.9241 31.375 28.9241Z" fill="#F59D2A"/>
<path d="M31.375 29.7595C31.375 29.7595 31.5508 29.41 31.9712 29.41C32.3916 29.3757 32.8466 29.4443 33.1636 29.3757C33.4807 29.3072 33.4428 29.2695 33.4428 29.2695C33.4428 29.2695 32.881 29.7561 32.5674 29.828C32.2848 29.8657 31.375 29.7595 31.375 29.7595Z" fill="#F59D2A"/>
<path d="M31.3781 30.7684C31.2713 30.7684 31.0266 30.4532 31.3781 30.3162C31.7985 30.1757 31.7985 30.4224 32.3947 30.3504C32.536 30.3162 32.6394 30.2819 32.7463 30.21C32.536 30.5594 32.1501 30.6965 32.1501 30.6965C32.0432 30.7342 31.4849 30.7684 31.3781 30.7684Z" fill="#F59D2A"/>
<path d="M12.3126 34.703V33.5185L11.9266 33.3781L12.1713 32.7516L13.2913 32.7858L13.3258 32.5427H12.5538V32.4024L13.4292 32.4366L13.4637 32.1935L12.7985 32.1593V32.0532H13.8531V31.8101H13.188L13.3292 31.567L14.0668 31.5328C14.0668 31.5328 15.3625 30.5228 16.872 30.4886C16.9409 30.2455 16.872 29.7217 16.872 29.7217L13.1914 31.3582C13.1914 31.3582 11.8956 32.0532 11.2305 33.4466C11.6509 33.6554 12.0369 33.6896 12.0369 33.6896L11.5475 34.6996H12.3126V34.703Z" fill="#F59D2A"/>
<path d="M15.6082 33.8672L16.3078 35.0518L16.3422 37.9413L17.3589 40.1701L16.7282 40.485L16.7627 41.0431C16.7627 41.0431 15.9218 40.937 15.6426 37.9447C15.3256 34.9833 15.6082 33.8672 15.6082 33.8672Z" fill="#F59D2A"/>
<path d="M19.1152 33.6924C19.1152 33.6924 20.0629 34.5963 20.728 33.8328C21.3587 33.0659 22.3409 32.4736 22.3409 32.4736C22.3409 32.4736 21.0796 34.4251 20.9038 34.5278C20.728 34.5963 19.9216 34.7366 19.0118 33.7267C19.0084 33.6582 19.1152 33.6924 19.1152 33.6924Z" fill="#F59D2A"/>
<path d="M20.0906 38.6018C20.0906 38.6018 20.8971 38.2523 22.0171 39.0883C21.9827 39.263 21.7724 39.1225 21.7724 39.1225C21.7724 39.1225 21.2107 38.6703 20.1251 38.7731C20.0562 38.7765 20.0906 38.6018 20.0906 38.6018Z" fill="#F59D2A"/>
<path d="M29.2405 30.1758C29.2405 30.1758 29.6954 31.2885 30.0125 31.4631C30.3295 31.6377 30.9602 31.5315 30.9602 31.5315L31.3807 31.1823H32.8522C32.8522 31.1823 29.1716 32.7127 29.4887 35.568C29.7333 36.6122 30.3985 37.7968 30.3985 37.7968C30.3985 37.7968 29.5231 36.2287 29.3818 35.6741C28.9614 34.178 29.3474 32.4011 29.3474 32.4011C29.3474 32.4011 28.5719 31.3261 29.2405 30.1758Z" fill="#F59D2A"/>
<path d="M26.0508 58.6231L26.5781 58.065L26.5436 56.9523L28.8216 55.6651L30.8549 55.6993V55.5247L35.9726 55.4562C35.9726 55.4562 36.5343 55.3878 36.2517 54.8982C35.9726 54.4463 35.0938 52.9844 35.0938 52.9844L37.0582 55.4905C37.0582 55.4905 37.6544 56.2573 36.7411 56.2573C35.8279 56.2573 31.6958 56.2231 31.6958 56.2231L31.0651 56.0485L29.5935 56.0143L29.3489 55.9458L29.2799 56.0143L29.7693 56.2916L29.7348 56.432H29.3144L28.9629 56.1889H28.7527V56.295L29.1731 56.5723V56.8154H28.856L28.3667 56.4662L27.2087 57.0927C27.2087 57.0927 26.9296 57.4077 27.1743 57.8596C27.3845 58.3115 27.2432 58.6607 27.2432 58.6607L26.0508 58.6231Z" fill="#F59D2A"/>
<path d="M34.6027 51.9721C34.358 51.6228 33.4826 50.9963 34.6716 50.5444C36.0019 49.9864 37.1253 49.2571 38.2109 48.4902C36.1432 50.3356 34.7061 50.6848 34.4614 50.8936C34.0409 51.2086 34.7405 51.8351 34.7405 51.8351L36.4223 54.2385V54.7246C36.4223 54.7246 34.8129 52.3213 34.6027 51.9721Z" fill="#F59D2A"/>
<path d="M40.8438 48.7344C40.8438 48.7344 41.6502 49.0836 41.6502 50.3024C41.6846 52.0416 41.3331 52.74 42.8081 53.4692C42.3188 53.4008 41.4055 53.3289 41.0919 52.6339C40.7369 51.9355 41.5778 49.6382 40.8438 48.7344Z" fill="#F59D2A"/>
<path d="M31.7309 27.6356C31.7309 27.6356 33.3093 27.6356 33.8331 27.6356C34.3569 27.6356 36.5315 24.7803 37.6895 24.7461C37.6895 25.1295 37.269 25.2322 37.269 25.2322L42.7004 25.3007L41.7906 25.9615L47.1185 26.0676L47.6079 26.5538H40.0743L40.4948 26.1703L36.9554 26.0642C36.9554 26.0642 36.6039 26.0984 36.3592 26.273C36.149 26.4819 34.8532 28.1526 34.2915 28.1868C33.6608 28.2553 31.3828 28.1526 31.3828 28.1526L31.7309 27.6356Z" fill="#F59D2A"/>
<path d="M31.375 23.527C31.375 23.527 32.0057 23.6332 32.1125 24.2597C32.147 24.4343 32.3917 24.2597 32.3917 24.2597L33.4083 23.0066L33.1292 22.589L33.5496 21.7194C33.5496 21.7194 33.5841 20.0486 32.7776 19.2817C32.3917 18.9325 32.9879 19.2475 32.9879 19.2475L33.267 19.2133L33.3015 19.0044C33.3015 19.0044 33.0223 18.6895 33.1257 18.6895C33.2325 18.6895 33.3359 18.6895 33.6874 19.0387C33.9321 19.9802 33.4083 22.0686 34.8075 22.6608C35.4037 22.9039 34.4215 22.767 34.4215 22.767C34.4215 22.767 33.5806 23.7427 34.1424 24.02C34.842 24.3692 34.8799 24.0543 34.8799 24.0543L34.9143 24.2973L32.6708 24.3316C32.6708 24.3316 31.8299 24.5404 31.7231 24.3658C31.4439 23.9789 31.375 23.527 31.375 23.527Z" fill="#F59D2A"/>
<path d="M33.9766 19.0703C33.9766 19.0703 33.9766 20.3234 34.2557 20.5664C34.5349 20.7753 34.4315 20.1488 34.4315 20.1488L33.9766 19.0703Z" fill="#F59D2A"/>
<path d="M34.3555 19.2783C34.3555 19.2783 34.4968 20.6717 35.1964 20.7744C35.9339 20.8429 36.0028 20.7744 36.0028 20.7744L35.8615 20.4971C35.8615 20.4971 35.4755 20.6033 35.1619 20.4287C34.8483 20.2541 34.3555 19.2783 34.3555 19.2783Z" fill="#F59D2A"/>
<path d="M32.3945 19.7309C32.3945 19.7309 32.6392 19.6967 32.6737 19.4534C32.7081 19.2444 33.201 20.2894 33.201 20.2894L32.3945 19.7309Z" fill="#F59D2A"/>
<path d="M31.6953 21.9267C31.8366 21.5773 32.4673 21.125 32.4673 21.125C32.4673 21.125 32.5017 21.4025 32.4673 21.4745C32.4294 21.543 31.6953 21.9267 31.6953 21.9267Z" fill="#F59D2A"/>
<path d="M31.6562 22.1688C31.6562 22.1688 31.832 22.203 32.0767 21.8914C32.3214 21.6141 32.952 21.6484 32.952 21.6484C32.952 21.6484 33.1623 21.6141 33.1967 21.2992C33.1967 20.9842 32.8797 20.7411 33.021 20.6042C33.1278 20.4638 33.2657 20.2207 33.2657 20.3269C33.2657 20.3953 33.5103 21.5114 33.407 21.686C33.2657 21.8949 32.9865 22.2783 32.9865 22.4872C32.952 22.6618 33.021 22.8021 33.021 22.8021C33.021 22.8021 32.2525 22.4495 32.1146 22.4495C31.9388 22.4153 32.604 22.1345 32.604 22.1345C32.604 22.1345 33.1313 21.9257 33.1657 21.7853C33.2346 21.6107 32.8142 21.9599 32.6763 21.9599C32.5006 21.9257 32.2214 22.1345 32.1146 22.203C32.0078 22.2407 31.6562 22.1688 31.6562 22.1688Z" fill="#F59D2A"/>
<path d="M34.2872 21.2982C34.2872 21.2982 35.0247 21.8567 35.9001 21.8567C36.741 21.8567 35.6899 21.9629 35.6899 21.9629C35.6899 21.9629 34.463 21.8224 34.3217 21.5449C34.1838 21.2639 34.2872 21.2982 34.2872 21.2982Z" fill="#F59D2A"/>
<path d="M31.9713 20.3228C32.3573 20.6381 32.1126 20.7751 32.1126 20.7751C32.0782 20.7751 31.7611 20.7751 31.7956 20.6346C31.83 20.5284 31.83 20.2852 31.83 20.2852L32.0058 20.3537L31.9713 20.3228Z" fill="#F59D2A"/>
<path d="M38.9141 32.1612L40.8095 32.127L40.5993 32.336H38.9141V32.1612Z" fill="#F59D2A"/>
<path d="M40.3125 31.0107H42.0322L41.8564 31.1855H40.3125V31.0107Z" fill="#F59D2A"/>
<path d="M41.8242 29.583L43.506 29.6207L43.3992 29.7235H41.8242V29.583Z" fill="#F59D2A"/>
<path d="M44.8373 28.4023H42.7695V28.5428H44.8373V28.4023Z" fill="#F59D2A"/>
<path d="M53.9281 26.4512H50.5508V26.6567H53.9281V26.4512Z" fill="#F59D2A"/>
<path d="M55.4587 24.9199H51.9883V25.0912H55.4587V24.9199Z" fill="#F59D2A"/>
<path d="M47.5312 25.7902L48.5824 25.756L49.3888 24.8145L49.6335 24.7803L50.302 25.2664L50.1952 25.441L49.6335 24.9549L49.3543 25.1637L49.985 25.6499L49.8816 25.756L49.213 25.3007L48.9683 25.5472L49.6335 26.0333L49.5645 26.1018L48.8994 25.6156L48.7237 25.8587L49.3543 26.4168L48.5824 25.8929L48.4445 26.0676L48.865 26.6941H48.093L48.0241 26.2079L47.5312 25.7902Z" fill="#F59D2A"/>
<path d="M19.7452 17.7469L20.2345 18.3734L20.5137 18.3392L20.5481 18.2331L20.0932 17.5723L20.1622 17.5038L20.5826 18.1304L20.8997 18.1646V17.9215L20.4103 17.2265L20.5171 17.1923L21.0065 17.8188L21.2856 17.6784L21.0065 17.0177L21.1133 16.9492L21.4304 17.3327C21.4304 17.3327 21.7095 17.3669 21.7095 17.4011C21.7095 17.4696 21.6751 17.7161 21.6751 17.7161L21.1857 18.0996L21.1512 18.483L22.3437 19.8422L20.941 18.5891L20.1001 18.798L20.1346 18.3803L19.6797 17.8222L19.7452 17.7469Z" fill="#F59D2A"/>
<path d="M42.9062 24.5709H44.3433L47.9171 24.814L48.6546 24.2217L50.2296 24.1875L50.5466 24.7798L50.5811 25.3378L49.144 26.7997H47.9516L46.7971 28.087L46.2353 28.0528L47.6035 26.6594H49.1095L50.4743 25.2659L50.4398 24.7798L50.0917 24.2936L48.758 24.3279L48.024 24.9544L44.3433 24.7455L42.9062 24.6737V24.5709Z" fill="#F59D2A"/>
<path d="M30.6398 33.6929C30.6398 33.6929 31.305 32.2995 32.9523 31.4983C34.1102 30.9403 36.7363 27.7734 36.7363 27.7734C36.7363 27.7734 34.6341 30.2453 32.9867 31.0122C31.4083 31.3614 29.7266 33.6929 29.7266 33.6929H30.6398Z" fill="#F59D2A"/>
<path d="M50.2695 24.2563L50.9381 23.667L51.4964 23.7013L50.4453 24.6058L50.2695 24.2563Z" fill="#F59D2A"/>
</svg>
