<svg width="80" height="80" viewBox="0 0 80 80" fill="none" xmlns="http://www.w3.org/2000/svg">
<rect width="80" height="80" rx="40" fill="white"/>
<path fillRule="evenodd" clip-rule="evenodd" d="M52.1151 57.5957L59.2062 22.1575C59.2062 19.7979 55.9356 21.2285 55.9506 21.2285L16.1539 36.7133C16.1539 36.7133 14.266 37.3474 14.4146 38.5272C14.5633 39.707 16.0946 40.2527 16.0946 40.2527L26.0993 43.6005L26.1163 43.6086C26.1145 43.603 26.1139 43.6003 26.1139 43.6003L50.1524 28.4546C50.1524 28.4546 51.5349 27.6139 51.4904 28.4546C51.4904 28.4546 51.743 28.6019 50.9996 29.2952C50.2563 29.9884 32.1197 46.1516 32.1197 46.1516L32.0812 46.4735L48.3985 58.8789C51.1192 60.0587 52.1151 57.5957 52.1151 57.5957Z" fill="#0197E1"/>
</svg>
