<svg width="50" height="50" viewBox="0 0 50 50" fill="none" xmlns="http://www.w3.org/2000/svg">
<rect width="50" height="50" rx="25" fill="white"/>
<path fill-rule="evenodd" clip-rule="evenodd" d="M32.568 35.998L37 13.8492C37 12.3744 34.9559 13.2685 34.9652 13.2685L10.0923 22.9466C10.0923 22.9466 8.91233 23.3429 9.00521 24.0802C9.09817 24.8176 10.0552 25.1587 10.0552 25.1587L16.3082 27.251L16.3188 27.2561C16.3177 27.2526 16.3173 27.2509 16.3173 27.2509L31.3413 17.7849C31.3413 17.7849 32.2054 17.2594 32.1776 17.7849C32.1776 17.7849 32.3355 17.8769 31.8708 18.3102C31.4063 18.7435 20.0709 28.8455 20.0709 28.8455L20.0469 29.0467L30.2451 36.8001C31.9456 37.5374 32.568 35.998 32.568 35.998Z" fill="#0197E1"/>
</svg>
