<svg width="88" height="88" viewBox="0 0 88 88" fill="none" xmlns="http://www.w3.org/2000/svg">
<path d="M51.4894 62.2554C51.4894 76.4738 40.2388 88.0001 26.3606 88.0001C23.4937 88.0001 20.7389 87.5082 18.1723 86.6024C17.1982 86.2586 16.7111 86.0867 16.3835 86.0214C16.0385 85.9526 15.8518 85.9335 15.5 85.9311C15.1659 85.9289 14.7834 85.9811 14.0182 86.0856L1.42184 87.8059C0.732235 87.9001 0.15973 87.2785 0.31016 86.599L2.86161 75.073C3.04917 74.2258 3.14295 73.8021 3.16463 73.4273C3.18726 73.036 3.17661 72.8185 3.11584 72.4313C3.05763 72.0604 2.88027 71.5175 2.52555 70.4316C1.6864 67.8628 1.2318 65.1135 1.2318 62.2554C1.2318 48.037 12.4823 36.5107 26.3606 36.5107C40.2388 36.5107 51.4894 48.037 51.4894 62.2554Z" fill="url(#paint0_linear_413_3375)" fill-opacity="0.32"/>
<path d="M50.5523 -6.2672e-05C71.2336 -6.3576e-05 87.9991 16.3644 87.9991 36.5509C87.9991 40.7209 87.2837 44.7278 85.9661 48.4611C85.466 49.878 85.2159 50.5865 85.1209 51.063C85.0209 51.5648 84.9932 51.8364 84.9897 52.3481C84.9864 52.834 85.0624 53.3905 85.2144 54.5034L87.6107 72.0499C87.7991 73.4291 86.556 74.5741 85.1969 74.2732L69.1961 70.7312C67.9637 70.4584 67.3475 70.322 66.8023 70.2905C66.2331 70.2575 65.9168 70.273 65.3536 70.3614C64.8141 70.4461 64.0243 70.7041 62.4449 71.22C58.7085 72.4406 54.7095 73.1018 50.5523 73.1018C29.871 73.1018 13.1055 56.7374 13.1055 36.5509C13.1055 16.3644 29.871 -6.1768e-05 50.5523 -6.2672e-05Z" fill="url(#paint1_linear_413_3375)" fill-opacity="0.32"/>
<rect x="31.625" y="30.25" width="39.875" height="2.75" rx="1.375" fill="white"/>
<rect x="31.625" y="38.5" width="23.375" height="2.75" rx="1.375" fill="white"/>
<defs>
<linearGradient id="paint0_linear_413_3375" x1="-8.92989" y1="102.519" x2="45.1542" y2="8.68191" gradientUnits="userSpaceOnUse">
<stop stop-color="#FF0000" stop-opacity="0.19"/>
<stop offset="0.769802" stop-color="#FFE600"/>
</linearGradient>
<linearGradient id="paint1_linear_413_3375" x1="109.117" y1="87.8825" x2="-27.3728" y2="9.21478" gradientUnits="userSpaceOnUse">
<stop stop-color="#FF0000" stop-opacity="0.19"/>
<stop offset="0.769802" stop-color="#FFE600"/>
</linearGradient>
</defs>
</svg>
