<svg width="52" height="77" viewBox="0 0 52 77" fill="none" xmlns="http://www.w3.org/2000/svg">
<g id="logoCont">
<g id="Logo color">
<g id="Group">
<path id="Vector" d="M0 0C11.21 9.91933 22.459 19.7997 33.6801 29.7191C30.5925 32.5118 27.4492 35.2378 24.3282 37.9917C26.2476 39.7497 28.217 41.452 30.1752 43.1655C37.452 36.7844 44.6398 30.3032 51.9833 24C52.0056 41.4242 51.9722 58.8428 52 76.2615C48.6231 76.3338 45.2406 76.2726 41.8637 76.2949C37.9694 72.8512 34.064 69.4242 30.1752 65.975C26.2253 69.3686 22.4145 72.9346 18.4089 76.2503C16.1057 76.356 13.8025 76.2726 11.4993 76.2782C16.4506 71.6996 21.6134 67.3435 26.6314 62.8317C25.3129 61.6968 23.9889 60.5619 22.7149 59.3825C22.3366 59.0542 22.5146 58.4868 22.4534 58.0584C22.4701 56.3727 22.459 54.6871 22.4757 53.0014C25.0904 55.1711 27.5994 57.4687 30.1363 59.7218C32.7566 57.5355 35.2211 55.1655 37.8637 53.007C37.8581 54.9152 37.9026 56.8234 37.8637 58.7316C37.9305 59.1766 37.5633 59.4492 37.2796 59.7107C36.089 60.751 34.9152 61.8081 33.7024 62.8261C36.7288 65.5466 39.822 68.2003 42.8428 70.9263C43.9944 72.1391 45.8581 71.4325 47.338 71.5438C47.3157 59.1266 47.3102 46.7093 47.3435 34.2921C41.6078 39.2434 35.9944 44.3394 30.2587 49.2907C30.0918 49.1961 29.7636 49.007 29.6022 48.9124C25.4965 45.2684 21.3352 41.6745 17.2462 38.0028C20.3672 35.249 23.4882 32.5007 26.6092 29.7413C19.1878 23.1544 11.7385 16.6064 4.28929 10.0473C4.27816 28.6954 4.28373 47.3435 4.28929 65.9917C8.11683 62.6759 11.822 59.2156 15.7274 56C15.6606 58.0529 15.8832 60.1446 15.6273 62.1752C10.4868 66.8651 5.17385 71.3769 0 76.0389V0Z" fill="#D91E3F"/>
</g>
</g>
</g>
</svg>
