<svg width="80" height="80" viewBox="0 0 80 80" fill="none" xmlns="http://www.w3.org/2000/svg">
<path d="M0 38.4C0 20.2981 0 11.2471 5.62355 5.62355C11.2471 0 20.2981 0 38.4 0H41.6C59.7019 0 68.7529 0 74.3765 5.62355C80 11.2471 80 20.2981 80 38.4V41.6C80 59.7019 80 68.7529 74.3765 74.3765C68.7529 80 59.7019 80 41.6 80H38.4C20.2981 80 11.2471 80 5.62355 74.3765C0 68.7529 0 59.7019 0 41.6V38.4Z" fill="white"/>
<path d="M42.5666 57.633C24.3332 57.633 13.9333 45.133 13.5 24.333H22.6333C22.9333 39.5997 29.6665 46.0663 34.9998 47.3996V24.333H43.6001V37.4996C48.8668 36.9329 54.3994 30.933 56.2661 24.333H64.8664C63.433 32.4663 57.433 38.4663 53.1663 40.9329C57.433 42.9329 64.2667 48.1663 66.8667 57.633H57.3997C55.3664 51.2996 50.3001 46.3996 43.6001 45.733V57.633H42.5666Z" fill="#0176FC"/>
</svg>
