<svg width="50" height="50" viewBox="0 0 50 50" fill="none" xmlns="http://www.w3.org/2000/svg">
<path d="M0 24C0 12.6863 0 7.02944 3.50565 3.51472C7.01129 0 12.6536 0 23.9381 0H25.9329C37.2174 0 42.8597 0 46.3653 3.51472C49.871 7.02944 49.871 12.6863 49.871 24V26C49.871 37.3137 49.871 42.9706 46.3653 46.4853C42.8597 50 37.2174 50 25.9329 50H23.9381C12.6536 50 7.01129 50 3.50565 46.4853C0 42.9706 0 37.3137 0 26V24Z" fill="white"/>
<path d="M26.5377 36.0215C15.1713 36.0215 8.6881 28.209 8.41797 15.209H14.1115C14.2986 24.7507 18.496 28.7923 21.8207 29.6256V15.209H27.182V23.4381C30.4651 23.0839 33.9141 19.334 35.0778 15.209H40.4391C39.5456 20.2923 35.8052 24.0423 33.1454 25.5839C35.8052 26.8339 40.0653 30.1048 41.6861 36.0215H35.7845C34.5169 32.0631 31.3587 29.0006 27.182 28.584V36.0215H26.5377Z" fill="#0176FC"/>
</svg>
