<svg width="80" height="55" viewBox="0 0 80 55" fill="none" xmlns="http://www.w3.org/2000/svg">
<path d="M14.0864 34.3042L11.1701 29.661L4.22613 19.1191C3.472 18.0311 2.77653 16.9719 2.13333 15.9405C1.49227 14.909 0.977066 13.8274 0.586667 12.6978C0.1952 11.5682 0 10.3063 0 8.91221C0 6.12395 0.726396 3.94901 2.176 2.38634C3.62666 0.824744 5.80159 0.0439453 8.70186 0.0439453C10.8213 0.0439453 12.5365 0.477012 13.8464 1.34101C15.1584 2.20608 16.1131 3.39754 16.7125 4.91754C17.3131 6.43754 17.6117 8.20074 17.6117 10.2093V11.7154H11.9232V10.2914C11.9232 9.31541 11.8325 8.42368 11.6512 7.61408C11.4699 6.80554 11.1285 6.14954 10.6251 5.64714C10.1237 5.14474 9.42613 4.89408 8.53439 4.89408C7.58613 4.89408 6.88853 5.22901 6.44159 5.89781C5.99679 6.56768 5.77173 7.52874 5.77173 8.78421C5.77173 9.89994 5.94666 10.925 6.29439 11.8583C6.64319 12.7927 7.08906 13.6919 7.63306 14.5559C8.17706 15.421 8.75519 16.3277 9.36959 17.2749L17.7355 30.2018L20.4043 34.301H14.0864V34.3042Z" fill="#FF6699"/>
<path d="M11.2266 51.9174V38.9062H15.7514V39.8513H12.4202V51.9185H11.2266V51.9174Z" fill="#00679D"/>
<path d="M19.9163 52.1206C19.0619 52.1206 18.3974 51.9329 17.9249 51.5574C17.4523 51.182 17.1217 50.6273 16.9339 49.8913C16.7451 49.1564 16.6523 48.2486 16.6523 47.167V43.6566C16.6523 42.5761 16.7451 41.6684 16.9339 40.9324C17.1217 40.1974 17.4523 39.6417 17.9249 39.2662C18.3974 38.8918 19.0619 38.7041 19.9163 38.7041C20.7867 38.7041 21.4587 38.8918 21.9313 39.2662C22.4038 39.6417 22.7334 40.1932 22.9222 40.9206C23.1099 41.6492 23.2038 42.5601 23.2038 43.6556V47.167C23.2038 48.2476 23.1099 49.1564 22.9222 49.8913C22.7334 50.6273 22.4038 51.183 21.9313 51.5574C21.4587 51.9318 20.7867 52.1206 19.9163 52.1206ZM19.9163 51.2204C20.5467 51.2204 21.0118 51.0593 21.3126 50.7361C21.6123 50.414 21.8043 49.9521 21.8865 49.3516C21.9686 48.751 22.0102 48.0385 22.0102 47.2129V43.6108C22.0102 42.7702 21.9686 42.0545 21.8865 41.4614C21.8043 40.8684 21.6123 40.4118 21.3126 40.0886C21.0118 39.7665 20.5467 39.6044 19.9163 39.6044C19.2859 39.6044 18.8251 39.7665 18.5318 40.0886C18.2395 40.4118 18.0507 40.8694 17.9686 41.4614C17.8865 42.0545 17.8449 42.7713 17.8449 43.6108V47.2129C17.8449 48.0385 17.8865 48.751 17.9686 49.3516C18.0507 49.9521 18.2395 50.4129 18.5318 50.7361C18.8251 51.0593 19.2859 51.2204 19.9163 51.2204Z" fill="#00679D"/>
<path d="M23.6289 54.9341V51.0845C23.9894 50.8903 24.2998 50.6151 24.5633 50.2631C24.8257 49.9111 25.0518 49.4269 25.2385 48.8114C25.4262 48.1959 25.5905 47.397 25.7334 46.4135C25.8753 45.4301 26.0001 44.2109 26.1057 42.7549L26.398 38.9053H31.5532V51.0386H32.7009V54.933H31.7569L31.6662 51.9165H24.687L24.575 54.933H23.6289V54.9341ZM24.9804 51.0397H30.383V39.8066H27.3889L27.0966 42.981C26.9761 44.3175 26.8598 45.4461 26.7478 46.3687C26.6348 47.2925 26.511 48.0573 26.3756 48.6653C26.2412 49.2733 26.0609 49.765 25.8348 50.1405C25.6108 50.5149 25.3249 50.8146 24.9804 51.0397Z" fill="#00679D"/>
<path d="M39.8958 52.1205C38.9208 52.1205 38.1998 51.8923 37.7347 51.4347C37.2696 50.976 36.9656 50.3648 36.8227 49.6C36.6808 48.8352 36.6094 47.9787 36.6094 47.0336V43.9723C36.6094 42.6965 36.7064 41.6725 36.9016 40.8992C37.0958 40.1269 37.4339 39.568 37.9139 39.2224C38.395 38.8779 39.0552 38.7051 39.8958 38.7051C40.7971 38.7051 41.4755 38.8885 41.9342 39.2565C42.3918 39.6245 42.6947 40.128 42.8451 40.7648C42.9944 41.4027 43.0702 42.1195 43.0702 42.9141V43.4315H41.9448V42.9141C41.9448 42.0288 41.8723 41.3493 41.7304 40.8768C41.5875 40.4043 41.3656 40.0747 41.0659 39.8859C40.7651 39.6981 40.3747 39.6043 39.8947 39.6043C39.3102 39.6043 38.8664 39.7429 38.5667 40.0213C38.267 40.2987 38.0643 40.7456 37.9587 41.3611C37.8542 41.9765 37.8008 42.8021 37.8008 43.8379V47.2149C37.8008 48.6261 37.9395 49.6459 38.2179 50.2763C38.4952 50.9067 39.0616 51.2213 39.9171 51.2213C40.5016 51.2213 40.9422 51.0944 41.2344 50.8384C41.5267 50.5835 41.7187 50.1856 41.8083 49.6459C41.899 49.1051 41.9438 48.4075 41.9438 47.552V47.0571H43.0691V47.5296C43.0691 48.4 43.0008 49.1808 42.8664 49.8709C42.732 50.5611 42.4376 51.1093 41.9875 51.5136C41.5395 51.9179 40.8419 52.1205 39.8958 52.1205Z" fill="#00679D"/>
<path d="M47.7307 52.1207C47.0405 52.1207 46.4475 51.9821 45.9525 51.7037C45.4576 51.4263 45.0779 50.9239 44.8155 50.1954C44.5531 49.4679 44.4219 48.4365 44.4219 47.0999V43.6333C44.4219 42.2679 44.5563 41.2322 44.8261 40.5261C45.096 39.821 45.4821 39.341 45.9856 39.085C46.488 38.8311 47.0768 38.7031 47.7531 38.7031C48.5637 38.7031 49.2005 38.8759 49.6667 39.2205C50.1317 39.5661 50.4613 40.1175 50.6576 40.8749C50.8517 41.6333 50.9499 42.6349 50.9499 43.8807V45.1191H45.6144V47.1906C45.6144 48.2263 45.6859 49.037 45.8288 49.6215C45.9707 50.2061 46.2011 50.6199 46.5157 50.8589C46.8304 51.0989 47.2357 51.2194 47.7307 51.2194C48.0453 51.2194 48.3611 51.1671 48.6757 51.0615C48.9904 50.957 49.2539 50.7095 49.464 50.3191C49.6741 49.9287 49.7787 49.3207 49.7787 48.4951V47.5266H50.9499V48.3821C50.9499 49.4925 50.7216 50.3938 50.2629 51.0829C49.8053 51.7762 48.9616 52.1207 47.7307 52.1207ZM45.6144 44.3991H49.7787V43.3869C49.7787 42.6061 49.7371 41.9351 49.6549 41.3719C49.5728 40.8098 49.3883 40.3735 49.1035 40.0663C48.8187 39.7591 48.3675 39.6045 47.752 39.6045C47.2709 39.6045 46.8709 39.7058 46.5467 39.9085C46.2245 40.1111 45.9877 40.4866 45.8384 41.0338C45.688 41.5821 45.6133 42.3735 45.6133 43.4093V44.3991H45.6144Z" fill="#00679D"/>
<path d="M52.4414 51.9175L52.5534 38.9053H53.4761L56.6057 48.4274L59.7353 38.9053H60.7038L60.7934 51.9175H59.7577L59.7129 41.9442L56.8083 50.5437H56.4254L53.5443 41.989L53.4995 51.9175H52.4414Z" fill="#00679D"/>
<path d="M62.4883 51.9174V38.9062H63.6819V44.1287C63.6968 44.1287 63.7864 44.1287 63.9517 44.1287C64.116 44.1287 64.372 44.1287 64.7165 44.1287C65.6019 44.1287 66.3144 44.2449 66.8552 44.4774C67.396 44.71 67.812 45.014 68.1043 45.3884C68.3965 45.7639 68.596 46.1841 68.7016 46.6492C68.8061 47.1143 68.8595 47.5868 68.8595 48.0668C68.8595 48.5318 68.8029 48.9937 68.6909 49.4513C68.5779 49.91 68.3763 50.3217 68.0819 50.6886C67.7896 51.0577 67.3651 51.3532 66.8104 51.5782C66.2557 51.8033 65.5347 51.9164 64.6493 51.9164H62.4883V51.9174ZM63.6819 51.1078H64.6504C65.5347 51.1078 66.196 50.9649 66.6312 50.6801C67.0664 50.3953 67.3597 50.0241 67.5101 49.5654C67.6595 49.1078 67.7352 48.6087 67.7352 48.0689C67.7352 47.5441 67.6627 47.0449 67.5208 46.5724C67.3779 46.0998 67.0931 45.7094 66.6654 45.4012C66.2376 45.094 65.5805 44.9393 64.6952 44.9393C64.6803 44.9393 64.5608 44.9393 64.3357 44.9393C64.1107 44.9393 63.8931 44.9393 63.6829 44.9393V51.1078H63.6819Z" fill="#00679D"/>
<path d="M70.3945 51.9174V38.9062H71.4303V49.6892L76.0223 38.9062H77.0132V51.9185H75.9775V41.2241L71.4079 51.9174H70.3945Z" fill="#00679D"/>
<path d="M14.0865 34.3041L11.6523 30.4278L20.1643 17.2769C20.7766 16.3297 21.3558 15.4231 21.9009 14.558C22.4449 13.694 22.8897 12.7948 23.2385 11.8604C23.5873 10.926 23.7611 9.90198 23.7611 8.78625C23.7611 7.53078 23.5371 6.56865 23.0913 5.89985C22.6454 5.22999 21.9467 4.89612 20.9995 4.89612C20.1067 4.89612 19.4091 5.14678 18.9078 5.64918C18.4065 6.15158 18.0641 6.80758 17.8827 7.61612C17.7003 8.42465 17.6107 9.31745 17.6107 10.2935V11.7164H11.9211V10.2103C11.9211 8.20172 12.2209 6.43852 12.8203 4.91852C13.4198 3.39852 14.3755 2.20599 15.6865 1.34199C16.9974 0.477989 18.7115 0.0449219 20.8321 0.0449219C23.7323 0.0449219 25.9073 0.825721 27.3569 2.38732C28.8065 3.94999 29.5329 6.12492 29.5329 8.91318C29.5329 10.3084 29.3377 11.5692 28.9473 12.6988C28.5558 13.8284 28.0406 14.9089 27.3995 15.9415C26.7585 16.9729 26.0619 18.0332 25.3078 19.1201L18.3627 29.662H28.655V34.3052H14.0865V34.3041Z" fill="#00679D"/>
<path d="M37.7876 34.8064C35.8068 34.8064 34.1684 34.3883 32.8724 33.552C31.5753 32.7157 30.5993 31.5584 29.9444 30.08C29.2884 28.6027 28.9609 26.9013 28.9609 24.976V9.95733C28.9609 7.97653 29.2745 6.24107 29.9017 4.7488C30.5289 3.2576 31.4911 2.09173 32.7881 1.25547C34.0841 0.419202 35.7513 0 37.7865 0C39.8217 0 41.49 0.418135 42.7849 1.25547C44.082 2.09173 45.0441 3.25653 45.6724 4.7488C46.2996 6.24107 46.6132 7.97653 46.6132 9.95733V24.9749C46.6132 26.8992 46.2847 28.6005 45.6297 30.0789C44.9737 31.5573 43.9977 32.7147 42.7017 33.5509C41.4057 34.3872 39.7673 34.8064 37.7876 34.8064ZM37.7876 29.8283C38.6527 29.8283 39.2927 29.5637 39.7119 29.0336C40.13 28.5045 40.4095 27.8624 40.5492 27.1093C40.6868 26.3563 40.7572 25.6181 40.7572 24.8917V10.0405C40.7572 9.25973 40.6953 8.4864 40.5695 7.7184C40.4436 6.95147 40.1716 6.30293 39.7535 5.7728C39.3343 5.24373 38.6783 4.97813 37.7865 4.97813C36.8937 4.97813 36.2388 5.24373 35.8207 5.7728C35.4015 6.30293 35.1295 6.95147 35.0047 7.7184C34.8788 8.48533 34.8159 9.25973 34.8159 10.0405V24.8917C34.8159 25.6171 34.8916 26.3552 35.0463 27.1093C35.1988 27.8624 35.4847 28.5045 35.9028 29.0336C36.3231 29.5637 36.9513 29.8283 37.7876 29.8283Z" fill="#00679D"/>
<path d="M46.2344 34.304V30.2048L54.6013 17.2779C55.2136 16.3307 55.7928 15.424 56.3378 14.559C56.8818 13.695 57.3266 12.7958 57.6754 11.8614C58.0242 10.927 58.1981 9.90296 58.1981 8.78723C58.1981 7.53176 57.9741 6.56963 57.5282 5.90083C57.0824 5.23096 56.3837 4.8971 55.4365 4.8971C54.5437 4.8971 53.8461 5.14776 53.3448 5.65016C52.8434 6.15256 52.501 6.80856 52.3197 7.6171C52.1373 8.42563 52.0477 9.31843 52.0477 10.2944V11.7174H46.3602V10.2112C46.3602 8.2027 46.66 6.4395 47.2594 4.9195C47.8589 3.3995 48.8146 2.20696 50.1256 1.34297C51.4365 0.478965 53.1506 0.0458984 55.2712 0.0458984C58.1714 0.0458984 60.3464 0.8267 61.796 2.3883C63.2456 3.95097 63.972 6.1259 63.972 8.91416C63.972 10.3094 63.7768 11.5702 63.3864 12.6998C62.9949 13.8294 62.4797 14.9099 61.8386 15.9424C61.1976 16.9739 60.501 18.0342 59.7469 19.1211L52.8018 29.663H63.0941V34.3062H46.2344V34.304Z" fill="#00679D"/>
<path d="M71.5261 34.3037V25.9784H61.4023V21.0429L70.229 0.418945H76.9639V21.3768H79.9986V25.9784H76.9639V34.3037H71.5261ZM66.2546 21.3768H71.5261V6.65148L66.2546 21.3768Z" fill="#00679D"/>
</svg>
