<svg width="245" height="200" viewBox="0 0 245 200" fill="none" xmlns="http://www.w3.org/2000/svg">
<g id="map">
<g id="Vector">
<path d="M145.638 133.858C145.692 133.726 145.715 133.584 145.704 133.442L145.154 125.755C145.138 125.534 144.966 125.356 144.747 125.333C144.53 125.31 144.36 125.137 144.34 124.919L143.459 115.222C143.449 115.116 143.421 115.012 143.376 114.916L138.233 103.899C138.007 103.415 138.26 102.842 138.769 102.686C139.282 102.528 139.534 101.949 139.301 101.464L137.688 98.1036C137.647 98.0187 137.62 97.928 137.607 97.8347L136.372 89.1567C136.317 88.7737 136.03 88.4659 135.652 88.387L134.234 88.0903C133.777 87.9948 133.465 87.5699 133.509 87.1038L134.559 76.0105C134.584 75.7406 134.727 75.4957 134.95 75.3415L135.673 74.8393C135.849 74.7176 135.976 74.5383 136.034 74.3324L138.79 64.5061C138.806 64.4483 138.828 64.3922 138.855 64.3386L141.684 58.7521C141.736 58.6502 141.768 58.5396 141.779 58.426L141.863 57.5738C141.898 57.2171 142.137 56.9134 142.474 56.7959L143.621 56.3962C143.777 56.3419 143.916 56.2462 144.022 56.1193L145.785 54.0141C145.957 53.8088 146.031 53.5384 145.988 53.2738L145.839 52.3663C145.813 52.2057 145.744 52.0551 145.641 51.9297L140.783 46.0355C140.648 45.8724 140.462 45.7609 140.255 45.7198L136.677 45.0079C136.425 44.9577 136.163 45.0162 135.956 45.1692L133.239 47.176C132.989 47.3607 132.849 47.6598 132.868 47.9708L133.149 52.7007C133.165 52.9753 133.058 53.2427 132.857 53.4296L129.975 56.1081C129.806 56.2655 129.583 56.3529 129.353 56.3529H127.787C127.622 56.3529 127.46 56.3084 127.319 56.2239L123.061 53.6846C122.958 53.623 122.844 53.5824 122.725 53.5651L120.255 53.2056C119.622 53.1134 119.092 53.6837 119.228 54.3106L119.87 57.2683C119.925 57.5205 119.872 57.7842 119.723 57.9949L118.352 59.938C118.109 60.2829 118.131 60.7498 118.407 61.0696L120.208 63.1625C120.498 63.4989 120.506 63.9952 120.227 64.3409L119.61 65.1073C119.407 65.3583 119.089 65.4844 118.77 65.4396L110.162 64.2278C109.864 64.1859 109.606 64.0001 109.471 63.7307L108.439 61.6727C108.272 61.3391 108.323 60.9373 108.567 60.6558L113.124 55.4118C113.244 55.2741 113.32 55.1038 113.343 54.9226L114.625 44.6962C114.644 44.549 114.697 44.4085 114.782 44.2866L118.971 38.2358C119.255 37.8259 119.161 37.2636 118.759 36.9693L112.811 32.6119C112.721 32.5457 112.619 32.4967 112.511 32.4673L107.184 31.0134C106.926 30.9431 106.712 30.7632 106.597 30.521L103.46 23.8943C103.281 23.5168 102.871 23.3078 102.462 23.3857L99.8632 23.8801C99.5709 23.9357 99.2698 23.8454 99.0559 23.6378L97.6342 22.2584C97.2976 21.9318 96.7697 21.9125 96.4104 22.2137L75.8647 39.4363C75.7636 39.521 75.6455 39.5828 75.5185 39.6176L65.9631 42.2325C65.518 42.3543 65.2327 42.7893 65.2972 43.2477L66.516 51.9036C66.5252 51.969 66.5274 52.0351 66.5224 52.1009L66.1128 57.5784C66.1008 57.7387 66.0471 57.8931 65.957 58.0261L61.3666 64.804C61.1717 65.0918 60.8316 65.2444 60.488 65.1984L57.0443 64.7374C56.9443 64.724 56.8428 64.7273 56.7439 64.7471L50.6022 65.9768C50.3153 66.0342 50.0184 65.9507 49.8031 65.752L48.1534 64.23C48.0203 64.1072 47.854 64.0267 47.6753 63.9986L45.0579 63.587C44.807 63.5475 44.5837 63.4053 44.4413 63.1943L43.7046 62.1024C43.5265 61.8383 43.4975 61.5004 43.6281 61.2096L43.9419 60.5108C44.1536 60.0396 43.9364 59.486 43.4615 59.2859L40.9626 58.2333C40.9111 58.2116 40.8576 58.1946 40.803 58.1827L32.8569 56.4466C32.8137 56.4372 32.7698 56.4309 32.7257 56.4278L26.9666 56.0257C26.867 56.0187 26.7669 56.0282 26.6703 56.0536L26.0983 56.2044C25.6172 56.3312 25.325 56.8201 25.44 57.3057L28.2181 69.0347C28.3307 69.5102 28.0528 69.9909 27.5856 70.1288L21.5314 71.9167C21.2144 72.0103 20.8718 71.9253 20.6347 71.6943L18.5345 69.6477C18.3996 69.5162 18.3083 69.3462 18.273 69.1609L17.7145 66.2275C17.6248 65.7563 17.1889 65.4336 16.7137 65.4866L16.2451 65.5389C16.055 65.5601 15.8763 65.6405 15.734 65.7688L14.7853 66.6245L8.86858 70.9886C8.73907 71.0841 8.58679 71.1438 8.42703 71.1615L2.15604 71.859C2.09341 71.866 2.03023 71.8665 1.9675 71.8604L1.00611 71.7677C0.0682872 71.6772 -0.378187 72.8956 0.394648 73.4363L4.55288 76.3455C4.81265 76.5272 5.14755 76.5614 5.43847 76.4359L6.71045 75.8871C7.15579 75.695 7.3748 75.1879 7.21 74.7305L6.73742 73.4186C6.59453 73.022 6.73908 72.5786 7.08798 72.3434L7.68673 71.9398C7.81318 71.8545 7.95882 71.8023 8.11047 71.7878L13.4013 71.281C13.7092 71.2515 14.0112 71.38 14.2041 71.6226L15.9165 73.7753C16.1223 74.0341 16.4509 74.1617 16.7767 74.1095L18.6786 73.8048C19.3061 73.7043 19.8425 74.26 19.7223 74.8862L18.8221 79.5748C18.7505 79.9479 18.9151 80.3268 19.2362 80.5281L21.4308 81.9035C21.67 82.0534 21.9648 82.0844 22.2298 81.9874L39.4559 75.6842C39.6982 75.5955 39.8921 75.4085 39.9898 75.169L40.8762 72.9964C41.0505 72.569 40.8785 72.0785 40.4759 71.8548L40.3913 71.8079C40.3001 71.7572 40.2247 71.6823 40.1734 71.5913C40.0279 71.3336 40.1049 71.0068 40.35 70.8417L42.2447 69.5655C42.6788 69.2731 43.2683 69.4041 43.5389 69.853L43.9464 70.5293C44.2255 70.9925 44.8413 71.1145 45.275 70.7924L48.8619 68.1285C49.1077 67.946 49.4281 67.8986 49.7159 68.0021L51.1413 68.5149C51.4443 68.624 51.668 68.8846 51.7306 69.2015L51.9152 70.137C51.9927 70.5298 52.3148 70.827 52.7114 70.8717L55.1939 71.1515C55.6203 71.1996 55.9563 71.5383 56.0023 71.9664L56.2673 74.4375C56.3101 74.8365 56.606 75.1615 56.9982 75.2402L59.4564 75.7339C59.6179 75.7663 59.7851 75.7544 59.9404 75.6996L62.8032 74.6879C63.0807 74.5899 63.3882 74.6315 63.6299 74.7999L64.577 75.46C64.7989 75.6147 65.0776 75.6631 65.3385 75.5923L66.5667 75.259C66.9069 75.1667 67.1642 74.8866 67.2282 74.5388L68.0838 69.8896C68.1157 69.7165 68.1964 69.5562 68.3164 69.4278L69.3504 68.3213C69.5321 68.1269 69.789 68.0212 70.0544 68.0316L71.2567 68.079C71.5106 68.089 71.749 68.2044 71.9148 68.3976L72.297 68.8429C72.7397 69.3587 73.5683 69.2293 73.8338 68.6028L74.3189 67.4582C74.4004 67.2658 74.545 67.107 74.7286 67.0081L76.2997 66.162C76.5063 66.0507 76.7476 66.0232 76.9739 66.0852L77.6136 66.2604C77.9406 66.3499 78.2903 66.2509 78.5223 66.0029L80.6939 63.6824C80.8372 63.5292 80.9239 63.3314 80.9395 63.1218L81.046 61.6916C81.1003 60.9615 81.942 60.5852 82.5193 61.0328L84.7941 62.7966C85.4645 63.3164 85.1326 64.3924 84.2867 64.4412L82.9849 64.5164C82.5607 64.5409 82.209 64.855 82.1355 65.2749L81.789 67.2545C81.7391 67.5398 81.9836 67.7897 82.2688 67.7448C82.503 67.7079 82.7213 67.8722 82.7515 68.1081L82.8288 68.7104C82.9191 69.4145 83.737 69.7543 84.2969 69.3205L84.5078 69.1571C85.0117 68.7667 85.749 68.9985 85.9408 69.6076L86.1401 70.2403C86.2847 70.6995 86.7581 70.9688 87.225 70.8575L89.4988 70.3156C89.9605 70.2055 90.262 69.7599 90.1934 69.2887L90.1717 69.1392C90.106 68.6877 89.7201 68.353 89.2654 68.353H88.4801C88.132 68.353 87.844 68.0814 87.8223 67.7328C87.7998 67.3717 88.0707 67.0594 88.4303 67.0321L92.3001 66.7375C92.8234 66.6977 93.273 67.1063 93.285 67.6327L93.3255 69.3993C93.3352 69.823 93.0549 70.1984 92.647 70.3081L87.6971 71.6393C87.1644 71.7826 86.8778 72.3622 87.0863 72.8745L89.4165 78.5983C89.6352 79.1357 89.3087 79.7395 88.7405 79.8484L88.6066 79.8741C88.0929 79.9726 87.7655 80.4819 87.8881 80.992L88.2376 82.4476C88.2985 82.701 88.4878 82.9035 88.7359 82.9806C89.0004 83.0628 89.1966 83.2868 89.2439 83.5606L90.0914 88.4688C90.1877 89.0264 90.7584 89.365 91.2916 89.181L95.1363 87.8545C95.3082 87.7952 95.4937 87.7886 95.6694 87.8354L97.7612 88.3933C97.8745 88.4235 97.981 88.4753 98.0749 88.5459L103.796 92.8447C103.922 92.9391 104.07 92.9996 104.225 93.0202L110.224 93.8146C110.365 93.8333 110.5 93.8849 110.618 93.9652L115.142 97.0454C115.387 97.2116 115.72 97.07 115.772 96.7785C115.827 96.4617 116.209 96.331 116.446 96.5476L129.455 108.436C129.864 108.81 130.507 108.737 130.823 108.282L133.762 104.052C133.97 103.752 134.335 103.605 134.693 103.676L135.937 103.926C136.158 103.971 136.356 104.096 136.491 104.278L139.416 108.211C139.463 108.275 139.502 108.344 139.531 108.417L141.686 113.779C141.736 113.904 141.758 114.039 141.751 114.173L141.723 114.682C141.7 115.103 141.393 115.455 140.979 115.534L136.752 116.34C136.637 116.362 136.527 116.406 136.429 116.469L128.69 121.454C128.261 121.73 128.14 122.305 128.42 122.732L130.119 125.326C130.263 125.545 130.306 125.816 130.238 126.069L129.161 130.092C129.107 130.291 128.989 130.466 128.824 130.59L128.085 131.144C127.921 131.266 127.721 131.331 127.516 131.326L125.154 131.272C124.702 131.261 124.31 131.583 124.231 132.029L124.014 133.247C123.934 133.699 123.534 134.022 123.077 134.004L120.655 133.909C120.219 133.892 119.874 134.275 119.934 134.709C119.972 134.977 120.16 135.2 120.417 135.281L122.799 136.037C123.18 136.158 123.439 136.513 123.439 136.914V136.926C123.439 137.241 123.278 137.535 123.012 137.703L116.211 142.013C115.786 142.282 115.657 142.844 115.92 143.272L121.488 152.341C121.74 152.751 121.634 153.286 121.244 153.568L119.767 154.637C119.453 154.864 119.315 155.264 119.422 155.637L119.441 155.703C119.528 156.005 119.762 156.241 120.063 156.33L121.27 156.686C121.482 156.749 121.664 156.887 121.783 157.074L125.502 162.921C125.748 163.309 125.671 163.82 125.322 164.117L121.756 167.146C121.627 167.255 121.531 167.398 121.478 167.559L119.811 172.619C119.789 172.684 119.775 172.752 119.768 172.82L119.608 174.511C119.56 175.014 119.925 175.461 120.426 175.512L121.983 175.672C122.45 175.721 122.806 176.115 122.806 176.587V177.079C122.806 178.025 124.057 178.354 124.52 177.53L124.783 177.062C124.985 176.701 125.471 176.625 125.773 176.908C126.069 177.185 126.544 177.118 126.754 176.77L126.834 176.637C126.994 176.369 126.977 176.031 126.79 175.781L126.266 175.083C126.104 174.868 126.045 174.592 126.104 174.33L126.109 174.306C126.233 173.747 126.831 173.438 127.357 173.659L127.449 173.698C127.758 173.828 128.114 173.779 128.375 173.569L131.727 170.883C131.996 170.668 132.122 170.319 132.052 169.98L131.844 168.961C131.774 168.621 131.902 168.27 132.173 168.055L140.01 161.849C140.109 161.771 140.19 161.673 140.25 161.562L144.382 153.837C144.429 153.749 144.462 153.654 144.478 153.555L145.205 149.214L145.765 138.139C145.784 137.77 145.503 137.454 145.135 137.431C144.674 137.403 144.378 136.928 144.554 136.5L145.638 133.858Z" fill="#FFDE69"/>
<path d="M91.2945 125.911C90.9386 125.505 90.3119 125.493 89.9414 125.886L84.2705 131.9C84.0654 132.118 83.7675 132.221 83.4723 132.178L82.074 131.972C81.5043 131.888 81.1522 131.304 81.3427 130.758L82.5746 127.234C82.7156 126.831 83.1152 126.578 83.5387 126.625L85.191 126.806C85.5097 126.842 85.8234 126.707 86.0182 126.451L88.2902 123.472C88.4899 123.21 88.5344 122.861 88.4068 122.557L87.6766 120.817C87.6287 120.703 87.5583 120.6 87.4696 120.514L86.3963 119.471C86.051 119.136 86.0227 118.59 86.3315 118.221L87.009 117.41C87.1503 117.241 87.3475 117.128 87.5646 117.093L88.5714 116.93C88.9428 116.869 89.2397 116.587 89.32 116.219L90.389 111.305C90.4308 111.112 90.533 110.939 90.6805 110.809L91.2038 110.349C91.3341 110.235 91.4294 110.086 91.4786 109.919L92.9791 104.839C93.0586 104.57 93.0112 104.279 92.8503 104.049L89.9076 99.8478C89.7634 99.6418 89.5412 99.5042 89.293 99.4672L87.0592 99.134C86.5852 99.0633 86.1371 99.3711 86.0313 99.84L83.5377 110.891C83.3673 111.646 82.3996 111.865 81.9236 111.255L79.9254 108.697C79.5436 108.208 78.7986 108.233 78.4489 108.745L77.3663 110.331C77.127 110.682 76.6793 110.822 76.2836 110.67L75.592 110.405C75.3415 110.309 75.0616 110.328 74.8262 110.457L72.9545 111.482C72.3216 111.829 72.3176 112.739 72.9474 113.091L78.7019 116.309C79.1395 116.554 79.3 117.106 79.0621 117.548L77.3988 120.641C77.2816 120.859 77.0818 121.021 76.8445 121.089L75.4474 121.489C75.0921 121.591 74.8327 121.897 74.7896 122.266L74.7873 122.285C74.7376 122.709 74.4037 123.043 73.9811 123.091L69.7543 123.573C69.5745 123.594 69.4048 123.667 69.2666 123.784L68.9396 124.062C68.3944 124.524 67.5553 124.211 67.4438 123.503L67.1459 121.612C67.1065 121.362 66.9665 121.14 66.7587 120.997L66.731 120.978C66.4815 120.806 66.1638 120.77 65.882 120.879L65.2436 121.128C65.0885 121.189 64.9527 121.29 64.8509 121.422L60.5619 126.982C60.42 127.166 60.4293 127.426 60.584 127.599C60.7298 127.762 60.7475 128.004 60.6271 128.187L55.3854 136.152C55.1286 136.542 55.2047 137.063 55.5621 137.363L58.1159 139.506C58.5776 139.893 58.5477 140.615 58.0556 140.962L57.8511 141.107C57.1337 141.613 57.4683 142.745 58.3451 142.777L67.3132 143.103C67.4616 143.109 67.5595 143.261 67.5036 143.399C67.441 143.553 67.5707 143.717 67.735 143.691L79.1866 141.882C79.3471 141.856 79.5115 141.874 79.6628 141.934L89.1322 145.651C89.7414 145.89 90.3969 145.43 90.3815 144.774L90.2033 137.179C90.1987 136.982 90.1314 136.792 90.0114 136.637L89.8181 136.387C89.5279 136.011 89.5709 135.476 89.9172 135.152L94.4728 130.889C94.8351 130.55 94.8631 129.983 94.536 129.61L91.2945 125.911Z" fill="#FFDE69"/>
</g>
</g>
</svg>
