<svg width="245" height="200" viewBox="0 0 245 200" fill="none" xmlns="http://www.w3.org/2000/svg">
<g id="map">
<path id="Vector" d="M104.526 40.806C104.862 40.724 105.117 40.4516 105.177 40.1118L105.365 39.0375C105.407 38.8 105.348 38.5559 105.203 38.3634L95.6064 25.6638C95.5425 25.5793 95.4638 25.5071 95.3739 25.4509L94.4914 24.8984C94.2913 24.7731 94.0488 24.7345 93.8196 24.7913L92.5272 25.1115C92.3054 25.1665 92.0708 25.1321 91.8741 25.0157L90.4288 24.1606C90.1296 23.9835 89.7536 24.0014 89.4726 24.206L87.6092 25.563C87.3463 25.7544 86.9986 25.7835 86.7076 25.6383L85.7257 25.1484C85.5848 25.0781 85.4656 24.971 85.3809 24.8384L84.4213 23.3364C84.2692 23.0985 84.0111 22.9491 83.7288 22.9357L81.0605 22.8094C80.7736 22.7958 80.5118 22.6417 80.361 22.3976L79.7526 21.4129C79.5578 21.0975 79.1844 20.9402 78.8223 21.0209L76.4933 21.5404C76.2429 21.5962 76.0299 21.7596 75.9113 21.9868L73.4865 26.6303C73.3236 26.9422 73.4548 27.3268 73.7744 27.4745C74.1177 27.6331 74.2385 28.0602 74.029 28.3748L73.6403 28.9587C73.4436 29.2543 73.0291 29.3042 72.7677 29.064C72.5075 28.8249 72.0955 28.873 71.8975 29.1655L71.8867 29.1814C71.7196 29.4283 71.3953 29.5133 71.1284 29.3802L70.5287 29.081C69.9914 28.8129 69.3501 29.1562 69.2761 29.7517L68.2828 37.7434C68.2297 38.1701 68.5252 38.5618 68.9504 38.6284C69.3966 38.6983 69.6951 39.1269 69.609 39.5698C69.5144 40.0561 69.0049 40.3446 68.5401 40.172L66.6949 39.4866C66.2335 39.3152 65.7217 39.5599 65.5659 40.0263L65.3802 40.5822C65.2633 40.932 65.3801 41.3174 65.6715 41.5438L68.0547 43.3953C68.3765 43.6453 68.4815 44.0849 68.3073 44.4531L66.5333 48.2026C66.4466 48.3858 66.2987 48.533 66.1149 48.6187L64.1356 49.5428C63.7895 49.7043 63.5894 50.0724 63.6421 50.4504L63.9274 52.4966C63.9557 52.6992 64.0546 52.8854 64.2067 53.0224L66.455 55.0468C66.5804 55.1598 66.6703 55.3068 66.7135 55.4699L67.976 60.2287C68.0284 60.426 68.1486 60.5986 68.3156 60.7163L68.8564 61.0975C69.2132 61.3491 69.7014 61.2975 69.9977 60.977L70.2283 60.7274C70.4362 60.5025 70.7471 60.4034 71.0469 60.4664L71.2365 60.5062C71.58 60.5783 71.9332 60.4374 72.1324 60.1486L73.0017 58.8882C73.2661 58.5048 73.7858 58.3975 74.1806 58.6447L74.9512 59.1271C75.2633 59.3225 75.4185 59.693 75.3386 60.0523L74.9101 61.9807C74.8453 62.2721 74.9347 62.5763 75.1469 62.7865L76.2106 63.8403C76.472 64.0993 76.542 64.4947 76.3853 64.8275L74.9191 67.9425C74.799 68.1976 74.8102 68.4949 74.9491 68.7403L75.555 69.811C75.7128 70.0899 75.7043 70.4327 75.533 70.7035L74 73.1261C73.8007 73.4409 73.3354 73.4233 73.1605 73.0943C73.0541 72.8939 72.8228 72.794 72.6038 72.8537L70.7292 73.3646C70.461 73.4378 70.1739 73.3785 69.9568 73.2051L69.8505 73.1203C69.4838 72.8276 68.9507 72.8781 68.6457 73.2346L68.5511 73.3451C68.3364 73.5959 67.9981 73.7037 67.6776 73.6233L66.0945 73.2263C65.8896 73.1749 65.732 73.0113 65.6885 72.8047C65.613 72.4455 65.2139 72.2589 64.8893 72.4309L63.0978 73.3802C62.9118 73.4788 62.6964 73.5066 62.4914 73.4586L60.83 73.0697C60.6015 73.0162 60.4043 72.8728 60.2832 72.672L59.8708 71.9886C59.7623 71.8087 59.7226 71.5956 59.7591 71.3888L60.6358 66.4209C60.7079 66.0124 60.4811 65.6098 60.094 65.4596L55.2774 63.5895C54.9788 63.4735 54.6404 63.5974 54.4874 63.8786C54.287 64.2473 53.7903 64.3244 53.4873 64.0339L52.9266 63.4965C52.8288 63.4026 52.8119 63.2524 52.8865 63.1392C52.987 62.9868 52.9177 62.7807 52.7455 62.7198L48.8163 61.3297C48.5388 61.2315 48.2306 61.2801 47.9968 61.4587L47.3996 61.9152C47.2349 62.041 47.1206 62.2214 47.0773 62.424L46.6178 64.5713C46.4924 65.1572 45.8254 65.4438 45.3135 65.1319L44.1931 64.4493C43.8677 64.2511 43.451 64.2874 43.1649 64.5389L39.4501 67.8047C39.3931 67.8549 39.3429 67.9122 39.3008 67.9753L37.0117 71.4074C36.9531 71.4953 36.9111 71.593 36.8875 71.6959L36.0568 75.3283C36.0426 75.3904 36.0353 75.4538 36.035 75.5176L35.9616 90.1109C35.9592 90.6035 35.5479 90.9957 35.0552 90.9753L32.0583 90.8511C31.935 90.8459 31.8141 90.8147 31.7038 90.7593L25.0261 87.4094C24.9006 87.3464 24.7617 87.3147 24.6213 87.317L12.9881 87.5075C12.9319 87.5084 12.8759 87.5148 12.821 87.5265L9.18925 88.2995C9.05653 88.3278 8.91903 88.3246 8.78774 88.2904L7.03357 87.8323C6.4015 87.6672 5.81949 88.2308 5.96493 88.867L7.81648 96.9673C7.83977 97.0692 7.88125 97.166 7.93894 97.2532L8.79532 98.5473C9.02745 98.8981 8.97499 99.3646 8.67073 99.6552L5.35517 102.822C5.27113 102.902 5.20404 102.998 5.15787 103.105L3.97775 105.829C3.9242 105.953 3.90013 106.087 3.90747 106.222L4.18838 111.375C4.21299 111.826 4.64191 112.145 5.08174 112.038C5.45081 111.948 5.68763 111.589 5.62403 111.215L5.58219 110.969C5.52533 110.634 5.66838 110.297 5.9486 110.106L6.39154 109.803C6.55904 109.688 6.76136 109.636 6.96349 109.654L10.8098 110.01C11.0311 110.031 11.2519 109.966 11.4268 109.829L11.6961 109.618C12.113 109.292 12.7237 109.412 12.9882 109.871C13.1382 110.131 13.144 110.451 13.0026 110.715L11.8586 112.857C11.7278 113.102 11.7219 113.394 11.8428 113.644L12.9851 116.006C13.1534 116.354 13.0715 116.772 12.784 117.03L11.0573 118.584C10.8553 118.766 10.7499 119.032 10.7726 119.303L11.22 124.65C11.2794 125.36 10.5054 125.837 9.8974 125.464L9.39278 125.154C9.26399 125.075 9.11685 125.031 8.96582 125.026L4.2856 124.874C4.0925 124.868 3.90698 124.798 3.75827 124.675L3.19362 124.207C2.82439 123.901 2.27699 123.951 1.96968 124.319L1.23704 125.196C1.10363 125.356 0.901138 125.441 0.693474 125.426C0.261175 125.393 -0.0795464 125.787 0.0162579 126.21L0.894859 130.083C0.928432 130.231 1.0002 130.368 1.10304 130.48L4.58197 134.259C4.70487 134.392 4.78289 134.561 4.80512 134.741L5.07323 136.912C5.09726 137.106 5.18646 137.287 5.32632 137.425L7.65481 139.716C7.81467 139.873 8.02916 139.962 8.25351 139.965L12.4869 140.024C13.0429 140.031 13.4634 139.524 13.3515 138.979L12.0903 132.847C12.0506 132.654 12.0776 132.454 12.1669 132.278L14.8622 126.98C14.9926 126.724 15.2413 126.549 15.5267 126.512L22.5734 125.604C22.7538 125.58 22.9224 125.501 23.0555 125.377L24.6481 123.894C24.7537 123.796 24.8821 123.725 25.0217 123.689L30.0665 122.374C30.5093 122.258 30.966 122.505 31.1115 122.938L31.5565 124.263C31.6399 124.512 31.8313 124.709 32.0772 124.801L34.1846 125.587C34.3767 125.659 34.5373 125.796 34.6381 125.974L35.7835 128.002C35.9101 128.226 36.1295 128.382 36.3827 128.429L38.7557 128.869C38.8729 128.891 38.9845 128.937 39.0834 129.003L41.9738 130.95C42.0353 130.991 42.0912 131.041 42.1403 131.096L45.9718 135.44C46.0479 135.527 46.1404 135.597 46.2439 135.647L48.9529 136.965C49.0936 137.033 49.2132 137.138 49.2992 137.269L51.6128 140.783C51.7282 140.958 51.903 141.086 52.1051 141.142L56.4119 142.348C56.7138 142.433 56.9369 142.688 56.9801 142.998C57.0504 143.502 57.573 143.808 58.0475 143.623L59.674 142.99C60.0561 142.841 60.4904 142.979 60.7164 143.321L62.6703 146.278C62.9077 146.637 63.3727 146.769 63.7636 146.587L69.3526 143.991C69.8331 143.768 70.4 144.022 70.5529 144.529L71.3707 147.241C71.4807 147.605 71.8153 147.856 72.1964 147.859L73.4968 147.871C74.0328 147.876 74.4456 147.4 74.3649 146.87L74.218 145.907C74.1366 145.373 74.5572 144.895 75.0979 144.907L77.0145 144.95C77.3483 144.957 77.6485 145.155 77.787 145.459L78.6121 147.266C78.7768 147.627 78.676 148.054 78.3671 148.303L75.4756 150.637C75.0085 151.014 75.0549 151.739 75.5662 152.054L78.7935 154.039C79.2708 154.333 79.8975 154.106 80.0753 153.575L81.5367 149.209C81.6853 148.766 82.1591 148.519 82.6085 148.651L85.3658 149.464C85.8172 149.597 86.0809 150.065 85.9611 150.519L85.7185 151.441C85.6683 151.631 85.6844 151.833 85.7642 152.014L87.0215 154.854C87.2648 155.403 87.9798 155.546 88.4164 155.133L89.1727 154.416C89.5368 154.071 90.1165 154.105 90.4388 154.489L91.9388 156.277C92.2303 156.625 92.2054 157.138 91.8816 157.456L89.8184 159.481C89.5108 159.783 89.4708 160.264 89.7246 160.612L90.3649 161.492C90.5714 161.775 90.9283 161.907 91.2699 161.826L92.8369 161.454C93.0212 161.41 93.2147 161.428 93.3881 161.504L94.5711 162.023C94.9787 162.202 95.4556 162.045 95.6766 161.659L95.8376 161.378C95.9833 161.123 95.9909 160.813 95.8576 160.551L93.9207 156.753C93.8583 156.631 93.8258 156.496 93.8258 156.359V155.688C93.8258 155.318 94.0603 154.988 94.4103 154.867L94.7496 154.749C95.0765 154.635 95.4398 154.726 95.6747 154.98L99.7893 159.427C99.9178 159.566 99.9975 159.743 100.016 159.931L100.096 160.735C100.133 161.102 99.9333 161.452 99.5987 161.608L94.8211 163.841C94.243 164.111 94.1429 164.89 94.634 165.297L95.9655 166.401C96.1647 166.566 96.28 166.811 96.28 167.07V168.969C96.28 169.194 96.193 169.409 96.0373 169.571L95.3693 170.266C95.164 170.479 94.864 170.574 94.5733 170.516L89.8806 169.592C89.3825 169.494 89.0739 168.993 89.211 168.504L89.6594 166.907C89.8255 166.316 89.2236 165.8 88.6639 166.054C88.454 166.15 88.2113 166.139 88.0104 166.027L87.6132 165.804C87.2917 165.623 86.8914 165.665 86.6138 165.907L85.3493 167.012C85.1765 167.163 84.9511 167.24 84.722 167.226L83.2144 167.132C83.0678 167.123 82.9259 167.076 82.8019 166.998L81.0718 165.9C80.463 165.513 79.6749 165.992 79.738 166.71L79.964 169.28C80.0063 169.761 80.4328 170.115 80.914 170.069L82.3188 169.934C82.5172 169.915 82.7161 169.965 82.8823 170.075L85.4821 171.794C85.7691 171.984 86.1412 171.987 86.4313 171.802L87.6051 171.052C87.8016 170.927 88.0404 170.885 88.2678 170.937L97.2279 172.983C97.5642 173.06 97.8233 173.328 97.8886 173.666L98.5883 177.295C98.6868 177.805 99.2093 178.116 99.7057 177.959L106.397 175.842C106.896 175.684 107.144 175.125 106.925 174.65L105.31 171.138C105.252 171.013 105.165 170.903 105.056 170.817L101.539 168.062C101.404 167.956 101.303 167.812 101.25 167.649L100.879 166.523C100.817 166.335 100.822 166.131 100.892 165.945L102.461 161.78C102.584 161.454 102.889 161.233 103.236 161.217L106.212 161.082C106.326 161.077 106.437 161.05 106.54 161.002L108.89 159.911C109.418 159.666 110.033 159.998 110.118 160.573L110.217 161.247C110.253 161.493 110.394 161.712 110.602 161.848L111.442 162.396C111.718 162.576 112.072 162.584 112.357 162.418L115.383 160.652C115.688 160.474 116.07 160.498 116.351 160.712L118.288 162.19C118.425 162.295 118.59 162.356 118.762 162.367L121.595 162.544C121.879 162.561 122.137 162.717 122.285 162.96L123.703 165.293C123.852 165.538 124.113 165.694 124.4 165.71L126.636 165.831C126.762 165.838 126.887 165.817 127.004 165.771L131.898 163.836C132.226 163.706 132.598 163.866 132.729 164.194C132.915 164.661 133.544 164.74 133.841 164.334L134.025 164.083C134.147 163.916 134.329 163.801 134.533 163.764L136.356 163.426C136.518 163.395 136.685 163.412 136.839 163.474L138.696 164.218C139.198 164.419 139.761 164.119 139.872 163.59L140.275 161.672C140.369 161.225 140.101 160.782 139.661 160.657L136.166 159.665C136.05 159.632 135.943 159.576 135.85 159.499L133.383 157.466C133.063 157.201 132.599 157.2 132.278 157.464L128.454 160.593C128.236 160.772 127.944 160.834 127.671 160.759L120.56 158.799C120.164 158.69 119.899 158.32 119.923 157.911L120.076 155.273C120.116 154.585 120.904 154.215 121.46 154.623L126.248 158.134C126.508 158.324 126.851 158.356 127.141 158.216L130.133 156.778C130.711 156.5 130.799 155.713 130.297 155.314L127.211 152.86C126.8 152.533 126.77 151.92 127.148 151.555L127.813 150.912C127.968 150.763 128.062 150.561 128.077 150.347L128.276 147.476L128.054 137.851L128.485 132.94C128.515 132.588 128.177 132.318 127.84 132.427C127.725 132.464 127.628 132.541 127.567 132.645L127.086 133.456C126.994 133.612 126.855 133.735 126.69 133.808L122.638 135.604C122.071 135.855 121.431 135.451 121.415 134.832L121.279 129.593L120.025 118.946C119.979 118.557 120.199 118.185 120.563 118.038L122.185 117.384C122.242 117.361 122.301 117.344 122.362 117.333L123.408 117.152C123.502 117.136 123.593 117.105 123.676 117.059L129.611 113.828C129.924 113.658 130.101 113.314 130.059 112.961L129.851 111.24C129.821 110.985 129.678 110.756 129.462 110.615L127.913 109.61C127.47 109.322 127.384 108.709 127.73 108.311L128.187 107.785C128.395 107.546 128.456 107.214 128.347 106.916L125.765 99.8686C125.582 99.3688 125.887 98.8235 126.409 98.7177L129.312 98.1292C129.454 98.1003 129.601 98.1075 129.74 98.1502L134.367 99.5695C134.507 99.6126 134.634 99.6904 134.736 99.7958L139.128 104.325C139.42 104.626 139.887 104.676 140.236 104.443L144.203 101.798C144.562 101.558 145.043 101.618 145.332 101.938L147.809 104.679C147.892 104.771 147.954 104.88 147.992 104.999L151.41 115.74C151.525 116.101 151.861 116.346 152.24 116.346H152.555C152.701 116.346 152.845 116.309 152.973 116.239L155.978 114.595C156.431 114.348 156.999 114.546 157.199 115.021L157.677 116.159C157.701 116.214 157.73 116.267 157.764 116.316L158.598 117.521C158.74 117.726 158.964 117.861 159.213 117.89L159.473 117.92C159.924 117.973 160.339 117.671 160.428 117.227L161.449 112.114C161.556 111.579 162.123 111.273 162.629 111.478L163.645 111.888C163.693 111.908 163.743 111.923 163.794 111.934L164.234 112.025C164.864 112.156 165.413 111.583 165.255 110.96L164.205 106.822C164.122 106.497 164.234 106.155 164.491 105.94L168.391 102.694C168.64 102.487 168.753 102.16 168.685 101.844L168.162 99.4065C168.14 99.3079 168.137 99.2063 168.15 99.1064L168.623 95.652C168.665 95.3442 168.54 95.0374 168.294 94.8471L166.736 93.6407C166.414 93.3913 166.308 92.9518 166.482 92.5834L167.286 90.8762C167.367 90.7028 167.504 90.5613 167.675 90.4735L169.368 89.6019C169.429 89.5703 169.497 89.5538 169.566 89.5538C169.92 89.5538 170.124 89.1537 169.917 88.8676L169.506 88.3006C169.4 88.1539 169.468 87.9464 169.64 87.8902C169.807 87.8358 169.877 87.6383 169.781 87.4911L169.768 87.4702C169.715 87.3888 169.624 87.3396 169.527 87.3396H169.192C168.848 87.3396 168.536 87.1365 168.396 86.8217L168.293 86.588C168.221 86.4244 168.1 86.2871 167.946 86.1948L167.714 86.0553C167.49 85.9202 167.338 85.6911 167.302 85.4318L167.249 85.0612C167.244 85.0262 167.247 84.9906 167.258 84.9569C167.325 84.7392 167.079 84.5593 166.892 84.6894L166.371 85.0511C166.326 85.083 166.274 85.1062 166.22 85.1196L165.013 85.4186C164.678 85.5016 164.325 85.379 164.114 85.1061L163.01 83.677C162.951 83.6011 162.88 83.5354 162.8 83.4826L161.553 82.6608C161.159 82.4014 160.63 82.5024 160.36 82.8886L160.246 83.052C160.075 83.2967 159.79 83.4366 159.491 83.4225L155.678 83.2429C155.59 83.2388 155.503 83.2214 155.421 83.1913L152.906 82.2754C152.464 82.1144 151.974 82.3336 151.799 82.7703L150.761 85.3729C150.569 85.8529 150.837 86.3929 151.335 86.5322L157.1 88.1432C157.446 88.2398 157.696 88.5385 157.732 88.8954L157.805 89.6397C157.849 90.0858 157.546 90.4921 157.105 90.5781L155.915 90.8102C155.679 90.8563 155.473 90.9977 155.345 91.2011L155.304 91.2668C155.19 91.4471 155.147 91.6627 155.182 91.8727L155.956 96.4941C156.059 97.1074 156.754 97.4179 157.28 97.0854L157.631 96.8635C157.782 96.7677 157.859 96.5887 157.825 96.4129C157.783 96.1995 157.905 95.988 158.111 95.918L159.213 95.544C159.454 95.4622 159.718 95.4897 159.937 95.6193L160.14 95.7398C160.317 95.8443 160.42 96.0386 160.408 96.2432C160.396 96.4467 160.272 96.6268 160.086 96.7105L160.036 96.733C159.717 96.8762 159.573 97.2481 159.711 97.5683L161.346 101.354C161.395 101.466 161.419 101.587 161.418 101.709L161.388 104.277C161.384 104.648 161.144 104.976 160.791 105.092L156.673 106.455C156.484 106.517 156.279 106.513 156.093 106.443L153.725 105.552C153.459 105.452 153.258 105.228 153.188 104.953L152.706 103.056C152.66 102.873 152.555 102.71 152.408 102.592L151.98 102.249C151.725 102.044 151.606 101.713 151.673 101.393L152.03 99.6898C152.082 99.4403 152.241 99.2263 152.465 99.1043L152.93 98.8514C153.219 98.6943 153.573 98.7213 153.835 98.9203C154.181 99.184 154.673 99.1367 154.963 98.8116L155.534 98.1707C155.714 97.969 155.79 97.6952 155.739 97.4298L154.646 91.6919C154.596 91.4277 154.671 91.1552 154.849 90.9537L154.96 90.8284C155.086 90.686 155.255 90.5887 155.441 90.5515L156.698 90.3007C157.123 90.216 157.42 89.832 157.396 89.3999L157.394 89.3548C157.374 88.9895 157.126 88.676 156.776 88.5706L152.749 87.3599C152.05 87.1497 151.47 87.9268 151.871 88.5361C152.021 88.7637 152.041 89.0528 151.924 89.299L149.745 93.8972C149.544 94.3219 149.041 94.51 148.61 94.3218L148.052 94.0782C147.73 93.9376 147.353 94.0338 147.139 94.3116C147.006 94.4834 146.806 94.5908 146.589 94.607L146.213 94.6352C146.003 94.6508 145.81 94.7504 145.675 94.9113C145.52 95.0974 145.286 95.2 145.044 95.1887L144.36 95.1567C143.998 95.1398 143.684 94.9001 143.572 94.5552L143.442 94.1499C143.4 94.0226 143.33 93.9064 143.237 93.8104L142.12 92.6643C142.051 92.5936 141.949 92.5662 141.854 92.5929C141.709 92.6335 141.626 92.7848 141.669 92.9288L141.719 93.0998C141.786 93.325 141.667 93.5634 141.446 93.6444L140.794 93.8834C140.379 94.0354 139.944 93.7155 139.965 93.2748L139.985 92.8687C139.997 92.619 139.75 92.4382 139.516 92.5254C139.409 92.565 139.328 92.6542 139.3 92.7643L139.204 93.1319C139.077 93.6246 138.554 93.9027 138.073 93.734L136.83 93.2978C136.674 93.243 136.505 93.2338 136.344 93.2713L135.294 93.5159C134.905 93.6063 134.505 93.4215 134.322 93.0673L133.894 92.2358C133.664 91.7912 133.108 91.631 132.677 91.8856L132.613 91.9234C132.19 92.1733 131.643 92.0239 131.407 91.5934L131.327 91.4474C131.228 91.2676 131.068 91.1284 130.877 91.0546L130.865 91.0503C130.593 90.9454 130.286 90.9838 130.048 91.1525L129.06 91.8538C128.924 91.9496 128.829 92.0915 128.792 92.2527L128.713 92.5912C128.65 92.8581 128.35 92.9921 128.11 92.8603C127.993 92.7961 127.852 92.7923 127.731 92.8501L125.687 93.8312C125.572 93.8865 125.481 93.9828 125.433 94.1011C125.274 94.491 124.74 94.5361 124.517 94.1785L122.379 90.7391C122.299 90.6111 122.255 90.4645 122.249 90.3139L122.187 88.7185C122.183 88.6002 122.091 88.5036 121.973 88.4926C121.853 88.4813 121.76 88.3812 121.759 88.2605L121.729 85.816C121.725 85.4815 121.529 85.1789 121.225 85.038L120.811 84.8457C120.467 84.6864 120.266 84.3236 120.314 83.9483L120.402 83.2472C120.424 83.0757 120.29 82.9241 120.117 82.9241C119.958 82.9241 119.83 83.0527 119.83 83.2113V83.38C119.83 83.6318 119.625 83.8359 119.373 83.8359H118.665C118.149 83.8359 117.763 83.3609 117.871 82.8563C117.942 82.5218 117.795 82.1788 117.504 81.9986L116.623 81.4528C116.459 81.3512 116.334 81.1978 116.266 81.017L116.086 80.5328C116.05 80.4346 116.031 80.3305 116.032 80.2257L116.056 75.1393C116.056 74.9668 116.109 74.7984 116.206 74.6556L117.054 73.4054C117.136 73.2841 117.248 73.1855 117.379 73.1189L117.459 73.0779C117.657 72.9771 117.886 72.9555 118.099 73.0176L118.524 73.1414C118.761 73.2107 119.015 73.1079 119.138 72.8931C119.241 72.7116 119.441 72.6071 119.649 72.6254L120.522 72.7025C120.932 72.7387 121.261 73.0574 121.31 73.4662L121.314 73.4999C121.333 73.6661 121.305 73.8345 121.231 73.9848L120.246 75.9923C120.179 76.1304 120.149 76.284 120.16 76.4375L120.319 78.6363C120.332 78.8152 120.404 78.9845 120.525 79.117C120.849 79.4719 121.411 79.4633 121.724 79.0987L123.645 76.8588C123.778 76.7045 123.852 76.5087 123.855 76.3055L123.884 74.2376C123.888 74.0191 123.973 73.8098 124.124 73.6514L125.941 71.7392C126.017 71.6594 126.078 71.565 126.119 71.4628C126.288 71.0393 126.104 70.5522 125.693 70.3529L124.98 70.0069C124.712 69.8772 124.39 69.9602 124.219 70.203C124.051 70.442 123.736 70.5267 123.47 70.4044L121.039 69.2858C120.592 69.0799 120.405 68.5447 120.626 68.1053L121.217 66.9325C121.373 66.6223 121.33 66.2491 121.106 65.983L119.831 64.4641C119.761 64.3804 119.707 64.2843 119.673 64.1807L119.521 63.7254C119.483 63.6136 119.469 63.4954 119.479 63.3779L119.494 63.1997C119.508 63.0245 119.576 62.8579 119.687 62.7218L119.968 62.3793C120.327 61.9395 120.175 61.2786 119.659 61.04L110.386 56.7527C110 56.5742 109.546 56.8032 109.454 57.2183C109.427 57.3413 109.436 57.4709 109.482 57.5886C109.623 57.9586 109.4 58.3676 109.012 58.4489L108.779 58.4977C108.431 58.5708 108.165 58.8541 108.114 59.2065L107.447 63.8798C107.374 64.3896 106.876 64.7248 106.376 64.6009L106.323 64.5878C105.881 64.4782 105.433 64.7472 105.322 65.1891C105.308 65.2464 105.287 65.3019 105.261 65.3548L104.892 66.0997C104.802 66.2823 104.65 66.4274 104.463 66.5096L104.191 66.6296C103.915 66.7512 103.722 67.007 103.68 67.3055L102.637 74.8095L102.341 82.4611C102.324 82.9029 101.978 83.2616 101.536 83.2945L95.3378 83.7567C95.1054 83.774 94.8758 83.6975 94.7003 83.5443L91.9119 81.1099C91.6223 80.857 91.5332 80.4443 91.6927 80.0947L93.4008 76.351C93.5945 75.9264 93.4182 75.4248 93.0013 75.2144L92.0042 74.7111C91.7451 74.5803 91.648 74.2597 91.7911 74.0074C91.9469 73.7327 91.8167 73.3841 91.5189 73.2785L89.4491 72.544C89.1529 72.4389 88.9365 72.1825 88.8829 71.8731L88.3394 68.7392C88.2608 68.2859 88.5492 67.85 88.9974 67.7445L90.2087 67.4593C90.4116 67.4116 90.6248 67.4381 90.8098 67.5341L92.9629 68.6521C93.0416 68.693 93.1137 68.7457 93.1765 68.8084L94.1356 69.7653C94.1727 69.8023 94.213 69.8359 94.2562 69.8657L94.9883 70.3706C95.4727 70.7047 96.1425 70.472 96.315 69.9098L97.0512 67.5098C97.0765 67.4272 97.0893 67.3414 97.0893 67.2551V66.4022C97.0893 66.0577 96.8857 65.7456 96.5701 65.6066L91.1928 63.2386C90.8101 63.0701 90.3617 63.2123 90.1463 63.5704C89.9717 63.8607 89.6381 64.0158 89.3034 63.9622L87.9833 63.751C87.4956 63.673 87.1706 63.2056 87.2676 62.7218L87.5127 61.4986C87.5267 61.429 87.5491 61.3613 87.5796 61.2972L91.0333 54.0118C91.246 53.5633 91.0402 53.0283 90.5817 52.8372L83.7935 50.0098C83.4407 49.8628 83.2251 49.503 83.2622 49.1229L83.5452 46.2249C83.597 45.6947 84.1095 45.3353 84.6263 45.4668L87.4672 46.1897C87.5115 46.201 87.5548 46.2157 87.5968 46.2338L94.8594 49.3597C95.2318 49.52 95.6647 49.3621 95.8462 48.9999C95.9242 48.8443 96.053 48.72 96.2113 48.6474L98.6661 47.522C98.7965 47.4623 98.91 47.3712 98.9967 47.257L103.56 41.2426C103.681 41.0835 103.853 40.9707 104.047 40.9233L104.526 40.806Z" fill="#BAFFEA"/>
</g>
</svg>
