<svg width="245" height="200" viewBox="0 0 245 200" fill="none" xmlns="http://www.w3.org/2000/svg">
<path d="M12.1334 138.53C11.6943 138.114 10.9891 138.18 10.6349 138.671L6.4952 144.404C6.38629 144.555 6.32161 144.733 6.30844 144.918L5.86677 151.143C5.85637 151.289 5.8138 151.432 5.74209 151.56L0.334083 161.232C0.271159 161.344 0.230589 161.468 0.214608 161.596L0.150572 162.108C0.0725587 162.733 0.583994 163.273 1.21189 163.23L6.76295 162.846C7.19279 162.816 7.55525 162.514 7.66247 162.097L11.7377 146.235C11.792 146.023 11.9138 145.836 12.0847 145.7L19.0608 140.165C19.4339 139.869 19.9639 139.877 20.3277 140.184L36.1521 153.554C36.4171 153.778 36.7793 153.849 37.109 153.741L37.2276 153.702C37.9621 153.461 38.1574 152.513 37.5779 152.002L28.3051 143.815C28.1464 143.674 28.0362 143.487 27.9905 143.281L26.6652 137.278C26.5923 136.948 26.6912 136.603 26.9282 136.362L28.5231 134.738C28.7111 134.546 28.9682 134.439 29.2365 134.439H33.5107C33.7681 134.439 34.0156 134.538 34.2017 134.716L36.001 136.436C36.3388 136.758 36.855 136.804 37.2444 136.546L37.7287 136.225C38.457 135.743 39.4106 136.36 39.2677 137.222L38.487 141.932C38.3726 142.622 38.9839 143.213 39.6698 143.076L41.8285 142.644C41.9624 142.617 42.1003 142.618 42.2339 142.647L46.8935 143.643C47.1211 143.692 47.3585 143.66 47.5648 143.552L48.1663 143.239C48.6945 142.963 49.3447 143.208 49.5605 143.763L50.3305 145.744C50.5762 146.377 51.3669 146.586 51.8933 146.158L61.6892 138.196C61.7973 138.108 61.8858 137.999 61.9491 137.875L66.5289 128.903C66.9153 128.146 68.01 128.186 68.3408 128.968L71.6238 136.738C71.864 137.307 72.5568 137.524 73.0788 137.195L91.1119 125.81C91.2905 125.697 91.4287 125.531 91.5069 125.335L94.0109 119.054C94.1771 118.637 94.6011 118.382 95.0475 118.43L100.107 118.978C100.384 119.008 100.661 118.921 100.871 118.738L128.602 94.5983C128.851 94.3817 128.977 94.0562 128.939 93.7285L127.152 78.3581C127.137 78.2284 127.097 78.103 127.033 77.9888L112.658 52.0508C112.321 51.4432 111.483 51.3556 111.028 51.8804L109.889 53.1936C109.714 53.395 109.467 53.5183 109.201 53.5362L95.0042 54.4935C94.9016 54.5004 94.7986 54.4914 94.6988 54.467L67.5999 47.8216C67.0485 47.6863 66.7201 47.1197 66.8769 46.5741L72.4719 27.1073C72.5948 26.6796 72.4204 26.2222 72.0439 25.985L67.9453 23.4027C67.567 23.1644 67.0766 23.2061 66.744 23.5048L56.7921 32.4426C56.3826 32.8104 56.3607 33.4449 56.744 33.8401C57.0911 34.1979 57.1105 34.7606 56.7889 35.1415L48.5674 44.88C48.2613 45.2426 47.7425 45.3401 47.3256 45.1134L43.2423 42.8928C42.8357 42.6717 42.3306 42.7585 42.0211 43.1026L40.8698 44.3825C40.5877 44.6962 40.5327 45.1532 40.7325 45.5247L43.0009 49.7447C43.1431 50.0092 43.1588 50.3236 43.0439 50.601L36.3191 66.8277C36.28 66.922 36.2556 67.0218 36.2467 67.1236L35.8349 71.8435C35.8265 71.9396 35.8321 72.0364 35.8514 72.1308L37.5033 80.2033C37.5235 80.302 37.5286 80.4032 37.5186 80.5035L35.8424 97.2375C35.8291 97.3701 35.7895 97.4987 35.7258 97.6157L25.067 117.208C24.9237 117.471 24.926 117.79 25.0728 118.051L25.159 118.204C25.472 118.761 25.0209 119.438 24.3864 119.363C23.8281 119.298 23.3851 119.825 23.5465 120.364L25.1126 125.588C25.1907 125.848 25.1594 126.129 25.0261 126.366L22.9583 130.037C22.8353 130.255 22.6348 130.419 22.3965 130.497L19.9545 131.292C19.6464 131.392 19.3089 131.337 19.0488 131.144L17.8819 130.277C17.4072 129.925 16.7321 130.059 16.4281 130.566L15.1752 132.655C14.9183 133.084 15.0169 133.636 15.4062 133.949L18.4947 136.432C18.9656 136.811 18.9957 137.517 18.5586 137.935L15.7332 140.632C15.3479 141 14.7417 141.001 14.3549 140.635L12.1334 138.53Z" fill="#FFC7C1"/>
</svg>
