<svg width="245" height="200" viewBox="0 0 245 200" fill="none" xmlns="http://www.w3.org/2000/svg">
<path d="M135.489 134.487C136.164 134.85 136.979 134.351 136.963 133.585L136.597 116.585C136.59 116.281 136.285 116.073 135.999 116.179C135.766 116.266 135.506 116.143 135.426 115.907L135.293 115.517C135.102 114.96 134.414 114.764 133.958 115.138L132.401 116.416C132.298 116.501 132.178 116.564 132.05 116.602L128.571 117.628C128.458 117.661 128.34 117.675 128.223 117.667L126.404 117.55C126.03 117.526 125.701 117.295 125.551 116.951L124.851 115.341C124.775 115.167 124.652 115.019 124.495 114.912L123.823 114.458C123.65 114.34 123.443 114.28 123.233 114.286L122.091 114.319C121.959 114.323 121.844 114.409 121.803 114.534C121.735 114.739 121.484 114.815 121.314 114.681L121.166 114.565C120.991 114.428 120.742 114.441 120.583 114.595L118.804 116.311C118.364 116.735 117.65 116.669 117.295 116.171L116.567 115.15C116.412 114.932 116.35 114.66 116.396 114.397L116.532 113.622C116.565 113.438 116.648 113.266 116.773 113.126L119.824 109.733C120.062 109.469 120.421 109.351 120.769 109.422L122.001 109.675C122.397 109.757 122.802 109.592 123.029 109.258L123.99 107.844C124.155 107.602 124.205 107.3 124.128 107.018L123.918 106.251C123.812 105.867 123.489 105.582 123.095 105.525L122.166 105.392C121.886 105.352 121.674 105.119 121.66 104.836C121.645 104.539 121.412 104.3 121.116 104.277L118.636 104.083C118.446 104.069 118.264 104 118.112 103.885L117.654 103.54C117.255 103.239 117.14 102.69 117.383 102.254L118.305 100.602C118.532 100.196 118.449 99.688 118.106 99.3751L116.131 97.5765C115.84 97.3111 115.737 96.8968 115.87 96.5258C116.016 96.1174 115.875 95.6616 115.524 95.4068L114.661 94.7808C114.445 94.6236 114.3 94.3861 114.26 94.1215L113.773 90.9089C113.752 90.7666 113.807 90.6235 113.918 90.5321C114.076 90.402 114.306 90.4093 114.456 90.5491L115.001 91.0584C115.363 91.3961 115.917 91.4184 116.305 91.1109L116.337 91.0857C116.648 90.8389 116.784 90.4314 116.683 90.0473L116.012 87.5023C115.889 87.0352 116.117 86.5468 116.554 86.3419L116.7 86.2737C116.981 86.1419 117.186 85.8868 117.252 85.5833L117.397 84.9261C117.494 84.4892 117.929 84.2156 118.364 84.3179C118.804 84.4212 119.242 84.1409 119.333 83.6983L119.381 83.4641C119.48 82.9804 119.918 82.6415 120.411 82.6664L122.029 82.7479C122.521 82.7726 122.957 82.4365 123.058 81.9552L124.441 75.3897C124.471 75.244 124.469 75.0933 124.434 74.9486L123.832 72.4563C123.701 71.918 123.159 71.588 122.621 71.7203L122.36 71.7843C122.058 71.8587 121.739 71.7665 121.523 71.5422L121.342 71.3544C121.118 71.1218 121.117 70.7538 121.34 70.5205C121.565 70.286 121.563 69.9157 121.336 69.6836L118.611 66.8953C118.566 66.8493 118.525 66.7991 118.49 66.7453L114.388 60.4987C114.194 60.2033 113.859 60.0322 113.506 60.0487L109.774 60.2224C109.147 60.2516 108.702 60.8434 108.847 61.4534L109.304 63.3653C109.397 63.759 109.245 64.1705 108.917 64.4077L107.987 65.08C107.526 65.4137 106.879 65.2952 106.566 64.8196L105.896 63.8022C105.822 63.6894 105.725 63.5928 105.613 63.5183L99.1033 59.2108C98.8264 59.0276 98.4766 58.9942 98.17 59.1216L97.3094 59.4793C96.7821 59.6984 96.2588 59.1587 96.4942 58.6384C96.5619 58.4888 96.5684 58.3186 96.5124 58.1641L96.4685 58.0433C96.3016 57.5836 95.8117 57.327 95.3388 57.4516L93.7891 57.8599C93.3977 57.963 93.107 58.2919 93.0528 58.693L92.7022 61.2882C92.6407 61.7436 92.8974 62.1823 93.3246 62.3517L96.0881 63.4476C96.2193 63.4996 96.3092 63.622 96.3194 63.7628C96.3326 63.9427 96.4743 64.0866 96.6541 64.1025L97.0418 64.1366C97.6203 64.1876 97.9667 64.8042 97.7093 65.3247L97.5299 65.6876C97.4043 65.9416 97.1152 66.0697 96.8426 65.9922C96.4799 65.8891 96.1152 66.1496 96.0953 66.5262L95.9466 69.3389C95.9116 70.0001 95.2513 70.4423 94.6266 70.2229C94.3513 70.1261 94.1325 69.9131 94.0284 69.6405L93.6403 68.624C93.5157 68.2975 93.2297 68.0598 92.8859 67.997L88.4301 67.1822C88.3031 67.1589 88.1784 67.2326 88.1374 67.355C88.0866 67.5068 87.9118 67.5768 87.7703 67.5022L86.7204 66.9486C86.4033 66.7814 86.0209 66.7967 85.7182 66.9887L83.3558 68.4875C82.9749 68.7292 82.4793 68.6859 82.1461 68.3819L80.3421 66.7358C80.1819 66.5896 79.9785 66.4995 79.7625 66.479L75.8439 66.1071C75.7012 66.0936 75.563 66.0495 75.4388 65.9779L69.1152 62.3319C68.9997 62.2653 68.8721 62.2225 68.7399 62.2059L50.752 59.9537C50.3652 59.9053 49.9854 60.0861 49.7792 60.4169L46.3995 65.8377C46.2219 66.1224 45.9135 66.2991 45.5781 66.3083L44.6916 66.3324C44.4412 66.3392 44.1974 66.2518 44.0083 66.0874L41.1189 63.5752C41.0488 63.5142 40.9705 63.4634 40.8864 63.424L38.7194 62.4107C38.3268 62.2271 37.8607 62.3172 37.565 62.6339L37.5187 62.6834C37.1602 63.0673 36.5658 63.1083 36.1579 62.7774L34.6631 61.5646C34.5713 61.4901 34.4935 61.4 34.4331 61.2983L31.1657 55.7908C31.1004 55.6808 31.0569 55.5592 31.0374 55.4328L30.9565 54.9078C30.897 54.5212 31.0683 54.1354 31.395 53.9203L32.6448 53.0976C33.0501 52.8308 33.2054 52.3117 33.0132 51.8662L30.3435 45.6774C30.3173 45.6166 30.2851 45.5585 30.2473 45.504L27.4724 41.4991C27.1756 41.0707 27.2807 40.483 27.7077 40.1841C28.0901 39.9163 28.2203 39.4096 28.0143 38.9906L26.3297 35.5638C26.0811 35.0581 25.4641 34.8576 24.9657 35.1205L23.9736 35.6438C23.8116 35.7292 23.6294 35.7685 23.4466 35.7575L22.7231 35.7137C22.4293 35.6959 22.1582 35.5496 21.9822 35.3137L21.5497 34.7344C21.3335 34.4449 20.9781 34.2944 20.6198 34.3409L19.8172 34.4449C19.276 34.5151 18.7785 34.1384 18.6992 33.5984L18.6433 33.2173C18.6055 32.96 18.469 32.7276 18.2627 32.5693L17.5902 32.0531C17.2121 31.7629 16.6817 31.7799 16.3229 32.0938L14.8407 33.3906C14.4589 33.7246 13.8811 33.6958 13.5345 33.3256C13.1979 32.966 12.641 32.9269 12.2575 33.2359L10.8465 34.3729C10.33 34.7891 9.55885 34.5963 9.299 33.986L8.39425 31.8611C8.3331 31.7175 8.30641 31.5616 8.31634 31.4058L8.35333 30.8254C8.40361 30.0364 7.56158 29.5038 6.87022 29.8874L1.43647 32.902C1.29838 32.9786 1.13291 32.9881 0.986933 32.9279C0.586662 32.7627 0.172142 33.1317 0.289873 33.5484L2.49163 41.3415C2.59186 41.6963 2.48879 42.0774 2.22343 42.3333L0.72833 43.7749C0.540466 43.9561 0.430862 44.2035 0.42292 44.4644L0.418842 44.5983C0.405157 45.0478 0.693209 45.4512 1.12283 45.5841L3.41212 46.2923C3.80389 46.4135 4.22994 46.2832 4.48694 45.9637L6.98085 42.8625C7.25388 42.523 7.71531 42.3994 8.12154 42.5568L9.2592 42.9978C9.41711 43.059 9.58799 43.0791 9.75579 43.0562L15.7236 42.242C16.2168 42.1748 16.6844 42.4805 16.8206 42.9593L17.4688 45.2379C17.499 45.3443 17.5114 45.4549 17.5055 45.5654L16.4878 64.4314C16.4583 64.9774 15.9958 65.3985 15.4494 65.3767L5.6113 64.9843C5.4503 64.9779 5.3195 65.1129 5.33104 65.2737C5.34118 65.415 5.45882 65.5245 5.60053 65.5245H6.17442C6.75758 65.5245 7.18197 66.0778 7.03088 66.641L7.01138 66.7137C6.90211 67.121 6.5282 67.4006 6.10658 67.3903C5.61284 67.3781 5.19886 67.7606 5.17195 68.2538L4.77697 75.4929C4.76879 75.6428 4.79447 75.7926 4.8521 75.9312L5.25234 76.894C5.39155 77.2288 5.33856 77.6128 5.11388 77.8975L4.91123 78.1542C4.78354 78.3159 4.70895 78.5132 4.69765 78.719L3.06921 108.389C3.03126 109.08 3.69075 109.6 4.35428 109.402L6.46782 108.77C6.75086 108.685 7.05685 108.73 7.30372 108.892L8.77808 109.861C9.22187 110.153 9.36019 110.741 9.09309 111.2L8.74533 111.798C8.49164 112.233 8.60236 112.79 9.00357 113.096L9.48112 113.46C9.64035 113.581 9.72436 113.777 9.70252 113.976L9.69848 114.013C9.63666 114.576 10.3544 114.865 10.6997 114.415C10.8696 114.194 11.1763 114.132 11.4192 114.269L11.6134 114.378C11.7898 114.478 11.9969 114.508 12.1945 114.464L15.9841 113.611C16.2233 113.557 16.4739 113.593 16.6883 113.711L16.741 113.741C17.1338 113.958 17.3333 114.411 17.229 114.848L16.8107 116.599C16.7596 116.813 16.7805 117.038 16.8701 117.239L18.4272 120.728C18.504 120.9 18.6279 121.047 18.7846 121.152L21.5632 123.01C21.6828 123.09 21.7837 123.195 21.859 123.317L22.602 124.525C22.8432 124.917 22.7857 125.423 22.4628 125.751L21.1911 127.042C21.0859 127.149 20.9582 127.23 20.8173 127.281L15.3657 129.243C15.1462 129.322 15.1086 129.617 15.301 129.748C15.4632 129.859 15.4677 130.097 15.3099 130.214L15.2958 130.224C15.1945 130.3 15.057 130.303 14.9522 130.233L14.8267 130.149C14.5812 129.985 14.2483 130.062 14.0993 130.317L12.2158 133.537C12.1117 133.715 11.9553 133.857 11.7678 133.942L10.9475 134.317C10.4401 134.548 10.2203 135.15 10.4589 135.654L10.5611 135.87C10.7672 136.305 11.2543 136.532 11.72 136.409L15.0163 135.539C15.4954 135.413 15.9949 135.657 16.1903 136.112L17.6274 139.459C17.7025 139.634 17.7261 139.827 17.6955 140.015L17.4975 141.229C17.426 141.668 17.6627 142.098 18.0711 142.273C18.6299 142.513 18.8319 143.202 18.4904 143.705L17.5596 145.076C17.3661 145.361 17.4785 145.752 17.794 145.89C18.0302 145.994 18.1628 146.248 18.1132 146.501L16.7449 153.489C16.7042 153.697 16.5988 153.886 16.4437 154.03L15.0394 155.333C14.8717 155.489 14.7624 155.697 14.7298 155.923L14.4818 157.644C14.4695 157.729 14.4682 157.816 14.4781 157.902L14.4893 157.998C14.5478 158.504 14.9774 158.885 15.4869 158.883L20.8692 158.86C21.2451 158.858 21.5851 158.636 21.7375 158.292C21.8603 158.015 22.1077 157.813 22.4038 157.747L24.7116 157.237C24.933 157.188 25.1644 157.216 25.3679 157.315L27.4258 158.325C27.6342 158.427 27.8716 158.453 28.0974 158.4L28.8865 158.212C29.0114 158.182 29.1295 158.129 29.2341 158.054L30.1942 157.373C30.3867 157.236 30.6213 157.172 30.8566 157.192L31.1654 157.218C31.4143 157.238 31.6464 157.352 31.816 157.535L33.5122 159.368C33.6611 159.529 33.7529 159.735 33.7736 159.953L33.9222 161.518C33.9274 161.572 33.9368 161.625 33.9506 161.677L35.3621 167.054C35.3976 167.189 35.4043 167.33 35.3819 167.468L35.1925 168.633C35.0948 169.233 35.6908 169.71 36.2556 169.484C36.4819 169.393 36.6528 169.201 36.7177 168.966L36.7446 168.869C36.8017 168.662 36.9247 168.48 37.0949 168.349L37.4507 168.077C37.5226 168.021 37.6172 168.005 37.7032 168.034L37.7985 168.066C37.921 168.106 38.0487 168.02 38.0563 167.891C38.0638 167.764 38.1873 167.678 38.3086 167.715L38.6543 167.818C38.8041 167.863 38.9664 167.832 39.0896 167.736L39.7131 167.248C39.7523 167.217 39.7762 167.171 39.7786 167.121C39.7865 166.953 40.0069 166.896 40.0953 167.039L40.3531 167.457C40.4227 167.569 40.5539 167.628 40.6843 167.605L41.05 167.54C41.2503 167.505 41.4318 167.4 41.5631 167.245L42.392 166.264C42.6168 165.998 42.9961 165.924 43.3048 166.085C43.4745 166.174 43.6034 166.324 43.6649 166.506L43.7071 166.631C43.7985 166.9 44.0354 167.095 44.3179 167.132L44.4052 167.143C44.5364 167.16 44.6563 167.227 44.7407 167.329C44.9047 167.527 45.1886 167.577 45.4102 167.446L45.4958 167.395C45.5387 167.37 45.5786 167.34 45.6145 167.305L46.3181 166.628C46.7192 166.242 46.4711 165.563 45.9156 165.527C45.6947 165.512 45.4969 165.385 45.3925 165.19L45.2911 165C45.2017 164.833 45.1616 164.644 45.1755 164.455L45.316 162.548C45.3492 162.098 45.6797 161.726 46.1227 161.64L47.3649 161.399C47.6222 161.349 47.8068 161.122 47.8035 160.86L47.785 159.413C47.7834 159.289 47.9447 159.24 48.0122 159.344C48.052 159.405 48.1362 159.419 48.1932 159.373L48.4692 159.151C48.5462 159.089 48.5686 158.982 48.5227 158.894C48.4529 158.761 48.5436 158.601 48.6934 158.592L48.9048 158.579C48.9903 158.574 49.0708 158.537 49.1305 158.476L50.4396 157.131C50.5391 157.029 50.6017 156.897 50.6177 156.755L50.6591 156.389C50.6723 156.273 50.7705 156.185 50.8874 156.185C51.0184 156.185 51.1229 156.294 51.1168 156.425L51.1072 156.634C51.1015 156.756 51.1483 156.875 51.2358 156.96L54.3304 159.986C54.7197 160.367 55.342 160.366 55.7304 159.985L56.5261 159.203C56.5598 159.17 56.5958 159.139 56.6338 159.111L57.1805 158.708C57.2855 158.631 57.4046 158.575 57.531 158.543L60.0972 157.901C60.608 157.773 61.1304 158.064 61.2918 158.565L61.7881 160.106C61.8141 160.187 61.8297 160.271 61.8346 160.355L61.9258 161.941C61.9447 162.27 62.1245 162.568 62.4063 162.739L65.4934 164.607C65.5783 164.659 65.6705 164.697 65.7668 164.722L69.9367 165.773C70.133 165.822 70.3396 165.811 70.5294 165.74L72.119 165.15C72.6348 164.958 72.8989 164.386 72.7099 163.869L72.6256 163.638C72.3379 162.851 73.0876 162.081 73.8823 162.347L77.318 163.497C77.4251 163.533 77.5376 163.55 77.6505 163.548L80.4668 163.506C80.6451 163.503 80.8195 163.453 80.9718 163.36L84.8385 161.006C84.9906 160.913 85.1896 160.978 85.258 161.142C85.3349 161.327 85.5709 161.381 85.72 161.247L88.5159 158.749L98.0909 148.878C98.1792 148.787 98.2493 148.68 98.2977 148.563L99.0308 146.783C99.0806 146.662 99.1062 146.533 99.1062 146.402V143.192C99.1062 142.692 99.4745 142.27 99.969 142.201L101.239 142.025C101.336 142.012 101.434 142.013 101.53 142.028L102.614 142.197C103.077 142.269 103.528 142.011 103.699 141.575L104.498 139.542C104.529 139.462 104.571 139.387 104.621 139.317L105.172 138.564C105.298 138.392 105.48 138.268 105.687 138.213L105.766 138.192C106.307 138.049 106.839 138.447 106.856 139.006C106.87 139.508 107.307 139.893 107.808 139.844L108.177 139.808C108.61 139.766 108.966 139.449 109.058 139.023L109.276 138.009C109.324 137.787 109.446 137.588 109.621 137.445L111.08 136.255C111.308 136.068 111.607 135.992 111.897 136.047L114.356 136.51C114.632 136.562 114.916 136.496 115.141 136.328L117.218 134.773C117.302 134.71 117.375 134.635 117.436 134.55L118.164 133.519C118.212 133.451 118.251 133.377 118.281 133.299L119.475 130.176C119.638 129.75 120.069 129.488 120.522 129.54L125.397 130.095C125.921 130.155 126.309 130.613 126.282 131.14L126.247 131.826C126.221 132.338 126.586 132.786 127.092 132.865L134.502 134.021C134.614 134.039 134.722 134.075 134.822 134.128L135.489 134.487Z" fill="#FFC38C"/>
</svg>
