<svg width="245" height="200" viewBox="0 0 245 200" fill="none" xmlns="http://www.w3.org/2000/svg">
<path d="M83.4021 138.275C83.4021 138.301 83.3765 138.319 83.3524 138.31L79.5568 136.905C79.1968 136.771 78.9449 136.444 78.9085 136.062L78.4605 131.348C78.4202 130.924 78.6529 130.521 79.0404 130.344L81.6899 129.133C82.0202 128.982 82.2424 128.664 82.262 128.302C82.2892 127.8 82.3229 127.007 82.3322 126.037C82.3353 125.714 82.176 125.414 81.9294 125.206C80.2624 123.795 78.4459 121.02 77.8685 120.105C77.7457 119.91 77.5631 119.761 77.3462 119.684L73.1858 118.197C72.928 118.104 72.7192 117.911 72.6082 117.66L71.9319 116.136C71.6963 115.604 71.9616 114.985 72.5087 114.789L87.0262 109.587C87.6347 109.369 87.8796 108.639 87.5259 108.098L81.1482 98.3417C80.819 97.8381 81.0058 97.1599 81.5465 96.896L81.5871 96.8761C81.6654 96.8379 81.7384 96.7896 81.8042 96.7324L86.4382 92.7061C86.7387 92.4451 86.8557 92.0306 86.7361 91.651L80.4278 71.6157C80.3356 71.3228 80.383 71.0039 80.5564 70.7505L85.862 62.9986C86.1338 62.6014 86.0841 62.0669 85.7437 61.7266L85.3736 61.3566C84.9918 60.9749 84.9819 60.359 85.3513 59.9652L89.9246 55.0901C90.0097 54.9994 90.1109 54.9254 90.2231 54.8718L99.5122 50.4376C100.19 50.114 100.283 49.1864 99.6818 48.7354L94.6431 44.9525C94.3601 44.74 93.9858 44.6929 93.6589 44.8288L89.956 46.3678C89.5702 46.5281 89.1254 46.4317 88.8406 46.126L84.1905 41.1355C83.9328 40.859 83.5036 40.833 83.2144 41.0764C82.9221 41.3225 82.4874 41.2929 82.2311 41.0094L78.6869 37.0888C78.336 36.7007 78.3436 36.1076 78.7044 35.7287L79.4505 34.945C79.8637 34.5111 79.8051 33.8138 79.3254 33.4548L63.1954 21.386C62.8419 21.1215 62.3569 21.1201 62.0019 21.3825L39.2881 38.1726C38.6985 38.6084 37.856 38.2827 37.7129 37.5637L35.938 28.6457C35.9213 28.5622 35.8942 28.4812 35.8571 28.4047L30.8685 18.1127C30.5909 17.5399 29.856 17.3688 29.354 17.76L27.2414 19.4061C26.8708 19.6948 26.7512 20.2026 26.954 20.6264L27.7343 22.2577C27.9506 22.7098 27.7989 23.2521 27.3794 23.5263L19.3875 28.7503C19.0655 28.9607 18.8928 29.3372 18.9432 29.7186L19.0588 30.5914C19.0899 30.8264 19.2035 31.0427 19.3792 31.2017L25.0681 36.3484C25.1265 36.4013 25.191 36.4471 25.2602 36.4848L30.0837 39.115C30.2094 39.1835 30.3184 39.2786 30.3994 39.3967C30.6595 39.7761 31.372 40.8543 32.9572 43.4716C33.0284 43.5891 33.1241 43.6925 33.2356 43.7729C34.4204 44.628 35.8148 45.7964 37.3044 47.0875C37.5324 47.2852 37.6584 47.5759 37.6475 47.8775L37.5937 49.3646C37.5865 49.5648 37.6395 49.7625 37.7459 49.9321L40.6695 54.5934C40.7279 54.6864 40.7705 54.7885 40.7957 54.8954L42.0412 60.1809C42.079 60.3414 42.0765 60.5088 42.0337 60.6681C41.9001 61.1661 41.4088 61.4801 40.9007 61.3923L37.7073 60.84C37.1678 60.7467 36.6537 61.1045 36.5537 61.6427L36.4586 62.1545C36.4074 62.4302 36.4743 62.7147 36.643 62.9387L41.1546 68.9293C41.4706 69.3489 42.0573 69.4525 42.4979 69.1665L47.1533 66.1447C47.37 66.0041 47.5238 65.785 47.5826 65.5334L48.1853 62.9538C48.2915 62.4992 48.0691 62.0317 47.6495 61.8272L43.3635 59.7393C43.1154 59.6184 42.9283 59.4004 42.8465 59.1369L41.4027 54.4888C41.3743 54.3973 41.3328 54.3104 41.2797 54.2306L38.3226 49.7964C38.2335 49.6628 38.1938 49.5023 38.2103 49.3425C38.2682 48.7831 38.9343 48.525 39.3511 48.9026C43.5789 52.7325 47.806 56.9596 48.5724 57.7296C48.655 57.8126 48.7496 57.8788 48.8556 57.9287L55.882 61.2343C56.0508 61.3137 56.1941 61.4388 56.2955 61.5953L60.0809 67.4368C60.1713 67.5763 60.2255 67.7361 60.2386 67.9018L60.8172 75.22C60.8371 75.472 60.7609 75.7221 60.6038 75.9202L58.1217 79.0498C57.9255 79.2972 57.8577 79.6226 57.9386 79.9277L58.4094 81.7018C58.4809 81.9713 58.6617 82.1987 58.9082 82.3291L61.6135 83.7609C61.9908 83.9606 62.1997 84.3778 62.1337 84.7995L61.7396 87.3149C61.6362 87.9749 62.1967 88.5488 62.859 88.461L66.7048 87.951C66.8319 87.9341 66.9546 87.893 67.0662 87.8298L68.1371 87.2231C68.3924 87.0785 68.5713 86.829 68.6264 86.5409L68.8334 85.4586C68.8736 85.2481 68.8452 85.0302 68.7522 84.8371L67.7674 82.7908C67.6146 82.4733 67.7238 82.0917 68.0214 81.903C68.3506 81.6943 68.7871 81.7973 68.9883 82.1313L71.6393 86.533C71.7247 86.6747 71.8438 86.793 71.9861 86.8774L75.0749 88.708C75.398 88.8995 75.5865 89.2559 75.5631 89.6307L75.4661 91.1817C75.4477 91.4766 75.2998 91.7482 75.0622 91.9237L73.0912 93.3793C72.6932 93.6733 72.1401 93.632 71.7901 93.2821L71.0617 92.5539C70.6473 92.1396 69.9671 92.1688 69.5897 92.6171L61.1476 102.645C61.0409 102.772 60.9674 102.923 60.9336 103.086L59.0417 112.174C58.9458 112.634 58.542 112.966 58.0716 112.97L47.3806 113.066C46.9418 113.07 46.5517 112.787 46.4187 112.369L43.7842 104.088C43.6733 103.739 43.3808 103.479 43.0215 103.41L38.7897 102.589C38.4479 102.523 38.1652 102.284 38.0433 101.958L33.7592 90.497C33.5408 89.9129 33.9044 89.2737 34.5179 89.1628L35.1074 89.0562C35.576 88.9715 35.9198 88.5682 35.9293 88.0921L36.0129 83.9116C36.0189 83.6118 36.1592 83.3305 36.395 83.1452L38.2815 81.6634C38.5458 81.4559 38.6881 81.1294 38.6604 80.7945L38.4389 78.12C38.3905 77.5362 37.853 77.1189 37.2755 77.2166L26.1163 79.1044C25.9706 79.1291 25.8213 79.1211 25.679 79.0812L22.5396 78.1991C22.0616 78.0648 21.7545 77.6002 21.8183 77.1079L23.4221 64.7325C23.4462 64.5465 23.4175 64.3575 23.3393 64.187L21.7301 60.679C21.5805 60.353 21.2679 60.1321 20.9106 60.1L8.58248 58.9924C7.89482 58.9306 7.35294 59.5678 7.52428 60.2366L11.1874 74.5346C11.3373 75.1199 10.9379 75.7034 10.338 75.7756L8.59812 75.9848C7.53931 76.1122 7.38861 77.587 8.39979 77.9259L8.62917 78.0027C8.91959 78.1 9.1494 78.3251 9.25277 78.6134L10.9498 83.347C11.1434 83.887 10.844 84.4788 10.2944 84.6427L3.13416 86.7788C2.84912 86.8639 2.61673 87.0714 2.50011 87.345L0.232424 92.6656C0.0900925 92.9995 0.139913 93.3844 0.362587 93.6711L3.48202 97.6873C3.56954 97.8 3.63193 97.9301 3.66501 98.0689L5.59048 106.149C5.72219 106.701 6.28738 107.034 6.8343 106.88L11.0588 105.69C11.4277 105.586 11.8235 105.702 12.0779 105.989L14.3267 108.523C14.4107 108.618 14.476 108.728 14.519 108.847L19.8465 123.573C19.9002 123.721 19.918 123.88 19.8985 124.037L17.8177 140.755C17.7564 141.247 18.0652 141.71 18.5431 141.842L33.4146 145.961C33.9581 146.112 34.2697 146.682 34.103 147.221L32.6299 151.982C32.4991 152.404 32.106 152.691 31.6635 152.686L26.0388 152.624C25.4685 152.617 25.0084 153.088 25.0283 153.658L25.1423 156.925C25.1511 157.178 25.2556 157.418 25.4347 157.597L27.5779 159.74C27.7625 159.924 28.0119 160.029 28.2728 160.032L33.6542 160.097C34.2169 160.104 34.6744 159.645 34.6661 159.083L34.613 155.468C34.6077 155.113 35.0298 154.924 35.2909 155.164C35.4737 155.333 35.7637 155.298 35.9013 155.091L37.6763 152.419C37.9146 152.06 38.3555 151.895 38.771 152.007L45.6073 153.861C46.0904 153.992 46.4023 154.46 46.3371 154.956L45.5105 161.249C45.4398 161.787 45.8111 162.283 46.3472 162.367L62.688 164.927C63.0102 164.977 63.2876 165.182 63.4311 165.475L68.4606 175.736C68.5305 175.878 68.5654 176.036 68.5625 176.194L68.4897 180.214C68.4756 180.995 69.3233 181.49 69.9969 181.094L82.9689 173.457C83.3921 173.208 83.5717 172.689 83.393 172.231L82.0225 168.726C81.9087 168.435 81.9376 168.107 82.1004 167.84L82.6759 166.898C82.9355 166.473 83.4683 166.303 83.9256 166.501L90.2208 169.217C90.6382 169.397 91.1245 169.273 91.4046 168.915L95.3349 163.891C95.6701 163.462 95.6012 162.844 95.1798 162.5L91.9723 159.88C91.6562 159.622 91.5288 159.198 91.6502 158.808L93.5729 152.638C93.6338 152.443 93.6333 152.234 93.5717 152.039L92.761 149.476C92.6066 148.988 92.846 148.462 93.3155 148.258L99.0256 145.773C99.3057 145.651 99.5147 145.408 99.5931 145.112L100.055 143.371C100.134 143.073 100.071 142.754 99.8842 142.509L94.9918 136.083C94.7518 135.768 94.3484 135.624 93.9632 135.717L83.4304 138.24C83.4138 138.244 83.4021 138.258 83.4021 138.275ZM72.7712 64.8533C72.8095 65.32 72.5189 65.7508 72.0718 65.8901L71.9769 65.9196C71.5098 66.0651 71.2165 66.5272 71.2837 67.0118L71.8698 71.2367C71.993 72.1249 70.9751 72.7139 70.2665 72.1644L68.3246 70.6586C68.0803 70.4692 67.9373 70.1774 67.9373 69.8683V67.0509C67.9373 66.7698 67.819 66.5016 67.6113 66.3121L66.6364 65.4228C66.1743 65.0013 66.2083 64.2637 66.7072 63.8864L69.9571 61.4289C69.9973 61.3985 70.0352 61.365 70.0705 61.3289L72.7541 58.5722C72.9139 58.4081 73.0125 58.1941 73.0334 57.966L73.2345 55.7741C73.2601 55.4949 73.4018 55.2393 73.625 55.0695L76.7036 52.7283C77.2255 52.3313 77.9818 52.5357 78.2328 53.1415L78.6049 54.0398C78.7586 54.4108 78.6755 54.8378 78.3937 55.124L74.6052 58.9728C74.1778 59.407 74.2347 60.1194 74.7258 60.4802L74.8968 60.6058C75.4614 61.0206 75.4355 61.8723 74.8467 62.2521L73.1763 63.3295C72.8662 63.5295 72.6915 63.884 72.7217 64.2518L72.7712 64.8533Z" fill="#A9FFAC"/>
</svg>
