<svg width="127" height="169" viewBox="0 0 127 169" fill="none" xmlns="http://www.w3.org/2000/svg">
<path d="M109.879 36.958C110.342 36.8542 110.821 37.0416 111.092 37.4319L113.026 40.2255C113.225 40.5118 113.54 40.6945 113.887 40.7236L118.882 41.1428C119.354 41.1824 119.802 40.9322 120.017 40.5096L121.893 36.8266C121.982 36.651 122.115 36.5009 122.278 36.3903L126.488 33.5318C126.817 33.3082 127.01 32.9317 127 32.5331L126.74 22.7042C126.725 22.1383 126.308 21.6645 125.75 21.5795L123.168 21.1868C122.335 21.0601 121.647 21.8333 121.868 22.6483L122.039 23.2813C122.212 23.922 121.819 24.5786 121.174 24.7266L117.838 25.492C117.226 25.6325 116.612 25.261 116.451 24.652L114.948 18.964C114.783 18.3403 114.145 17.9685 113.523 18.1334L105.898 20.1536C105.298 20.3127 104.678 19.9717 104.49 19.3783L103.849 17.3637C103.673 16.8081 103.115 16.4679 102.542 16.5664L100.741 16.8757C100.242 16.9614 99.7588 16.6566 99.6198 16.1685C99.4745 15.6584 98.9554 15.3525 98.4402 15.4732L93.5295 16.6239C92.9284 16.7648 92.3219 16.4114 92.1464 15.8179L90.9201 11.6702C90.7846 11.2119 90.941 10.7171 91.3151 10.4208L91.5718 10.2176C91.9153 9.94553 92.0778 9.50343 91.9926 9.07291L91.0945 4.53662C90.9186 3.64778 89.8443 3.28911 89.1719 3.89469L83.589 8.92288C83.2097 9.2645 82.6075 9.12746 82.4124 8.65515C82.2387 8.23448 81.7311 8.06896 81.3438 8.30667L71.1954 14.5347C71.0173 14.644 70.8132 14.7033 70.6044 14.7065L62.8365 14.825C62.7042 14.827 62.5724 14.8064 62.447 14.7641L50.7761 10.8266C49.8503 10.5142 48.9748 11.4135 49.3087 12.3338L50.9826 16.9481C51.2013 17.5511 50.8944 18.2181 50.2949 18.4425L44.5655 20.5878C44.3433 20.671 44.1011 20.6843 43.8713 20.6259L32.6567 17.777C32.5441 17.7484 32.4363 17.7031 32.337 17.6425L23.6902 12.3675C23.3628 12.1677 23.1543 11.8194 23.1324 11.4358L22.8484 6.46083C22.8428 6.36238 22.8247 6.26504 22.7947 6.17112L21.083 0.812538C20.8954 0.225227 20.2849 -0.114896 19.6884 0.0355257L11.6538 2.06151C11.5059 2.0988 11.3668 2.16481 11.2442 2.2558L9.55688 3.50889C9.51261 3.54177 9.47071 3.57775 9.43152 3.61657L5.96689 7.04774C5.74652 7.26598 5.75431 7.62502 5.98394 7.83345C6.05346 7.89655 6.10537 7.97673 6.13455 8.06609L8.67949 15.8585C8.84305 16.3593 8.53445 16.8911 8.01936 16.9961C7.63714 17.074 7.35185 17.3951 7.31876 17.7847L6.97923 21.7827C6.93114 22.3489 6.4838 22.7984 5.91913 22.8479L1.06594 23.2732C0.0725404 23.3602 -0.360401 24.5763 0.353514 25.2743L3.88792 28.7299C4.22274 29.0573 4.75067 29.0765 5.10831 28.7744C5.31534 28.5995 5.58934 28.5262 5.85574 28.5745L8.43615 29.0421C8.96599 29.1381 9.49249 28.8579 9.70998 28.3641L10.052 27.5876C10.2052 27.2397 10.5177 26.9883 10.8897 26.9137L12.1873 26.6533C12.8616 26.518 13.5056 26.9942 13.5758 27.68L13.8896 30.7448C13.9097 30.9417 14.0549 31.1029 14.2483 31.1431C14.4779 31.1907 14.6333 31.4063 14.6063 31.6398L14.2159 35.0276C14.1744 35.3877 14.3019 35.7468 14.5611 35.9995L14.7476 36.1814C14.9472 36.3761 15.0707 36.6359 15.0957 36.9139L15.5406 41.8455C15.5538 41.9921 15.5393 42.1399 15.4978 42.2811L10.7542 58.4218C10.7016 58.6007 10.6925 58.7896 10.7276 58.9728L11.4987 62.9955C11.5361 63.1905 11.5233 63.3919 11.4615 63.5807L11.115 64.6388C11.0258 64.9112 10.8398 65.1412 10.5924 65.2851L8.9295 66.2524C8.53032 66.4846 8.55836 67.0716 8.97785 67.2645C9.11267 67.3264 9.21801 67.4388 9.27145 67.5775L10.6936 71.2687C10.7473 71.4082 10.7739 71.5567 10.7718 71.7062L10.7021 76.694C10.7003 76.822 10.6775 76.9489 10.6347 77.0696L8.81596 82.1915C8.68638 82.5564 8.74555 82.962 8.97392 83.2744L9.85294 84.4769C10.2359 85.0008 10.1193 85.7374 9.59331 86.1167L9.25395 86.3614C9.0478 86.51 8.8957 86.7221 8.82076 86.9653L8.58486 87.7309C8.53429 87.8951 8.52043 88.0684 8.54428 88.2385L8.65756 89.0467C8.70639 89.3951 8.90917 89.7029 9.20961 89.8847L10.0062 90.3667C10.2114 90.491 10.3735 90.6756 10.4703 90.8955L10.8712 91.8063C11.0577 92.23 11.476 92.5033 11.9378 92.5033H12.9167C13.1047 92.5033 13.2798 92.5988 13.3819 92.7571L13.4082 92.7979C13.5922 93.0832 13.457 93.4658 13.135 93.5714C12.8024 93.6805 12.6719 94.0826 12.8768 94.367L14.0869 96.0469C14.4042 96.4873 14.377 97.0888 14.0212 97.4986L12.7924 98.914C12.6588 99.0679 12.5677 99.2542 12.5281 99.4543L12.1552 101.342C12.0797 101.724 12.1993 102.119 12.4742 102.395L13.8615 103.787C14.0012 103.927 14.1031 104.1 14.1576 104.291L14.9705 107.135C15.0271 107.333 15.1347 107.512 15.2826 107.655L17.3214 109.623C17.5775 109.87 17.9322 109.987 18.2846 109.939L22.1145 109.426C22.3254 109.398 22.5246 109.312 22.6904 109.178L27.8285 105.037C28.1283 104.795 28.5489 104.774 28.8718 104.983L29.487 105.383C30.041 105.742 30.7245 105.165 30.4646 104.556C30.3491 104.286 30.423 103.972 30.6467 103.781L41.5455 94.5156C41.9148 94.2017 42.4391 94.1492 42.863 94.3838L53.0993 100.05C53.544 100.296 54.0964 100.225 54.465 99.8744L59.5935 94.9982C60.1176 94.4998 60.0681 93.6483 59.4897 93.2143L55.3918 90.1397C54.9749 89.8269 54.9312 89.2163 55.2993 88.847C55.6262 88.519 55.6338 87.9899 55.3165 87.6525L39.8546 71.2175C39.5915 70.9379 39.158 70.9086 38.8599 71.1504C38.5136 71.4313 37.9996 71.3403 37.7701 70.9576L34.0902 64.8197C34.0457 64.7454 34.0096 64.6665 33.9825 64.5842L29.1844 50.0259C29.0102 49.4974 29.2319 48.9191 29.7143 48.6436L40.0132 42.7614C40.4983 42.4843 40.6873 41.8784 40.4459 41.3736C40.0439 40.5328 40.8357 39.6161 41.7232 39.8947L45.2532 41.0032C45.4693 41.0711 45.7006 41.0743 45.9185 41.0126L50.8998 39.6018C52.0507 39.2758 52.8866 40.6912 52.048 41.5461L49.2351 44.4137C49.0258 44.627 48.9062 44.9126 48.9007 45.2117L48.8179 49.7155C48.8119 50.0428 48.9431 50.3576 49.1795 50.5834L52.1655 53.4346C52.6238 53.8722 53.3467 53.8633 53.7941 53.4145L53.9867 53.2213C54.3973 52.8094 55.0475 52.7633 55.5118 53.1132L59.6278 56.2147C60.0139 56.5057 60.539 56.5278 60.9481 56.2703L62.4802 55.3059C62.7114 55.1604 62.8843 54.9381 62.9689 54.6778L64.7062 49.3275C64.8792 48.7948 65.4049 48.46 65.9594 48.5296L66.4953 48.5968C67.3701 48.7065 68.0451 47.8405 67.7275 47.016L67.4068 46.1832C67.2467 45.7674 67.3363 45.2965 67.638 44.9691L69.5776 42.8641C69.7936 42.6296 70.0959 42.4939 70.4142 42.4885L95.0347 42.0707C95.1637 42.0685 95.2922 42.0878 95.4148 42.1278L98.1367 43.0148C98.7245 43.2063 99.061 43.8246 98.9037 44.4238L97.7623 48.7717C97.6463 49.2133 97.7975 49.6822 98.1494 49.9721L98.7078 50.4323C98.8869 50.5799 99.1058 50.6706 99.3365 50.6928L104.63 51.203C104.71 51.2107 104.791 51.2101 104.87 51.2013L112.853 50.3142C113.056 50.2916 113.25 50.2157 113.415 50.0942L118.349 46.4577C119.228 45.81 118.818 44.4151 117.729 44.3493L109.555 43.8553C108.916 43.8167 108.428 43.2703 108.46 42.6302L108.686 38.1039C108.712 37.5792 109.084 37.1364 109.596 37.0217L109.879 36.958Z" fill="#BD9DFF"/>
<path d="M80.3455 151.826C80.0523 151.116 79.1668 150.878 78.5585 151.346L76.0628 153.266C75.8051 153.464 75.6416 153.762 75.6117 154.086L75.4498 155.84C75.4222 156.139 75.2808 156.416 75.055 156.614L69.7359 161.262C69.2133 161.719 69.2014 162.53 69.7105 163.002L70.3727 163.615C70.6113 163.837 70.747 164.148 70.747 164.474V166.875C70.747 167.237 70.9147 167.579 71.2009 167.8L72.4334 168.753C73.2613 169.393 74.4463 168.702 74.2996 167.664L73.8355 164.381C73.7685 163.907 74.0543 163.453 74.5104 163.311C74.946 163.175 75.2291 162.754 75.1918 162.298L75.1617 161.931C75.1265 161.502 75.3301 161.088 75.6913 160.854L77.0138 159.998C77.5999 159.618 77.6257 158.768 77.0637 158.354C76.5749 157.993 76.5181 157.282 76.9436 156.849L80.2559 153.472C80.5839 153.137 80.6808 152.639 80.5018 152.205L80.3455 151.826Z" fill="#BD9DFF"/>
<path d="M80.8268 135.281C80.4114 135.725 80.4047 136.413 80.8114 136.865L83.9258 140.322C84.1615 140.584 84.5617 140.611 84.8306 140.384C85.0966 140.159 85.4917 140.183 85.7287 140.438L89.8926 144.923C90.2241 145.28 90.7419 145.393 91.1915 145.206L93.0596 144.432C93.8948 144.085 94.0361 142.959 93.3125 142.416L82.891 134.595C82.4157 134.238 81.749 134.297 81.3426 134.731L80.8268 135.281Z" fill="#BD9DFF"/>
</svg>
