<svg width="114" height="142" viewBox="0 0 114 142" fill="none" xmlns="http://www.w3.org/2000/svg">
<g id="Vector">
<mask id="path-1-outside-1_847_20101" maskUnits="userSpaceOnUse" x="0" y="0" width="114" height="142" fill="black">
<rect fill="white" width="114" height="142"/>
<path d="M39.0486 3.85499L30.1459 19.0287L34.0938 27.0121L33.6963 29.2062L37.3263 31.4003L37.0614 32.1669L38.2537 33.5151L37.3263 34.784L39.1811 35.3656L39.5255 37.4011L36.9024 38.4585L34.3587 40.6526L32.504 48.2394L27.6022 56.2492L10.4327 49.5876L8.07449 52.469L7.9685 53.7379L8.49844 55.324L12.0489 59.5536L9.50529 64.6027L17.0302 68.0657L18.2226 66.3738L22.091 68.2508L21.3491 70.1012L16.9507 74.7273L16.8712 80.2522L11.36 86.676L9.74374 84.9048L9.34632 79.4063L11.784 74.4365L11.5455 72.4275L7.65056 72.0838L6.88217 73.432L4.524 72.7447L3.33166 73.3527L1.05298 76.71L1 87.892L1.68891 89.7424L4.97443 91.7779L4.31203 94.8973H8.71039V93.0468H9.95572L9.53179 96.4041L12.5524 97.8051L12.6318 104.308L13.4797 104.387L13.6387 108.511L19.3089 117.631L20.2363 115.358L25.1381 113.005L26.4894 113.745L27.0193 111.472L30.2253 109.199L31.7356 109.78L33.0869 112.239L36.399 110.282L38.7571 114.856L42.7316 113.931L47.5539 115.622L48.3223 112.662L49.6736 112.159L49.4881 115.94L53.383 114.512L52.8796 112.82L53.7275 112.582L56.5096 115.437L57.278 117.816L60.6695 117.975L61.5969 116.865L63.7166 116.706L64.8824 115.199L68.6979 116.865L74.2356 105.181L71.3475 100.792L84.8871 104.863L85.0461 107.718L80.4092 108.643L79.2169 109.992L81.7605 123.341L78.9784 126.461L76.8587 124.848L74.2356 126.276L73.1227 131.589L75.2954 133.334L76.6467 138.647L82.8998 141L93.0479 137.643L93.1274 130.796L89.153 121.597L91.0342 120.751L91.1137 119.403L89.4179 118.398L85.682 119.667L85.9469 121.015L82.4759 123.209L80.3562 110.547L81.2041 109.199L85.9469 108.273L85.523 103.964L70.7646 99.8406L74.2356 91.1435L81.2041 93.6813L90.1863 94.1042L91.9616 91.5664L96.1745 94.3421L99.301 98.3867L103.037 97.4615L107.091 94.6065L105.051 91.8308L107.25 85.6714L107.329 80.0143L105.66 75.7054L104.388 75.1238L107.541 73.2999L108.151 71.4494L107.223 66.6382L112.364 49.2439L111.834 43.4018L110.906 42.4766L111.41 37.9033L110.641 37.7447L110.138 32.8542L106.826 33.5151L105.819 35.7885L101.712 35.0483L100.705 35.8942L94.4522 29.8142L103.249 29.0476L103.752 23.1526L105.448 22.8089L102.401 13.5302L91.3256 2.71826L91.4051 1H90.2128L89.9743 3.11481L85.8144 7.39727L84.0392 7.50304L84.6486 8.66615L83.2708 9.77641L82.4494 8.50754L82.5289 14.7462L76.0108 16.0151L75.4279 23.9456L76.5143 25.9811L81.3366 26.2983L76.5143 30.9509L75.0835 31.7968L73.9706 30.4486L71.9569 30.1843L71.1885 27.9109L69.0688 26.8006L65.2799 31.2946L62.8952 31.7175L61.1199 28.8361L61.0405 30.5279L58.6823 32.3784L56.4831 31.7175L56.4036 33.0657L55.1318 32.6427L53.1711 34.1495L52.5882 36.2643L48.1898 38.0355L49.3821 30.6865L45.4077 15.5129L44.9043 10.1994L39.0486 3.85499Z"/>
</mask>
<path d="M39.0486 3.85499L30.1459 19.0287L34.0938 27.0121L33.6963 29.2062L37.3263 31.4003L37.0614 32.1669L38.2537 33.5151L37.3263 34.784L39.1811 35.3656L39.5255 37.4011L36.9024 38.4585L34.3587 40.6526L32.504 48.2394L27.6022 56.2492L10.4327 49.5876L8.07449 52.469L7.9685 53.7379L8.49844 55.324L12.0489 59.5536L9.50529 64.6027L17.0302 68.0657L18.2226 66.3738L22.091 68.2508L21.3491 70.1012L16.9507 74.7273L16.8712 80.2522L11.36 86.676L9.74374 84.9048L9.34632 79.4063L11.784 74.4365L11.5455 72.4275L7.65056 72.0838L6.88217 73.432L4.524 72.7447L3.33166 73.3527L1.05298 76.71L1 87.892L1.68891 89.7424L4.97443 91.7779L4.31203 94.8973H8.71039V93.0468H9.95572L9.53179 96.4041L12.5524 97.8051L12.6318 104.308L13.4797 104.387L13.6387 108.511L19.3089 117.631L20.2363 115.358L25.1381 113.005L26.4894 113.745L27.0193 111.472L30.2253 109.199L31.7356 109.78L33.0869 112.239L36.399 110.282L38.7571 114.856L42.7316 113.931L47.5539 115.622L48.3223 112.662L49.6736 112.159L49.4881 115.94L53.383 114.512L52.8796 112.82L53.7275 112.582L56.5096 115.437L57.278 117.816L60.6695 117.975L61.5969 116.865L63.7166 116.706L64.8824 115.199L68.6979 116.865L74.2356 105.181L71.3475 100.792L84.8871 104.863L85.0461 107.718L80.4092 108.643L79.2169 109.992L81.7605 123.341L78.9784 126.461L76.8587 124.848L74.2356 126.276L73.1227 131.589L75.2954 133.334L76.6467 138.647L82.8998 141L93.0479 137.643L93.1274 130.796L89.153 121.597L91.0342 120.751L91.1137 119.403L89.4179 118.398L85.682 119.667L85.9469 121.015L82.4759 123.209L80.3562 110.547L81.2041 109.199L85.9469 108.273L85.523 103.964L70.7646 99.8406L74.2356 91.1435L81.2041 93.6813L90.1863 94.1042L91.9616 91.5664L96.1745 94.3421L99.301 98.3867L103.037 97.4615L107.091 94.6065L105.051 91.8308L107.25 85.6714L107.329 80.0143L105.66 75.7054L104.388 75.1238L107.541 73.2999L108.151 71.4494L107.223 66.6382L112.364 49.2439L111.834 43.4018L110.906 42.4766L111.41 37.9033L110.641 37.7447L110.138 32.8542L106.826 33.5151L105.819 35.7885L101.712 35.0483L100.705 35.8942L94.4522 29.8142L103.249 29.0476L103.752 23.1526L105.448 22.8089L102.401 13.5302L91.3256 2.71826L91.4051 1H90.2128L89.9743 3.11481L85.8144 7.39727L84.0392 7.50304L84.6486 8.66615L83.2708 9.77641L82.4494 8.50754L82.5289 14.7462L76.0108 16.0151L75.4279 23.9456L76.5143 25.9811L81.3366 26.2983L76.5143 30.9509L75.0835 31.7968L73.9706 30.4486L71.9569 30.1843L71.1885 27.9109L69.0688 26.8006L65.2799 31.2946L62.8952 31.7175L61.1199 28.8361L61.0405 30.5279L58.6823 32.3784L56.4831 31.7175L56.4036 33.0657L55.1318 32.6427L53.1711 34.1495L52.5882 36.2643L48.1898 38.0355L49.3821 30.6865L45.4077 15.5129L44.9043 10.1994L39.0486 3.85499Z" fill="#D6D6D6"/>
<path d="M39.0486 3.85499L30.1459 19.0287L34.0938 27.0121L33.6963 29.2062L37.3263 31.4003L37.0614 32.1669L38.2537 33.5151L37.3263 34.784L39.1811 35.3656L39.5255 37.4011L36.9024 38.4585L34.3587 40.6526L32.504 48.2394L27.6022 56.2492L10.4327 49.5876L8.07449 52.469L7.9685 53.7379L8.49844 55.324L12.0489 59.5536L9.50529 64.6027L17.0302 68.0657L18.2226 66.3738L22.091 68.2508L21.3491 70.1012L16.9507 74.7273L16.8712 80.2522L11.36 86.676L9.74374 84.9048L9.34632 79.4063L11.784 74.4365L11.5455 72.4275L7.65056 72.0838L6.88217 73.432L4.524 72.7447L3.33166 73.3527L1.05298 76.71L1 87.892L1.68891 89.7424L4.97443 91.7779L4.31203 94.8973H8.71039V93.0468H9.95572L9.53179 96.4041L12.5524 97.8051L12.6318 104.308L13.4797 104.387L13.6387 108.511L19.3089 117.631L20.2363 115.358L25.1381 113.005L26.4894 113.745L27.0193 111.472L30.2253 109.199L31.7356 109.78L33.0869 112.239L36.399 110.282L38.7571 114.856L42.7316 113.931L47.5539 115.622L48.3223 112.662L49.6736 112.159L49.4881 115.94L53.383 114.512L52.8796 112.82L53.7275 112.582L56.5096 115.437L57.278 117.816L60.6695 117.975L61.5969 116.865L63.7166 116.706L64.8824 115.199L68.6979 116.865L74.2356 105.181L71.3475 100.792L84.8871 104.863L85.0461 107.718L80.4092 108.643L79.2169 109.992L81.7605 123.341L78.9784 126.461L76.8587 124.848L74.2356 126.276L73.1227 131.589L75.2954 133.334L76.6467 138.647L82.8998 141L93.0479 137.643L93.1274 130.796L89.153 121.597L91.0342 120.751L91.1137 119.403L89.4179 118.398L85.682 119.667L85.9469 121.015L82.4759 123.209L80.3562 110.547L81.2041 109.199L85.9469 108.273L85.523 103.964L70.7646 99.8406L74.2356 91.1435L81.2041 93.6813L90.1863 94.1042L91.9616 91.5664L96.1745 94.3421L99.301 98.3867L103.037 97.4615L107.091 94.6065L105.051 91.8308L107.25 85.6714L107.329 80.0143L105.66 75.7054L104.388 75.1238L107.541 73.2999L108.151 71.4494L107.223 66.6382L112.364 49.2439L111.834 43.4018L110.906 42.4766L111.41 37.9033L110.641 37.7447L110.138 32.8542L106.826 33.5151L105.819 35.7885L101.712 35.0483L100.705 35.8942L94.4522 29.8142L103.249 29.0476L103.752 23.1526L105.448 22.8089L102.401 13.5302L91.3256 2.71826L91.4051 1H90.2128L89.9743 3.11481L85.8144 7.39727L84.0392 7.50304L84.6486 8.66615L83.2708 9.77641L82.4494 8.50754L82.5289 14.7462L76.0108 16.0151L75.4279 23.9456L76.5143 25.9811L81.3366 26.2983L76.5143 30.9509L75.0835 31.7968L73.9706 30.4486L71.9569 30.1843L71.1885 27.9109L69.0688 26.8006L65.2799 31.2946L62.8952 31.7175L61.1199 28.8361L61.0405 30.5279L58.6823 32.3784L56.4831 31.7175L56.4036 33.0657L55.1318 32.6427L53.1711 34.1495L52.5882 36.2643L48.1898 38.0355L49.3821 30.6865L45.4077 15.5129L44.9043 10.1994L39.0486 3.85499Z" stroke="#F6F6F6" stroke-width="2" stroke-linecap="round" stroke-linejoin="round" mask="url(#path-1-outside-1_847_20101)"/>
</g>
</svg>
