<svg width="245" height="200" viewBox="0 0 245 200" fill="none" xmlns="http://www.w3.org/2000/svg">
<path d="M41.5681 21.9941C41.1131 21.5063 40.3171 21.5924 39.9768 22.1661L31.4227 36.5897C31.2493 36.8821 31.2363 37.2427 31.3884 37.5469L35.2138 45.1998C35.3107 45.3936 35.342 45.6138 35.3029 45.827L35.0633 47.1356C34.9882 47.546 35.1757 47.9599 35.5337 48.174L38.3897 49.8818C38.6386 50.0306 38.7486 50.3339 38.653 50.6077C38.5797 50.8176 38.6261 51.0507 38.7743 51.2165L39.4012 51.9178C39.6383 52.183 39.6567 52.5782 39.4453 52.8644C39.1382 53.2801 39.3332 53.8745 39.8268 54.0277L40.2132 54.1475C40.5727 54.2591 40.8392 54.563 40.9026 54.934L41.0308 55.6834C41.1104 56.1486 40.8539 56.6061 40.4156 56.7809L38.5175 57.5378C38.416 57.5783 38.3219 57.6351 38.2388 57.706L35.8907 59.7097C35.7317 59.8454 35.6192 60.0276 35.5691 60.2305L33.702 67.7863C33.677 67.8873 33.6364 67.9839 33.5816 68.0724L28.862 75.702C28.6093 76.1106 28.1017 76.2817 27.6532 76.1096L10.7503 69.6216C10.3495 69.4677 9.89512 69.5869 9.62144 69.9177L7.75919 72.1688C7.62924 72.3259 7.5504 72.519 7.53325 72.7221L7.46383 73.5443C7.45229 73.681 7.46898 73.8185 7.51286 73.9484L7.95142 75.2471C7.99185 75.3668 8.0546 75.4777 8.13635 75.5741L11.3759 79.3919C11.6367 79.6994 11.6875 80.1334 11.5045 80.4927L9.56259 84.3062C9.30419 84.8136 9.52108 85.4341 10.0394 85.67L16.379 88.5564C16.8148 88.7548 17.33 88.6164 17.6078 88.2265L17.9152 87.795C18.1974 87.3988 18.7238 87.2632 19.1623 87.4737L21.6904 88.6872C22.1664 88.9156 22.3827 89.4749 22.1844 89.9643L21.8168 90.8714C21.769 90.9893 21.6992 91.097 21.611 91.1887L17.3176 95.6561C17.1421 95.8387 17.0424 96.0812 17.0388 96.3345L16.9649 101.416C16.9614 101.652 16.8749 101.879 16.7204 102.057L11.8029 107.727C11.4122 108.178 10.7167 108.188 10.3124 107.75L9.58016 106.956C9.42681 106.79 9.33434 106.577 9.31786 106.351L8.93854 101.159C8.92551 100.981 8.96053 100.802 9.03995 100.642L11.391 95.9001C11.4774 95.7258 11.5111 95.53 11.4879 95.3368L11.3654 94.3155C11.309 93.8456 10.9309 93.4796 10.4595 93.4384L7.74177 93.2012C7.35434 93.1674 6.98245 93.3612 6.78832 93.6982L6.67649 93.8923C6.44687 94.2909 5.97495 94.4814 5.53296 94.354L4.14272 93.9531C3.90034 93.8832 3.6405 93.9075 3.41527 94.0211L2.7206 94.3716C2.57033 94.4474 2.44163 94.5599 2.34641 94.6987L0.23054 97.7827C0.117208 97.9479 0.0561038 98.1433 0.0551443 98.3437L0.000883206 109.673C0.000299324 109.795 0.0220115 109.916 0.0649487 110.03L0.615309 111.492C0.693627 111.7 0.839077 111.876 1.02866 111.993L3.64318 113.595C4.00494 113.817 4.18739 114.243 4.09834 114.658L3.79884 116.053C3.66519 116.676 4.13978 117.263 4.77657 117.263H7.26099C7.80119 117.263 8.23911 116.825 8.23911 116.285V115.93C8.23911 115.586 8.51806 115.307 8.86217 115.307C9.2376 115.307 9.52776 115.636 9.48023 116.009L9.20987 118.127C9.15451 118.56 9.38736 118.98 9.78476 119.162L11.7695 120.073C12.1206 120.234 12.3476 120.583 12.3523 120.969L12.4238 126.75C12.427 127.013 12.6276 127.23 12.8885 127.254C13.1443 127.278 13.3429 127.487 13.353 127.744L13.4949 131.388C13.5018 131.563 13.5544 131.733 13.6475 131.881L18.5324 139.654C18.9648 140.342 19.9938 140.254 20.3036 139.503L20.4083 139.249C20.5029 139.02 20.6795 138.834 20.9038 138.727L25.3783 136.603C25.6391 136.479 25.9433 136.487 26.1972 136.624C26.7212 136.908 27.3718 136.617 27.5085 136.037L27.7162 135.155C27.7724 134.917 27.9144 134.707 28.1152 134.566L30.7949 132.686C31.0666 132.496 31.4151 132.452 31.7252 132.57L32.5023 132.866C32.7225 132.95 32.906 133.109 33.0204 133.315L33.7909 134.702C34.0632 135.192 34.6853 135.363 35.1695 135.08L36.9201 134.057C37.4134 133.768 38.0474 133.951 38.3114 134.458L39.9887 137.676C40.1992 138.08 40.6561 138.29 41.0999 138.188L44.3127 137.448C44.496 137.406 44.6874 137.416 44.865 137.478L48.7252 138.818C49.2758 139.009 49.8725 138.691 50.0204 138.127L50.467 136.424C50.5298 136.185 50.7056 135.991 50.9378 135.906C51.4466 135.719 51.9814 136.112 51.9545 136.654L51.8875 138.005C51.8521 138.719 52.5552 139.238 53.2271 138.995L55.1309 138.305C55.6045 138.133 55.8615 137.621 55.7164 137.139L55.6089 136.781C55.5146 136.468 55.6965 136.138 56.012 136.05C56.2164 135.994 56.4354 136.052 56.5843 136.203L59.1508 138.809C59.2594 138.919 59.341 139.053 59.389 139.2L59.9227 140.835C60.0517 141.23 60.4118 141.504 60.8271 141.524L63.2688 141.637C63.5792 141.651 63.8786 141.52 64.0791 141.283L64.4809 140.807C64.6544 140.601 64.9031 140.474 65.1712 140.455L66.5759 140.351C66.8569 140.33 67.1161 140.191 67.2897 139.969L67.7874 139.333C68.0675 138.975 68.5541 138.851 68.9716 139.031L71.4572 140.104C71.9502 140.317 72.5234 140.103 72.7555 139.618L78.0118 128.646C78.1641 128.328 78.1378 127.954 77.9426 127.66L76.7014 125.795C76.1833 125.016 76.9226 124.016 77.8191 124.282L88.9655 127.598C89.3698 127.718 89.6551 128.079 89.6788 128.5L89.7603 129.948C89.7883 130.446 89.445 130.888 88.9556 130.985L85.183 131.73C84.9698 131.772 84.776 131.882 84.6312 132.044L83.9104 132.851C83.7024 133.083 83.615 133.4 83.674 133.706L86.2042 146.843C86.2635 147.151 86.1749 147.469 85.965 147.702L83.9383 149.95C83.5914 150.335 83.0082 150.391 82.5942 150.08L81.572 149.31C81.2602 149.076 80.8403 149.044 80.4967 149.229L78.6657 150.214C78.4068 150.354 78.2223 150.6 78.1614 150.888L77.1964 155.446C77.1179 155.817 77.2559 156.2 77.5527 156.436L79.1271 157.687C79.2977 157.822 79.4193 158.01 79.4736 158.221L80.7039 163.007C80.7853 163.324 81.0168 163.581 81.3235 163.695L87.1882 165.878C87.4003 165.957 87.633 165.962 87.8481 165.891L97.6793 162.674C98.0862 162.54 98.3631 162.163 98.3682 161.735L98.4422 155.428C98.4438 155.286 98.4154 155.146 98.3587 155.016L94.5952 146.398C94.3752 145.894 94.603 145.308 95.1052 145.084L95.6524 144.841C95.9937 144.689 96.2219 144.36 96.2441 143.987L96.2564 143.781C96.2788 143.405 96.0884 143.049 95.7638 142.858L94.8735 142.337C94.6241 142.19 94.3235 142.159 94.0494 142.251L91.2605 143.189C90.8192 143.337 90.5566 143.79 90.6474 144.246C90.7223 144.624 90.5562 145.008 90.2302 145.212L88.3297 146.4C87.726 146.778 86.9323 146.421 86.8135 145.719L84.8619 134.186C84.8206 133.942 84.8712 133.691 85.004 133.482L85.4726 132.745C85.6201 132.513 85.8569 132.352 86.127 132.3L89.8759 131.576C90.3835 131.478 90.7327 131.01 90.6815 130.495L90.3867 127.53C90.3458 127.119 90.0563 126.776 89.658 126.665L75.6287 122.787C75.053 122.628 74.7443 122.003 74.9677 121.449L77.8972 114.188C78.0983 113.689 78.6577 113.439 79.1635 113.621L85.562 115.926C85.656 115.96 85.7545 115.98 85.8544 115.984L94.755 116.399C95.0958 116.415 95.4211 116.256 95.618 115.977L96.643 114.528C96.9534 114.089 97.5552 113.974 98.0056 114.267L101.561 116.585C101.654 116.645 101.735 116.72 101.803 116.807L104.644 120.442C104.886 120.752 105.287 120.891 105.67 120.798L108.853 120.018C108.972 119.989 109.086 119.937 109.187 119.867L112.52 117.545C112.983 117.222 113.087 116.581 112.751 116.128L111.506 114.452C111.306 114.183 111.254 113.832 111.368 113.516L113.479 107.667C113.516 107.563 113.536 107.453 113.538 107.342L113.618 101.726C113.62 101.596 113.596 101.467 113.549 101.347L111.93 97.2133C111.87 97.0601 111.753 96.9363 111.603 96.8685C111.134 96.6563 111.103 96.0018 111.55 95.7461L113.516 94.621C113.729 94.4988 113.89 94.3023 113.968 94.0689L114.415 92.7243C114.47 92.5609 114.481 92.3862 114.448 92.2172L113.554 87.6306C113.523 87.4719 113.531 87.308 113.578 87.1531L118.945 69.1859C118.981 69.0636 118.994 68.9354 118.982 68.8084L118.467 63.1885C118.446 62.9536 118.342 62.7339 118.174 62.5681L117.788 62.1872C117.57 61.9722 117.463 61.6692 117.496 61.3649L117.929 57.474C117.958 57.2124 117.783 56.9718 117.525 56.9191C117.308 56.8746 117.144 56.6941 117.121 56.4731L116.735 52.7642C116.674 52.1791 116.124 51.7727 115.547 51.8867L113.59 52.2729C113.272 52.3358 113.004 52.5492 112.871 52.8454L112.326 54.0634C112.138 54.4824 111.69 54.7199 111.238 54.6393L108.076 54.0755C107.786 54.0238 107.487 54.1026 107.261 54.2909L107.23 54.3165C106.838 54.642 106.265 54.6212 105.898 54.2682L101.449 49.9884C100.829 49.3928 101.2 48.3452 102.056 48.2714L108.422 47.7226C108.907 47.6808 109.291 47.2967 109.333 46.8122L109.735 42.1526C109.772 41.7175 110.093 41.3594 110.521 41.2736C111.1 41.1575 111.446 40.5608 111.26 40.0005L108.432 31.4797C108.381 31.3263 108.294 31.1876 108.177 31.0754L96.8447 20.1307C96.6379 19.9309 96.5271 19.6518 96.5405 19.3646L96.5722 18.6873C96.5897 18.313 96.291 18 95.9163 18C95.5824 18 95.3017 18.2505 95.2639 18.5823L95.1144 19.8938C95.0892 20.1153 94.9906 20.3221 94.8344 20.4812L90.8946 24.4936C90.7245 24.6669 90.4961 24.7707 90.2537 24.785L89.6392 24.8212C89.2153 24.8462 88.9593 25.3013 89.158 25.6766C89.2894 25.9246 89.2256 26.2309 89.0062 26.4058L88.2159 27.0358C88.053 27.1657 87.8137 27.1273 87.6996 26.953C87.5059 26.6569 87.0456 26.7974 87.0501 27.1511L87.1087 31.6951C87.1149 32.1793 86.7733 32.5984 86.2979 32.6899L80.9059 33.7284C80.4624 33.8138 80.1312 34.1858 80.0977 34.6362L79.5532 41.9652C79.539 42.1556 79.5797 42.3461 79.6703 42.5141L80.4296 43.9214C80.5931 44.2245 80.9011 44.4222 81.2447 44.4445L83.5715 44.596C84.4406 44.6525 84.8271 45.7159 84.197 46.3172L80.777 49.5816C80.7208 49.6353 80.6585 49.6822 80.5914 49.7214L79.894 50.1294C79.4723 50.376 78.9342 50.2819 78.6213 49.9068L78.2251 49.432C78.0639 49.2388 77.8357 49.1134 77.5861 49.081L76.439 48.932C76.0615 48.883 75.7446 48.6239 75.6215 48.2636L75.1312 46.8285C75.0479 46.5847 74.8737 46.3825 74.645 46.2639L73.442 45.6406C73.0289 45.4265 72.5227 45.5257 72.2209 45.8798L68.9212 49.7516C68.7702 49.9288 68.5622 50.0477 68.3329 50.0879L66.7539 50.365C66.3826 50.4301 66.0089 50.2632 65.8096 49.9432L65.0701 48.7558C64.817 48.3493 64.1909 48.5124 64.1682 48.9907C64.1614 49.1332 64.0926 49.2656 63.9799 49.3531L62.0434 50.8564C61.7887 51.0541 61.4543 51.1169 61.1452 51.025L59.9618 50.6732C59.6172 50.5708 59.2672 50.816 59.2458 51.1748C59.224 51.5402 58.8622 51.786 58.5145 51.6716L58.2353 51.5797C57.9901 51.4991 57.721 51.5442 57.5155 51.7004L56.0163 52.8402C55.8426 52.9723 55.7168 53.1576 55.6582 53.3679L55.2586 54.8022C55.1748 55.1029 54.9554 55.3473 54.6654 55.4628L52.0688 56.4972C51.3462 56.7851 50.586 56.174 50.7119 55.4064L51.6651 49.594C51.688 49.4548 51.6811 49.3125 51.645 49.1762L47.4737 33.4213C47.4598 33.3686 47.4502 33.3149 47.445 33.2607L46.9472 28.0634C46.9262 27.844 46.8333 27.6377 46.683 27.4766L41.5681 21.9941Z" fill="#90CCFF"/>
</svg>
